<?xml version="1.0" encoding="UTF-8" standalone="no"?>
<!-- Created with Inkscape (http://www.inkscape.org/) -->

<svg
   xmlns:dc="http://purl.org/dc/elements/1.1/"
   xmlns:cc="http://creativecommons.org/ns#"
   xmlns:rdf="http://www.w3.org/1999/02/22-rdf-syntax-ns#"
   xmlns:svg="http://www.w3.org/2000/svg"
   xmlns="http://www.w3.org/2000/svg"
   xmlns:sodipodi="http://sodipodi.sourceforge.net/DTD/sodipodi-0.dtd"
   xmlns:inkscape="http://www.inkscape.org/namespaces/inkscape"
   width="1052.3622"
   height="744.09448"
   id="svg2"
   version="1.1"
   inkscape:version="0.48.4 r9939"
   sodipodi:docname="Nuevo documento 1">
  <defs
     id="defs4">
    <inkscape:path-effect
       fuse_tolerance="0"
       vertical_pattern="false"
       prop_units="false"
       tang_offset="0"
       normal_offset="0"
       spacing="0"
       scale_y_rel="false"
       prop_scale="1"
       copytype="single_stretched"
       pattern="m -2,307.2677 c 0,-2.76 2.24,-5 5,-5 2.76,0 5,2.24 5,5 0,2.76 -2.24,5 -5,5 -2.76,0 -5,-2.24 -5,-5 z"
       is_visible="true"
       id="path-effect3131"
       effect="skeletal" />
    <inkscape:path-effect
       is_visible="true"
       id="path-effect3129"
       effect="spiro" />
    <inkscape:path-effect
       fuse_tolerance="0"
       vertical_pattern="false"
       prop_units="false"
       tang_offset="0"
       normal_offset="0"
       spacing="0"
       scale_y_rel="false"
       prop_scale="1"
       copytype="single_stretched"
       pattern="m 10,1 c 0,-2.76 2.24,-5 5,-5 2.76,0 5,2.24 5,5 0,2.76 -2.24,5 -5,5 -2.76,0 -5,-2.24 -5,-5 z"
       is_visible="true"
       id="path-effect3125"
       effect="skeletal" />
    <inkscape:path-effect
       is_visible="true"
       id="path-effect3123"
       effect="spiro" />
    <inkscape:path-effect
       fuse_tolerance="0"
       vertical_pattern="false"
       prop_units="false"
       tang_offset="0"
       normal_offset="0"
       spacing="0"
       scale_y_rel="false"
       prop_scale="1"
       copytype="single_stretched"
       pattern="m 6,309.2677 c 0,-2.76 2.24,-5 5,-5 2.76,0 5,2.24 5,5 0,2.76 -2.24,5 -5,5 -2.76,0 -5,-2.24 -5,-5 z"
       is_visible="true"
       id="path-effect3119"
       effect="skeletal" />
    <inkscape:path-effect
       is_visible="true"
       id="path-effect3117"
       effect="spiro" />
    <inkscape:path-effect
       effect="skeletal"
       id="path-effect3113"
       is_visible="true"
       pattern="M 0,5 C 0,2.24 2.24,0 5,0 7.76,0 10,2.24 10,5 10,7.76 7.76,10 5,10 2.24,10 0,7.76 0,5 z"
       copytype="single_stretched"
       prop_scale="1"
       scale_y_rel="false"
       spacing="0"
       normal_offset="0"
       tang_offset="0"
       prop_units="false"
       vertical_pattern="false"
       fuse_tolerance="0" />
    <inkscape:path-effect
       effect="spiro"
       id="path-effect3111"
       is_visible="true" />
    <inkscape:path-effect
       effect="skeletal"
       id="path-effect3107"
       is_visible="true"
       pattern="M 0,5 C 0,2.24 2.24,0 5,0 7.76,0 10,2.24 10,5 10,7.76 7.76,10 5,10 2.24,10 0,7.76 0,5 z"
       copytype="single_stretched"
       prop_scale="1"
       scale_y_rel="false"
       spacing="0"
       normal_offset="0"
       tang_offset="0"
       prop_units="false"
       vertical_pattern="false"
       fuse_tolerance="0" />
    <inkscape:path-effect
       effect="spiro"
       id="path-effect3105"
       is_visible="true" />
    <inkscape:path-effect
       effect="skeletal"
       id="path-effect3101"
       is_visible="true"
       pattern="M 0,0 0,10 10,5 z"
       copytype="single_stretched"
       prop_scale="1"
       scale_y_rel="false"
       spacing="0"
       normal_offset="0"
       tang_offset="0"
       prop_units="false"
       vertical_pattern="false"
       fuse_tolerance="0" />
    <inkscape:path-effect
       effect="spiro"
       id="path-effect3099"
       is_visible="true" />
  </defs>
  <sodipodi:namedview
     id="base"
     pagecolor="#ffffff"
     bordercolor="#666666"
     borderopacity="1.0"
     inkscape:pageopacity="0.0"
     inkscape:pageshadow="2"
     inkscape:zoom="0.72050781"
     inkscape:cx="479.25482"
     inkscape:cy="405.42447"
     inkscape:document-units="px"
     inkscape:current-layer="layer1"
     showgrid="false"
     inkscape:window-width="1366"
     inkscape:window-height="709"
     inkscape:window-x="0"
     inkscape:window-y="27"
     inkscape:window-maximized="1" />
  <metadata
     id="metadata7">
    <rdf:RDF>
      <cc:Work
         rdf:about="">
        <dc:format>image/svg+xml</dc:format>
        <dc:type
           rdf:resource="http://purl.org/dc/dcmitype/StillImage" />
        <dc:title></dc:title>
      </cc:Work>
    </rdf:RDF>
  </metadata>
  <g
     inkscape:label="Capa 1"
     inkscape:groupmode="layer"
     id="layer1"
     transform="translate(0,-308.2677)">
    <g
       id="g3916"
       inkscape:export-xdpi="90"
       inkscape:export-ydpi="90">
      <path
         style="fill:#ffe6d5;fill-opacity:1;fill-rule:evenodd;stroke:none"
         d="m 253.40228,530.02641 c -0.22101,-0.0694 0.11541,-2.04471 1.22877,-5.74474 1.11337,-3.70002 3.01788,-9.13298 6.29626,-15.87656 3.27839,-6.74358 7.94867,-14.81143 14.71199,-23.37158 3.38166,-4.28007 7.28673,-8.67553 11.79176,-13.02662 4.50503,-4.3511 9.61061,-8.6583 15.37447,-12.71559 10.25561,-7.21479 22.59667,-13.61737 36.79106,-18.02731 7.0972,-2.20497 14.6488,-3.90806 22.5646,-4.93944 7.91581,-1.03138 16.19612,-1.39104 24.70324,-0.89447 10.80017,0.63342 21.93805,2.63461 33.00484,6.18863 11.06679,3.55403 22.06299,8.66137 32.43747,15.4549 8.68409,6.22016 16.79602,13.78662 23.94562,22.58721 7.14961,8.8006 13.33684,18.83551 18.10705,29.90723 -0.76274,-13.47058 0.0288,-27.24899 2.44229,-40.96462 2.41345,-13.71563 6.44887,-27.36827 12.1209,-40.50511 5.98242,-12.40129 13.42551,-24.38585 22.28705,-35.53286 8.86154,-11.147 19.14148,-21.45608 30.75548,-30.45309 11.02167,-8.52492 23.18185,-15.81657 36.169,-21.68603 12.98715,-5.86946 26.80092,-10.31657 41.07401,-13.15423 22.83435,-4.55118 46.93083,-4.99407 70.52388,-0.62951 4.78688,0.88554 9.52738,1.96429 14.2069,3.2357 28.05005,7.64446 53.51813,22.10049 74.36256,40.68377 10.89043,9.69973 20.55146,20.54839 28.76841,32.18913 8.21696,11.64075 14.98963,24.07327 20.15649,36.97095 5.4685,13.68007 9.10286,27.79734 11.08697,41.89294 1.98411,14.0956 2.31813,28.16923 1.19484,41.8368 -1.21032,14.80662 -4.13328,29.16536 -8.50572,42.68889 -4.37244,13.52353 -10.19415,26.21179 -17.19862,37.7873 -7.07903,11.65221 -15.1121,22.07995 -23.31208,31.79982 -8.19998,9.71986 -16.56736,18.73163 -24.52749,27.41475 -9.22705,10.10419 -18.00105,19.87024 -25.69766,29.60431 -7.69661,9.73407 -14.31902,19.43455 -19.59305,29.21334 0,10e-6 0,2e-5 -1e-5,3e-5 -5.82881,10.7671 -9.98013,21.57438 -12.88751,31.88888 -2.90739,10.3145 -4.5722,20.1397 -5.41968,29.15863 -0.96185,10.25569 -0.87216,19.48303 -0.30865,27.45602 0.56351,7.97299 1.59786,14.69919 2.62258,20.10938 1.02472,5.41019 2.03663,9.51104 2.69883,12.28233 0.6622,2.77129 0.9714,4.21755 0.78289,4.28227 -0.18851,0.0647 -0.87001,-1.25424 -1.9075,-3.93144 -1.03749,-2.6772 -2.42812,-6.71723 -3.8335,-12.12567 -1.40539,-5.40845 -2.8226,-12.19201 -3.7554,-20.30127 -0.93279,-8.10925 -1.37825,-17.55176 -0.72625,-28.1148 0.57178,-9.28946 1.99572,-19.45609 4.72948,-30.18709 2.73377,-10.731 6.77883,-22.02983 12.60962,-33.3635 10e-6,-1e-5 10e-6,-2e-5 2e-5,-3e-5 5.29583,-10.25639 11.94248,-20.41235 19.63401,-30.51953 7.69154,-10.10718 16.43101,-20.16373 25.55777,-30.40745 7.83979,-8.83342 16.02716,-17.89307 23.95996,-27.51502 7.93281,-9.62194 15.61145,-19.80582 22.22133,-31.02477 6.55793,-11.08424 11.98278,-23.22779 16.03139,-36.15514 4.04861,-12.92735 6.72084,-26.63847 7.77583,-40.74915 0.96785,-13.0261 0.55924,-26.41899 -1.40262,-39.79837 -1.96185,-13.37938 -5.47706,-26.74496 -10.71585,-39.64254 -4.9311,-12.16744 -11.39577,-23.90904 -19.2272,-34.91149 -7.83143,-11.00244 -17.02937,-21.26545 -27.37598,-30.44395 -19.82085,-17.56524 -43.97396,-31.24607 -70.42157,-38.42115 -4.41027,-1.20036 -8.88235,-2.21889 -13.4019,-3.05529 -22.27546,-4.12232 -45.11475,-3.71394 -66.77315,0.55248 -13.53539,2.67342 -26.6453,6.8592 -38.966,12.38052 -12.3207,5.52133 -23.85182,12.37809 -34.28434,20.39414 -11.00631,8.44302 -20.78671,18.16593 -29.2491,28.70479 -8.46238,10.53885 -15.60664,21.89332 -21.38021,33.65329 -6.95831,12.82136 -12.31131,26.1294 -16.04695,39.48176 -3.73565,13.35236 -5.85396,26.74886 -6.39595,39.82968 -5.83788,-10.04154 -12.95058,-19.18062 -20.89796,-27.20741 -7.94739,-8.02678 -16.72946,-14.94141 -25.97193,-20.61797 -9.67159,-6.50976 -19.98254,-11.4691 -30.39526,-14.97967 -10.41272,-3.51058 -20.92774,-5.57279 -31.14798,-6.34146 -8.04395,-0.60742 -15.91258,-0.40492 -23.46453,0.43705 -7.55196,0.84198 -14.78755,2.32343 -21.61272,4.28736 -13.65035,3.92788 -25.62335,9.77263 -35.65491,16.43735 -5.64016,3.7448 -10.6785,7.74977 -15.1604,11.81492 -4.48189,4.06516 -8.4079,8.19095 -11.84389,12.22143 -6.87198,8.06095 -11.7827,15.71209 -15.36909,22.12435 -3.58638,6.41226 -5.86687,11.5989 -7.38549,15.10722 -1.51861,3.50832 -2.29051,5.34575 -2.51152,5.27637 z"
         id="path3127"
         inkscape:path-effect="#path-effect3129;#path-effect3131"
         inkscape:original-d="m 253.40228,530.02641 c -0.9814,-77.53064 92.01352,-132.37001 133.23235,-91.15118 41.21882,41.21882 107.95406,71.64224 107.95406,71.64224 0,0 318.95518,-33.36763 335.639,91.27026 19.69619,147.14207 9.814,-7.85121 -92.25166,118.74946 -102.06566,126.60068 -9.81401,126.60067 -9.81401,126.60067"
         inkscape:connector-curvature="0"
         sodipodi:nodetypes="cscssc" />
      <g
         inkscape:export-ydpi="90"
         inkscape:export-xdpi="90"
         id="g3901">
        <g
           id="g3067"
           transform="matrix(0.91607407,-0.40100911,0.39055547,0.92065012,-166.34072,113.65341)"
           style="fill:#ffc8c0;fill-opacity:1">
          <path
             d="m 359.78116,697.19704 c -0.21465,0.78641 -0.71508,2.07322 -1.50129,3.86045 -0.78656,1.71576 -1.78741,3.68173 -3.00256,5.8979 -1.14401,2.21618 -2.46657,4.5396 -3.96768,6.97024 -1.50146,2.35916 -3.07423,4.50385 -4.71832,6.43408 -1.64443,2.0017 -3.36018,3.61022 -5.14726,4.82555 -1.7874,1.2868 -3.50315,1.93021 -5.14726,1.93022 -2.50229,-1e-5 -4.64698,-1.14384 -6.43407,-3.4315 -1.7159,-2.28768 -3.10995,-5.14727 -4.18215,-8.57877 -1.07249,-3.4315 -1.85888,-7.18471 -2.35916,-11.25963 -0.42908,-4.07489 -0.64355,-7.89959 -0.64341,-11.47409 -1.4e-4,-11.08087 0.71476,-22.01879 2.14469,-32.81378 1.42965,-10.86636 3.28838,-21.62555 5.5762,-32.2776 2.35901,-10.65186 5.00412,-21.19658 7.93536,-31.63419 3.0024,-10.50886 6.00497,-20.94634 9.0077,-31.31249 -1.50145,1.5e-4 -3.61039,1.78739 -6.32684,5.36173 -2.64528,3.57463 -5.68359,8.29294 -9.11494,14.15496 -3.43165,5.86228 -7.14911,12.58231 -11.15239,20.1601 -4.00356,7.57801 -8.04272,15.37038 -12.1175,23.37713 -4.07504,7.93543 -8.11421,15.79929 -12.11751,23.5916 -4.00353,7.72094 -7.72099,14.72693 -11.15239,21.01797 -0.35756,0.64345 -0.82224,1.46558 -1.39405,2.4664 -0.57202,0.9294 -1.25117,1.82302 -2.03746,2.68086 -0.715,0.85791 -1.53713,1.60855 -2.46639,2.25193 -0.92947,0.64344 -1.89458,0.96514 -2.89533,0.96511 -1.07245,3e-5 -1.82309,-0.35742 -2.25193,-1.07235 -0.42903,-0.71486 -0.71499,-1.67997 -0.85788,-2.89533 -0.35754,-4.21785 -0.67924,-8.97191 -0.96511,-14.2622 -0.28605,-5.36167 -0.60775,-10.79488 -0.96511,-16.29965 -0.28605,-5.57612 -0.60775,-11.04508 -0.96511,-16.40688 -0.35754,-5.43313 -0.75073,-10.36592 -1.17958,-14.79837 -0.42903,-4.50375 -0.92945,-8.2927 -1.50128,-11.36687 -0.57201,-3.14543 -1.25116,-5.21863 -2.03746,-6.2196 -9e-5,0.57203 0.0357,1.21544 0.10723,1.93022 -8e-5,0.57203 -8e-5,1.28693 0,2.14469 0.0714,0.85799 0.10715,1.78736 0.10724,2.7881 -9e-5,3.57459 -0.35754,7.97121 -1.07235,13.18985 -0.71498,5.21884 -1.78732,10.90227 -3.21703,17.0503 -1.42988,6.07669 -3.21712,12.43927 -5.36173,19.08775 -2.07328,6.5771 -4.50392,13.04691 -7.29195,19.40945 -2.78817,6.36262 -5.89796,12.43924 -9.32941,18.22987 -3.43156,5.7192 -7.22051,10.75922 -11.36686,15.12008 -4.14645,4.28938 -8.61455,7.68514 -13.40432,10.18728 -4.71835,2.57362 -9.75837,3.86044 -15.12007,3.86044 -3.64599,0 -6.6843,-0.7149 -9.11494,-2.14469 -2.43066,-1.35831 -4.39662,-3.00257 -5.8979,-4.93279 -1.50128,-2.00171 -2.64512,-4.03916 -3.4315,-6.11237 -0.78639,-2.14468 -1.35831,-3.89618 -1.71576,-5.25449 l 1.07235,-0.42894 c 0.85787,2.07321 2.03745,3.78896 3.53874,5.14726 1.50128,1.35831 3.14554,2.43065 4.93279,3.21704 1.85872,0.78639 3.78894,1.3583 5.79067,1.71575 2.07318,0.28596 4.14638,0.42894 6.2196,0.42894 4.71829,0 9.22214,-1.07234 13.51155,-3.21704 4.28935,-2.21617 8.29277,-5.18299 12.01027,-8.90047 3.78891,-3.78893 7.2919,-8.18555 10.50899,-13.18985 3.28846,-5.07573 6.25528,-10.4732 8.90047,-16.19241 2.71654,-5.71913 5.07569,-11.61703 7.07748,-17.69371 2.07312,-6.14804 3.78887,-12.18892 5.14726,-18.12264 1.42971,-5.93355 2.46631,-11.61698 3.1098,-17.05029 0.71481,-5.43311 1.03652,-10.33015 0.96511,-14.69113 -8e-5,-1.00075 -0.0716,-2.14458 -0.21447,-3.43151 -0.14306,-1.2867 -0.28604,-2.50202 -0.42894,-3.64597 0.0714,-0.28584 0.21439,-0.67904 0.42894,-1.17958 0.28588,-0.50031 0.64332,-1.00074 1.07235,-1.50129 0.42885,-0.5003 0.92928,-0.8935 1.50128,-1.17958 0.64332,-0.35732 1.39396,-0.53605 2.25192,-0.53617 2.00163,1.2e-4 3.64589,1.42992 4.93279,4.28938 1.35821,2.85971 2.43056,6.61291 3.21704,11.25963 0.78629,4.64693 1.39395,9.93717 1.82299,15.87071 0.42884,5.86225 0.78629,11.83163 1.07234,17.90817 0.28586,6.0767 0.53608,11.97459 0.75065,17.69371 0.21437,5.71922 0.53607,10.68775 0.96511,14.9056 0.42883,4e-5 1.25096,-1.10805 2.46639,-3.32427 1.28671,-2.21614 2.89523,-5.18296 4.82556,-8.90047 1.93011,-3.7889 4.14629,-8.18551 6.64854,-13.18985 2.50202,-5.0757 5.14714,-10.43742 7.93536,-16.08518 2.85946,-5.6476 5.82628,-11.47401 8.90046,-17.47924 3.14542,-6.00502 6.25521,-11.83143 9.32941,-17.47923 3.1454,-5.64756 6.2552,-10.97354 9.32941,-15.97795 3.0739,-5.07563 6.00497,-9.47224 8.79323,-13.18985 2.78794,-3.7888 5.39731,-6.79136 7.82812,-9.0077 2.43048,-2.21602 4.57517,-3.32411 6.43407,-3.32427 0.57175,0.35761 1.14367,0.78655 1.71576,1.28681 0.57174,0.4291 0.8577,0.96527 0.85787,1.60852 -2.64529,9.65126 -5.43338,19.91002 -8.36429,30.77632 -2.93124,10.79506 -5.64785,21.87595 -8.14983,33.24271 -2.4308,11.36694 -4.46826,22.84103 -6.11237,34.42229 -1.57292,11.58138 -2.35931,22.98398 -2.35916,34.20782 -1.5e-4,2.71663 0.21432,5.7192 0.64341,9.00771 0.42879,3.21704 1.07219,6.21961 1.93022,9.0077 0.85772,2.7881 1.89432,5.11151 3.1098,6.97025 1.21517,1.93021 2.60922,2.89532 4.18215,2.89533 1.35814,-10e-6 2.96666,-0.85788 4.82556,-2.57363 1.85856,-1.71575 3.71729,-3.71746 5.57619,-6.00514 1.85856,-2.35915 3.53857,-4.75405 5.04003,-7.18471 1.57259,-2.50213 2.71643,-4.50384 3.4315,-6.00514 l 1.07235,0.42894"
             style="font-size:219.61636353000000099px;font-style:normal;font-variant:normal;font-weight:normal;font-stretch:normal;line-height:125%;letter-spacing:0px;word-spacing:0px;fill:#ffc8c0;fill-opacity:1;stroke:none;font-family:Stalemate;-inkscape-font-specification:Stalemate"
             id="path2990"
             inkscape:connector-curvature="0" />
          <path
             d="m 364.60671,669.53053 c 0.57191,4e-5 1.10808,0.17877 1.60852,0.53617 0.5719,0.286 1.03659,0.60771 1.39405,0.96511 0.42892,0.35749 0.75063,0.75069 0.96511,1.17958 0.28594,0.35749 0.42892,0.57196 0.42893,0.64341 -10e-6,0.0715 -0.10724,0.46472 -0.3217,1.17958 -0.14299,0.64345 -0.35746,1.75154 -0.64341,3.32427 -0.21448,1.57281 -0.42894,3.64601 -0.6434,6.2196 -0.14299,2.50217 -0.21448,5.64772 -0.21447,9.43664 -10e-6,5.07579 0.60765,8.61453 1.82298,10.61623 1.28681,2.00172 2.82383,3.00257 4.61109,3.00256 1.78722,10e-6 3.53872,-0.53616 5.25449,-1.60852 1.78722,-1.07233 3.46723,-2.46638 5.04003,-4.18214 1.57274,-1.71574 3.03828,-3.64596 4.39661,-5.79067 1.42977,-2.21616 2.68083,-4.43234 3.75321,-6.64854 l 0.64341,0.42894 c -0.28599,0.71492 -0.71493,1.82301 -1.28681,3.32427 -0.57196,1.42981 -1.28685,3.00258 -2.1447,4.71832 -0.8579,1.71577 -1.8945,3.50301 -3.1098,5.36173 -1.14386,1.78725 -2.50216,3.43151 -4.07491,4.93279 -1.50131,1.4298 -3.18131,2.64512 -5.04002,3.64597 -1.78726,0.92937 -3.75323,1.39405 -5.8979,1.39405 -1.5013,0 -2.89535,-0.28596 -4.18215,-0.85788 -1.21534,-0.57191 -2.32342,-1.60851 -3.32427,-3.1098 -0.92937,-1.57276 -1.68002,-3.71745 -2.25193,-6.43407 -0.50043,-2.7166 -0.75064,-6.21959 -0.75064,-10.50899 0,-2.21615 0.0715,-4.57531 0.21447,-7.07748 0.21446,-2.5736 0.46468,-4.93275 0.75064,-7.07748 0.35744,-2.21614 0.78638,-4.03913 1.28682,-5.46896 0.50042,-1.42975 1.07233,-2.14465 1.71575,-2.14469 m 2.57363,-26.59417 c 1.78723,7e-5 3.07404,0.64348 3.86044,1.93022 0.78637,1.21539 1.17957,2.71668 1.17958,4.50385 -1e-5,2.07327 -0.57193,3.68178 -1.71575,4.82556 -1.14385,1.14389 -2.5379,1.71581 -4.18215,1.71575 -1.21533,6e-5 -2.39491,-0.46462 -3.53874,-1.39405 -1.14384,-0.92931 -1.71576,-2.43059 -1.71575,-4.50385 -10e-6,-2.2876 0.57191,-4.0391 1.71575,-5.25449 1.14383,-1.21526 2.60937,-1.82292 4.39662,-1.82299"
             style="font-size:219.61636353000000099px;font-style:normal;font-variant:normal;font-weight:normal;font-stretch:normal;line-height:125%;letter-spacing:0px;word-spacing:0px;fill:#ffc8c0;fill-opacity:1;stroke:none;font-family:Stalemate;-inkscape-font-specification:Stalemate"
             id="path2992"
             inkscape:connector-curvature="0" />
          <path
             d="m 384.7668,701.16472 c 2.43065,-3.86043 4.61108,-7.79236 6.54131,-11.7958 1.93021,-4.07488 3.53873,-8.04256 4.82555,-11.90304 -1.71576,-2.43061 -3.1813,-4.897 -4.39661,-7.39918 -1.14384,-2.57358 -1.71576,-5.2187 -1.71576,-7.93536 0,-2.64506 0.25021,-5.03996 0.75065,-7.18471 0.50042,-2.14463 1.17957,-3.96762 2.03745,-5.46896 0.85787,-1.50122 1.82298,-2.64506 2.89534,-3.43151 1.07233,-0.85781 2.18042,-1.28674 3.32427,-1.28681 1.57276,7e-5 2.82382,0.78645 3.75321,2.35916 1.00083,1.57284 1.42977,3.57454 1.28681,6.00513 -0.143,2.85965 -0.53619,5.9337 -1.17958,9.22217 -0.57193,3.28858 -1.42981,6.64859 -2.57363,10.08005 1.42978,1.6443 2.89532,3.28857 4.39662,4.93279 1.57275,1.57281 2.9668,3.21707 4.18215,4.93279 1.28679,1.71578 2.32339,3.57451 3.1098,5.5762 0.85785,1.93024 1.28678,4.03919 1.28681,6.32683 -3e-5,3.14557 -0.60769,6.0409 -1.82298,8.686 -1.14387,2.64513 -2.53791,4.9328 -4.18215,6.86302 -1.64429,1.93022 -3.36004,3.4315 -5.14726,4.50385 -1.78726,1.07234 -3.32429,1.60851 -4.61109,1.60851 -2.21619,0 -3.93194,-0.57191 -5.14726,-1.71575 -1.14384,-1.14383 -1.71575,-2.3949 -1.71575,-3.75321 0,-1.07234 0.17872,-2.14468 0.53617,-3.21703 0.35745,-1.07234 0.75064,-2.03745 1.17958,-2.89534 0.50042,-0.92935 0.96511,-1.67999 1.39405,-2.25192 0.50042,-0.57191 0.85787,-0.85787 1.07235,-0.85788 0.35744,10e-6 0.57191,0.14299 0.64341,0.42894 0.14297,0.21448 0.21446,0.42895 0.21447,0.64341 -10e-6,0.35746 -0.0358,0.85788 -0.10724,1.50128 -0.0715,0.64342 -0.10724,1.17959 -0.10723,1.60852 -10e-6,1.21533 0.39318,2.21619 1.17958,3.00257 0.85786,0.78639 2.21616,1.17958 4.07491,1.17958 0.78637,0 1.67999,-0.17872 2.68086,-0.53618 1.00084,-0.35744 1.96595,-0.92936 2.89534,-1.71575 0.92934,-0.78638 1.67998,-1.75149 2.25192,-2.89533 0.64339,-1.21532 0.96509,-2.64511 0.96511,-4.28938 -2e-5,-1.50127 -0.35747,-3.07404 -1.07234,-4.71832 -0.71492,-1.64425 -1.64429,-3.32425 -2.7881,-5.04003 -1.14386,-1.71573 -2.43067,-3.46722 -3.86044,-5.25449 -1.35832,-1.78721 -2.71663,-3.6102 -4.07492,-5.46896 -1.64427,4.07494 -3.46726,8.04261 -5.46896,11.90303 -1.93023,3.78897 -4.00343,7.29197 -6.2196,10.50899 l -1.28682,-0.85788 m 8.14983,-44.60957 c -10e-6,2.71666 0.50042,5.14731 1.50128,7.29195 1.00085,2.07325 2.32341,4.1107 3.96768,6.11237 0.5719,-2.21614 0.9651,-4.32508 1.17958,-6.32684 0.21445,-2.07315 0.32169,-4.03912 0.3217,-5.8979 -10e-6,-5.00422 -1.1081,-7.50636 -3.32427,-7.50642 -0.64342,6e-5 -1.4298,0.50049 -2.35916,1.50128 -0.85788,0.92943 -1.28682,2.53795 -1.28681,4.82556"
             style="font-size:219.61636353000000099px;font-style:normal;font-variant:normal;font-weight:normal;font-stretch:normal;line-height:125%;letter-spacing:0px;word-spacing:0px;fill:#ffc8c0;fill-opacity:1;stroke:none;font-family:Stalemate;-inkscape-font-specification:Stalemate"
             id="path2994"
             inkscape:connector-curvature="0" />
        </g>
        <g
           id="g3072"
           transform="matrix(0.93899636,0.14442414,-0.2086591,0.9636064,251.06562,-179.21707)"
           style="fill:#ffc8c0;fill-opacity:1">
          <path
             sodipodi:nodetypes="cccccccscccccccccccccccccccccccccccsccccccccccccccccccccsccccccccczcccccccccccccc"
             d="m 665.39963,575.80753 c -0.71511,-0.64327 -1.7517,-1.53689 -3.1098,-2.68086 -1.35851,-1.21519 -3.07426,-2.39477 -5.14726,-3.53875 -2.00191,-1.21517 -4.39681,-2.25177 -7.18472,-3.1098 -2.71679,-0.85772 -5.82659,-1.28666 -9.3294,-1.28681 -6.0768,1.5e-4 -11.9747,1.7159 -17.69371,5.14726 -5.64784,3.43164 -11.18829,8.11421 -16.62135,14.04772 -5.43336,5.86228 -10.72359,12.68954 -15.87071,20.4818 -5.14739,7.79248 -10.18741,16.08528 -15.12008,24.87842 -4.9329,8.72182 -9.79419,17.69377 -14.5839,26.91587 -4.7899,9.15073 -9.50822,18.05119 -14.15496,26.70141 0.64332,5.14728 1.32247,9.90134 2.03746,14.26219 0.7863,4.28939 1.71566,8.00686 2.7881,11.15239 1.07225,3.14555 2.32332,5.5762 3.75321,7.29195 1.42969,1.78724 3.18119,2.68086 5.25449,2.68087 1.57267,-10e-6 3.18119,-0.42894 4.82556,-1.28682 1.71564,-0.85788 3.32416,-1.82299 4.82555,-2.89533 1.57266,-1.07234 2.93096,-2.10894 4.07491,-3.1098 1.21521,-1.07234 2.07309,-1.78724 2.57363,-2.14469 l 0.42894,0.21447 c -0.28608,0.50043 -0.82225,1.25107 -1.60852,2.25192 -0.71501,1.00086 -1.64438,2.10895 -2.7881,3.32427 -1.14394,1.21533 -2.39501,2.46639 -3.75321,3.75321 -1.28692,1.28681 -2.64522,2.46639 -4.07491,3.53874 -1.4299,1.07234 -2.85969,1.93021 -4.28938,2.57363 -1.3584,0.71489 -2.60947,1.07234 -3.75321,1.07235 -2.28777,-10e-6 -4.28948,-0.82215 -6.00513,-2.4664 -1.64436,-1.57278 -3.1099,-3.78896 -4.39662,-6.64854 -1.21541,-2.7881 -2.25201,-6.14811 -3.1098,-10.08005 -0.85796,-4.00341 -1.6086,-8.36428 -2.25193,-13.08261 -4.0035,7.07749 -7.93543,13.69028 -11.7958,19.83839 -3.86051,6.07662 -7.72095,11.36685 -11.58133,15.87071 -3.8605,4.57532 -7.6852,8.14981 -11.4741,10.72346 -3.789,2.5736 -7.61369,3.86041 -11.4741,3.86044 -2.78813,-3e-5 -5.32601,-0.67918 -7.61365,-2.03745 -2.2877,-1.28685 -4.2894,-2.82387 -6.00513,-4.61109 -1.71578,-1.78726 -3.18131,-3.57451 -4.39662,-5.36173 -1.14385,-1.78726 -2.03747,-3.14556 -2.68086,-4.07491 l 0.96511,-0.85788 c 1.00084,1.07233 2.10892,2.14468 3.32427,3.21704 1.2153,1.14382 2.60935,2.18042 4.18215,3.1098 1.64423,1.00084 3.50296,1.78722 5.57619,2.35916 2.14466,0.64339 4.57531,0.96509 7.29195,0.96511 3.64594,-2e-5 7.29191,-1.28683 10.93793,-3.86044 3.64592,-2.57365 7.29189,-6.11238 10.93792,-10.61622 3.7174,-4.43237 7.47061,-9.68686 11.25963,-15.76348 3.78888,-6.07661 7.61357,-12.61791 11.4741,-19.62392 -0.85796,-7.14894 -1.71584,-14.6911 -2.57363,-22.6265 -0.78647,-8.00678 -1.78732,-15.90639 -3.00257,-23.69883 -1.14391,-7.7923 -2.60945,-15.26296 -4.39662,-22.41202 -1.78731,-7.14887 -4.14647,-13.43996 -7.07748,-18.87328 -2.85965,-5.4331 -6.39838,-9.75822 -10.61622,-12.97538 -4.21794,-3.21691 -9.2937,-4.82543 -15.22731,-4.82556 -5.79069,1.3e-4 -10.68773,1.07248 -14.69113,3.21704 -3.93195,2.14482 -7.14899,4.93291 -9.65111,8.36429 -2.50215,3.43163 -4.32514,7.25632 -5.46896,11.4741 -1.07235,4.218 -1.60853,8.40014 -1.60852,12.54644 -10e-6,3.64607 0.35744,6.89885 1.07235,9.75835 0.78637,2.85967 1.78723,5.39755 3.00256,7.61365 1.21532,2.14477 2.60936,3.96775 4.18215,5.46896 1.57276,1.42987 3.21702,2.50221 4.93279,3.21704 l -0.64341,1.39405 c -2.43066,-0.42887 -4.78982,-1.35824 -7.07748,-2.7881 -2.28768,-1.42972 -4.36088,-3.25271 -6.2196,-5.46896 -1.78725,-2.2161 -3.25279,-4.78973 -4.39662,-7.72089 -8.86853,-21.80336 1.97234,-42.66742 11.12712,-52.41386 3.91387,-3.94977 8.46196,-7.10722 13.18985,-9.22217 4.72789,-2.11495 9.72256,-3.43137 14.5839,-3.43151 6.21956,1.4e-4 11.54553,1.53717 15.97795,4.61109 4.50379,3.0027 8.32848,7.07761 11.47409,12.22474 3.14548,5.14737 5.71911,11.11676 7.72089,17.90817 2.07312,6.72013 4.13586,25.28361 5.49424,32.78993 1.35822,7.5065 2.46631,15.15589 3.32427,22.9482 0.85779,7.72094 1.67992,15.12011 2.4664,22.19755 22.58081,-36.2576 39.93962,-91.33618 76.351,-113.23969 5.79049,-3.43135 11.75988,-5.1471 17.90817,-5.14726 3.78877,1.6e-4 7.11303,0.60782 9.97281,1.82299 2.93088,1.14399 5.43302,2.60953 7.50642,4.39662 2.14449,1.7159 3.89599,3.61037 5.25449,5.68343 1.3581,2.00185 2.3947,3.82484 3.1098,5.46896 l -0.6434,0.64341"
             style="font-size:219.61636353000000099px;font-style:normal;font-variant:normal;font-weight:normal;font-stretch:normal;line-height:125%;letter-spacing:0px;word-spacing:0px;fill:#ffc8c0;fill-opacity:1;stroke:none;font-family:Stalemate;-inkscape-font-specification:Stalemate"
             id="path2996"
             inkscape:connector-curvature="0" />
          <path
             d="m 734.78039,572.05432 c 0.42879,-1.35816 0.85773,-2.96668 1.28681,-4.82556 0.42879,-1.93007 0.64326,-4.07476 0.64341,-6.43407 -1.5e-4,-3.00241 -0.89377,-5.39731 -2.68086,-7.18471 -1.7159,-1.78708 -4.39676,-2.6807 -8.0426,-2.68087 -6.07675,1.7e-4 -11.68869,1.57294 -16.83582,4.71832 -5.14737,3.07422 -9.90143,7.32785 -14.2622,12.76091 -4.36097,5.36187 -8.32864,11.72445 -11.90303,19.08776 -3.57458,7.36355 -6.82735,15.2989 -9.75835,23.80607 -2.93115,8.43588 -5.54053,17.26484 -7.82812,26.48693 -2.28774,9.15075 -4.3252,18.30142 -6.11237,27.45205 -1.71582,9.15072 -3.2171,18.08692 -4.50385,26.80863 -1.28688,8.72176 -2.39497,16.80009 -3.32427,24.23501 -0.0716,0.50043 -0.14304,1.10809 -0.21447,1.82299 -6e-5,0.78638 -0.14304,1.57277 -0.42894,2.35916 -0.21453,0.85787 -0.60772,1.68 -1.17958,2.4664 -0.50048,0.78637 -1.28687,1.42978 -2.35916,1.93022 -2.64517,1.50127 -4.07496,1.35829 -4.28938,-0.42894 -0.50048,-4.71833 -1.0724,-10.0443 -1.71575,-15.97795 -0.57197,-6.00512 -1.32261,-12.26047 -2.25193,-18.76605 -0.85792,-6.57702 -1.85878,-13.22555 -3.00257,-19.94562 -1.07239,-6.79147 -2.32345,-13.33277 -3.7532,-19.62393 -1.42984,-6.36251 -3.03836,-12.33189 -4.82556,-17.90817 -1.78728,-5.57611 -3.78899,-10.4374 -6.00513,-14.5839 -2.14472,-4.21779 -4.53963,-7.50631 -7.18472,-9.86557 -2.57365,-2.43055 -5.39749,-3.64587 -8.47153,-3.64598 -3.50301,1.1e-4 -6.43408,1.00097 -8.79323,3.00257 -2.28768,1.93033 -3.43151,4.71842 -3.43151,8.36429 0,2.21628 0.39319,4.11076 1.17958,5.68343 0.78638,1.57287 2.00171,3.07415 3.64598,4.50386 l -0.42894,0.42893 c -2.64513,-1.21523 -4.61109,-2.96673 -5.8979,-5.25449 -1.21533,-2.28757 -1.82299,-4.64673 -1.82299,-7.07748 0,-2.14459 0.39319,-4.1463 1.17958,-6.00513 0.85787,-1.93012 2.03745,-3.57438 3.53874,-4.93279 1.50128,-1.42969 3.25277,-2.53777 5.25449,-3.32427 2.07319,-0.85777 4.32512,-1.2867 6.75578,-1.28682 3.78893,1.2e-4 7.22044,1.28693 10.29452,3.86044 3.07402,2.50225 5.86212,5.89801 8.36429,10.18729 2.5021,4.21799 4.71828,9.15077 6.64855,14.79837 2.00166,5.64776 3.75316,11.5814 5.25449,17.80093 1.50123,6.14818 2.78805,12.43927 3.86044,18.87328 1.14378,6.36263 2.10889,12.47499 2.89533,18.33711 0.85783,5.79069 1.57272,11.11667 2.1447,15.97795 0.64335,4.86131 1.17952,8.82898 1.60851,11.90303 1.14378,-7.43491 2.43059,-15.4775 3.86045,-24.12777 1.50122,-8.72171 3.21697,-17.65791 5.14726,-26.80864 1.93015,-9.15062 4.11058,-18.33703 6.5413,-27.55928 2.43058,-9.22208 5.14718,-18.08679 8.14983,-26.59417 3.07397,-8.50715 6.46973,-16.4425 10.18728,-23.80607 3.71737,-7.43479 7.79228,-13.86885 12.22474,-19.30222 4.50374,-5.50455 9.40078,-9.79392 14.69114,-12.86814 5.3616,-3.14538 11.15226,-4.71815 17.37199,-4.71832 1.8586,1.7e-4 3.64584,0.28612 5.36173,0.85787 1.7871,0.57209 3.35987,1.42996 4.71832,2.57363 1.42965,1.144 2.53774,2.60954 3.32427,4.39662 0.85773,1.71591 1.28667,3.71762 1.28682,6.00513 -1.5e-4,1.57293 -0.25037,3.1457 -0.75065,4.71832 -0.42908,1.57293 -0.96526,3.03846 -1.60851,4.39662 -0.57207,1.28696 -1.17973,2.43079 -1.82299,3.43151 -0.57206,0.9295 -1.001,1.57291 -1.28682,1.93022 l -0.6434,-0.42894"
             style="font-size:219.61636353000000099px;font-style:normal;font-variant:normal;font-weight:normal;font-stretch:normal;line-height:125%;letter-spacing:0px;word-spacing:0px;fill:#ffc8c0;fill-opacity:1;stroke:none;font-family:Stalemate;-inkscape-font-specification:Stalemate"
             id="path2998"
             inkscape:connector-curvature="0" />
        </g>
        <g
           id="g3076"
           transform="translate(-179.5259,-5.8884064)"
           style="fill:#ffc8c0;fill-opacity:1">
          <path
             d="m 756.549,677.03695 c -0.64344,3e-5 -1.25111,-0.35741 -1.82298,-1.07235 -0.50047,-0.78635 -1.17962,-1.60848 -2.03746,-2.46639 -0.85791,-0.85784 -1.966,-1.64422 -3.32427,-2.35916 -1.28685,-0.78635 -3.0026,-1.17954 -5.14726,-1.17958 -3.00259,4e-5 -5.79069,0.78643 -8.3643,2.35916 -2.57364,1.50132 -4.78982,3.43154 -6.64854,5.79066 -1.85874,2.28771 -3.32428,4.82559 -4.39661,7.61366 -1.00087,2.71663 -1.50129,5.29026 -1.50129,7.72088 0,3.78897 0.96511,6.89877 2.89533,9.32941 1.93022,2.43066 4.50384,3.64598 7.72089,3.64597 2.50212,10e-6 4.68256,-0.46467 6.54131,-1.39405 1.9302,-1.00084 3.53871,-2.28765 4.82556,-3.86044 -0.42897,-1.93021 -0.64344,-4.32511 -0.64341,-7.18471 -3e-5,-3.07404 0.21444,-5.57618 0.64341,-7.50642 0.50039,-1.9302 1.07231,-3.43148 1.71575,-4.50385 0.71486,-1.07232 1.42976,-1.78721 2.14469,-2.1447 0.71486,-0.4289 1.32252,-0.64337 1.82299,-0.6434 0.57188,3e-5 1.21529,0.39323 1.93022,1.17958 0.78635,0.78642 1.17954,2.18047 1.17958,4.18215 -4e-5,2.50216 -0.46472,5.14728 -1.39405,7.93535 -0.85791,2.71663 -2.07324,5.326 -3.64598,7.82812 0.85785,2.2162 2.18041,3.82471 3.96768,4.82556 1.78721,1.00086 3.82466,1.50129 6.11237,1.50128 2.00167,10e-6 3.8604,-0.42893 5.5762,-1.28681 1.78719,-0.92936 3.43145,-2.14468 4.93279,-3.64598 1.57272,-1.50127 3.03825,-3.21702 4.39662,-5.14725 1.35824,-2.0017 2.60931,-4.03915 3.7532,-6.11237 l 0.64341,0.42893 c -0.85794,2.71663 -2.00177,5.36175 -3.4315,7.93536 -1.42985,2.57364 -3.07412,4.86131 -4.93279,6.86301 -1.85879,2.00172 -3.89624,3.61024 -6.11237,4.82556 -2.14474,1.14383 -4.39666,1.71575 -6.75578,1.71575 -1.78728,0 -3.75325,-0.57192 -5.8979,-1.71575 -2.07323,-1.21532 -3.78898,-3.36001 -5.14726,-6.43408 -2.21621,2.64513 -4.75409,4.86131 -7.61365,6.64855 -2.85961,1.71575 -5.93366,2.57363 -9.22217,2.57363 -1.85875,0 -3.53875,-0.42894 -5.04003,-1.28682 -1.50129,-0.85787 -2.7881,-2.00171 -3.86044,-3.43151 -1.00086,-1.42978 -1.78725,-3.10979 -2.35916,-5.04002 -0.57192,-1.93021 -0.85788,-3.96766 -0.85788,-6.11237 0,-3.64595 0.78639,-7.29192 2.35916,-10.93792 1.64426,-3.64595 3.78895,-6.93447 6.43408,-9.86558 2.71659,-2.93104 5.79065,-5.2902 9.22217,-7.07748 3.50297,-1.85869 7.14894,-2.78805 10.93792,-2.7881 2.78807,5e-5 5.11148,0.32175 6.97025,0.96511 1.93018,0.57196 3.46721,1.28686 4.61108,2.14469 1.1438,0.78643 1.96593,1.60856 2.4664,2.4664 0.50038,0.85791 0.7506,1.53707 0.75064,2.03745 -4e-5,1.0009 -0.53622,1.71579 -1.60852,2.14469 -1.0009,0.35749 -1.93026,0.53621 -2.7881,0.53618 m -9.0077,14.26219 c -3e-5,2.35918 0.21444,4.39664 0.64341,6.11237 1.07231,-2.00169 1.8587,-4.03915 2.35916,-6.11237 0.50039,-2.14466 0.75061,-3.96765 0.75064,-5.46896 -3e-5,-1.78721 -0.32174,-2.68083 -0.96511,-2.68086 -0.64344,3e-5 -1.28685,0.78641 -1.93022,2.35916 -0.57195,1.5728 -0.85791,3.50302 -0.85788,5.79066"
             style="font-size:219.61636353000000099px;font-style:normal;font-variant:normal;font-weight:normal;font-stretch:normal;line-height:125%;letter-spacing:0px;word-spacing:0px;fill:#ffc8c0;fill-opacity:1;stroke:none;font-family:Stalemate;-inkscape-font-specification:Stalemate"
             id="path3000"
             inkscape:connector-curvature="0" />
          <path
             d="m 781.32016,666.31349 c 0.35744,5e-5 0.6434,0.28601 0.85788,0.85788 0.21446,0.57196 0.35744,1.25111 0.42894,2.03745 0.14297,0.78644 0.21446,1.64431 0.21447,2.57363 -10e-6,0.85792 -10e-6,1.64431 0,2.35916 -10e-6,1.85877 -0.0715,3.78899 -0.21447,5.79067 -0.0715,1.93025 -0.17874,3.82473 -0.32171,5.68343 -0.0715,1.78727 -0.14299,3.46728 -0.21446,5.04002 -0.0715,1.50131 -0.10725,2.75238 -0.10724,3.75321 -10e-6,1.85875 0.0715,3.36004 0.21447,4.50386 0.14297,1.07235 0.50042,1.60853 1.07235,1.60851 0.35743,2e-5 0.82211,-0.46467 1.39404,-1.39405 0.57191,-0.92935 1.17957,-2.03744 1.82299,-3.32427 0.71488,-1.35828 1.39404,-2.78807 2.03746,-4.28938 0.64339,-1.50126 1.25105,-2.82382 1.82299,-3.96768 0.71487,-1.50125 1.50126,-3.14551 2.35916,-4.93279 0.92934,-1.8587 1.89445,-3.57445 2.89533,-5.14726 1.00083,-1.64422 2.03743,-3.00252 3.1098,-4.07491 1.14381,-1.0723 2.32339,-1.60847 3.53874,-1.60852 0.78636,5e-5 1.46551,0.21451 2.03746,0.64341 0.64337,0.42898 1.17954,1.0009 1.60852,1.71575 0.4289,0.64345 0.7506,1.35835 0.96511,2.14469 0.28592,0.71494 0.50039,1.39409 0.6434,2.03746 0.21444,1.6443 0.42891,4.25367 0.64341,7.82812 0.28592,3.50302 0.64337,7.25623 1.07235,11.25963 0.35741,4.00344 1.32252,6.93451 2.89533,8.79323 1.57273,1.78725 3.61019,2.68087 6.11237,2.68087 1.00081,0 1.78719,-0.0715 2.35916,-0.21447 0.64336,-0.14297 1.17953,-0.21446 1.60852,-0.21447 0.3574,10e-6 0.42889,0.35745 0.21447,1.07235 -0.0715,0.14298 -0.25027,0.35745 -0.53618,0.6434 -0.21451,0.21448 -0.60771,0.46469 -1.17958,0.75065 -0.57196,0.28596 -1.35835,0.53617 -2.35916,0.75064 -0.92941,0.21447 -2.07324,0.3217 -3.4315,0.3217 -2.28771,0 -4.18219,-0.35745 -5.68343,-1.07234 -1.50132,-0.78639 -2.71665,-2.00171 -3.64598,-3.64598 -0.9294,-1.64425 -1.60855,-3.7532 -2.03745,-6.32684 -0.42897,-2.6451 -0.71493,-5.79065 -0.85788,-9.43664 -0.14301,-1.71573 -0.28599,-3.35999 -0.42894,-4.93279 -0.0715,-1.64423 -0.25024,-3.07402 -0.53617,-4.28938 -0.2145,-1.28678 -0.5362,-2.28764 -0.96511,-3.00257 -0.42897,-0.78635 -1.03663,-1.17954 -1.82299,-1.17958 -0.64343,4e-5 -1.42982,0.64344 -2.35916,1.93022 -0.8579,1.28685 -1.71578,2.82388 -2.57363,4.61109 -0.8579,1.71578 -1.68003,3.50302 -2.46639,5.36173 -0.71492,1.85875 -1.32258,3.32429 -1.82299,4.39661 -1.57279,3.36004 -2.89535,6.11239 -3.96768,8.25706 -1.00087,2.1447 -2.10896,4.2179 -3.32427,6.21961 -0.35746,0.57192 -0.75065,1.0366 -1.17958,1.39405 -0.35746,0.35745 -0.82214,0.53617 -1.39405,0.53617 -0.85788,0 -1.53704,-0.71489 -2.03746,-2.14469 -0.50043,-1.42979 -0.89362,-3.07405 -1.17958,-4.93279 -0.21447,-1.85872 -0.35745,-3.71745 -0.42894,-5.5762 -0.0715,-1.9302 -0.10723,-3.39574 -0.10723,-4.39661 0,-1.14382 0,-2.53786 0,-4.18215 0.0715,-1.64424 0.14298,-3.25275 0.21447,-4.82556 0.0715,-1.57274 0.10723,-3.00253 0.10723,-4.28938 0.0715,-1.28678 0.10723,-2.14465 0.10724,-2.57363 -10e-6,-0.4289 -0.0358,-1.00082 -0.10724,-1.71575 0,-0.78635 0,-1.53699 0,-2.25193 0,-0.78634 -0.0358,-1.46549 -0.10723,-2.03745 0,-0.64337 0,-1.0723 0,-1.28682 0,-0.57187 0.14297,-1.03655 0.42894,-1.39405 0.35744,-0.42889 0.71489,-0.75059 1.07234,-0.96511 0.35745,-0.21442 0.92936,-0.57187 1.71576,-1.07234 0.78637,-0.57187 1.39404,-0.85783 1.82298,-0.85788 m -2.68086,-14.47666 c -1e-5,0.85793 -0.32171,1.57283 -0.96511,2.14469 -0.57192,0.57197 -1.14384,0.85793 -1.71575,0.85787 -0.64341,6e-5 -1.07235,-0.42887 -1.28682,-1.28681 0.50043,-2.43059 1.25107,-4.53953 2.25193,-6.32684 1.07234,-1.78717 2.18043,-3.25271 3.32427,-4.39662 1.21531,-1.14376 2.39489,-1.96589 3.53874,-2.46639 1.21531,-0.57184 2.21617,-0.8578 3.00257,-0.85788 1.42977,8e-5 2.85957,0.50051 4.28938,1.50129 1.42977,1.00092 2.82382,2.10901 4.18215,3.32427 1.42976,1.21539 2.78807,2.32348 4.07491,3.32427 1.28678,1.00092 2.50211,1.50135 3.64597,1.50128 1.2153,7e-5 2.2519,-0.25015 3.10981,-0.75064 0.85784,-0.50036 1.60848,-1.10802 2.25192,-1.82299 0.64337,-0.78631 1.1438,-1.60845 1.50128,-2.46639 0.4289,-0.9293 0.78635,-1.75143 1.07235,-2.4664 l 0,-0.21446 c -4e-5,-0.35738 0.21443,-0.64334 0.64341,-0.85788 0.4289,-0.28589 0.92932,-0.42887 1.50128,-0.42894 0.78635,7e-5 1.17954,0.28603 1.17958,0.85788 -0.71494,2.5737 -1.60856,4.75413 -2.68086,6.5413 -1.0009,1.71582 -2.10899,3.07413 -3.32427,4.07492 -1.14387,1.00091 -2.28771,1.71581 -3.43151,2.14469 -1.14387,0.429 -2.18047,0.64347 -3.1098,0.64341 -1.71578,6e-5 -3.3243,-0.46463 -4.82556,-1.39405 -1.42981,-0.92931 -2.82386,-1.96591 -4.18214,-3.10981 -1.28684,-1.14377 -2.53791,-2.18036 -3.75321,-3.1098 -1.21534,-0.9293 -2.39492,-1.39398 -3.53874,-1.39405 -1.85875,7e-5 -3.36003,0.67922 -4.50385,2.03746 -1.07236,1.35837 -1.823,2.82391 -2.25193,4.39662"
             style="font-size:219.61636353000000099px;font-style:normal;font-variant:normal;font-weight:normal;font-stretch:normal;line-height:125%;letter-spacing:0px;word-spacing:0px;fill:#ffc8c0;fill-opacity:1;stroke:none;font-family:Stalemate;-inkscape-font-specification:Stalemate"
             id="path3002"
             inkscape:connector-curvature="0" />
          <path
             d="m 842.98006,707.38432 c 1.71573,10e-6 3.39574,-0.35744 5.04003,-1.07234 1.64423,-0.78638 3.10977,-1.89447 4.39661,-3.32427 1.28678,-1.50127 2.28764,-3.32426 3.00257,-5.46896 0.78635,-2.14468 1.17954,-4.64681 1.17958,-7.50642 -4e-5,-2.35914 -0.28599,-4.57531 -0.85788,-6.64854 -0.57195,-2.14466 -1.42982,-4.00339 -2.57363,-5.5762 -1.07237,-1.57274 -2.50216,-2.82381 -4.28938,-3.75321 -1.71578,-0.92933 -3.75323,-1.39401 -6.11237,-1.39405 -1.64428,4e-5 -3.28854,0.32174 -4.93279,0.96511 -1.64427,0.57196 -3.10981,1.53707 -4.39661,2.89533 -1.28683,1.28685 -2.32343,2.96686 -3.10981,5.04003 -0.78639,2.00174 -1.17958,4.43239 -1.17958,7.29195 0,2.28769 0.28596,4.53961 0.85788,6.75577 0.57191,2.14471 1.39404,4.11068 2.4664,5.8979 1.14382,1.78726 2.57361,3.21705 4.28938,4.28939 1.78722,1.07235 3.86042,1.60852 6.2196,1.60851 m -3.75321,5.46897 c -4.71833,0 -8.57877,-1.53703 -11.58133,-4.61109 -3.00257,-3.14554 -4.50385,-7.68513 -4.50385,-13.61879 0,-4.0034 0.75064,-7.68511 2.25193,-11.04516 1.50127,-3.43147 3.43149,-6.36254 5.79066,-8.79323 2.43064,-2.5021 5.1115,-4.43232 8.04259,-5.79066 2.93106,-1.35826 5.79064,-2.03741 8.57877,-2.03746 4.50382,5e-5 8.11404,1.53707 10.83069,4.61108 2.71656,3.0741 4.07487,7.61369 4.07491,13.61879 -4e-5,4.00345 -0.71494,7.68517 -2.14469,11.04516 -1.35834,3.36003 -3.18133,6.29111 -5.46896,8.79323 -2.21622,2.43066 -4.71835,4.36088 -7.50642,5.79067 -2.78812,1.35831 -5.57622,2.03746 -8.3643,2.03746"
             style="font-size:219.61636353000000099px;font-style:normal;font-variant:normal;font-weight:normal;font-stretch:normal;line-height:125%;letter-spacing:0px;word-spacing:0px;fill:#ffc8c0;fill-opacity:1;stroke:none;font-family:Stalemate;-inkscape-font-specification:Stalemate"
             id="path3004"
             inkscape:connector-curvature="0" />
          <path
             d="m 869.03807,701.16472 c 2.43065,-3.86043 4.61108,-7.79236 6.54131,-11.7958 1.93021,-4.07488 3.53873,-8.04256 4.82555,-11.90304 -1.71576,-2.43061 -3.18129,-4.897 -4.39661,-7.39918 -1.14384,-2.57358 -1.71576,-5.2187 -1.71575,-7.93536 -10e-6,-2.64506 0.2502,-5.03996 0.75064,-7.18471 0.50042,-2.14463 1.17957,-3.96762 2.03745,-5.46896 0.85787,-1.50122 1.82298,-2.64506 2.89534,-3.43151 1.07233,-0.85781 2.18042,-1.28674 3.32427,-1.28681 1.57276,7e-5 2.82382,0.78645 3.75321,2.35916 1.00083,1.57284 1.42977,3.57454 1.28681,6.00513 -0.143,2.85965 -0.53619,5.9337 -1.17958,9.22217 -0.57193,3.28858 -1.42981,6.64859 -2.57363,10.08005 1.42978,1.6443 2.89532,3.28857 4.39662,4.93279 1.57275,1.57281 2.9668,3.21707 4.18215,4.93279 1.28679,1.71578 2.32339,3.57451 3.1098,5.5762 0.85785,1.93024 1.28679,4.03919 1.28681,6.32683 -2e-5,3.14557 -0.60769,6.0409 -1.82298,8.686 -1.14386,2.64513 -2.53791,4.9328 -4.18215,6.86302 -1.64429,1.93022 -3.36004,3.4315 -5.14726,4.50385 -1.78726,1.07234 -3.32428,1.60851 -4.61109,1.60851 -2.21619,0 -3.93194,-0.57191 -5.14725,-1.71575 -1.14385,-1.14383 -1.71576,-2.3949 -1.71576,-3.75321 0,-1.07234 0.17872,-2.14468 0.53618,-3.21703 0.35744,-1.07234 0.75063,-2.03745 1.17958,-2.89534 0.50042,-0.92935 0.9651,-1.67999 1.39404,-2.25192 0.50042,-0.57191 0.85787,-0.85787 1.07235,-0.85788 0.35744,10e-6 0.57191,0.14299 0.64341,0.42894 0.14297,0.21448 0.21446,0.42895 0.21447,0.64341 -10e-6,0.35746 -0.0358,0.85788 -0.10724,1.50128 -0.0715,0.64342 -0.10724,1.17959 -0.10723,1.60852 -10e-6,1.21533 0.39318,2.21619 1.17958,3.00257 0.85786,0.78639 2.21616,1.17958 4.07491,1.17958 0.78637,0 1.67999,-0.17872 2.68086,-0.53618 1.00084,-0.35744 1.96595,-0.92936 2.89534,-1.71575 0.92934,-0.78638 1.67998,-1.75149 2.25192,-2.89533 0.64339,-1.21532 0.96509,-2.64511 0.96511,-4.28938 -2e-5,-1.50127 -0.35747,-3.07404 -1.07234,-4.71832 -0.71492,-1.64425 -1.64429,-3.32425 -2.7881,-5.04003 -1.14385,-1.71573 -2.43067,-3.46722 -3.86044,-5.25449 -1.35832,-1.78721 -2.71663,-3.6102 -4.07492,-5.46896 -1.64427,4.07494 -3.46726,8.04261 -5.46896,11.90303 -1.93023,3.78897 -4.00343,7.29197 -6.2196,10.50899 l -1.28682,-0.85788 m 8.14983,-44.60957 c -10e-6,2.71666 0.50042,5.14731 1.50128,7.29195 1.00085,2.07325 2.32341,4.1107 3.96768,6.11237 0.5719,-2.21614 0.9651,-4.32508 1.17958,-6.32684 0.21446,-2.07315 0.32169,-4.03912 0.3217,-5.8979 -10e-6,-5.00422 -1.1081,-7.50636 -3.32427,-7.50642 -0.64341,6e-5 -1.4298,0.50049 -2.35916,1.50128 -0.85788,0.92943 -1.28682,2.53795 -1.28681,4.82556"
             style="font-size:219.61636353000000099px;font-style:normal;font-variant:normal;font-weight:normal;font-stretch:normal;line-height:125%;letter-spacing:0px;word-spacing:0px;fill:#ffc8c0;fill-opacity:1;stroke:none;font-family:Stalemate;-inkscape-font-specification:Stalemate"
             id="path3006"
             inkscape:connector-curvature="0" />
        </g>
        <path
           transform="translate(0,308.2677)"
           style="fill:#ffc8c0;fill-rule:evenodd;stroke:none;fill-opacity:1"
           d="m 251.23855,229.84058 c -0.22426,-0.0696 0.11966,-2.10737 1.26111,-5.924 1.14145,-3.81664 3.09543,-9.42081 6.46894,-16.37252 3.3735,-6.95171 8.18547,-15.26526 15.16247,-24.07306 3.48849,-4.4039 7.51832,-8.92333 12.1682,-13.39165 4.64989,-4.46832 9.92043,-8.886 15.87036,-13.03818 5.2994,-3.69591 11.12844,-7.17173 17.47397,-10.28167 6.34553,-3.10993 13.20798,-5.85398 20.53539,-8.07126 7.32742,-2.21729 15.12018,-3.9078 23.28154,-4.89565 8.16137,-0.98786 16.69167,-1.27303 25.44425,-0.66489 10.79325,0.75292 21.89706,2.84984 32.91793,6.46243 11.02086,3.6126 21.95922,8.74132 32.28997,15.50815 8.6702,6.21872 16.77946,13.75401 23.95351,22.49903 7.17404,8.74502 13.41281,18.69992 18.28162,29.67824 -0.76438,-13.47888 0.0291,-27.25928 2.44404,-40.97114 2.41494,-13.71187 6.45142,-27.35496 12.1209,-40.47857 5.98661,-12.40789 13.43357,-24.39484 22.2967,-35.541274 8.86313,-11.146434 19.14236,-21.451987 30.75197,-30.444693 11.02625,-8.527583 23.18949,-15.819313 36.17734,-21.687823 12.98785,-5.86851 26.79994,-10.313655 41.06892,-13.14994 22.02243,-4.388486 45.21193,-4.955093 67.9909,-1.077139 5.64867,0.961645 11.23669,2.190632 16.74022,3.686103 28.05206,7.645874 53.51883,22.10326 74.36092,40.685294 10.89088,9.700553 20.55172,20.549734 28.76819,32.190462 8.21647,11.64072 14.98836,24.07269 20.15451,36.96924 5.46853,13.68074 9.10253,27.79819 11.08629,41.89343 1.98377,14.09525 2.31745,28.168 1.19415,41.83429 -1.21052,14.80713 -4.13375,29.16581 -8.50623,42.68883 -4.37249,13.52302 -10.194,26.21035 -17.19785,37.78475 -7.07921,11.65246 -15.1124,22.08013 -23.31227,31.7998 -8.19987,9.71967 -16.56694,18.73111 -24.52663,27.41384 -9.22755,10.10477 -18.00177,19.87124 -25.69839,29.60556 -7.69661,9.73432 -14.31882,19.43489 -19.59265,29.21355 0,1e-5 -1e-5,2e-5 -1e-5,3e-5 -5.82917,10.76812 -9.98044,21.57607 -12.88765,31.89091 -2.90721,10.31483 -4.57173,20.14004 -5.41895,29.15878 -0.96169,10.25693 -0.87158,19.48496 -0.30765,27.45826 0.56393,7.9733 1.59871,14.69943 2.62379,20.10937 1.02507,5.40995 2.03728,9.51039 2.69978,12.2813 0.66249,2.7709 0.97199,4.2168 0.78387,4.28139 -0.18812,0.0646 -0.86916,-1.25427 -1.9062,-3.93127 -1.03703,-2.67701 -2.42721,-6.71673 -3.83223,-12.12492 -1.40502,-5.40819 -2.82196,-12.19156 -3.75453,-20.30085 -0.93257,-8.10929 -1.37786,-17.55208 -0.72555,-28.11582 0.57198,-9.28876 1.99599,-19.45476 4.72979,-30.18536 2.73381,-10.7306 6.77888,-22.02926 12.6099,-33.36306 1e-5,-1e-5 1e-5,-2e-5 2e-5,-2e-5 5.29548,-10.25547 11.94177,-20.41081 19.63318,-30.51773 7.69141,-10.10691 16.431,-20.16354 25.55826,-30.40779 7.83941,-8.8329 16.02661,-17.89231 23.95953,-27.51437 7.93292,-9.62206 15.61199,-19.80639 22.22245,-31.02634 6.55772,-11.084 11.98263,-23.22751 16.03137,-36.15525 4.04874,-12.92774 6.72116,-26.63966 7.77611,-40.75166 0.96768,-13.02565 0.55906,-26.41844 -1.40293,-39.79816 -1.96198,-13.37971 -5.47743,-26.74605 -10.71693,-39.64476 -4.93108,-12.16681 -11.39572,-23.90819 -19.22742,-34.91074 -7.8317,-11.002558 -17.03021,-21.266017 -27.37796,-30.44508 -19.81999,-17.563661 -43.97312,-31.244741 -70.4232,-38.419627 -5.18698,-1.4116 -10.45957,-2.571685 -15.79433,-3.479774 -21.51312,-3.661981 -43.49294,-3.135684 -64.38038,0.979723 -13.53094,2.673112 -26.63847,6.857999 -38.95878,12.379276 -12.3203,5.521276 -23.85303,12.37883 -34.28831,20.39789 -11.00051,8.439469 -20.77834,18.159326 -29.24019,28.697652 -8.46186,10.53833 -15.60763,21.89478 -21.38299,33.6604 -6.95197,12.81635 -12.30359,26.12244 -16.04001,39.47778 -3.73642,13.35533 -5.85767,26.75971 -6.40113,39.85369 -5.93655,-9.95699 -13.10596,-19.02048 -21.0868,-26.99255 -7.98085,-7.97206 -16.7731,-14.85282 -26.01709,-20.5226 -9.64067,-6.48693 -19.90492,-11.46591 -30.28061,-15.02992 -10.37569,-3.564 -20.86326,-5.71339 -31.08058,-6.59156 -8.27825,-0.714 -16.38632,-0.58296 -24.17403,0.21695 -7.78771,0.79991 -15.25536,2.26869 -22.30245,4.24372 -14.09418,3.95004 -26.46843,9.91177 -36.83308,16.74514 -5.82082,3.83512 -11.02016,7.94588 -15.64407,12.12366 -4.62391,4.17777 -8.67297,8.42304 -12.21495,12.57314 -7.08397,8.30019 -12.13809,16.18984 -15.82293,22.80499 -3.68485,6.61515 -6.0198,11.96969 -7.57214,15.59275 -1.55233,3.62306 -2.33802,5.52247 -2.56228,5.45287 z"
           id="path3109"
           inkscape:path-effect="#path-effect3111;#path-effect3113"
           inkscape:original-d="m 251.23855,229.84058 c -0.9814,-77.53064 96.17725,-134.451879 137.39608,-93.23305 41.21882,41.21882 107.95406,71.64224 107.95406,71.64224 0,0 318.95518,-33.36763 335.639,91.27026 19.69619,147.14207 9.814,-7.85121 -92.25166,118.74946 -102.06566,126.60068 -9.81401,126.60067 -9.81401,126.60067"
           inkscape:connector-curvature="0"
           sodipodi:nodetypes="cscssc" />
      </g>
    </g>
  </g>
</svg>
