<?xml version="1.0" encoding="UTF-8" standalone="no"?>
<!-- Created with Inkscape (http://www.inkscape.org/) -->

<svg
   xmlns:dc="http://purl.org/dc/elements/1.1/"
   xmlns:cc="http://creativecommons.org/ns#"
   xmlns:rdf="http://www.w3.org/1999/02/22-rdf-syntax-ns#"
   xmlns:svg="http://www.w3.org/2000/svg"
   xmlns="http://www.w3.org/2000/svg"
   xmlns:sodipodi="http://sodipodi.sourceforge.net/DTD/sodipodi-0.dtd"
   xmlns:inkscape="http://www.inkscape.org/namespaces/inkscape"
   width="210mm"
   height="297mm"
   id="svg3744"
   version="1.1"
   inkscape:version="0.48.4 r9939"
   sodipodi:docname="aguila.svg">
  <defs
     id="defs3746">
    <filter
       inkscape:collect="always"
       id="filter4883">
      <feGaussianBlur
         inkscape:collect="always"
         stdDeviation="1.5105792"
         id="feGaussianBlur4885" />
    </filter>
  </defs>
  <sodipodi:namedview
     id="base"
     pagecolor="#ffffff"
     bordercolor="#666666"
     borderopacity="1.0"
     inkscape:pageopacity="0.0"
     inkscape:pageshadow="2"
     inkscape:zoom="0.43565235"
     inkscape:cx="175.06704"
     inkscape:cy="512.87337"
     inkscape:document-units="px"
     inkscape:current-layer="layer1"
     showgrid="false"
     inkscape:object-nodes="true"
     inkscape:snap-smooth-nodes="true"
     inkscape:object-paths="true"
     inkscape:snap-bbox="true"
     inkscape:snap-page="false"
     inkscape:bbox-nodes="false"
     inkscape:snap-nodes="false"
     inkscape:snap-intersection-paths="true"
     showguides="true"
     inkscape:guide-bbox="true"
     inkscape:window-width="1366"
     inkscape:window-height="715"
     inkscape:window-x="0"
     inkscape:window-y="0"
     inkscape:window-maximized="1" />
  <metadata
     id="metadata3749">
    <rdf:RDF>
      <cc:Work
         rdf:about="">
        <dc:format>image/svg+xml</dc:format>
        <dc:type
           rdf:resource="http://purl.org/dc/dcmitype/StillImage" />
        <dc:title />
      </cc:Work>
    </rdf:RDF>
  </metadata>
  <g
     inkscape:label="Capa 1"
     inkscape:groupmode="layer"
     id="layer1">
    <path
       sodipodi:type="arc"
       style="fill:#e18f23;fill-opacity:1;fill-rule:nonzero;stroke:#000000;stroke-width:25;stroke-miterlimit:4;stroke-dasharray:none"
       id="path4739"
       sodipodi:cx="391.13074"
       sodipodi:cy="521.68225"
       sodipodi:rx="359.68304"
       sodipodi:ry="359.68304"
       d="m 750.81378,521.68225 a 359.68304,359.68304 0 1 1 -719.366087,0 359.68304,359.68304 0 1 1 719.366087,0 z"
       transform="matrix(0.80582172,0,0,0.80582172,29.296645,180.04416)" />
    <g
       id="g4702"
       transform="matrix(0.80582172,0,0,0.80582172,-292.62429,-430.80241)">
      <path
         sodipodi:nodetypes="ssscscsssscsssssss"
         inkscape:connector-curvature="0"
         id="path4698"
         d="m 527.875,586.65625 c -1.37009,0.002 -2.76297,0.0135 -4.15625,0.0625 -3.18464,0.11193 -6.41605,0.3551 -9.6875,0.71875 -26.11215,2.9026 -52.68952,17.4221 -70.42228,36.02885 -24.69099,32.83365 -39.73304,70.55874 -33.3149,97.00201 5.7673,23.76174 16.80523,51.59404 19.23398,54.31609 2.0949,-1.18604 20.53951,-13.62421 35.2532,-17.15945 7.94182,-1.90817 15.95765,-2.57931 22.21875,0.4375 3.13055,1.5084 5.742,4.02374 7.375,7.5625 1.633,3.53876 2.3219,8.01832 1.9375,13.65625 -2.62553,38.50785 -13.24476,101.26976 -15.9375,117 11.56041,-19.27837 42.85149,-66.54134 104.90625,-129.34375 40.571,-41.05981 55.02685,-74.30622 58.03125,-99.0625 3.0044,-24.75628 -5.40281,-41.18291 -11.03125,-48.6875 -2.60184,-3.46912 -5.88127,-4.84561 -10.0625,-5.4375 -4.18123,-0.59189 -9.18716,-0.24256 -14.5625,-0.0625 -10.75069,0.36012 -23.29412,-0.25385 -33.3125,-12.09375 -8.20853,-9.701 -25.91746,-14.96174 -46.46875,-14.9375 z"
         style="fill:#291801;fill-opacity:1;fill-rule:nonzero;stroke:none" />
      <path
         sodipodi:nodetypes="cscccscccssssccssssssccssssssscsssscscss"
         inkscape:connector-curvature="0"
         id="path4680"
         d="m 523.59375,582.6875 c -3.29185,0.12793 -6.63268,0.40694 -10,0.78125 -26.93857,2.99447 -55.7401,14.01405 -74.375,33.65625 l -0.0937,0.0937 -0.0625,0.125 c -33.19492,46.45759 -35.04048,85.66268 -28.375,113.125 6.66548,27.46232 21.8125,43.3125 21.8125,43.3125 l 1.09375,1.125 1.34375,-0.78125 c 0,0 15.74049,-9.01117 30.78125,-12.625 7.52038,-1.80691 14.74849,-2.14824 19.53125,0.15625 2.39138,1.15225 4.23434,2.88228 5.5,5.625 1.26566,2.74272 1.91515,6.57779 1.5625,11.75 -2.92947,42.96564 -17.65625,127.53125 -17.65625,127.53125 l 3.75,1.25 c 0,0 28.30551,-55.66838 109.71875,-138.0625 40.99646,-41.4904 56.01852,-75.55139 59.15625,-101.40625 3.13773,-25.85486 -5.64805,-43.34324 -11.8125,-51.5625 -3.2946,-4.39281 -7.86717,-6.31764 -12.6875,-7 -4.82033,-0.68236 -9.98451,-0.27013 -15.25,-0.0937 -10.53098,0.35276 -21.09957,-0.0211 -30.125,-10.6875 -10.16198,-12.00962 -30.76955,-17.20799 -53.8125,-16.3125 z m 0.125,4.03125 c 22.29251,-0.78351 41.86923,4.52727 50.625,14.875 10.01838,11.8399 22.56181,12.45387 33.3125,12.09375 5.37534,-0.18006 10.38127,-0.52939 14.5625,0.0625 4.18123,0.59189 7.46066,1.96838 10.0625,5.4375 5.62844,7.50459 14.03565,23.93122 11.03125,48.6875 -3.0044,24.75628 -17.46025,58.00269 -58.03125,99.0625 -62.05476,62.80241 -93.34584,110.06538 -104.90625,129.34375 2.69274,-15.73024 13.31197,-78.49215 15.9375,-117 0.3844,-5.63793 -0.3045,-10.11749 -1.9375,-13.65625 -1.633,-3.53876 -4.24445,-6.0541 -7.375,-7.5625 -6.2611,-3.01681 -14.27693,-2.34567 -22.21875,-0.4375 -14.71369,3.53524 -28.2801,11.09521 -30.375,12.28125 -2.42875,-2.72205 -14.07645,-13.17367 -19.84375,-36.93541 -6.41814,-26.44327 4.96199,-73.01664 29.65298,-105.85029 17.73276,-18.60675 43.70362,-36.78045 69.81577,-39.68305 3.27145,-0.36365 6.50286,-0.60682 9.6875,-0.71875 z"
         style="font-size:medium;font-style:normal;font-variant:normal;font-weight:normal;font-stretch:normal;text-indent:0;text-align:start;text-decoration:none;line-height:normal;letter-spacing:normal;word-spacing:normal;text-transform:none;direction:ltr;block-progression:tb;writing-mode:lr-tb;text-anchor:start;baseline-shift:baseline;color:#000000;fill:#000000;fill-opacity:1;fill-rule:nonzero;stroke:none;stroke-width:4;marker:none;visibility:visible;display:inline;overflow:visible;enable-background:accumulate;font-family:Sans;-inkscape-font-specification:Sans" />
    </g>
    <g
       id="g4803"
       transform="translate(-1761.9355,-122.84094)">
      <g
         id="g11284"
         transform="matrix(1.6582927,0,0,1.6582927,1481.4711,-234.42348)">
        <path
           style="fill:#ffffff;fill-opacity:1;fill-rule:nonzero;stroke:none"
           d="m 356.97359,432.77367 -33.87881,10.7794 -31.89376,44.21331 12.72557,17.51205 59.99866,16.50305 37.53473,30.98072 28.66488,-4.77836 47.20946,-49.78759 -29.64038,-50.49771 z"
           id="rect4708"
           inkscape:connector-curvature="0"
           sodipodi:nodetypes="cccccccccc" />
        <path
           id="path4672"
           style="font-size:medium;font-style:normal;font-variant:normal;font-weight:normal;font-stretch:normal;text-indent:0;text-align:start;text-decoration:none;line-height:normal;letter-spacing:normal;word-spacing:normal;text-transform:none;direction:ltr;block-progression:tb;writing-mode:lr-tb;text-anchor:start;baseline-shift:baseline;color:#000000;fill:#000000;fill-opacity:1;stroke:none;stroke-width:4;marker:none;visibility:visible;display:inline;overflow:visible;enable-background:accumulate;font-family:Sans;-inkscape-font-specification:Sans"
           d="m 357.21733,431.80918 -0.64051,0.36133 -37.52126,10.34075 -0.36953,0.2053 -0.22993,0.36132 -27.79716,43.8916 -0.61589,0.94434 0.65694,0.90331 12.27644,17.28584 0.33666,0.46807 0.55018,0.15608 24.23577,6.2045 30.01095,9.74316 36.60777,29.20131 0.52554,0.39417 0.64054,-0.0329 34.73574,-2.62748 0.56662,-0.0575 0.40238,-0.38595 54.38685,-49.09763 1.09218,-0.97719 -0.81296,-1.17429 -36.61577,-54.55099 -0.33667,-0.46808 -0.51734,-0.17245 -90.87774,-10.6867 z m 0.52214,1.74093 89.94411,14.14151 29.63851,50.50568 -47.19132,49.78772 -31.23978,-0.33635 -33.12015,-27.67866 -61.18357,-15.02776 -13.37754,-17.17569 33.43201,-44.99868 z"
           inkscape:connector-curvature="0"
           sodipodi:nodetypes="ccccccccccccccccccccccccccccccccccccc" />
        <path
           style="fill:#000000;stroke:none"
           d="m 304.5317,479.2904 22.2255,-32.86811 -6.51122,20.4722 z"
           id="path4737"
           inkscape:connector-curvature="0"
           sodipodi:nodetypes="cccc" />
        <path
           style="fill:#999999;fill-opacity:1;fill-rule:nonzero;stroke:none"
           d="m 290.00248,487.86078 c -31.97611,17.94026 -45.04381,35.45268 -57.18255,67.93971 6.49843,13.15365 30.45769,19.66374 45.98392,15.28263 -5.28325,-1.61435 -13.72448,-7.15449 -15.25965,-10.04542 -1.03821,-1.95505 -2.18442,-2.61045 -1.22507,-4.69755 0.95933,-2.08711 1.48172,-3.00534 4.35629,-4.77114 l 1.21547,-0.73289 c 15.52577,-9.16848 20.54783,-14.79155 23.08501,-18.5849 1.26858,-1.89667 1.93001,-3.54422 2.86051,-5.48443 0.9305,-1.9402 2.12516,-4.10715 4.48221,-6.6331 l 0.21399,-0.1914 0.27029,-0.13515 c 7.13394,-6.1826 22.17333,-7.57253 31.08942,-6.60972 l -25.41177,-7.17665 -0.55182,-0.14641 -0.32654,-0.48427 z m 14.69957,30.17097 c -2.43443,1.14105 -4.35998,2.48344 -5.47322,3.91903 -1.98346,2.16677 -2.9646,3.85382 -3.79524,5.58577 -0.85752,1.78801 -1.59416,3.68785 -3.0745,5.90111 -0.2745,0.4104 -0.58347,0.84365 -0.91221,1.27255 3.12874,2.13106 8.88467,4.72765 13.30776,3.40835 6.37543,-3.77791 15.47221,-6.37414 20.73946,-12.36846 2.00226,-2.28358 3.76784,-7.04525 2.19057,-12.45528 -7.34121,-0.19712 -17.37192,2.10706 -22.98262,4.73693 z"
           id="rect4728"
           inkscape:connector-curvature="0"
           sodipodi:nodetypes="cccssccssccccccccscscccccs" />
        <path
           sodipodi:nodetypes="cccccscccccsccc"
           inkscape:connector-curvature="0"
           id="path4652"
           d="m 326.96415,513.73979 c 1.67712,5.50063 -0.48503,9.55039 -2.50918,11.85895 -5.26725,5.99432 -13.28211,8.04278 -19.65756,11.82069 -4.49244,1.33998 -9.33796,-0.67581 -12.46313,-2.8458 -0.64925,0.83928 -1.40928,1.7203 -2.33119,2.65774 1.24824,0.4193 2.44382,0.77369 3.60373,1.0699 4.63964,1.18479 8.61878,1.39971 11.74596,-0.10126 l 0.0451,-0.0225 18.49178,-9.2457 0.3829,-0.19145 0.25903,-0.32658 c 4.26691,-6.29643 5.55103,-9.68928 5.76609,-12.28647 0.0697,-0.84208 0.0339,-1.52607 -0.0338,-2.15099 -1.06796,-0.12203 -2.17183,-0.20533 -3.29968,-0.23652 z"
           style="font-size:medium;font-style:normal;font-variant:normal;font-weight:normal;font-stretch:normal;text-indent:0;text-align:start;text-decoration:none;line-height:normal;letter-spacing:normal;word-spacing:normal;text-transform:none;direction:ltr;block-progression:tb;writing-mode:lr-tb;text-anchor:start;baseline-shift:baseline;color:#000000;fill:#000000;fill-opacity:1;stroke:none;stroke-width:4;marker:none;visibility:visible;display:inline;overflow:visible;enable-background:accumulate;font-family:Sans;-inkscape-font-specification:Sans" />
        <path
           style="font-size:medium;font-style:normal;font-variant:normal;font-weight:normal;font-stretch:normal;text-indent:0;text-align:start;text-decoration:none;line-height:normal;letter-spacing:normal;word-spacing:normal;text-transform:none;direction:ltr;block-progression:tb;writing-mode:lr-tb;text-anchor:start;baseline-shift:baseline;color:#000000;fill:#000000;fill-opacity:1;stroke:none;stroke-width:4;marker:none;visibility:visible;display:inline;overflow:visible;enable-background:accumulate;font-family:Sans;-inkscape-font-specification:Sans"
           d="m 292.53944,485.68022 2.66096,-3.62346 c -38.87913,26.71201 -50.78629,40.22329 -63.34641,74.16194 l -0.30381,0.8294 0.52555,0.72264 c 6.82131,9.30721 14.19778,13.53664 21.65427,15.01948 7.45649,1.48282 14.89339,0.33035 22.10605,-0.70603 l 5.0913,-0.73902 -4.56572,-2.39787 c -5.9432,-3.10929 -10.28573,-6.3179 -11.63598,-8.86058 -0.67512,-1.27135 -0.75101,-2.22059 -0.20527,-3.40788 0.54312,-1.18159 1.91501,-2.6539 4.4426,-4.2126 0.0122,-0.007 0.0206,-0.009 0.0328,-0.0164 15.67482,-9.25951 21.45532,-14.61977 24.41371,-19.04286 1.48033,-2.21326 2.20551,-4.11622 3.06302,-5.90423 0.83064,-1.73195 1.82685,-3.4336 3.81031,-5.60038 4.45296,-5.74237 21.88486,-9.70389 33.01893,-7.28172 l 1.38118,-1.40715 -30.88248,-7.66113 -13.19072,-17.16369 1.92974,-2.70842 z m -0.9444,4.39328 11.38137,16.02944 0.33667,0.46807 0.55018,0.15608 24.23577,6.2045 c -8.91608,-0.9628 -22.51347,-0.0121 -29.64742,6.17056 l -0.26278,0.13139 -0.20529,0.20529 c -2.35704,2.52595 -3.5778,4.68664 -4.50831,6.62685 -0.9305,1.9402 -1.57272,3.58876 -2.84131,5.48542 -2.53718,3.79336 -7.84504,8.88077 -23.3708,18.04925 l -0.008,0.0246 c -2.87457,1.76579 -4.78893,3.57896 -5.74827,5.66607 -0.95934,2.0871 -0.74264,4.38442 0.29557,6.33947 1.53517,2.89093 10.73544,7.63595 16.0187,9.2503 -15.52623,4.38111 -37.72967,-2.8973 -44.22808,-16.05095 12.13873,-32.48703 26.02609,-46.81609 58.00221,-64.75634 z"
           id="path4650"
           inkscape:connector-curvature="0"
           sodipodi:nodetypes="cccccscccssccsscccccccccccccccssccsscccc" />
        <path
           style="fill:#101017;fill-opacity:1;stroke:none"
           d="m 468.81793,405.88487 119.57562,44.66884 9.48353,95.81092 -359.88406,260.05607 31.67931,-79.20726 11.44106,-8.89911 -7.60697,-2.92669 29.77767,-83.55111 8.96691,-6.65403 -4.60173,-4.73276 28.02406,-75.69763 16.56344,-5.22763 40.26323,-21.99129 62.10584,-9.70929 -60.77741,-46.5047 z"
           id="path4773"
           inkscape:connector-curvature="0"
           sodipodi:nodetypes="cccccccccccccccc" />
        <path
           sodipodi:nodetypes="cccccccccccccccccccccccccccccccccccccccccc"
           inkscape:connector-curvature="0"
           d="m 466.63541,401.43811 -0.30136,0.15479 -81.77099,61.74615 68.40074,45.01034 -59.15419,7.3631 -50.18064,22.68908 3.66945,1.40645 -12.87213,2.75452 -0.30136,0.15479 -0.11638,0.30598 -29.41893,77.33799 2.63126,4.89516 -8.12087,3.8088 -29.24315,90.11402 6.61659,2.80662 -7.46698,3.45714 -36.96567,85.63828 -0.68939,1.81231 1.7634,-0.81104 369.55838,-264.6813 -12.67422,-98.14157 -0.42366,-0.16115 -122.6339,-47.54407 z m 7.07814,7.8059 112.88662,42.98897 9.71175,88.86563 -354.39045,260.028 29.82859,-71.55049 236.61678,-141.29458 -232.12795,128.58644 30.51784,-84.91735 222.82882,-80.55353 -219.11838,70.04909 26.31612,-74.50225 219.76991,-23.97818 -204.31643,16.55872 44.61822,-21.22244 114.71594,-15.88457 -55.57528,5.40643 -59.2639,-45.99214 z"
           style="font-size:medium;font-style:normal;font-variant:normal;font-weight:normal;font-stretch:normal;text-indent:0;text-align:start;text-decoration:none;line-height:normal;letter-spacing:normal;word-spacing:normal;text-transform:none;direction:ltr;block-progression:tb;writing-mode:lr-tb;text-anchor:start;baseline-shift:baseline;color:#000000;fill:#000000;fill-opacity:1;stroke:none;stroke-width:2;marker:none;visibility:visible;display:inline;overflow:visible;enable-background:accumulate;font-family:Sans;-inkscape-font-specification:Sans"
           id="path4775" />
      </g>
    </g>
    <g
       id="g4142"
       transform="translate(-205.13144,120.02401)">
      <path
         transform="translate(-4,0)"
         d="m 607.09375,534.0625 a 7.0873514,7.0873514 0 0 0 -2.96875,0.53125 c -4.01949,1.63807 -7.14373,3.48821 -9.875,4.65625 a 7.0873514,7.0873514 0 0 0 -0.4375,0.21875 c -1.22512,0.62727 -2.60393,1.38661 -4.0625,2.28125 -1.55087,0.95137 -3.06208,2.01283 -4.59375,3.1875 -3.08275,2.3644 -5.80475,4.932 -8.15625,7.71875 a 7.0873514,7.0873514 0 0 0 -0.0312,0 c -2.27735,2.71395 -4.18011,5.61059 -5.65625,8.625 -0.004,0.009 0.004,0.0225 0,0.0312 -0.006,0.0126 -0.0251,0.0187 -0.0312,0.0312 -1.47549,2.98368 -2.51967,6.10312 -3.0625,9.28125 a 7.0873514,7.0873514 0 0 0 0,0.0625 c -0.51382,3.21069 -0.49871,6.48508 0.0625,9.65625 0.034,0.19225 0.11729,0.37106 0.15625,0.5625 -1.49022,-3.34844 -3.68672,-6.22141 -7.21875,-7.875 -1.9395,-0.90786 -4.08343,-1.26589 -5.96875,-1.1875 -4.37899,0.18199 -7.99425,2.17898 -11.46875,4.84375 -1.47386,1.13047 -2.93014,2.5302 -4.375,4.15625 l -0.0312,-0.0312 c -0.0247,0.0272 -0.0378,0.0665 -0.0625,0.0937 -1.39305,1.53674 -2.70028,3.16217 -4,4.90625 -0.62451,0.83809 -1.25119,1.77332 -1.875,2.65625 a 7.0873514,7.0873514 0 0 0 -5.03125,1.46875 l -3.84375,2.96875 a 7.0873514,7.0873514 0 0 0 -1.09375,1.0625 L 512.6875,606.875 a 7.0873514,7.0873514 0 0 0 -1.5625,5.65625 l 0.65625,4.1875 c -0.46719,-0.25179 -0.91443,-0.54101 -1.40625,-0.75 -0.0212,-0.009 -0.0413,-0.0222 -0.0625,-0.0312 -2.41344,-1.03524 -5.04458,-1.51604 -7.65625,-1.46875 -1.67804,0.0303 -3.24981,0.2892 -4.71875,0.625 -4.33907,0.99214 -8.43121,3.19196 -12.5,6.3125 -4.04326,3.10108 -7.56011,6.72932 -10.5,10.8125 a 7.0873514,7.0873514 0 0 0 0,0.0312 c -2.85651,3.98921 -5.14332,8.2735 -6.875,12.78125 -0.003,0.009 0.003,0.0224 0,0.0312 -0.87098,2.24654 -1.61136,4.52427 -2.1875,6.84375 -0.34051,-0.34492 -0.69507,-0.69391 -1.09375,-1 l 0.0312,-0.0312 c -0.0485,-0.038 -0.10715,-0.0567 -0.15625,-0.0937 -0.0115,-0.009 -0.0197,-0.0226 -0.0312,-0.0312 -2.47154,-1.84763 -5.60569,-2.48502 -8.28125,-2.3125 -0.0294,0.002 -0.0644,-0.002 -0.0937,0 l 0,0.0312 c -2.71045,0.17148 -5.13377,0.99959 -7.5,2.15625 -0.0508,0.0248 -0.10547,0.0374 -0.15625,0.0625 l 0,0.0312 c -2.34702,1.11856 -4.68856,2.54707 -7.03125,4.34375 -3.52505,2.70364 -6.7326,5.94389 -9.625,9.6875 -2.92152,3.75061 -5.29901,7.87972 -7.1875,12.3125 -0.004,0.009 0.004,0.0226 0,0.0312 -0.002,0.004 -0.0294,-0.004 -0.0312,0 -1.92792,4.48684 -3.20334,9.23999 -3.90625,14.15625 -0.72886,5.09787 -0.6387,10.30247 0.28125,15.5 0.35055,1.98062 0.87091,3.82609 1.46875,5.625 a 7.0873514,7.0873514 0 0 0 -0.8125,0.28125 l -11.71875,-62.5625 A 7.0873514,7.0873514 0 0 0 396.625,648.4375 l -12.46875,26.90625 a 7.0873514,7.0873514 0 0 0 -0.53125,4.21875 l 0.625,3.53125 a 7.0873514,7.0873514 0 0 0 9.125,5.5 l 6.625,37.4375 a 7.0873514,7.0873514 0 0 0 -5.90625,-0.25 L 393.625,723.0625 c -0.49864,-2.81704 -1.22332,-5.40325 -2.4375,-7.8125 -1.35612,-2.6905 -3.73423,-5.26705 -6.84375,-6.5625 -0.009,-0.004 -0.0219,0.004 -0.0312,0 -0.0352,-0.0145 -0.0584,-0.0483 -0.0937,-0.0625 l 0,0.0312 c -1.68293,-0.69836 -3.47395,-1.01841 -5.1875,-0.96875 -1.76939,0.0514 -3.31411,0.45953 -4.78125,0.9375 l 0,-0.0312 c -0.022,0.007 -0.0405,0.0241 -0.0625,0.0312 -3.321,1.08035 -6.27454,2.9398 -9.53125,5.4375 -2.62522,2.01351 -5.12242,4.27653 -7.5625,6.75 -2.51173,2.54624 -4.79715,5.25253 -6.75,8.125 -1.98415,2.91867 -3.5223,5.92146 -4.625,9.03125 -0.003,0.009 0.003,0.0223 0,0.0312 -1.21695,3.38646 -1.68928,7.05267 -1.0625,10.59375 0.24337,1.37518 0.53794,3.0625 2.34375,5 a 7.0873514,7.0873514 0 0 0 0.84375,0.75 c 1.31077,1.01414 3.0833,1.56597 4.75,1.6875 -0.53183,0.85972 -1.26626,1.7922 -1.71875,2.625 -0.004,0.007 0.004,0.0243 0,0.0312 -1.24742,2.28673 -2.25333,4.48945 -2.9375,6.71875 -0.66283,2.15978 -1.06882,4.30944 -1.125,6.46875 a 7.0873514,7.0873514 0 0 0 0,0.15625 c -0.007,1.76711 0.16181,3.5471 0.46875,5.28125 0.52681,2.97641 1.43991,5.72755 3.1875,8.1875 a 7.0873514,7.0873514 0 0 0 0.0937,0.15625 c 1.65595,2.21576 4.126,4.18002 7,5.0625 2.72917,0.83799 5.75902,0.76538 8.46875,-0.0312 a 7.0873514,7.0873514 0 0 0 0.0625,-0.0312 c 2.6609,-0.80612 5.03177,-2.17371 7.25,-3.875 1.20897,-0.92724 2.35566,-1.97377 3.46875,-3.125 0.005,-0.006 -0.005,-0.0256 0,-0.0312 1.06331,-1.09307 2.09729,-2.23758 3.03125,-3.4375 0.0228,-0.0293 0.0398,-0.0644 0.0625,-0.0937 0.018,-0.0222 0.0445,-0.0403 0.0625,-0.0625 0.90395,-1.11575 1.79902,-2.27632 2.65625,-3.5 0.64993,-0.92781 1.25319,-1.83852 1.84375,-2.75 a 7.0873514,7.0873514 0 0 0 5.625,-1.34375 l 13.9375,-10.6875 a 7.0873514,7.0873514 0 0 0 1.75,-2 7.0873514,7.0873514 0 0 0 2.4375,-1.1875 L 431.125,741 a 7.0873514,7.0873514 0 0 0 2.6875,-6.625 l -1.25,-8.65625 c 0.63798,0.37112 1.28045,0.74091 1.96875,1.03125 a 7.0873514,7.0873514 0 0 0 0.0625,0.0312 c 3.84186,1.56652 8.08751,1.62923 12.03125,0.71875 a 7.0873514,7.0873514 0 0 0 0.125,-0.0312 c 4.14102,-1.03119 8.064,-3.15418 11.9375,-6.125 1.86272,-1.42863 3.5772,-3.00906 5.1875,-4.65625 l 0.0312,0.0312 c 0.006,-0.006 -0.006,-0.0256 0,-0.0312 1.53836,-1.56744 2.98632,-3.1635 4.34375,-4.8125 l 0.0312,0 c 0.005,-0.006 -0.005,-0.0253 0,-0.0312 1.38447,-1.67003 2.6457,-3.34841 3.8125,-5.03125 a 7.0873514,7.0873514 0 0 0 0.0312,-0.0312 c 1.10904,-1.62322 2.15808,-3.19927 3.125,-4.65625 a 7.0873514,7.0873514 0 0 0 1.0625,-5.15625 l -0.21875,-1.15625 -0.40625,-4.625 c 0.984,0.62922 1.99857,1.19691 3.09375,1.625 3.91076,1.52872 8.22711,1.53827 12.28125,0.5625 a 7.0873514,7.0873514 0 0 0 0.0937,0 c 4.22814,-1.06878 8.23401,-3.25637 12.21875,-6.3125 3.96,-3.03716 7.42758,-6.62263 10.34375,-10.6875 l 0.0312,0 c 0.005,-0.007 -0.005,-0.0247 0,-0.0312 2.87456,-3.99629 5.18326,-8.24467 6.90625,-12.6875 0.0721,-0.1856 0.11742,-0.37643 0.1875,-0.5625 a 7.0873514,7.0873514 0 0 0 10,1.40625 L 552.125,648.1875 a 7.0873514,7.0873514 0 0 0 2.65625,-4.375 7.0873514,7.0873514 0 0 0 4.90625,-1.4375 l 20.78125,-15.9375 a 7.0873514,7.0873514 0 0 0 2.59375,-4.15625 c 0.9489,-0.28239 1.68679,-0.57145 2.625,-0.9375 1.16386,-0.45407 2.37519,-0.98858 3.65625,-1.625 0.0223,-0.0111 0.0401,-0.0201 0.0625,-0.0312 0.0197,-0.009 0.0428,-0.0218 0.0625,-0.0312 1.41447,-0.67811 2.87458,-1.50741 4.375,-2.4375 l 0.0312,0.0312 c 1.68967,-1.01289 3.31827,-2.16438 4.9375,-3.40625 3.15826,-2.42227 5.98346,-5.07109 8.4375,-7.96875 2.41732,-2.85431 4.45276,-5.884 6.03125,-9.09375 a 7.0873514,7.0873514 0 0 0 0.0312,-0.0312 c 1.54395,-3.19701 2.64522,-6.5265 3.21875,-9.9375 0.58267,-3.46323 0.57629,-7.00471 -0.0312,-10.4375 -0.45595,-2.57574 -1.39452,-5.10793 -3.3125,-7.3125 l 0.0312,-0.0312 c -0.0334,-0.0394 -0.091,-0.0547 -0.125,-0.0937 -0.014,-0.0161 -0.0172,-0.0465 -0.0312,-0.0625 -1.6622,-1.88916 -3.96986,-3.30438 -6.34375,-3.96875 -0.56049,-0.15681 -1.12135,-0.21796 -1.6875,-0.3125 l 3.375,-2.5 a 7.0873514,7.0873514 0 0 0 2.75,-4.5 l 2.625,-15.25 a 7.0873514,7.0873514 0 0 0 -6.6875,-8.28125 z M 569.875,585 c 0.34888,0.70585 0.63407,1.42605 1.125,2.09375 a 7.0873514,7.0873514 0 0 0 0.0625,0.0937 c 1.38992,1.83666 3.44537,3.3393 5.59375,4.1875 l -4.0625,5.9375 a 7.0873514,7.0873514 0 0 0 -0.28125,0.4375 l -1.75,-9.84375 c -0.17674,-0.9985 -0.43696,-1.93831 -0.6875,-2.90625 z m 24.84375,5.53125 c -0.10402,0.48563 -0.23297,0.99511 -0.53125,1.65625 a 7.0873514,7.0873514 0 0 0 -0.0312,0.0625 c -0.33361,0.76547 -0.79659,1.60226 -1.40625,2.4375 -0.009,0.0127 -0.0219,0.0186 -0.0312,0.0312 -0.0752,0.0969 -0.23104,0.18455 -0.3125,0.28125 0.59275,-1.4538 0.94876,-2.51718 1.75,-4.34375 a 7.0873514,7.0873514 0 0 0 0,-0.0312 c 0.16657,-0.0307 0.40201,-0.0646 0.5625,-0.0937 z m -46.3125,9.40625 4.40625,24.90625 -2.78125,2.375 a 7.0873514,7.0873514 0 0 0 -2.375,4.09375 7.0873514,7.0873514 0 0 0 -1.375,0 L 541.96875,607 c 0.81089,-1.08485 1.58759,-2.20478 2.46875,-3.21875 a 7.0873514,7.0873514 0 0 0 0.0625,-0.0625 c 1.2975,-1.5261 2.6125,-2.76543 3.90625,-3.78125 z m -52.09375,36.65625 c 0.0659,7.3e-4 -0.2896,-0.21713 0.0937,0.125 0.40156,0.35843 1.08398,1.2219 1.75,2.8125 a 7.0873514,7.0873514 0 0 0 0.0312,0.0937 c 0.74833,1.71464 1.37984,3.74319 1.8125,6.1875 0.43924,2.48183 0.63355,5.05577 0.59375,7.6875 a 7.0873514,7.0873514 0 0 0 0,0.0625 c -0.0131,2.51388 -0.31831,4.9406 -0.875,7.28125 a 7.0873514,7.0873514 0 0 0 0,0.0312 c -0.50623,2.21068 -1.25075,4.2062 -2.28125,6.03125 -0.94171,1.6678 -2.05002,2.90462 -3.4375,3.96875 -1.29092,0.99009 -1.72779,0.90751 -1.40625,0.90625 -0.01,0.0205 0.0548,0.0912 -0.1875,-0.125 -0.45179,-0.40323 -1.15948,-1.30716 -1.84375,-2.875 -0.72091,-1.74029 -1.32347,-3.77759 -1.75,-6.1875 -0.44131,-2.49322 -0.63887,-5.03718 -0.625,-7.6875 0.0134,-2.55209 0.28926,-4.95479 0.8125,-7.25 0.002,-0.01 -0.002,-0.0215 0,-0.0312 0.52856,-2.21062 1.30508,-4.18637 2.34375,-6.03125 0.005,-0.008 -0.005,-0.0229 0,-0.0312 0.93214,-1.64423 2.09344,-2.95243 3.5,-4.03125 1.3445,-1.03114 1.87698,-0.93305 1.46875,-0.9375 z m 35.96875,9.53125 c 0.30696,0.27548 0.25277,0.40278 0.125,0.21875 -0.0173,-0.0249 -0.10554,-0.18851 -0.125,-0.21875 z m -85.375,30.21875 a 7.0873514,7.0873514 0 0 0 6.3125,3.34375 c 1.243,-0.0547 2.29978,-0.26382 3.3125,-0.46875 a 7.0873514,7.0873514 0 0 0 0.28125,-0.0625 c 1.12762,-0.27677 2.10805,-0.69345 3.03125,-1.1875 0.0534,3.47218 -0.0166,6.94506 -0.5625,10.125 -0.92865,5.40956 -2.78336,9.51907 -6.6875,12.40625 a 7.0873514,7.0873514 0 0 0 -0.0937,0.0625 c -1.97441,1.51429 -3.4523,2.10841 -4.03125,2.21875 -0.0259,0.004 -0.007,-0.004 -0.0312,0 -0.70953,0.11848 -0.74196,0.0357 -0.90625,-0.0625 -0.29609,-0.19055 -0.78328,-0.61113 -1.375,-1.65625 -0.004,-0.007 0.004,-0.0244 0,-0.0312 -0.70319,-1.35261 -1.36404,-3.20527 -1.78125,-5.5625 -0.45924,-2.59443 -0.59381,-5.10289 -0.46875,-7.65625 0.1186,-2.553 0.52146,-4.97942 1.15625,-7.21875 0.47545,-1.61655 1.15849,-2.9149 1.84375,-4.25 z m -98,14.0625 a 7.0873514,7.0873514 0 0 0 -4.71875,2.03125 L 291.5,744.28125 a 7.0873514,7.0873514 0 0 0 -1.84375,3.09375 l -3.625,12.46875 a 7.0873514,7.0873514 0 0 0 9.5625,8.5 l 6.75,38.21875 -0.5,-0.3125 a 7.0873514,7.0873514 0 0 0 -10.21875,8.96875 l 7.46875,16.125 a 7.0873514,7.0873514 0 0 0 10.75,2.65625 l 24.75,-18.96875 a 7.0873514,7.0873514 0 0 0 2.34375,-8.09375 l -3.53125,-9.5 a 7.0873514,7.0873514 0 0 0 -8.25,-4.4375 l -1.375,-7.71875 4.5625,-3.5 a 7.0873514,7.0873514 0 0 0 10.65625,2.5 l 4.6875,-3.59375 a 7.0873514,7.0873514 0 0 0 2.65625,-6.84375 l -4.25,-24.09375 a 7.0873514,7.0873514 0 0 0 -0.9375,-2.46875 7.0873514,7.0873514 0 0 0 0.90625,-1.90625 l 13.875,-45.8125 a 7.0873514,7.0873514 0 0 0 -7.03125,-9.15625 z M 328.25,741.3125 328.1875,743 a 7.0873514,7.0873514 0 0 0 0.875,3.6875 l -2.9375,2.25 a 7.0873514,7.0873514 0 0 0 -2.75,6.03125 l 0.375,6.53125 -3.6875,2.84375 -2.21875,-12.6875 L 328.25,741.3125 z m 46.9375,14.3125 0.125,0.65625 c -0.61152,1.00831 -1.22736,2.06543 -1.84375,2.96875 -0.67795,0.9915 -1.51329,2.06324 -2.34375,3.125 0.14205,-0.35808 0.0706,-0.38062 0.28125,-0.8125 0.6658,-1.37035 2.09334,-3.56285 3.78125,-5.9375 z"
         id="path4865"
         style="font-size:106.98505402px;font-style:normal;font-variant:normal;font-weight:normal;font-stretch:normal;line-height:125%;letter-spacing:0px;word-spacing:0px;fill:#1a1a1a;fill-opacity:1;stroke:none;font-family:Abyssinica SIL;-inkscape-font-specification:Abyssinica SIL"
         inkscape:original="M 606.8125 541.15625 C 603.4275 542.53575 600.33034 544.37038 597.03125 545.78125 C 595.94552 546.33715 594.75675 546.99123 593.46875 547.78125 C 592.18071 548.57139 590.84859 549.50427 589.46875 550.5625 C 586.7397 552.65562 584.39258 554.86476 582.40625 557.21875 C 580.45058 559.54935 578.85703 561.97404 577.65625 564.4375 C 576.4493 566.86627 575.64632 569.30918 575.21875 571.8125 C 574.82188 574.29239 574.83091 576.72563 575.25 579.09375 C 575.53355 580.69578 576.03073 581.9705 576.71875 582.90625 C 577.4006 583.80726 578.26343 584.44619 579.34375 584.84375 C 580.44857 585.18309 581.76504 585.321 583.25 585.25 C 584.72878 585.14425 586.39766 584.90798 588.28125 584.53125 C 590.26912 584.1537 592.04145 583.8121 593.59375 583.53125 C 595.17668 583.22698 596.52091 583.13195 597.65625 583.25 C 598.78539 583.3333 599.72512 583.72648 600.4375 584.40625 C 601.14367 585.05126 601.60993 586.12752 601.875 587.625 C 602.06603 588.70463 602.06354 589.9031 601.84375 591.21875 C 601.64836 592.47612 601.25655 593.76318 600.65625 595.09375 C 600.08658 596.40085 599.33124 597.71286 598.375 599 C 597.41256 600.25235 596.25541 601.37151 594.90625 602.40625 C 593.06643 603.81733 591.36521 604.76382 589.84375 605.21875 C 588.34677 605.61536 587.07384 605.81125 586 605.84375 C 581.2187 600.72138 584.85493 594.19864 587.65625 587.8125 L 578.4375 601.3125 L 580.96875 615.53125 C 581.46568 615.38745 582.18028 615.11859 583.125 614.75 C 584.0697 614.38143 585.12863 613.90405 586.3125 613.3125 C 587.53317 612.73227 588.83873 612.0169 590.21875 611.15625 C 591.63558 610.30692 593.0588 609.32408 594.5 608.21875 C 597.29034 606.07866 599.74092 603.76421 601.84375 601.28125 C 603.94655 598.79831 605.65703 596.26 606.9375 593.65625 C 608.21175 591.0177 609.07314 588.34957 609.53125 585.625 C 609.98963 582.90052 609.99352 580.23698 609.53125 577.625 C 609.22302 575.88375 608.63547 574.53643 607.8125 573.625 C 607.02013 572.69015 606.02162 572.05714 604.8125 571.71875 C 603.60334 571.38045 602.2276 571.28473 600.6875 571.4375 C 599.14736 571.59038 597.49124 571.87841 595.6875 572.3125 C 593.50945 572.79641 591.65335 573.14485 590.15625 573.34375 C 588.68978 573.51921 587.46967 573.54112 586.5 573.375 C 585.56097 573.18552 584.84071 572.77956 584.3125 572.15625 C 583.81493 571.50952 583.46574 570.5627 583.25 569.34375 C 582.88016 567.25425 583.1952 565.07663 584.1875 562.8125 C 585.20429 560.49012 586.98735 558.3428 589.59375 556.34375 C 591.06558 555.21497 592.5265 554.39518 593.9375 553.90625 C 595.34847 553.41745 596.43935 553.20665 597.21875 553.28125 C 604.53929 554.37915 596.92959 559.56115 595.09375 563.15625 L 604.1875 556.40625 L 606.8125 541.15625 z M 555.53125 578.9375 C 553.39213 579.0264 550.91859 580.14599 548.09375 582.3125 C 546.98984 583.15921 545.81437 584.24653 544.625 585.59375 C 543.42943 586.9063 542.23822 588.40094 541 590.0625 C 539.76175 591.72421 538.51931 593.48453 537.28125 595.34375 C 536.07382 597.17958 534.88933 599.02798 533.71875 600.875 L 532.75 595.53125 L 528.90625 598.5 L 518.125 611.40625 L 521.1875 630.625 L 525.3125 609.84375 L 531.90625 647 C 532.02336 647.6617 531.91895 648.33114 531.625 649.03125 C 531.331 649.73139 530.91402 650.35847 530.34375 650.875 C 527.84633 654.94574 525.34117 648.00405 522.84375 643.40625 L 526.53125 658.875 L 547.8125 642.5625 L 547.09375 638.375 L 543.0625 641.09375 C 542.46755 641.47096 541.97316 641.57322 541.53125 641.4375 C 541.0893 641.30183 540.8046 640.91171 540.6875 640.25 L 534.46875 605.15625 C 535.90298 603.02792 537.44454 601.02278 539.09375 599.125 C 540.73676 597.19252 542.4721 595.5126 544.28125 594.125 C 547.56221 591.60869 550.02451 590.71974 551.71875 591.4375 C 553.40677 592.12057 554.55832 594.15321 555.15625 597.53125 L 560.09375 625.375 C 560.21083 626.03673 560.10585 626.71389 559.78125 627.4375 C 559.48722 628.13766 559.07082 628.75701 558.53125 629.25 L 554.625 632.59375 L 555.375 636.75 L 576.15625 620.8125 L 575.40625 616.625 L 571.21875 619.5 C 570.65444 619.85321 570.12879 619.98723 569.65625 619.875 C 569.21428 619.73935 568.96081 619.318 568.84375 618.65625 L 563.59375 589.15625 C 562.66911 583.93246 560.87676 580.6819 558.21875 579.4375 C 557.3881 579.04868 556.50358 578.89707 555.53125 578.9375 z M 502.78125 621.5625 C 501.74632 621.5812 500.6609 621.74176 499.53125 622 C 496.51881 622.6888 493.2456 624.35032 489.75 627.03125 C 486.25435 629.71232 483.23131 632.84193 480.6875 636.375 C 478.17436 639.88468 476.18106 643.61605 474.65625 647.59375 C 473.12527 651.53674 472.11323 655.54824 471.65625 659.65625 C 471.19927 663.76435 471.29687 667.73527 471.96875 671.53125 C 472.65295 675.39695 473.80878 678.59265 475.40625 681.125 C 477.02822 683.59905 479.01788 685.29739 481.375 686.21875 C 483.7321 687.14014 486.39997 687.22357 489.40625 686.5 C 492.40633 685.74165 495.62818 684.07148 499.0625 681.4375 C 502.49678 678.80355 505.48683 675.72839 508 672.21875 C 510.54377 668.68565 512.55599 664.97837 514.0625 661.09375 C 515.59344 657.15085 516.59932 653.13577 517.0625 649.0625 C 517.5501 644.93098 517.45309 640.95233 516.78125 637.15625 C 516.1155 633.39512 514.99751 630.27887 513.40625 627.78125 C 511.83941 625.22542 509.89507 623.44854 507.5625 622.46875 C 506.10074 621.83471 504.50613 621.53127 502.78125 621.5625 z M 496.375 629.5 C 498.15455 629.5196 499.71874 630.18244 501.125 631.4375 C 502.5312 632.69269 503.72224 634.47601 504.6875 636.78125 C 505.68338 639.0631 506.45095 641.63718 506.96875 644.5625 C 507.4865 647.48792 507.7341 650.51241 507.6875 653.59375 C 507.6715 656.65167 507.30385 659.61447 506.625 662.46875 C 505.97676 665.29959 504.97248 667.93321 503.59375 670.375 C 502.21498 672.81684 500.45891 674.8538 498.3125 676.5 C 496.1967 678.12274 494.2483 678.92575 492.46875 678.90625 C 490.683 678.85195 489.09372 678.19265 487.6875 676.9375 C 486.28126 675.6824 485.05839 673.90683 484.0625 671.625 C 483.09725 669.31973 482.35535 666.73434 481.84375 663.84375 C 481.32596 660.91842 481.07775 657.93292 481.09375 654.875 C 481.10975 651.81718 481.44552 648.8621 482.09375 646.03125 C 482.77262 643.17698 483.80873 640.53563 485.1875 638.09375 C 486.56625 635.652 488.35413 633.57607 490.53125 631.90625 C 492.647 630.28361 494.59541 629.4806 496.375 629.5 z M 403.0625 651.40625 L 390.59375 678.3125 L 391.21875 681.84375 L 398.40625 676.34375 L 409.78125 740.75 C 409.86755 741.23757 409.74195 741.94509 409.34375 742.84375 C 408.97009 743.68409 408.55427 744.26451 408.125 744.59375 C 406.51039 748.64877 403.73234 742.85206 401.25 739.53125 L 403.90625 752.9375 L 426.8125 735.375 L 424.5 719.1875 C 424.84237 731.74496 422.77907 733.42699 420.90625 734.78125 C 420.47695 735.11052 419.98373 735.19732 419.4375 735.0625 C 418.91573 734.86938 418.61755 734.55008 418.53125 734.0625 L 403.0625 651.40625 z M 456.75 655.5 C 455.30185 655.5824 453.63925 656.09652 451.75 657.03125 C 449.88522 657.90778 447.92942 659.1119 445.875 660.6875 C 442.86997 662.99229 440.08136 665.79316 437.53125 669.09375 C 435.00561 672.33613 432.92212 675.94254 431.25 679.875 C 429.57172 683.77275 428.43496 687.89641 427.8125 692.25 C 427.19004 696.60367 427.26734 701.0075 428.0625 705.5 C 428.74053 709.33088 429.87744 712.50248 431.46875 715 C 433.06004 717.49758 434.98547 719.25034 437.28125 720.21875 C 439.57086 721.15234 442.15379 721.25806 445.03125 720.59375 C 447.93317 719.87112 451.06333 718.25867 454.375 715.71875 C 455.96947 714.49586 457.45802 713.16879 458.84375 711.75 C 460.26009 710.30775 461.58023 708.8426 462.8125 707.34375 C 464.07536 705.82145 465.22696 704.30182 466.28125 702.78125 C 467.35997 701.2024 468.38145 699.66877 469.34375 698.21875 L 469.0625 696.65625 L 466.6875 670.40625 C 467.29868 681.52859 468.25008 697.72922 456.8125 706.1875 C 454.23674 708.163 451.84718 709.35933 449.6875 709.75 C 447.55844 710.1172 445.68878 709.8417 444.03125 708.9375 C 442.3982 707.97501 441.01188 706.43833 439.875 704.34375 C 438.76875 702.22571 437.93018 699.67897 437.40625 696.71875 C 436.85761 693.61928 436.66153 690.55108 436.8125 687.46875 C 436.9573 684.35168 437.45447 681.37937 438.25 678.59375 C 439.07618 675.78471 440.1915 673.22462 441.65625 670.875 C 446.37422 663.49034 464.49759 653.48558 452.90625 672.59375 C 453.56279 672.56485 454.28441 672.45135 455.125 672.28125 C 455.95935 672.07646 456.92618 671.5809 457.96875 670.78125 C 458.67399 670.2404 459.30544 669.58145 459.90625 668.84375 C 460.5315 668.04782 461.07116 667.20351 461.5 666.28125 C 461.92263 665.32431 462.20394 664.34516 462.375 663.34375 C 462.57048 662.28414 462.59118 661.23235 462.40625 660.1875 C 462.09801 658.44629 461.43829 657.20427 460.4375 656.46875 C 459.46732 655.70987 458.22876 655.39429 456.75 655.5 z M 349.15625 697.5 L 296.46875 749.34375 L 292.84375 761.8125 L 298.6875 757.8125 C 299.37443 757.36484 299.88832 757.27894 300.28125 757.53125 C 300.70485 757.76019 300.9701 758.13392 301.0625 758.65625 L 311.15625 815.6875 C 311.24875 816.2099 311.18845 816.8475 310.9375 817.59375 C 310.71715 818.3165 310.256 818.97542 309.59375 819.5625 L 298.0625 812.25 L 305.53125 828.375 L 330.28125 809.40625 L 326.75 799.90625 C 327.07232 808.171 324.53771 806.84155 323.09375 809.21875 C 322.4068 809.6665 321.82982 809.79139 321.40625 809.5625 C 321.0133 809.31013 320.78 808.89741 320.6875 808.375 L 316.0625 782.28125 L 330.46875 771.21875 C 330.86735 770.91309 331.27005 770.86852 331.6875 771.0625 C 332.1049 771.2566 332.37084 771.50777 332.5 771.84375 L 334.6875 778.65625 L 339.375 775.0625 L 335.125 750.96875 L 330.4375 754.5625 L 330.90625 762.78125 C 330.91225 763.21144 330.7884 763.75738 330.53125 764.46875 C 330.30473 765.15673 329.96052 765.67081 329.53125 766 L 315.125 777.0625 L 310.21875 749.21875 L 336.15625 723.5 L 335.28125 743.3125 L 349.15625 697.5 z M 379.25 714.78125 C 378.39246 714.80615 377.44302 715.00349 376.40625 715.34375 C 374.36334 716.00091 371.88175 717.4534 368.96875 719.6875 C 366.63832 721.47491 364.36911 723.50643 362.125 725.78125 C 359.88087 728.05622 357.90429 730.42697 356.21875 732.90625 C 354.53321 735.38566 353.25666 737.8794 352.375 740.375 C 351.48717 742.83588 351.23666 745.14977 351.625 747.34375 C 351.74211 748.00549 351.92955 748.47324 352.1875 748.75 C 352.46995 748.96853 352.80706 749.0774 353.1875 749.0625 C 353.56177 749.0128 353.93279 748.86114 354.34375 748.625 C 354.78536 748.36545 355.22696 748.07929 355.65625 747.75 L 375.03125 733.90625 C 356.15833 745.53887 360.34118 737.83151 360.875 733.1875 C 361.29795 732.62584 362.05268 731.74199 363.15625 730.5 C 364.25981 729.25814 365.62541 727.98876 367.28125 726.71875 C 370.3169 724.39058 372.71876 723.55935 374.4375 724.21875 C 376.15002 724.84349 377.30259 726.94425 377.9375 730.53125 L 378.75 735.125 C 374.81984 739.28636 371.45124 743.02912 368.625 746.34375 C 365.82323 749.60012 363.46884 752.54714 361.5625 755.15625 C 359.6868 757.74191 358.19669 760.03001 357.09375 762.0625 C 356.01531 764.0367 355.22676 765.8447 354.71875 767.5 C 354.21073 769.15535 353.94195 770.6903 353.90625 772.0625 C 353.90125 773.41122 354.01577 774.73913 354.25 776.0625 C 354.65066 778.32619 355.32237 780.1005 356.25 781.40625 C 357.2083 782.68851 358.33046 783.53041 359.65625 783.9375 C 360.98203 784.34458 362.44228 784.34214 364.03125 783.875 C 365.65086 783.38434 367.31409 782.47324 369.03125 781.15625 C 369.95114 780.45073 370.86706 779.63324 371.75 778.71875 C 372.66356 777.78076 373.52229 776.78386 374.34375 775.71875 C 375.20198 774.66498 376.03404 773.57999 376.8125 772.46875 C 377.59091 771.35754 378.31969 770.26302 379 769.1875 C 380.55055 766.7326 382.03437 764.16659 383.4375 761.46875 L 385.78125 766.8125 L 399.71875 756.125 L 396.78125 732.3125 C 397.10956 736.9774 400.10473 754.05852 391.96875 754.3125 L 386.65625 724.3125 C 386.24324 721.97924 385.64886 720.03505 384.84375 718.4375 C 384.03859 716.84009 382.94974 715.74527 381.5625 715.1875 C 380.88419 714.89693 380.10754 714.7564 379.25 714.78125 z M 379.46875 739.21875 L 382.75 757.6875 C 381.6347 759.6504 380.50156 761.50742 379.3125 763.25 C 378.28889 764.74703 377.13112 766.29433 375.84375 767.875 C 374.587 769.43218 373.31968 770.69204 372.0625 771.65625 C 370.92795 772.52641 369.88177 773.05556 368.90625 773.25 C 367.95521 773.38611 367.10494 773.2717 366.34375 772.90625 C 365.61319 772.51729 364.9597 771.94235 364.4375 771.15625 C 363.93976 770.31185 363.60349 769.33319 363.40625 768.21875 C 363.17204 766.89539 363.12843 765.47763 363.25 764 C 363.39604 762.4641 363.98362 760.61707 365.03125 758.46875 C 366.10336 756.26213 367.78833 753.62028 370.0625 750.53125 C 372.33664 747.44229 375.45292 743.68313 379.46875 739.21875 z "
         inkscape:radius="7.0866427"
         sodipodi:type="inkscape:offset" />
      <g
         id="text4813"
         style="font-size:106.98505402px;font-style:normal;font-variant:normal;font-weight:normal;font-stretch:normal;line-height:125%;letter-spacing:0px;word-spacing:0px;fill:#ffffff;fill-opacity:1;stroke:none;font-family:'Champagne &amp; Limousines';-inkscape-font-specification:'Champagne &amp; Limousines'"
         transform="matrix(0.88047718,-0.67529043,0.17699469,1,0,0)">
        <path
           sodipodi:nodetypes="cccccccccccccccccccccccccccccccc"
           inkscape:connector-curvature="0"
           id="path4818"
           style="fill:#ffffff;font-family:Abyssinica SIL;-inkscape-font-specification:Abyssinica SIL"
           d="m 203.7235,880.89212 4.39093,-16.85029 -30.51033,5.09656 0,27.84328 16.35074,0 c 0.48753,3e-5 0.90544,-0.22633 1.25373,-0.67911 0.38305,-0.4527 0.60942,-0.87061 0.67911,-1.25373 l 0.99254,-7.52239 5.32835,0 0,24.08209 -5.32835,0 -0.99254,-7.47015 c -0.0697,-0.38305 -0.29606,-0.80096 -0.67911,-1.25373 -0.38312,-0.4527 -0.80103,-0.67907 -1.25373,-0.67911 l -16.35074,0 0,26.1194 c -2e-5,0.5224 0.17411,1.02737 0.52239,1.51493 0.38306,0.48757 0.95768,0.76617 1.72388,0.83582 1.86471,-1.11798 4.18337,1.76109 5.32387,-5.73349 l 1.83284,10.74841 -28.10447,0 -4.58971,-19.2436 10.2315,14.22868 c 0.76616,-0.0697 1.32337,-0.34825 1.67164,-0.83582 0.38308,-0.48756 0.57462,-0.99253 0.57463,-1.51493 l 0,-57.04476 c -1e-5,-0.52233 -0.19155,-1.0273 -0.57463,-1.51493 -0.34827,-0.48749 -0.90548,-0.7661 -1.67164,-0.83582 l -6.52985,-0.41791 5.81385,-8.5329 61.866,-10.06432 -21.9709,30.97782" />
        <path
           sodipodi:nodetypes="ccccccscccscsccccscccccccccccccccccccccccsccccccscccc"
           inkscape:connector-curvature="0"
           id="path4820"
           style="fill:#ffffff;font-family:Abyssinica SIL;-inkscape-font-specification:Abyssinica SIL"
           d="m 250.05931,935.69061 -1.41045,-6.32089 c -1.88063,1.42786 -3.81346,2.69901 -5.79851,3.81343 -0.87067,0.48756 -1.79356,0.95771 -2.76865,1.41045 -0.97515,0.45273 -1.9851,0.85323 -3.02985,1.20149 -1.00997,0.38308 -2.05475,0.6791 -3.13433,0.88806 -1.0448,0.20895 -2.08957,0.31343 -3.13433,0.31343 -1.95026,0 -3.77862,-0.33084 -5.48507,-0.99253 -1.67165,-0.6617 -3.13434,-1.61941 -4.38806,-2.87314 -1.25374,-1.25373 -2.24627,-2.76865 -2.97761,-4.54477 -0.69652,-1.77611 -1.04478,-3.79601 -1.04478,-6.0597 0,-1.32337 0.12189,-2.5771 0.36567,-3.7612 0.27861,-1.18406 0.81841,-2.33331 1.61941,-3.44776 0.80099,-1.1144 1.91541,-2.17659 3.34328,-3.18656 1.46268,-1.04476 3.36068,-2.07212 5.69403,-3.08209 2.36814,-1.00993 5.24127,-2.00246 8.6194,-2.97761 3.41291,-1.00992 7.4527,-2.01987 12.1194,-3.02985 l 0,-4.59702 c -3e-5,-3.58702 -0.80103,-6.23378 -2.40298,-7.9403 -1.60203,-1.74124 -4.1269,-2.61189 -7.57463,-2.61194 -1.88062,5e-5 -3.48261,0.17418 -4.80597,0.52239 -1.3234,0.34831 -2.24629,0.62691 -2.76865,0.83582 -1.35579,3.72846 -6.87991,7.68621 14.05192,10.18865 l -21.83551,-0.89014 c -0.48757,4e-5 -0.97513,-0.0348 -1.46268,-0.10448 -0.45275,-0.0696 -0.87066,-0.20892 -1.25373,-0.41791 -0.38309,-0.24374 -0.69653,-0.55717 -0.9403,-0.9403 -0.20896,-0.41787 -0.31344,-0.95767 -0.31343,-1.6194 -10e-6,-2.19399 0.66168,-4.07458 1.98507,-5.64179 1.32337,-1.60194 3.04725,-2.92532 5.17164,-3.97015 2.12436,-1.04472 4.50993,-1.81089 7.15672,-2.29851 2.64674,-0.4875 5.2935,-0.73129 7.94029,-0.73134 3.30843,5e-5 6.04226,0.40055 8.20149,1.20149 2.19399,0.80105 3.91787,1.91548 5.17164,3.34329 1.28852,1.4279 2.19399,3.11696 2.71642,5.06716 0.52235,1.95029 0.78354,4.09208 0.78358,6.42537 l 0,29.98507 c 8.18093,5.27052 8.18819,-11.80557 8.68554,-16.13461 l -1.26763,22.97789 -15.82835,0 m -1.41045,-28.57462 c -4.806,1.21893 -8.61943,2.42043 -11.4403,3.60448 -2.82091,1.1841 -4.9627,2.38559 -6.42537,3.60448 -1.42787,1.18409 -2.35076,2.403 -2.76865,3.65671 -0.3831,1.21892 -0.57464,2.49007 -0.57463,3.81343 -1e-5,1.11444 0.17411,2.21146 0.52239,3.29105 0.38307,1.04478 0.90545,1.98508 1.56716,2.82089 0.6965,0.83583 1.53232,1.51493 2.50746,2.03732 1.00993,0.48756 2.15919,0.73134 3.44776,0.73134 1.42784,0 2.90794,-0.26119 4.4403,-0.78358 1.56714,-0.52239 2.995,-1.09701 4.28358,-1.72388 1.49748,-0.73134 2.97758,-1.58457 4.4403,-2.5597 l 0,-18.49254" />
        <path
           sodipodi:nodetypes="ccccccccccccccc"
           inkscape:connector-curvature="0"
           id="path4822"
           style="fill:#ffffff;font-family:Abyssinica SIL;-inkscape-font-specification:Abyssinica SIL"
           d="m 270.6414,935.69061 -0.28131,-13.57652 c 1.89458,4.6002 3.64302,11.56402 5.97534,9.08399 0.48755,0 0.99252,-0.24378 1.51492,-0.73135 0.55721,-0.52238 0.83581,-1.02735 0.83582,-1.51492 l 0,-64.41044 -8.14925,0 0,-3.55224 17.24194,-15.25362 0.83268,83.2163 c -2e-5,0.48757 0.24376,0.99254 0.73135,1.51492 0.52236,0.48757 1.02734,0.73135 1.51492,0.73135 2.11252,0.0723 4.47639,-0.009 6.35663,-11.29675 l -0.55812,15.78928 -26.01492,0" />
        <path
           sodipodi:nodetypes="ccccscccssccccccccccccccccsccccccc"
           inkscape:connector-curvature="0"
           id="path4824"
           style="fill:#ffffff;font-family:Abyssinica SIL;-inkscape-font-specification:Abyssinica SIL"
           d="m 345.76078,931.72046 c -1.21895,0.62687 -2.5075,1.27115 -3.86567,1.93284 -1.32342,0.62687 -2.75128,1.18408 -4.28358,1.67164 -1.49755,0.48756 -3.08212,0.88806 -4.75373,1.20149 -1.63685,0.31344 -3.36072,0.47015 -5.17164,0.47015 -3.76122,0 -7.15674,-0.66169 -10.18656,-1.98507 -2.99504,-1.35821 -5.55474,-3.22139 -7.67911,-5.58955 -2.12438,-2.40298 -3.7612,-5.24128 -4.91044,-8.51493 -1.14926,-3.27361 -1.72389,-6.82584 -1.72388,-10.65671 -1e-5,-4.49251 0.69651,-8.44524 2.08955,-11.85821 1.39302,-3.41289 3.27362,-6.26861 5.64179,-8.56716 2.36814,-2.33328 5.10197,-4.07458 8.20149,-5.22388 3.1343,-1.18403 6.40793,-1.77607 9.82089,-1.77612 2.3333,5e-5 4.50992,0.24384 6.52985,0.73134 2.05469,0.45279 3.81339,1.1319 5.27612,2.03732 1.49747,0.90552 2.66413,2.01995 3.5,3.34328 0.8706,1.32343 1.30592,2.85577 1.30597,4.59701 -5e-5,1.04482 -0.19159,1.96771 -0.57463,2.76866 -0.3483,0.76621 -0.81845,1.4279 -1.41045,1.98507 -0.59208,0.52243 -1.27118,0.92293 -2.03731,1.2015 -0.73138,0.24381 -1.49755,0.3657 -2.29851,0.36567 -1.18411,3e-5 -2.21148,-0.19151 -3.08208,-0.57463 -0.87069,-0.41787 -1.63686,-0.83578 -2.29851,-1.25373 14.97339,-8.99678 -4.8929,-12.40558 -10.91791,-9.08955 -1.88062,1.07965 -3.48261,2.57716 -4.80597,4.49254 -1.28857,1.91546 -2.28111,4.19655 -2.97761,6.84328 -0.69653,2.61197 -1.04479,5.46769 -1.04478,8.56716 -10e-6,2.96022 0.36566,5.74629 1.09702,8.35821 0.76615,2.61195 1.88058,4.89305 3.34328,6.84328 1.49749,1.91543 3.34326,3.43036 5.53731,4.54478 2.22883,1.11443 4.80594,1.67164 7.73135,1.67164 12.93465,0.27637 14.87037,-14.61958 16.22778,-24.82527 l -2.28003,24.72079 0,1.56716" />
        <path
           id="path4826"
           style="fill:#ffffff;font-family:Abyssinica SIL;-inkscape-font-specification:Abyssinica SIL"
           d="m 404.00704,909.98913 c -5e-5,3.79604 -0.6095,7.34827 -1.82835,10.65671 -1.18413,3.27364 -2.8906,6.12936 -5.11941,8.56716 -2.19407,2.40299 -4.87566,4.301 -8.04477,5.69403 -3.13436,1.39303 -6.65177,2.08955 -10.55224,2.08955 -3.90052,0 -7.41793,-0.6791 -10.55223,-2.03731 -3.13435,-1.39303 -5.79852,-3.29104 -7.99254,-5.69403 -2.19404,-2.40297 -3.88309,-5.24128 -5.06716,-8.51492 -1.14926,-3.30844 -1.72389,-6.8955 -1.72388,-10.76119 -1e-5,-3.79599 0.59203,-7.34823 1.77612,-10.65672 1.18407,-3.30842 2.89053,-6.18155 5.1194,-8.6194 2.22884,-2.47259 4.91043,-4.40542 8.04477,-5.79851 3.16914,-1.39298 6.73878,-2.0895 10.70896,-2.08955 3.97011,5e-5 7.52235,0.71398 10.65671,2.14179 3.13429,1.42791 5.78105,3.37816 7.9403,5.85075 2.15915,2.43785 3.79597,5.31098 4.91044,8.6194 1.1492,3.27366 1.72383,6.79107 1.72388,10.55224 m -11.12686,-0.10448 c -4e-5,-2.92535 -0.29606,-5.72883 -0.88806,-8.41045 -0.55725,-2.68155 -1.4279,-5.04971 -2.61194,-7.10447 -1.18412,-2.05469 -2.66421,-3.6915 -4.4403,-4.91045 -1.77615,-1.21886 -3.8657,-1.82831 -6.26865,-1.82836 -2.47266,5e-5 -4.61445,0.6095 -6.42537,1.82836 -1.81097,1.21895 -3.30848,2.85576 -4.49254,4.91045 -1.14927,2.05476 -2.0025,4.42292 -2.5597,7.10447 -0.55723,2.68162 -0.83584,5.4851 -0.83582,8.41045 -2e-5,2.89057 0.27859,5.67663 0.83582,8.3582 0.59202,2.68161 1.48008,5.04977 2.66418,7.10448 1.18406,2.05474 2.66416,3.70896 4.4403,4.96269 1.77609,1.21891 3.86564,1.82836 6.26865,1.82835 2.43778,10e-6 4.56216,-0.60944 6.37313,-1.82835 1.81091,-1.2189 3.29101,-2.85572 4.4403,-4.91045 1.18404,-2.05471 2.05469,-4.42287 2.61194,-7.10448 0.592,-2.68157 0.88802,-5.48505 0.88806,-8.41044"
           inkscape:connector-curvature="0" />
        <path
           sodipodi:nodetypes="ccccccccccccccccccsccccccccccccccccccc"
           inkscape:connector-curvature="0"
           id="path4828"
           style="fill:#ffffff;font-family:Abyssinica SIL;-inkscape-font-specification:Abyssinica SIL"
           d="m 442.66375,935.69061 0,-4.1791 4.49254,-0.31343 c 0.62682,-0.0697 1.14921,-0.31343 1.56716,-0.73135 0.4527,-0.4179 0.67906,-0.9577 0.6791,-1.6194 l 0,-27.84328 c -4e-5,-3.37807 -0.78362,-5.93777 -2.35074,-7.6791 -1.5672,-1.77608 -4.21397,-2.66413 -7.9403,-2.66418 -2.05475,5e-5 -4.07465,0.29607 -6.0597,0.88806 -1.9851,0.55726 -3.8831,1.2886 -5.69403,2.19403 l 0,35.10447 c -2e-5,0.6617 0.20894,1.2015 0.62687,1.6194 0.41789,0.41792 0.95769,0.6617 1.6194,0.73135 l 4.49254,0.31343 0,4.1791 -24.18657,0 -0.94791,-16.12073 c 1.68363,5.73474 2.95387,13.52591 6.17179,11.6282 0.66169,-0.0697 1.20149,-0.31343 1.61941,-0.73135 0.4179,-0.4179 0.62685,-0.9577 0.62686,-1.6194 l 0,-37.14178 -7.79634,15.50358 0.32619,-19.00358 13.0597,-4.07463 4.38806,0 0,5.32836 c 1.49749,-0.83578 3.01242,-1.65418 4.54478,-2.45522 1.56714,-0.80095 3.11689,-1.51488 4.64925,-2.1418 1.53231,-0.62681 3.01241,-1.11437 4.4403,-1.46268 1.42782,-0.38303 2.76862,-0.57458 4.02239,-0.57463 4.66662,5e-5 8.21885,1.44533 10.65671,4.33582 2.43776,2.89059 3.65666,6.9478 3.65672,12.17164 l 0,29.51492 c -6e-5,0.6617 0.2089,1.2015 0.62686,1.6194 0.45268,0.41792 0.99249,0.6617 1.6194,0.73135 l 4.7015,0.31343 0,4.1791 -23.61194,0" />
        <path
           sodipodi:nodetypes="cccssccscccccscccccccccccscccccccccccccccccccccc"
           inkscape:connector-curvature="0"
           id="path4830"
           style="fill:#ffffff;font-family:Abyssinica SIL;-inkscape-font-specification:Abyssinica SIL"
           d="m 507.28314,920.17569 c -4e-5,2.61195 -0.47019,4.9627 -1.41045,7.05224 -0.94034,2.08956 -2.28113,3.86567 -4.02239,5.32836 -1.74132,1.42786 -3.88311,2.52487 -6.42537,3.29104 -2.54231,0.76617 -5.39803,1.14925 -8.56716,1.14925 -1.63683,0 -3.23882,-0.10448 -4.80597,-0.31343 -1.53235,-0.17413 -2.96021,-0.41791 -4.28358,-0.73134 -1.28857,-0.27861 -2.43782,-0.57463 -3.44776,-0.88806 -1.00996,-0.31343 -1.77613,-0.57463 -2.29851,-0.78358 l 0,-14.20896 11.59456,-5.66645 c -3.93163,3.73115 -8.73042,7.01711 -4.85576,14.756 1.0796,0.69653 2.40298,1.37563 3.97015,2.03732 1.60198,0.62687 3.44775,0.9403 5.53732,0.94029 1.53231,10e-6 2.89052,-0.22636 4.07462,-0.6791 1.18406,-0.48756 2.17659,-1.11442 2.97761,-1.8806 0.8358,-0.76616 1.46266,-1.6368 1.8806,-2.61194 0.45271,-1.00994 0.67907,-2.05471 0.6791,-3.13432 -3e-5,-1.4975 -0.29605,-2.76865 -0.88806,-3.81344 -0.59206,-1.07958 -1.4453,-2.03729 -2.5597,-2.87313 -1.11445,-0.87063 -2.49007,-1.70645 -4.12686,-2.50746 -1.60201,-0.80097 -3.43037,-1.70645 -5.48507,-2.71642 -1.95027,-0.94027 -3.67415,-1.86316 -5.17165,-2.76866 -1.49752,-0.94027 -2.76866,-1.9328 -3.81343,-2.97761 -1.00995,-1.07957 -1.77612,-2.24623 -2.2985,-3.5 -0.5224,-1.28852 -0.78359,-2.73379 -0.78359,-4.33582 0,-2.36812 0.41791,-4.5099 1.25373,-6.42537 0.87064,-1.91538 2.12437,-3.53478 3.7612,-4.85821 1.6368,-1.35815 3.63929,-2.40293 6.00746,-3.13432 2.40297,-0.73129 5.15421,-1.09697 8.25373,-1.09702 1.56714,5e-5 3.06465,0.0871 4.49254,0.2612 1.42783,0.17418 2.73379,0.38313 3.91791,0.62686 3.54881,0.98561 6.97249,1.48632 10.60166,2.55757 l -5.32555,11.65138 -10.28169,-0.21522 c 2.47215,-1.92568 10.98253,-1.34475 3.85632,-7.25492 -0.7662,-0.592 -1.89804,-1.14921 -3.39552,-1.67165 -1.49754,-0.52234 -3.08211,-0.78353 -4.75373,-0.78358 -2.96022,5e-5 -5.15425,0.67915 -6.58209,2.03732 -1.39305,1.32342 -2.08956,3.02989 -2.08955,5.1194 -1e-5,1.21894 0.19153,2.28113 0.57463,3.18656 0.41789,0.90551 1.07958,1.75875 1.98507,2.5597 0.94028,0.80103 2.15919,1.61944 3.65672,2.45523 1.53231,0.83585 3.43032,1.77615 5.69402,2.82089 1.88057,0.83585 3.60445,1.7065 5.17165,2.61194 1.56713,0.9055 2.92533,1.91545 4.07462,3.02985 1.14922,1.11445 2.03728,2.35077 2.66418,3.70896 0.66165,1.35823 0.9925,2.90797 0.99254,4.64925" />
      </g>
      <g
         transform="matrix(0.88047718,-0.67529043,0.17699469,1,0,0)"
         style="font-size:106.98505402px;font-style:normal;font-variant:normal;font-weight:normal;font-stretch:normal;line-height:125%;letter-spacing:0px;word-spacing:0px;fill:#ffdf24;fill-opacity:0.52066118;stroke:none;filter:url(#filter4883);font-family:'Champagne &amp; Limousines';-inkscape-font-specification:'Champagne &amp; Limousines'"
         id="g4867">
        <path
           d="m 203.7235,880.89212 4.39093,-16.85029 -30.51033,5.09656 0,27.84328 16.35074,0 c 0.48753,3e-5 0.90544,-0.22633 1.25373,-0.67911 0.38305,-0.4527 0.60942,-0.87061 0.67911,-1.25373 l 0.99254,-7.52239 5.32835,0 0,24.08209 -5.32835,0 -0.99254,-7.47015 c -0.0697,-0.38305 -0.29606,-0.80096 -0.67911,-1.25373 -0.38312,-0.4527 -0.80103,-0.67907 -1.25373,-0.67911 l -16.35074,0 0,26.1194 c -2e-5,0.5224 0.17411,1.02737 0.52239,1.51493 0.38306,0.48757 0.95768,0.76617 1.72388,0.83582 1.86471,-1.11798 4.18337,1.76109 5.32387,-5.73349 l 1.83284,10.74841 -28.10447,0 -4.58971,-19.2436 10.2315,14.22868 c 0.76616,-0.0697 1.32337,-0.34825 1.67164,-0.83582 0.38308,-0.48756 0.57462,-0.99253 0.57463,-1.51493 l 0,-57.04476 c -1e-5,-0.52233 -0.19155,-1.0273 -0.57463,-1.51493 -0.34827,-0.48749 -0.90548,-0.7661 -1.67164,-0.83582 l -6.52985,-0.41791 5.81385,-8.5329 61.866,-10.06432 -21.9709,30.97782"
           style="fill:#ffdf24;fill-opacity:0.52066118;font-family:Abyssinica SIL;-inkscape-font-specification:Abyssinica SIL"
           id="path4869"
           inkscape:connector-curvature="0"
           sodipodi:nodetypes="cccccccccccccccccccccccccccccccc" />
        <path
           d="m 250.05931,935.69061 -1.41045,-6.32089 c -1.88063,1.42786 -3.81346,2.69901 -5.79851,3.81343 -0.87067,0.48756 -1.79356,0.95771 -2.76865,1.41045 -0.97515,0.45273 -1.9851,0.85323 -3.02985,1.20149 -1.00997,0.38308 -2.05475,0.6791 -3.13433,0.88806 -1.0448,0.20895 -2.08957,0.31343 -3.13433,0.31343 -1.95026,0 -3.77862,-0.33084 -5.48507,-0.99253 -1.67165,-0.6617 -3.13434,-1.61941 -4.38806,-2.87314 -1.25374,-1.25373 -2.24627,-2.76865 -2.97761,-4.54477 -0.69652,-1.77611 -1.04478,-3.79601 -1.04478,-6.0597 0,-1.32337 0.12189,-2.5771 0.36567,-3.7612 0.27861,-1.18406 0.81841,-2.33331 1.61941,-3.44776 0.80099,-1.1144 1.91541,-2.17659 3.34328,-3.18656 1.46268,-1.04476 3.36068,-2.07212 5.69403,-3.08209 2.36814,-1.00993 5.24127,-2.00246 8.6194,-2.97761 3.41291,-1.00992 7.4527,-2.01987 12.1194,-3.02985 l 0,-4.59702 c -3e-5,-3.58702 -0.80103,-6.23378 -2.40298,-7.9403 -1.60203,-1.74124 -4.1269,-2.61189 -7.57463,-2.61194 -1.88062,5e-5 -3.48261,0.17418 -4.80597,0.52239 -1.3234,0.34831 -2.24629,0.62691 -2.76865,0.83582 -1.35579,3.72846 -6.87991,7.68621 14.05192,10.18865 l -21.83551,-0.89014 c -0.48757,4e-5 -0.97513,-0.0348 -1.46268,-0.10448 -0.45275,-0.0696 -0.87066,-0.20892 -1.25373,-0.41791 -0.38309,-0.24374 -0.69653,-0.55717 -0.9403,-0.9403 -0.20896,-0.41787 -0.31344,-0.95767 -0.31343,-1.6194 -10e-6,-2.19399 0.66168,-4.07458 1.98507,-5.64179 1.32337,-1.60194 3.04725,-2.92532 5.17164,-3.97015 2.12436,-1.04472 4.50993,-1.81089 7.15672,-2.29851 2.64674,-0.4875 5.2935,-0.73129 7.94029,-0.73134 3.30843,5e-5 6.04226,0.40055 8.20149,1.20149 2.19399,0.80105 3.91787,1.91548 5.17164,3.34329 1.28852,1.4279 2.19399,3.11696 2.71642,5.06716 0.52235,1.95029 0.78354,4.09208 0.78358,6.42537 l 0,29.98507 c 8.18093,5.27052 8.18819,-11.80557 8.68554,-16.13461 l -1.26763,22.97789 -15.82835,0 m -1.41045,-28.57462 c -4.806,1.21893 -8.61943,2.42043 -11.4403,3.60448 -2.82091,1.1841 -4.9627,2.38559 -6.42537,3.60448 -1.42787,1.18409 -2.35076,2.403 -2.76865,3.65671 -0.3831,1.21892 -0.57464,2.49007 -0.57463,3.81343 -1e-5,1.11444 0.17411,2.21146 0.52239,3.29105 0.38307,1.04478 0.90545,1.98508 1.56716,2.82089 0.6965,0.83583 1.53232,1.51493 2.50746,2.03732 1.00993,0.48756 2.15919,0.73134 3.44776,0.73134 1.42784,0 2.90794,-0.26119 4.4403,-0.78358 1.56714,-0.52239 2.995,-1.09701 4.28358,-1.72388 1.49748,-0.73134 2.97758,-1.58457 4.4403,-2.5597 l 0,-18.49254"
           style="fill:#ffdf24;fill-opacity:0.52066118;font-family:Abyssinica SIL;-inkscape-font-specification:Abyssinica SIL"
           id="path4871"
           inkscape:connector-curvature="0"
           sodipodi:nodetypes="ccccccscccscsccccscccccccccccccccccccccccsccccccscccc" />
        <path
           d="m 270.6414,935.69061 -0.28131,-13.57652 c 1.89458,4.6002 3.64302,11.56402 5.97534,9.08399 0.48755,0 0.99252,-0.24378 1.51492,-0.73135 0.55721,-0.52238 0.83581,-1.02735 0.83582,-1.51492 l 0,-64.41044 -8.14925,0 0,-3.55224 17.24194,-15.25362 0.83268,83.2163 c -2e-5,0.48757 0.24376,0.99254 0.73135,1.51492 0.52236,0.48757 1.02734,0.73135 1.51492,0.73135 2.11252,0.0723 4.47639,-0.009 6.35663,-11.29675 l -0.55812,15.78928 -26.01492,0"
           style="fill:#ffdf24;fill-opacity:0.52066118;font-family:Abyssinica SIL;-inkscape-font-specification:Abyssinica SIL"
           id="path4873"
           inkscape:connector-curvature="0"
           sodipodi:nodetypes="ccccccccccccccc" />
        <path
           d="m 345.76078,931.72046 c -1.21895,0.62687 -2.5075,1.27115 -3.86567,1.93284 -1.32342,0.62687 -2.75128,1.18408 -4.28358,1.67164 -1.49755,0.48756 -3.08212,0.88806 -4.75373,1.20149 -1.63685,0.31344 -3.36072,0.47015 -5.17164,0.47015 -3.76122,0 -7.15674,-0.66169 -10.18656,-1.98507 -2.99504,-1.35821 -5.55474,-3.22139 -7.67911,-5.58955 -2.12438,-2.40298 -3.7612,-5.24128 -4.91044,-8.51493 -1.14926,-3.27361 -1.72389,-6.82584 -1.72388,-10.65671 -1e-5,-4.49251 0.69651,-8.44524 2.08955,-11.85821 1.39302,-3.41289 3.27362,-6.26861 5.64179,-8.56716 2.36814,-2.33328 5.10197,-4.07458 8.20149,-5.22388 3.1343,-1.18403 6.40793,-1.77607 9.82089,-1.77612 2.3333,5e-5 4.50992,0.24384 6.52985,0.73134 2.05469,0.45279 3.81339,1.1319 5.27612,2.03732 1.49747,0.90552 2.66413,2.01995 3.5,3.34328 0.8706,1.32343 1.30592,2.85577 1.30597,4.59701 -5e-5,1.04482 -0.19159,1.96771 -0.57463,2.76866 -0.3483,0.76621 -0.81845,1.4279 -1.41045,1.98507 -0.59208,0.52243 -1.27118,0.92293 -2.03731,1.2015 -0.73138,0.24381 -1.49755,0.3657 -2.29851,0.36567 -1.18411,3e-5 -2.21148,-0.19151 -3.08208,-0.57463 -0.87069,-0.41787 -1.63686,-0.83578 -2.29851,-1.25373 14.97339,-8.99678 -4.8929,-12.40558 -10.91791,-9.08955 -1.88062,1.07965 -3.48261,2.57716 -4.80597,4.49254 -1.28857,1.91546 -2.28111,4.19655 -2.97761,6.84328 -0.69653,2.61197 -1.04479,5.46769 -1.04478,8.56716 -10e-6,2.96022 0.36566,5.74629 1.09702,8.35821 0.76615,2.61195 1.88058,4.89305 3.34328,6.84328 1.49749,1.91543 3.34326,3.43036 5.53731,4.54478 2.22883,1.11443 4.80594,1.67164 7.73135,1.67164 12.93465,0.27637 14.87037,-14.61958 16.22778,-24.82527 l -2.28003,24.72079 0,1.56716"
           style="fill:#ffdf24;fill-opacity:0.52066118;font-family:Abyssinica SIL;-inkscape-font-specification:Abyssinica SIL"
           id="path4875"
           inkscape:connector-curvature="0"
           sodipodi:nodetypes="ccccscccssccccccccccccccccsccccccc" />
        <path
           d="m 404.00704,909.98913 c -5e-5,3.79604 -0.6095,7.34827 -1.82835,10.65671 -1.18413,3.27364 -2.8906,6.12936 -5.11941,8.56716 -2.19407,2.40299 -4.87566,4.301 -8.04477,5.69403 -3.13436,1.39303 -6.65177,2.08955 -10.55224,2.08955 -3.90052,0 -7.41793,-0.6791 -10.55223,-2.03731 -3.13435,-1.39303 -5.79852,-3.29104 -7.99254,-5.69403 -2.19404,-2.40297 -3.88309,-5.24128 -5.06716,-8.51492 -1.14926,-3.30844 -1.72389,-6.8955 -1.72388,-10.76119 -1e-5,-3.79599 0.59203,-7.34823 1.77612,-10.65672 1.18407,-3.30842 2.89053,-6.18155 5.1194,-8.6194 2.22884,-2.47259 4.91043,-4.40542 8.04477,-5.79851 3.16914,-1.39298 6.73878,-2.0895 10.70896,-2.08955 3.97011,5e-5 7.52235,0.71398 10.65671,2.14179 3.13429,1.42791 5.78105,3.37816 7.9403,5.85075 2.15915,2.43785 3.79597,5.31098 4.91044,8.6194 1.1492,3.27366 1.72383,6.79107 1.72388,10.55224 m -11.12686,-0.10448 c -4e-5,-2.92535 -0.29606,-5.72883 -0.88806,-8.41045 -0.55725,-2.68155 -1.4279,-5.04971 -2.61194,-7.10447 -1.18412,-2.05469 -2.66421,-3.6915 -4.4403,-4.91045 -1.77615,-1.21886 -3.8657,-1.82831 -6.26865,-1.82836 -2.47266,5e-5 -4.61445,0.6095 -6.42537,1.82836 -1.81097,1.21895 -3.30848,2.85576 -4.49254,4.91045 -1.14927,2.05476 -2.0025,4.42292 -2.5597,7.10447 -0.55723,2.68162 -0.83584,5.4851 -0.83582,8.41045 -2e-5,2.89057 0.27859,5.67663 0.83582,8.3582 0.59202,2.68161 1.48008,5.04977 2.66418,7.10448 1.18406,2.05474 2.66416,3.70896 4.4403,4.96269 1.77609,1.21891 3.86564,1.82836 6.26865,1.82835 2.43778,10e-6 4.56216,-0.60944 6.37313,-1.82835 1.81091,-1.2189 3.29101,-2.85572 4.4403,-4.91045 1.18404,-2.05471 2.05469,-4.42287 2.61194,-7.10448 0.592,-2.68157 0.88802,-5.48505 0.88806,-8.41044"
           style="fill:#ffdf24;fill-opacity:0.52066118;font-family:Abyssinica SIL;-inkscape-font-specification:Abyssinica SIL"
           id="path4877"
           inkscape:connector-curvature="0" />
        <path
           d="m 442.66375,935.69061 0,-4.1791 4.49254,-0.31343 c 0.62682,-0.0697 1.14921,-0.31343 1.56716,-0.73135 0.4527,-0.4179 0.67906,-0.9577 0.6791,-1.6194 l 0,-27.84328 c -4e-5,-3.37807 -0.78362,-5.93777 -2.35074,-7.6791 -1.5672,-1.77608 -4.21397,-2.66413 -7.9403,-2.66418 -2.05475,5e-5 -4.07465,0.29607 -6.0597,0.88806 -1.9851,0.55726 -3.8831,1.2886 -5.69403,2.19403 l 0,35.10447 c -2e-5,0.6617 0.20894,1.2015 0.62687,1.6194 0.41789,0.41792 0.95769,0.6617 1.6194,0.73135 l 4.49254,0.31343 0,4.1791 -24.18657,0 -0.94791,-16.12073 c 1.68363,5.73474 2.95387,13.52591 6.17179,11.6282 0.66169,-0.0697 1.20149,-0.31343 1.61941,-0.73135 0.4179,-0.4179 0.62685,-0.9577 0.62686,-1.6194 l 0,-37.14178 -7.79634,15.50358 0.32619,-19.00358 13.0597,-4.07463 4.38806,0 0,5.32836 c 1.49749,-0.83578 3.01242,-1.65418 4.54478,-2.45522 1.56714,-0.80095 3.11689,-1.51488 4.64925,-2.1418 1.53231,-0.62681 3.01241,-1.11437 4.4403,-1.46268 1.42782,-0.38303 2.76862,-0.57458 4.02239,-0.57463 4.66662,5e-5 8.21885,1.44533 10.65671,4.33582 2.43776,2.89059 3.65666,6.9478 3.65672,12.17164 l 0,29.51492 c -6e-5,0.6617 0.2089,1.2015 0.62686,1.6194 0.45268,0.41792 0.99249,0.6617 1.6194,0.73135 l 4.7015,0.31343 0,4.1791 -23.61194,0"
           style="fill:#ffdf24;fill-opacity:0.52066118;font-family:Abyssinica SIL;-inkscape-font-specification:Abyssinica SIL"
           id="path4879"
           inkscape:connector-curvature="0"
           sodipodi:nodetypes="ccccccccccccccccccsccccccccccccccccccc" />
        <path
           d="m 507.28314,920.17569 c -4e-5,2.61195 -0.47019,4.9627 -1.41045,7.05224 -0.94034,2.08956 -2.28113,3.86567 -4.02239,5.32836 -1.74132,1.42786 -3.88311,2.52487 -6.42537,3.29104 -2.54231,0.76617 -5.39803,1.14925 -8.56716,1.14925 -1.63683,0 -3.23882,-0.10448 -4.80597,-0.31343 -1.53235,-0.17413 -2.96021,-0.41791 -4.28358,-0.73134 -1.28857,-0.27861 -2.43782,-0.57463 -3.44776,-0.88806 -1.00996,-0.31343 -1.77613,-0.57463 -2.29851,-0.78358 l 0,-14.20896 11.59456,-5.66645 c -3.93163,3.73115 -8.73042,7.01711 -4.85576,14.756 1.0796,0.69653 2.40298,1.37563 3.97015,2.03732 1.60198,0.62687 3.44775,0.9403 5.53732,0.94029 1.53231,10e-6 2.89052,-0.22636 4.07462,-0.6791 1.18406,-0.48756 2.17659,-1.11442 2.97761,-1.8806 0.8358,-0.76616 1.46266,-1.6368 1.8806,-2.61194 0.45271,-1.00994 0.67907,-2.05471 0.6791,-3.13432 -3e-5,-1.4975 -0.29605,-2.76865 -0.88806,-3.81344 -0.59206,-1.07958 -1.4453,-2.03729 -2.5597,-2.87313 -1.11445,-0.87063 -2.49007,-1.70645 -4.12686,-2.50746 -1.60201,-0.80097 -3.43037,-1.70645 -5.48507,-2.71642 -1.95027,-0.94027 -3.67415,-1.86316 -5.17165,-2.76866 -1.49752,-0.94027 -2.76866,-1.9328 -3.81343,-2.97761 -1.00995,-1.07957 -1.77612,-2.24623 -2.2985,-3.5 -0.5224,-1.28852 -0.78359,-2.73379 -0.78359,-4.33582 0,-2.36812 0.41791,-4.5099 1.25373,-6.42537 0.87064,-1.91538 2.12437,-3.53478 3.7612,-4.85821 1.6368,-1.35815 3.63929,-2.40293 6.00746,-3.13432 2.40297,-0.73129 5.15421,-1.09697 8.25373,-1.09702 1.56714,5e-5 3.06465,0.0871 4.49254,0.2612 1.42783,0.17418 2.73379,0.38313 3.91791,0.62686 3.54881,0.98561 6.97249,1.48632 10.60166,2.55757 l -5.32555,11.65138 -10.28169,-0.21522 c 2.47215,-1.92568 10.98253,-1.34475 3.85632,-7.25492 -0.7662,-0.592 -1.89804,-1.14921 -3.39552,-1.67165 -1.49754,-0.52234 -3.08211,-0.78353 -4.75373,-0.78358 -2.96022,5e-5 -5.15425,0.67915 -6.58209,2.03732 -1.39305,1.32342 -2.08956,3.02989 -2.08955,5.1194 -1e-5,1.21894 0.19153,2.28113 0.57463,3.18656 0.41789,0.90551 1.07958,1.75875 1.98507,2.5597 0.94028,0.80103 2.15919,1.61944 3.65672,2.45523 1.53231,0.83585 3.43032,1.77615 5.69402,2.82089 1.88057,0.83585 3.60445,1.7065 5.17165,2.61194 1.56713,0.9055 2.92533,1.91545 4.07462,3.02985 1.14922,1.11445 2.03728,2.35077 2.66418,3.70896 0.66165,1.35823 0.9925,2.90797 0.99254,4.64925"
           style="fill:#ffdf24;fill-opacity:0.52066118;font-family:Abyssinica SIL;-inkscape-font-specification:Abyssinica SIL"
           id="path4881"
           inkscape:connector-curvature="0"
           sodipodi:nodetypes="cccssccscccccscccccccccccscccccccccccccccccccccc" />
      </g>
    </g>
  </g>
</svg>
