<?xml version="1.0" encoding="UTF-8" standalone="no"?>
<!-- Created with Inkscape (http://www.inkscape.org/) -->

<svg
   xmlns:dc="http://purl.org/dc/elements/1.1/"
   xmlns:cc="http://creativecommons.org/ns#"
   xmlns:rdf="http://www.w3.org/1999/02/22-rdf-syntax-ns#"
   xmlns:svg="http://www.w3.org/2000/svg"
   xmlns="http://www.w3.org/2000/svg"
   xmlns:sodipodi="http://sodipodi.sourceforge.net/DTD/sodipodi-0.dtd"
   xmlns:inkscape="http://www.inkscape.org/namespaces/inkscape"
   width="1550"
   height="1550"
   id="svg2"
   version="1.1"
   inkscape:version="0.48.4 r9939"
   sodipodi:docname="angry.svg">
  <defs
     id="defs4">
    <inkscape:perspective
       sodipodi:type="inkscape:persp3d"
       inkscape:vp_x="0 : 526.18109 : 1"
       inkscape:vp_y="0 : 1000 : 0"
       inkscape:vp_z="744.09448 : 526.18109 : 1"
       inkscape:persp3d-origin="372.04724 : 350.78739 : 1"
       id="perspective10" />
    <inkscape:perspective
       id="perspective3757"
       inkscape:persp3d-origin="372.04724 : 350.78739 : 1"
       inkscape:vp_z="744.09448 : 526.18109 : 1"
       inkscape:vp_y="0 : 1000 : 0"
       inkscape:vp_x="0 : 526.18109 : 1"
       sodipodi:type="inkscape:persp3d" />
  </defs>
  <sodipodi:namedview
     id="base"
     pagecolor="#ffffff"
     bordercolor="#666666"
     borderopacity="1.0"
     inkscape:pageopacity="0.0"
     inkscape:pageshadow="2"
     inkscape:zoom="0.24235256"
     inkscape:cx="555.87935"
     inkscape:cy="928.52033"
     inkscape:document-units="px"
     inkscape:current-layer="layer1"
     showgrid="false"
     showguides="true"
     inkscape:guide-bbox="true"
     width="1550px"
     showborder="true"
     inkscape:showpageshadow="false"
     inkscape:window-width="1366"
     inkscape:window-height="715"
     inkscape:window-x="0"
     inkscape:window-y="0"
     inkscape:window-maximized="1" />
  <metadata
     id="metadata7">
    <rdf:RDF>
      <cc:Work
         rdf:about="">
        <dc:format>image/svg+xml</dc:format>
        <dc:type
           rdf:resource="http://purl.org/dc/dcmitype/StillImage" />
        <dc:title />
      </cc:Work>
    </rdf:RDF>
  </metadata>
  <g
     inkscape:label="Capa 1"
     inkscape:groupmode="layer"
     id="layer1"
     transform="translate(0,497.63782)">
    <g
       id="g3009">
      <path
         inkscape:connector-curvature="0"
         style="fill:#f70000;fill-opacity:1;stroke:none"
         d="m 807.50781,-358.77427 c -27.51559,24.78579 -49.17981,51.05338 -19.15829,121.24508 -88.69958,-19.04507 -250.15092,-9.61693 -239.43495,83.42839 -4.45067,35.28036 50.07128,56.113824 120.82579,78.946635 C 445.70835,9.7017605 277.2964,181.71189 266.21787,407.99616 c -12.5638,256.62044 286.96741,514.33751 608.25808,514.33751 321.29075,0 565.84225,-211.64184 579.09715,-524.94138 C 1461.6869,205.61325 1317.4926,-48.231535 1119.0033,-89.025166 1106.1485,-181.43702 919.07481,-444.12455 807.50781,-358.77427 z"
         id="path3833"
         sodipodi:nodetypes="ccccssscc" />
      <path
         inkscape:connector-curvature="0"
         sodipodi:nodetypes="cssssc"
         id="path4095"
         d="m 1347.4293,439.1244 c 0,32.45843 -14.3232,63.02834 -39.5963,89.80539 -56.9714,60.36167 -169.585,101.44967 -299.1983,101.44967 -187.11118,0 -338.79472,-85.6278 -338.79472,-191.25506 0,-105.62724 151.68354,-191.25505 338.79472,-191.25505 187.1111,0 338.7946,85.62781 338.7946,191.25505 z"
         style="fill:#800000;fill-opacity:1;stroke:none" />
      <path
         inkscape:connector-curvature="0"
         id="path3863"
         d="m 1297.1955,744.1661 c -3.1631,-4.62508 -6.4206,-9.2494 -9.8993,-13.8006 -3.9072,-5.11173 -8.0196,-10.16979 -12.3144,-15.18066 -4.2948,-5.01086 -8.7844,-9.9603 -13.4556,-14.86218 -4.6712,-4.90188 -9.5074,-9.75892 -14.5436,-14.5437 -5.0363,-4.78479 -10.2681,-9.5126 -15.6584,-14.17216 -5.3902,-4.65955 -10.9604,-9.24784 -16.6934,-13.77405 -5.733,-4.52622 -11.6375,-8.99122 -17.702,-13.37597 -6.0643,-4.38475 -12.2726,-8.68961 -18.6573,-12.92479 -6.3846,-4.23517 -12.9456,-8.39614 -19.6393,-12.47361 -6.6937,-4.07748 -13.5236,-8.05771 -20.5151,-11.96937 -6.9915,-3.91165 -14.1394,-7.75393 -21.4175,-11.49165 -7.278,-3.73772 -14.6868,-7.37865 -22.2402,-10.93432 -7.5533,-3.55566 -15.2454,-7.0115 -23.0628,-10.37698 -7.8175,-3.36549 -15.7624,-6.65247 -23.8327,-9.81966 -8.0702,-3.16719 -16.2636,-6.22193 -24.5756,-9.1827 -8.312,-2.96078 -16.7499,-5.82606 -25.29227,-8.5723 -8.54236,-2.74624 -17.19419,-5.38521 -25.95574,-7.9088 -8.76158,-2.52359 -17.62318,-4.92596 -26.59271,-7.21878 -8.96954,-2.29281 -18.03683,-4.47481 -27.20306,-6.52874 -9.16632,-2.05393 -18.43522,-3.97872 -27.78702,-5.78563 -9.35179,-1.80692 -18.79174,-3.49074 -28.31772,-5.04253 -9.52606,-1.55179 -19.13297,-2.9578 -28.82201,-4.24634 -9.68913,-1.28853 -19.45884,-2.45952 -29.29973,-3.47669 -9.84097,-1.01716 -19.6315,-1.88039 -29.37939,-2.60088 -9.74789,-0.72049 -19.44526,-1.29561 -29.08743,-1.72507 -9.64216,-0.42947 -19.24508,-0.70518 -28.76894,-0.84927 -9.52385,-0.14409 -18.978,-0.16218 -28.37081,-0.0265 -9.39282,0.13564 -18.72364,0.41302 -27.97275,0.82273 -9.24921,0.40971 -18.42877,0.96732 -27.52162,1.64546 -9.09285,0.67814 -18.09348,1.47419 -27.01732,2.4151 -8.92385,0.94091 -17.77084,2.01326 -26.51303,3.21129 -8.74228,1.19804 -17.38128,2.53144 -25.92924,3.98094 -8.54788,1.44951 -17.00438,3.02872 -25.34529,4.72406 -8.34099,1.69533 -16.56046,3.50511 -24.68183,5.44061 -8.12146,1.93551 -16.12929,3.98717 -24.01839,6.15719 -7.8891,2.17003 -15.65752,4.44833 -23.30178,6.84722 -7.64417,2.3989 -15.17199,4.91514 -22.55867,7.53725 -7.38667,2.62212 -14.64604,5.36105 -21.76248,8.20074 -7.11643,2.83969 -14.07966,5.78609 -20.91321,8.83769 -6.83355,3.05161 -13.52594,6.21677 -20.06394,9.47464 -6.53801,3.25788 -12.93172,6.60003 -19.1616,10.05851 -6.2298,3.45849 -12.29714,7.01547 -18.20617,10.66893 -5.90904,3.65345 -11.64873,7.41002 -17.22417,11.25279 -0.30098,0.20744 -0.57589,0.42897 -0.87585,0.63695 99.3226,172.46304 320.84155,308.15137 553.93477,308.15137 173.101,0 323.8368,-61.53299 428.2166,-167.1995 z"
         style="fill:#e1aaaa;fill-opacity:1;stroke:none" />
      <path
         sodipodi:nodetypes="ccccc"
         style="fill:#ffffff;fill-opacity:1;stroke:#000000;stroke-width:16.90042305;stroke-miterlimit:4;stroke-opacity:1;stroke-dasharray:none"
         d="m 816.02177,248.78304 c -46.23573,54.86472 -69.84665,134.61969 -31.69135,188.68185 88.39049,-36.00402 152.32335,-48.23253 236.20868,-6.44059 12.4551,-32.62402 10.0295,-55.92579 3.7655,-85.05949 L 816.02177,248.78304 z"
         id="path3962"
         inkscape:connector-curvature="0" />
      <path
         sodipodi:nodetypes="ccsccccccc"
         style="fill:#ffffff;fill-opacity:1;stroke:#000000;stroke-width:16.90042305;stroke-miterlimit:4;stroke-opacity:1;stroke-dasharray:none"
         d="m 1221.2616,252.01374 -175.4269,93.43089 c -1.0749,7.3443 -1.9033,14.84724 -2.4947,22.50024 -1.349,17.45661 -1.3328,32.74742 6.0573,49.04503 61.7125,-34.37903 115.6665,-26.24661 177.5914,3.29592 19.9978,-37.94935 25.2878,-138.41582 -5.7267,-168.27208 l -4e-4,0 z m -151.8863,13.81487 c -6.7685,14.00697 -12.5096,29.72801 -16.9321,46.76262 l 16.9321,-46.76262 z"
         id="path3964"
         inkscape:connector-curvature="0" />
      <path
         style="fill:#000000;fill-opacity:1;stroke:#000000;stroke-width:16.90042305;stroke-miterlimit:4;stroke-opacity:1;stroke-dasharray:none"
         d="m 768.79146,136.37459 c -13.33588,2.38041 -61.38412,54.48297 -50.02721,75.71746 15.8295,13.50939 66.41034,30.97084 134.21238,73.63727 48.55305,30.55342 118.11995,42.58618 185.46057,65.97951 88.617,-42.2108 178.5251,-75.71729 270.8022,-108.63694 11.3569,-21.23458 -28.6982,-94.47065 -42.0341,-96.85115 -66.9411,20.38395 -196.6661,108.14199 -245.4914,115.28807 l -0.08,-0.61037 C 857.64819,209.55257 824.2527,145.26481 768.7912,136.37459 l 2.6e-4,0 z"
         id="path3966"
         sodipodi:nodetypes="ccsccccccc"
         inkscape:connector-curvature="0" />
      <path
         style="fill:#000000;fill-opacity:1;stroke:#000000;stroke-width:16.90042305;stroke-miterlimit:4;stroke-opacity:1;stroke-dasharray:none"
         d="m 960.06981,368.16673 c 0,12.51389 -10.14445,22.6584 -22.65838,22.6584 -12.51379,0 -22.65838,-10.14451 -22.65838,-22.6584 0,-12.51388 10.14459,-22.65839 22.65838,-22.65839 12.51393,0 22.65838,10.14451 22.65838,22.65839 z"
         id="path3968"
         inkscape:connector-curvature="0" />
      <path
         style="fill:#000000;fill-opacity:1;stroke:#000000;stroke-width:16.90042305;stroke-miterlimit:4;stroke-opacity:1;stroke-dasharray:none"
         d="m 1130.4104,356.9267 c 0,9.92739 -8.0477,17.97512 -17.9752,17.97512 -9.9273,0 -17.9751,-8.04773 -17.9751,-17.97512 0,-9.92738 8.0478,-17.97511 17.9751,-17.97511 9.9275,0 17.9752,8.04773 17.9752,17.97511 z"
         id="path3970"
         inkscape:connector-curvature="0" />
      <path
         id="path3880"
         d="m 817.37618,245.35024 c -46.23573,54.86472 -69.84665,134.61969 -31.69135,188.68185 88.39049,-36.00402 152.32335,-48.23253 236.20867,-6.44059 12.4552,-32.62402 10.0295,-55.92579 3.7655,-85.05949 L 817.37618,245.35024 z"
         style="fill:#ffffff;fill-opacity:1;stroke:#000000;stroke-width:0.84926748;stroke-opacity:1"
         sodipodi:nodetypes="ccccc"
         inkscape:connector-curvature="0" />
      <path
         id="path3884"
         d="m 1222.616,248.58094 -175.4268,93.43089 c -1.075,7.3443 -1.9034,14.84724 -2.4948,22.50024 -1.349,17.45661 -1.3328,32.74742 6.0574,49.04503 61.7124,-34.37903 115.6664,-26.24661 177.5913,3.29592 19.9978,-37.94935 25.2878,-138.41582 -5.7267,-168.27208 l -4e-4,0 z m -151.8862,13.81487 c -6.7686,14.00697 -12.5097,29.72801 -16.9322,46.76262 l 16.9322,-46.76262 z"
         style="fill:#ffffff;fill-opacity:1;stroke:#000000;stroke-width:0.84926748;stroke-opacity:1"
         sodipodi:nodetypes="ccsccccccc"
         inkscape:connector-curvature="0" />
      <path
         sodipodi:nodetypes="ccsccccccc"
         id="rect3865"
         d="m 770.14587,132.94179 c -13.33588,2.38041 -61.38412,54.48297 -50.02721,75.71746 15.8295,13.50939 66.41034,30.97084 134.21238,73.63727 48.55305,30.55342 118.11995,42.58618 185.46056,65.97951 88.617,-42.2108 178.5251,-75.71729 270.8022,-108.63694 11.3569,-21.23458 -28.6982,-94.47065 -42.0341,-96.85115 -66.9411,20.38395 -196.6661,108.14199 -245.4914,115.28807 l -0.08,-0.61037 C 859.0026,206.11977 825.60711,141.83201 770.14561,132.94179 l 2.6e-4,0 z"
         style="fill:#000000;fill-opacity:1;stroke:none"
         inkscape:connector-curvature="0" />
      <path
         transform="matrix(1.2955715,0,0,1.2955715,-1471.2992,1030.3044)"
         d="m 1851.0097,-515.13318 c 0,9.65897 -7.8301,17.48911 -17.4891,17.48911 -9.6589,0 -17.4891,-7.83014 -17.4891,-17.48911 0,-9.65897 7.8302,-17.48911 17.4891,-17.48911 9.659,0 17.4891,7.83014 17.4891,17.48911 z"
         sodipodi:ry="17.489111"
         sodipodi:rx="17.489111"
         sodipodi:cy="-515.13318"
         sodipodi:cx="1833.5206"
         id="path3916"
         style="fill:#000000;fill-opacity:1;stroke:#000000;stroke-opacity:1"
         sodipodi:type="arc" />
      <path
         sodipodi:type="arc"
         style="fill:#000000;fill-opacity:1;stroke:#000000;stroke-opacity:1"
         id="path3927"
         sodipodi:cx="1833.5206"
         sodipodi:cy="-515.13318"
         sodipodi:rx="17.489111"
         sodipodi:ry="17.489111"
         d="m 1851.0097,-515.13318 c 0,9.65897 -7.8301,17.48911 -17.4891,17.48911 -9.6589,0 -17.4891,-7.83014 -17.4891,-17.48911 0,-9.65897 7.8302,-17.48911 17.4891,-17.48911 9.659,0 17.4891,7.83014 17.4891,17.48911 z"
         transform="matrix(1.0277891,0,0,1.0277891,-788.89759,888.4066)" />
      <path
         inkscape:connector-curvature="0"
         sodipodi:nodetypes="cccc"
         id="path4023"
         d="m 928.56317,472.49652 c -22.2142,32.60743 -10.85049,83.49397 -0.13036,104.08878 l 91.97419,-32.61278 -91.84383,-71.476 z"
         style="fill:#ffffff;stroke:#000000;stroke-width:7.55848074;stroke-miterlimit:4;stroke-opacity:1;stroke-dasharray:none" />
      <path
         id="path4025"
         d="m 928.57204,472.49673 c -22.2142,32.60744 -10.85287,83.49353 -0.13274,104.08835 l 91.9598,-32.61722 -91.82706,-71.47113 z m 0.95543,5.06907 83.83863,65.2609 -83.06894,29.45897 c -4.69526,-10.05389 -9.46152,-26.09978 -10.722,-43.49847 -1.27807,-17.63809 1.09249,-36.28581 9.95231,-51.2214 z"
         style="fill:#000000;stroke:#000000;stroke-width:7.55848074;stroke-miterlimit:4;stroke-opacity:1;stroke-dasharray:none"
         inkscape:connector-curvature="0" />
      <path
         sodipodi:nodetypes="ccccc"
         id="path3994"
         d="m 1037.5105,531.87269 c -45.62124,0 -86.57598,13.74292 -109.72141,44.56006 14.98907,63.30252 103.60331,121.84307 126.71331,121.3259 20.0552,-8.38692 60.0968,-36.84171 105.2229,-87.07655 -14.6075,-48.21649 -61.9432,-78.80941 -122.2148,-78.80941 z"
         style="fill:#ffa519;fill-opacity:1;stroke:#000000;stroke-width:7.55848074;stroke-miterlimit:4;stroke-opacity:1;stroke-dasharray:none"
         inkscape:connector-curvature="0" />
      <path
         id="path4006"
         d="m 1037.5038,531.87269 c -45.62117,0 -86.56919,13.74287 -109.71471,44.56001 14.98907,63.30252 103.59021,121.85625 126.70011,121.33909 20.0553,-8.38692 60.1034,-36.84161 105.2295,-87.07646 -14.6076,-48.21649 -61.9433,-78.82264 -122.2149,-78.82264 z m 0,6.50221 c 56.5589,0 99.8777,27.52358 114.7573,70.72806 -42.6291,46.83351 -80.7087,73.87931 -98.9397,81.98085 -3.6586,-0.35916 -12.6784,-3.19333 -23.1691,-8.89077 -11.3413,-6.1594 -24.7636,-15.1965 -37.89854,-26.16805 -25.39802,-21.21483 -49.40231,-49.81118 -57.24589,-78.15915 21.8367,-26.87864 59.50282,-39.49094 102.49593,-39.49094 z"
         style="fill:#000000;fill-opacity:1;stroke:#000000;stroke-width:7.55848074;stroke-miterlimit:4;stroke-opacity:1;stroke-dasharray:none"
         inkscape:connector-curvature="0" />
      <path
         sodipodi:nodetypes="ccscsc"
         id="path3980"
         d="m 1052.4786,376.59619 c -29.2082,5.61909 -97.14199,39.2697 -125.65164,96.87658 19.45672,15.67867 59.93748,61.2154 94.61114,73.18961 70.3449,24.29295 144.3453,45.80007 241.4799,152.50265 70.2393,-54.53567 36.5386,-165.3277 -38.2765,-224.65098 -74.5565,-59.11814 -142.3312,-90.54588 -172.1629,-97.91786 z"
         style="fill:#ffa519;fill-opacity:1;stroke:#000000;stroke-width:7.55848074;stroke-miterlimit:4;stroke-opacity:1;stroke-dasharray:none"
         inkscape:connector-curvature="0" />
      <path
         id="path3999"
         d="m 1052.4653,376.60264 c -29.2083,5.61909 -97.12877,39.26274 -125.63834,96.86959 19.45663,15.67863 59.93986,61.22204 94.61354,73.1962 70.3449,24.29299 144.3493,45.79402 241.4839,152.4966 70.2393,-54.53567 36.5184,-165.33451 -38.2967,-224.6578 -74.5563,-59.11812 -142.3308,-90.53261 -172.1624,-97.90459 z m -0.1327,6.31643 c 28.6735,7.47236 95.5277,38.50315 168.5,96.36529 36.3065,28.78856 62.7136,70.31974 71.365,110.6171 8.2649,38.49788 0.7967,75.22156 -28.7955,100.87706 -95.9368,-103.72438 -170.8,-126.03462 -239.9711,-149.92226 -15.7724,-5.44686 -34.31392,-19.35324 -50.98258,-33.99724 -14.77224,-12.97774 -27.85385,-26.07834 -37.89848,-34.76685 13.83126,-25.58759 35.88572,-46.40348 58.25432,-61.49233 22.92784,-15.46618 46.08434,-24.83233 59.52834,-27.68077 z"
         style="fill:#000000;fill-opacity:1;stroke:#000000;stroke-width:7.55848074;stroke-miterlimit:4;stroke-opacity:1;stroke-dasharray:none"
         inkscape:connector-curvature="0" />
      <path
         sodipodi:type="arc"
         style="fill:#800000;fill-opacity:1;stroke:none"
         id="path4097"
         sodipodi:cx="0"
         sodipodi:cy="771.45135"
         sodipodi:rx="398.92575"
         sodipodi:ry="225.20001"
         d="m 398.92575,771.45135 c 0,124.37454 -178.60514,225.20002 -398.92575,225.20002 -220.32061,0 -398.92575,-100.82548 -398.92575,-225.20002 0,-124.37453 178.60514,-225.20001 398.92575,-225.20001 220.32061,0 398.92575,100.82548 398.92575,225.20001 z"
         transform="matrix(0,0.27500089,-0.27500089,0,778.16562,246.4642)" />
      <path
         transform="matrix(0,0.13932682,-0.19411827,0,580.97932,312.55778)"
         d="m 398.92575,771.45135 c 0,124.37454 -178.60514,225.20002 -398.92575,225.20002 -220.32061,0 -398.92575,-100.82548 -398.92575,-225.20002 0,-124.37453 178.60514,-225.20001 398.92575,-225.20001 220.32061,0 398.92575,100.82548 398.92575,225.20001 z"
         sodipodi:ry="225.20001"
         sodipodi:rx="398.92575"
         sodipodi:cy="771.45135"
         sodipodi:cx="0"
         id="path4099"
         style="fill:#800000;fill-opacity:1;stroke:none"
         sodipodi:type="arc" />
      <path
         inkscape:connector-curvature="0"
         id="path4101"
         d="m 849.34578,-373.43133 c -16.89626,0.27164 -33.06003,5.46399 -47.87745,16.79957 -0.72443,0.65253 -1.43433,1.30858 -2.14975,1.96393 112.48692,-38.33813 276.17262,196.12757 288.16712,282.354907 198.4893,40.793634 342.6719,294.638923 334.5582,486.417963 -8.189,193.55885 -104.6671,348.30728 -252.9755,438.32819 C 1331.7547,765.12726 1438.8989,603.97951 1447.5485,399.5348 1455.6622,207.75575 1311.4531,-46.089538 1112.9637,-86.883169 1101.8162,-167.02157 959.66801,-375.20504 849.34578,-373.43133 z m -148.51576,129.91139 c -50.41813,-0.0128 -102.45742,9.02232 -132.56531,32.40486 52.63786,-22.35569 134.2466,-21.37622 188.56391,-9.7135 -3.02568,-7.07429 -5.54113,-13.6793 -7.56375,-19.90471 -15.40973,-1.77661 -31.8349,-2.78244 -48.43485,-2.78665 z m -68.55177,183.149841 c -33.03634,14.064592 -64.69108,30.093815 -94.61375,47.957078 31.9012,-17.388888 65.5536,-32.760948 100.55862,-46.019686 -2.00885,-0.648263 -3.96319,-1.291974 -5.94487,-1.937392 z"
         style="opacity:0.36501902;fill:#e9afaf;fill-opacity:1;stroke:none" />
      <path
         inkscape:connector-curvature="0"
         id="path4397"
         d="M 509.99158,9.6862698 C 369.64773,104.40909 274.46095,242.64156 266.22526,410.859 c -12.56372,256.62045 286.97059,514.33764 608.26131,514.33764 172.15963,0 322.25733,-60.78199 426.57113,-165.39485 -94.0048,60.54131 -210.1332,94.32177 -338.48616,94.32177 -321.29081,0 -620.7985,-257.71719 -608.23477,-514.33763 C 360.7033,209.74679 419.01073,97.637508 509.99158,9.6862698 z"
         style="opacity:0.5;fill:#2b0000;fill-opacity:1;stroke:none" />
      <path
         inkscape:connector-curvature="0"
         sodipodi:nodetypes="cccccccccccccccssccccscscccssscssscssscsscscscscccsssccsccsssccsssssssssccsccsc"
         id="rect3802"
         d="m 853.57734,-376.69333 c -16.89617,0.2716 -33.03336,5.46402 -47.85087,16.79953 -27.51559,24.78579 -49.18312,51.04124 -19.1616,121.23294 -88.6995,-19.04499 -250.1563,-9.60479 -239.44033,83.44053 -4.45067,35.28036 50.0802,56.122401 120.83481,78.955383 C 526.24301,-22.5875 406.77357,65.95831 335.31187,181.06302 L 281.19765,26.257526 177.05622,85.520508 277.56168,212.7779 110.28257,133.13249 57.521813,232.86834 247.75775,308.69205 87.484998,322.54572 97.649711,434.11824 269.97136,354.0217 c -2.81405,17.27138 -4.66681,34.89428 -5.54674,52.8669 -12.56381,256.62045 286.97072,514.33763 608.26124,514.33763 321.29074,0 565.83924,-211.65385 579.09414,-524.95347 C 1459.8937,204.4938 1315.711,-49.35149 1117.2218,-90.145205 1106.0742,-170.28362 963.8996,-378.46719 853.57734,-376.69333 z m 0.0263,18.71039 c 43.00929,-0.68528 104.17837,44.77822 153.18653,104.08834 49.7861,60.25163 87.4841,134.53026 91.9067,166.323694 0.5298,3.795462 2.26,7.41436 4.8812,10.209979 2.6212,2.795704 6.1213,4.755049 9.8748,5.528052 92.6245,19.036247 174.9256,88.927738 232.8054,178.425745 57.88,89.49803 90.6821,198.01819 86.8376,288.8837 -12.8589,303.94622 -247.334,507.01269 -560.41029,507.01269 -155.6431,0 -307.01086,-62.76247 -417.20264,-156.47753 C 345.29128,652.29676 277.19641,528.51645 283.10825,407.76437 293.75654,190.26713 455.48892,24.187861 674.594,-58.801969 c 3.59542,-1.365537 6.74844,-3.870282 8.89183,-7.063612 2.14339,-3.193416 3.267,-7.060301 3.16872,-10.90502 -0.0983,-3.844804 -1.41802,-7.649182 -3.72177,-10.728881 -2.30375,-3.079699 -5.58063,-5.420025 -9.24113,-6.600083 -35.13293,-11.337465 -65.77111,-22.253185 -85.11249,-33.254175 -9.6707,-5.50045 -16.30467,-10.99428 -19.58624,-15.26023 -3.28156,-4.26621 -3.80777,-6.38377 -3.31749,-10.27087 0.18837,-1.48681 0.19723,-2.99622 0.0263,-4.48515 -2.06398,-17.92125 3.00717,-28.57913 14.43755,-38.98673 11.43037,-10.40752 30.52377,-19.03514 53.6365,-24.38986 46.22564,-10.70977 107.40917,-8.52877 148.86069,0.37147 6.66234,1.42643 178.78865,123.050622 183.12155,117.79247 4.33279,-5.25816 -136.69464,-89.16511 -161.99602,-143.42965 -14.03916,-32.82436 -14.80791,-52.1846 -11.17322,-65.31402 3.57015,-12.89664 12.27633,-22.50287 25.0269,-34.05028 10.93814,-8.22218 21.8373,-11.93713 33.94411,-12.55328 0.67347,-0.034 1.36087,-0.0433 2.0436,-0.0527 l 2.5e-4,-4.2e-4 z m -544.752,587.56037 c -0.71517,1.50906 -1.4238,3.02152 -2.12317,4.53831 -0.69937,1.51671 -1.3866,3.0403 -2.07009,4.56482 0.68307,-1.52316 1.37123,-3.04938 2.07009,-4.56482 0.69904,-1.51594 1.40834,-3.0301 2.12317,-4.53831 z m -6.9003,15.23373 c -1.09988,2.54942 -2.18244,5.1261 -3.23783,7.69649 1.057,-2.57379 2.13625,-5.14376 3.23783,-7.69649 z m -5.12218,12.34097 c -0.61903,1.55492 -1.22847,3.1084 -1.83119,4.67097 -0.60273,1.56248 -1.19187,3.12742 -1.7782,4.69747 0.58591,-1.56826 1.1759,-3.13669 1.7782,-4.69747 0.60281,-1.56215 1.21216,-3.11648 1.83119,-4.67097 z m -11.78359,33.201 c -0.5026,1.60716 -1.00052,3.21576 -1.48622,4.83021 -0.48561,1.61455 -0.9646,3.23495 -1.43314,4.85679 -0.46845,1.62177 -0.92876,3.25423 -1.38006,4.88329 -0.45121,1.62907 -0.893,3.24692 -1.32698,4.88329 -0.43397,1.63628 -0.85733,3.29278 -1.2739,4.93637 0.41827,-1.64962 0.83814,-3.29406 1.2739,-4.93637 0.43338,-1.63306 0.87645,-3.25745 1.32698,-4.88329 0.45241,-1.63229 0.91042,-3.2583 1.38006,-4.88329 0.46922,-1.62354 0.94685,-3.24063 1.43314,-4.85679 0.48561,-1.61352 0.98371,-3.22399 1.48622,-4.83021 z m -8.12112,29.32632 c -1.80843,7.48077 -3.43987,15.03848 -4.88329,22.66482 1.44427,-7.62905 3.07333,-15.18116 4.88329,-22.66482 z m -5.52024,26.00881 c -0.24705,1.35993 -0.48128,2.72258 -0.71653,4.0871 0.23551,-1.3657 0.46922,-2.72598 0.71653,-4.0871 z"
         style="fill:#000000;fill-opacity:1;stroke:none" />
      <path
         sodipodi:nodetypes="ccscccc"
         inkscape:connector-curvature="0"
         id="path4919"
         d="m 643.21479,-231.15117 c -51.98757,13.25031 -88.68483,38.63937 -82.80348,81.33446 -4.28036,28.3678 56.46309,45.69278 110.7127,66.610165 12.13216,4.677875 -9.35469,18.197331 5.61761,22.28224 21.94335,-8.515521 66.66587,-27.275738 89.64418,-34.552338 -86.16464,-23.247327 -152.57236,-44.440857 -147.15234,-80.361687 -3.20997,-23.30248 6.25889,-41.4769 23.98133,-55.31284 z"
         style="opacity:0.5;fill:#280b0b;fill-opacity:1;stroke:none" />
    </g>
  </g>
</svg>
