<?xml version="1.0" encoding="UTF-8" standalone="no"?>
<!-- Created with Inkscape (http://www.inkscape.org/) -->

<svg
   xmlns:dc="http://purl.org/dc/elements/1.1/"
   xmlns:cc="http://creativecommons.org/ns#"
   xmlns:rdf="http://www.w3.org/1999/02/22-rdf-syntax-ns#"
   xmlns:svg="http://www.w3.org/2000/svg"
   xmlns="http://www.w3.org/2000/svg"
   xmlns:sodipodi="http://sodipodi.sourceforge.net/DTD/sodipodi-0.dtd"
   xmlns:inkscape="http://www.inkscape.org/namespaces/inkscape"
   width="210mm"
   height="297mm"
   id="svg2"
   version="1.1"
   inkscape:version="0.48.4 r9939"
   sodipodi:docname="caballero.svg">
  <defs
     id="defs4" />
  <sodipodi:namedview
     id="base"
     pagecolor="#ffffff"
     bordercolor="#666666"
     borderopacity="1.0"
     inkscape:pageopacity="0.0"
     inkscape:pageshadow="2"
     inkscape:zoom="3.959798"
     inkscape:cx="180.51321"
     inkscape:cy="409.90248"
     inkscape:document-units="px"
     inkscape:current-layer="layer1"
     showgrid="false"
     inkscape:snap-bbox="true"
     inkscape:object-paths="true"
     inkscape:object-nodes="true"
     inkscape:snap-smooth-nodes="true"
     inkscape:snap-nodes="false"
     inkscape:window-width="1366"
     inkscape:window-height="715"
     inkscape:window-x="0"
     inkscape:window-y="0"
     inkscape:window-maximized="1"
     showguides="true"
     inkscape:guide-bbox="true">
    <sodipodi:guide
       orientation="0,1"
       position="129.98849,415.59114"
       id="guide3911" />
  </sodipodi:namedview>
  <metadata
     id="metadata7">
    <rdf:RDF>
      <cc:Work
         rdf:about="">
        <dc:format>image/svg+xml</dc:format>
        <dc:type
           rdf:resource="http://purl.org/dc/dcmitype/StillImage" />
        <dc:title></dc:title>
      </cc:Work>
    </rdf:RDF>
  </metadata>
  <g
     inkscape:label="Capa 1"
     inkscape:groupmode="layer"
     id="layer1">
    <g
       id="g3932">
      <path
         sodipodi:nodetypes="ccccccccccc"
         style="fill:#1a1a1a;stroke:none"
         d="m 143.75,613.61218 -17.63393,-17.63393 0,12.72322 -41.116107,-11.01703 25.747017,14.86505 -22.175557,0 17.683817,10.20975 0.79165,10.18782 16.89217,0.0219 19.00736,0 z"
         id="path3909"
         inkscape:connector-curvature="0" />
      <path
         sodipodi:nodetypes="sssss"
         inkscape:connector-curvature="0"
         id="path3907"
         d="m 244.20438,631.63367 c 0,6.13681 -4.8486,6.31346 -10.98541,6.31346 -6.13681,0 -11.23795,-0.17665 -11.23795,-6.31346 0,-6.13681 4.97487,-11.11168 11.11168,-11.11168 6.13681,0 11.11168,4.97487 11.11168,11.11168 z"
         style="fill:#999999;stroke:none"
         transform="translate(-109.03783,4.4194174)" />
      <path
         sodipodi:nodetypes="ccccccccccccccccccc"
         inkscape:connector-curvature="0"
         id="path3903"
         d="M 145.59375,609.75 130,636.78125 l -11.5625,0 -12.0625,-20.875 -17.083121,0 0,42.875 15.765221,0 -0.125,-11.3125 c -6.646458,0.52218 -4.74782,-4.35743 -7.836444,-6.24552 8.891094,2.54559 18.613144,5.15361 27.560594,5.24552 12.22226,0.0208 27.9375,-6.34375 27.9375,-6.34375 l 0.375,0.90625 c 0,0 -10.25064,4.19971 -20.8125,5.8125 l 6.375,-0.0625 0,18.15625 5.5625,3.1875 13.25,0 0,-58.375 z"
         style="fill:#333333;stroke:none" />
    </g>
    <g
       id="g3866">
      <path
         transform="matrix(0.70537262,0,0,0.70537262,179.00917,167.31825)"
         d="m 499.64285,670.93359 a 40.714287,40.714287 0 1 1 -81.42858,0 40.714287,40.714287 0 1 1 81.42858,0 z"
         sodipodi:ry="40.714287"
         sodipodi:rx="40.714287"
         sodipodi:cy="670.93359"
         sodipodi:cx="458.92856"
         id="path2985"
         style="fill:none;stroke:#000000;stroke-width:0.7088452;stroke-miterlimit:4;stroke-dasharray:none"
         sodipodi:type="arc" />
      <path
         transform="translate(144.1534,-2.8571429)"
         d="m 346.78573,683.43359 a 15.714286,7.8571429 0 1 1 -31.42857,0 15.714286,7.8571429 0 1 1 31.42857,0 z"
         sodipodi:ry="7.8571429"
         sodipodi:rx="15.714286"
         sodipodi:cy="683.43359"
         sodipodi:cx="331.07144"
         id="path2987"
         style="fill:none;stroke:#000000;stroke-width:0.5;stroke-linecap:round;stroke-linejoin:round;stroke-miterlimit:4;stroke-opacity:1;stroke-dasharray:none;stroke-dashoffset:0"
         sodipodi:type="arc" />
      <path
         sodipodi:type="arc"
         style="fill:none;stroke:#000000;stroke-width:0.5;stroke-linecap:round;stroke-linejoin:round;stroke-miterlimit:4;stroke-opacity:1;stroke-dasharray:none;stroke-dashoffset:0"
         id="path3757"
         sodipodi:cx="331.07144"
         sodipodi:cy="683.43359"
         sodipodi:rx="15.714286"
         sodipodi:ry="7.8571429"
         d="m 346.78573,683.43359 a 15.714286,7.8571429 0 1 1 -31.42857,0 15.714286,7.8571429 0 1 1 31.42857,0 z"
         transform="translate(198.79625,-2.8571429)" />
      <rect
         ry="0"
         y="665.63226"
         x="495.9949"
         height="14.888387"
         width="13.459816"
         id="rect3759"
         style="fill:none;stroke:#000000;stroke-width:0.61161309;stroke-linecap:round;stroke-linejoin:round;stroke-miterlimit:4;stroke-opacity:1;stroke-dasharray:none;stroke-dashoffset:0" />
      <path
         transform="translate(118.79625,13.571429)"
         d="m 348.92858,672.7193 a 8.2142859,8.2142859 0 1 1 -16.42857,0 8.2142859,8.2142859 0 1 1 16.42857,0 z"
         sodipodi:ry="8.2142859"
         sodipodi:rx="8.2142859"
         sodipodi:cy="672.7193"
         sodipodi:cx="340.71429"
         id="path3765"
         style="fill:none;stroke:#000000;stroke-width:0.5;stroke-linecap:round;stroke-linejoin:round;stroke-miterlimit:4;stroke-opacity:1;stroke-dasharray:none;stroke-dashoffset:0"
         sodipodi:type="arc" />
      <path
         sodipodi:type="arc"
         style="fill:none;stroke:#000000;stroke-width:0.5;stroke-linecap:round;stroke-linejoin:round;stroke-miterlimit:4;stroke-opacity:1;stroke-dasharray:none;stroke-dashoffset:0"
         id="path3767"
         sodipodi:cx="340.71429"
         sodipodi:cy="672.7193"
         sodipodi:rx="8.2142859"
         sodipodi:ry="8.2142859"
         d="m 348.92858,672.7193 a 8.2142859,8.2142859 0 1 1 -16.42857,0 8.2142859,8.2142859 0 1 1 16.42857,0 z"
         transform="translate(205.58197,13.571429)" />
      <path
         sodipodi:type="arc"
         style="fill:none;stroke:#000000;stroke-width:0.5;stroke-linecap:round;stroke-linejoin:round;stroke-miterlimit:4;stroke-opacity:1;stroke-dasharray:none;stroke-dashoffset:0"
         id="path3771"
         sodipodi:cx="340.71429"
         sodipodi:cy="672.7193"
         sodipodi:rx="8.2142859"
         sodipodi:ry="8.2142859"
         d="m 348.92858,672.7193 a 8.2142859,8.2142859 0 1 1 -16.42857,0 8.2142859,8.2142859 0 1 1 16.42857,0 z"
         transform="translate(105.58197,52.142858)" />
      <path
         transform="translate(218.08197,52.142858)"
         d="m 348.92858,672.7193 a 8.2142859,8.2142859 0 1 1 -16.42857,0 8.2142859,8.2142859 0 1 1 16.42857,0 z"
         sodipodi:ry="8.2142859"
         sodipodi:rx="8.2142859"
         sodipodi:cy="672.7193"
         sodipodi:cx="340.71429"
         id="path3773"
         style="fill:none;stroke:#000000;stroke-width:0.5;stroke-linecap:round;stroke-linejoin:round;stroke-miterlimit:4;stroke-opacity:1;stroke-dasharray:none;stroke-dashoffset:0"
         sodipodi:type="arc" />
      <path
         transform="translate(88.4391,-13.214286)"
         d="m 429.99999,723.07648 a 15.714286,33.92857 0 1 1 -31.42857,0 15.714286,33.92857 0 1 1 31.42857,0 z"
         sodipodi:ry="33.92857"
         sodipodi:rx="15.714286"
         sodipodi:cy="723.07648"
         sodipodi:cx="414.28571"
         id="path3775"
         style="fill:none;stroke:#000000;stroke-width:0.5;stroke-linecap:round;stroke-linejoin:round;stroke-miterlimit:4;stroke-opacity:1;stroke-dasharray:none;stroke-dashoffset:0"
         sodipodi:type="arc" />
      <path
         sodipodi:nodetypes="csc"
         inkscape:connector-curvature="0"
         id="path3779"
         d="m 504.1534,611.6479 c 0,0 5.73148,14.77046 5.91632,30.33619 0.19329,16.27805 -5.36221,27.24372 -5.36221,27.24372"
         style="fill:none;stroke:#000000;stroke-width:1px;stroke-linecap:butt;stroke-linejoin:miter;stroke-opacity:1" />
      <path
         style="fill:none;stroke:#000000;stroke-width:1px;stroke-linecap:butt;stroke-linejoin:miter;stroke-opacity:1"
         d="m 531.44355,640.57644 c 0,0 -10.17064,5.64449 -21.05048,6.63061 -10.91972,0.98972 -36.52943,-6.0765 -36.52943,-6.0765"
         id="path3781"
         inkscape:connector-curvature="0"
         sodipodi:nodetypes="csc" />
    </g>
    <path
       transform="matrix(0.70537262,0,0,0.70537262,-90.196487,167.31825)"
       style="fill:none;stroke:#000000;stroke-width:0.7088452;stroke-miterlimit:4"
       d="m 499.64285,670.93359 c 0,22.48588 -18.22841,40.71429 -40.71429,40.71429 -22.48588,0 -40.71429,-18.22841 -40.71429,-40.71429 0,-22.48588 18.22841,-40.71428 40.71429,-40.71428 22.48588,0 40.71429,18.2284 40.71429,40.71428 z"
       id="path3783" />
    <path
       style="fill:none;stroke:#000000;stroke-width:0.53679937;stroke-linecap:round;stroke-linejoin:round;stroke-miterlimit:4;stroke-opacity:1;stroke-dashoffset:0"
       d="m 175.77232,686.28125 c 0,4.53662 4.24751,8.3832 9.47305,8.21875 7.54477,-0.23743 4.90768,-6.11657 18.11765,-6.0625 21.32359,-0.53571 20.13987,-7.10705 20.13987,-11.44643 -10.22162,-4.91731 -47.16482,-6.84067 -47.73057,9.29018 z"
       id="path3785"
       inkscape:connector-curvature="0"
       sodipodi:nodetypes="csccc" />
    <path
       style="fill:none;stroke:#000000;stroke-width:0.77710861;stroke-linecap:round;stroke-linejoin:round;stroke-miterlimit:4;stroke-opacity:1;stroke-dashoffset:0"
       d="m 224.96821,663.61795 17.10189,0 c -1.55176,6.30567 -3.4258,12.61134 0,18.91701 l -17.10189,0 c 3.25712,-5.21997 1.78197,-12.01735 0,-18.91701 z"
       id="rect3789"
       inkscape:connector-curvature="0"
       sodipodi:nodetypes="ccccc" />
    <path
       style="fill:none;stroke:#000000;stroke-width:0.64716661;stroke-linecap:round;stroke-linejoin:round;stroke-miterlimit:4;stroke-opacity:1;stroke-dashoffset:0"
       d="m 182.67248,719.49345 c 6.62427,9.37679 2.28008,11.61802 -3.39175,10.09827 -5.67181,-1.51977 -9.03772,-7.34971 -7.51796,-13.02153 1.51976,-5.67183 7.3497,-9.03773 13.02151,-7.51797 5.67183,1.51976 -5.49987,5.64535 -2.1118,10.44123 z"
       id="path3795"
       inkscape:connector-curvature="0"
       sodipodi:nodetypes="sssss" />
    <path
       style="fill:none;stroke:#000000;stroke-width:0.72141117;stroke-linecap:round;stroke-linejoin:round;stroke-miterlimit:4;stroke-opacity:1;stroke-dashoffset:0"
       d="m 248.1624,732.07032 c -4.28497,11.13626 -5.03318,12.50259 -12.31971,12.85973 -6.56357,0.32171 -11.67221,-1.95522 -16.01554,-13.35312 -8.13736,-23.61496 -20.41736,-32.94672 -11.54958,-48.89557 5.33338,-9.59216 18.47619,-3.68282 25.24631,-3.68282 4.63492,0 18.27032,-4.91365 23.61452,0.68472 10.68699,11.19527 0.80648,26.43897 -8.976,52.38706 z"
       id="path3799"
       inkscape:connector-curvature="0"
       sodipodi:nodetypes="cscsssc" />
    <path
       sodipodi:nodetypes="csc"
       inkscape:connector-curvature="0"
       id="path3801"
       d="m 233.2421,611.6479 c 0,0 0.17564,14.77046 0.36048,30.33619 0.19329,16.27805 0.19363,27.24372 0.19363,27.24372"
       style="fill:none;stroke:#000000;stroke-width:1px;stroke-linecap:butt;stroke-linejoin:miter;stroke-opacity:1" />
    <path
       style="fill:none;stroke:#000000;stroke-width:1px;stroke-linecap:butt;stroke-linejoin:miter;stroke-opacity:1"
       d="m 262.2379,640.57644 c 0,0 -15.72647,6.39918 -28.12154,6.37807 -12.47969,-0.0213 -29.45837,-5.82396 -29.45837,-5.82396"
       id="path3803"
       inkscape:connector-curvature="0"
       sodipodi:nodetypes="csc" />
    <path
       style="fill:none;stroke:#000000;stroke-width:0.41197181;stroke-linecap:butt;stroke-linejoin:miter;stroke-miterlimit:4;stroke-opacity:1;stroke-dasharray:none"
       d="m 193.28283,678.88495 c -5.26981,6.54182 -9.61154,4.14467 -14.5538,26.74046 -0.67353,3.07932 -2.48137,4.98908 -3.13277,9.15286 l 8.94732,6.97058 c 7.00684,-1.47513 5.20097,-6.15628 11.13019,-10.27186 10.15542,-7.04906 10.97365,-14.68961 12.62954,-15.82825 4.33338,-2.97977 6.02185,-1.15154 6.02185,-1.15154 l 3.40673,-11.97089 -10.5079,-4.88982 z"
       id="path3848"
       inkscape:connector-curvature="0"
       sodipodi:nodetypes="csccsscccc" />
    <path
       style="fill:none;stroke:#000000;stroke-width:0.5;stroke-linecap:butt;stroke-linejoin:miter;stroke-miterlimit:4;stroke-opacity:1;stroke-dasharray:none"
       d="m 175,716.6479 c -0.99461,12.98964 -5.47892,21.41585 5.17857,49.64285 l 7.67857,-2.5 C 185.53571,747.18361 192.73,721.58361 181.25,719.86218 z"
       id="path3850"
       inkscape:connector-curvature="0"
       sodipodi:nodetypes="ccccc" />
    <path
       style="fill:none;stroke:#000000;stroke-width:0.30000001;stroke-linecap:butt;stroke-linejoin:miter;stroke-miterlimit:4;stroke-opacity:1;stroke-dasharray:none"
       d="m 218.76117,639.71487 10.22779,6.88166 0.0631,9.21764 c -10.26357,1.67307 -7.93855,-8.64407 -10.29092,-16.0993 z"
       id="path3852"
       inkscape:connector-curvature="0"
       sodipodi:nodetypes="cccc" />
    <path
       style="fill:none;stroke:#000000;stroke-width:1px;stroke-linecap:butt;stroke-linejoin:miter;stroke-opacity:1"
       d="m 233.59778,646.9122 21.44801,-37.14904 11.76075,0 0,58.36225 -13.25825,0 -5.54843,-3.20339 0,-18.13608 z"
       id="path3860"
       inkscape:connector-curvature="0"
       sodipodi:nodetypes="cccccccc" />
    <path
       style="fill:none;stroke:#000000;stroke-width:1px;stroke-linecap:butt;stroke-linejoin:miter;stroke-opacity:1"
       d="m 233.59778,646.65967 -17.7542,-30.75117 -21.26295,0 0,42.873 39.14342,0 z"
       id="path3862"
       inkscape:connector-curvature="0" />
    <path
       sodipodi:type="arc"
       style="fill:none;stroke:#000000"
       id="path3864"
       sodipodi:cx="233.0927"
       sodipodi:cy="631.63367"
       sodipodi:rx="11.111678"
       sodipodi:ry="11.111678"
       d="m 244.20438,631.63367 a 11.111678,11.111678 0 1 1 -22.22336,0 11.111678,11.111678 0 1 1 22.22336,0 z"
       transform="translate(0.12626907,4.4194174)" />
    <g
       id="g3887"
       transform="translate(74.246212,0)">
      <path
         style="fill:none;stroke:#000000;stroke-width:0.53679937;stroke-linecap:round;stroke-linejoin:round;stroke-miterlimit:4;stroke-opacity:1;stroke-dashoffset:0"
         d="m 219.08506,686.28125 c 0,4.53662 -4.24751,8.3832 -9.47305,8.21875 -7.54477,-0.23743 -4.90768,-6.11657 -18.11765,-6.0625 -21.32359,-0.53571 -20.13987,-7.10705 -20.13987,-11.44643 10.22162,-4.91731 47.16482,-6.84067 47.73057,9.29018 z"
         id="path3879"
         inkscape:connector-curvature="0"
         sodipodi:nodetypes="csccc" />
      <path
         style="fill:none;stroke:#000000;stroke-width:0.64716661;stroke-linecap:round;stroke-linejoin:round;stroke-miterlimit:4;stroke-opacity:1;stroke-dashoffset:0"
         d="m 212.1849,719.49345 c -6.62427,9.37679 -2.28008,11.61802 3.39175,10.09827 5.67181,-1.51977 9.03772,-7.34971 7.51796,-13.02153 -1.51976,-5.67183 -7.3497,-9.03773 -13.02151,-7.51797 -5.67183,1.51976 5.49987,5.64535 2.1118,10.44123 z"
         id="path3881"
         inkscape:connector-curvature="0"
         sodipodi:nodetypes="sssss" />
      <path
         style="fill:none;stroke:#000000;stroke-width:0.41197181;stroke-linecap:butt;stroke-linejoin:miter;stroke-miterlimit:4;stroke-opacity:1;stroke-dasharray:none"
         d="m 201.57455,678.88495 c 5.26981,6.54182 9.61154,4.14467 14.5538,26.74046 0.67353,3.07932 2.48137,4.98908 3.13277,9.15286 l -8.94732,6.97058 c -7.00684,-1.47513 -5.20097,-6.15628 -11.13019,-10.27186 -10.15542,-7.04906 -10.97365,-14.68961 -12.62954,-15.82825 -4.33338,-2.97977 -6.02185,-1.15154 -6.02185,-1.15154 l -3.40673,-11.97089 10.5079,-4.88982 z"
         id="path3883"
         inkscape:connector-curvature="0"
         sodipodi:nodetypes="csccsscccc" />
      <path
         style="fill:none;stroke:#000000;stroke-width:0.5;stroke-linecap:butt;stroke-linejoin:miter;stroke-miterlimit:4;stroke-opacity:1;stroke-dasharray:none"
         d="m 219.85738,716.6479 c 0.99461,12.98964 5.47892,21.41585 -5.17857,49.64285 l -7.67857,-2.5 c 2.32143,-16.60714 -4.87286,-42.20714 6.60714,-43.92857 z"
         id="path3885"
         inkscape:connector-curvature="0"
         sodipodi:nodetypes="ccccc" />
    </g>
    <path
       style="fill:none;stroke:#000000;stroke-width:1px;stroke-linecap:butt;stroke-linejoin:miter;stroke-opacity:1"
       d="m 253.21429,613.61218 -17.63393,-17.63393 0,12.72322 -41.11611,-11.01703 25.74702,14.86505 -22.17556,0 35.36764,20.41951 19.00736,0 z"
       id="path3893"
       inkscape:connector-curvature="0" />
  </g>
</svg>
