<?xml version="1.0" encoding="UTF-8" standalone="no"?>
<!-- Created with Inkscape (http://www.inkscape.org/) -->

<svg
   xmlns:dc="http://purl.org/dc/elements/1.1/"
   xmlns:cc="http://creativecommons.org/ns#"
   xmlns:rdf="http://www.w3.org/1999/02/22-rdf-syntax-ns#"
   xmlns:svg="http://www.w3.org/2000/svg"
   xmlns="http://www.w3.org/2000/svg"
   xmlns:xlink="http://www.w3.org/1999/xlink"
   xmlns:sodipodi="http://sodipodi.sourceforge.net/DTD/sodipodi-0.dtd"
   xmlns:inkscape="http://www.inkscape.org/namespaces/inkscape"
   width="1052.3622"
   height="744.09448"
   id="svg2"
   version="1.1"
   inkscape:version="0.48.4 r9939"
   sodipodi:docname="Nuevo documento 1">
  <defs
     id="defs4">
    <linearGradient
       id="linearGradient6854">
      <stop
         style="stop-color:#009700;stop-opacity:1;"
         offset="0"
         id="stop6856" />
      <stop
         style="stop-color:#005b00;stop-opacity:1;"
         offset="1"
         id="stop6858" />
    </linearGradient>
    <linearGradient
       id="linearGradient6821">
      <stop
         style="stop-color:#008000;stop-opacity:1;"
         offset="0"
         id="stop6823" />
      <stop
         style="stop-color:#00ac00;stop-opacity:1;"
         offset="1"
         id="stop6825" />
    </linearGradient>
    <linearGradient
       id="linearGradient6813">
      <stop
         style="stop-color:#003200;stop-opacity:1;"
         offset="0"
         id="stop6815" />
      <stop
         style="stop-color:#006200;stop-opacity:1;"
         offset="1"
         id="stop6817" />
    </linearGradient>
    <linearGradient
       id="linearGradient6805">
      <stop
         style="stop-color:#008c00;stop-opacity:1;"
         offset="0"
         id="stop6807" />
      <stop
         style="stop-color:#00fa00;stop-opacity:1;"
         offset="1"
         id="stop6809" />
    </linearGradient>
    <linearGradient
       id="linearGradient6797">
      <stop
         style="stop-color:#008600;stop-opacity:1;"
         offset="0"
         id="stop6799" />
      <stop
         style="stop-color:#006500;stop-opacity:1;"
         offset="1"
         id="stop6801" />
    </linearGradient>
    <linearGradient
       id="linearGradient6775">
      <stop
         style="stop-color:#009b00;stop-opacity:1;"
         offset="0"
         id="stop6777" />
      <stop
         style="stop-color:#00e900;stop-opacity:1;"
         offset="1"
         id="stop6779" />
    </linearGradient>
    <linearGradient
       inkscape:collect="always"
       xlink:href="#linearGradient6775"
       id="linearGradient6795"
       x1="231.60405"
       y1="581.05353"
       x2="260.44781"
       y2="581.05353"
       gradientUnits="userSpaceOnUse"
       gradientTransform="translate(59.334736,-52.575083)" />
    <linearGradient
       inkscape:collect="always"
       xlink:href="#linearGradient6797"
       id="linearGradient6803"
       x1="203.1353"
       y1="596.18454"
       x2="236.11376"
       y2="596.18454"
       gradientUnits="userSpaceOnUse"
       gradientTransform="translate(59.334736,-52.575083)" />
    <linearGradient
       inkscape:collect="always"
       xlink:href="#linearGradient6805"
       id="linearGradient6811"
       x1="150.74179"
       y1="528.10126"
       x2="260.44443"
       y2="528.10126"
       gradientUnits="userSpaceOnUse"
       gradientTransform="translate(59.334736,-52.575083)" />
    <linearGradient
       inkscape:collect="always"
       xlink:href="#linearGradient6813"
       id="linearGradient6819"
       x1="150.72905"
       y1="579.4599"
       x2="176.76637"
       y2="579.4599"
       gradientUnits="userSpaceOnUse"
       gradientTransform="translate(59.334736,-52.575083)" />
    <linearGradient
       inkscape:collect="always"
       xlink:href="#linearGradient6821"
       id="linearGradient6827"
       x1="168.3228"
       y1="586.05201"
       x2="222.83173"
       y2="586.05201"
       gradientUnits="userSpaceOnUse"
       gradientTransform="translate(59.334736,-52.575083)" />
    <radialGradient
       inkscape:collect="always"
       xlink:href="#linearGradient6854"
       id="radialGradient6860"
       cx="109.34375"
       cy="285.39062"
       fx="109.34375"
       fy="285.39062"
       r="50"
       gradientTransform="matrix(0.65445775,-0.02490611,0.11558202,3.0371483,4.7968606,-578.65972)"
       gradientUnits="userSpaceOnUse" />
    <linearGradient
       inkscape:collect="always"
       xlink:href="#linearGradient6775"
       id="linearGradient6868"
       x1="-18.025742"
       y1="192.05611"
       x2="94.635147"
       y2="192.05611"
       gradientUnits="userSpaceOnUse" />
    <linearGradient
       inkscape:collect="always"
       xlink:href="#linearGradient6813"
       id="linearGradient6884"
       gradientUnits="userSpaceOnUse"
       gradientTransform="translate(59.334736,-52.575083)"
       x1="150.72905"
       y1="579.4599"
       x2="176.76637"
       y2="579.4599" />
    <linearGradient
       inkscape:collect="always"
       xlink:href="#linearGradient6775"
       id="linearGradient6886"
       gradientUnits="userSpaceOnUse"
       gradientTransform="translate(59.334736,-52.575083)"
       x1="231.60405"
       y1="581.05353"
       x2="260.44781"
       y2="581.05353" />
    <linearGradient
       inkscape:collect="always"
       xlink:href="#linearGradient6821"
       id="linearGradient6888"
       gradientUnits="userSpaceOnUse"
       gradientTransform="translate(59.334736,-52.575083)"
       x1="168.3228"
       y1="586.05201"
       x2="222.83173"
       y2="586.05201" />
    <linearGradient
       inkscape:collect="always"
       xlink:href="#linearGradient6797"
       id="linearGradient6890"
       gradientUnits="userSpaceOnUse"
       gradientTransform="translate(59.334736,-52.575083)"
       x1="203.1353"
       y1="596.18454"
       x2="236.11376"
       y2="596.18454" />
    <linearGradient
       inkscape:collect="always"
       xlink:href="#linearGradient6805"
       id="linearGradient6892"
       gradientUnits="userSpaceOnUse"
       gradientTransform="translate(59.334736,-52.575083)"
       x1="150.74179"
       y1="528.10126"
       x2="260.44443"
       y2="528.10126" />
    <radialGradient
       inkscape:collect="always"
       xlink:href="#linearGradient6854"
       id="radialGradient6894"
       gradientUnits="userSpaceOnUse"
       gradientTransform="matrix(0.65445775,-0.02490611,0.11558202,3.0371483,4.7968606,-578.65972)"
       cx="109.34375"
       cy="285.39062"
       fx="109.34375"
       fy="285.39062"
       r="50" />
    <linearGradient
       inkscape:collect="always"
       xlink:href="#linearGradient6775"
       id="linearGradient6896"
       gradientUnits="userSpaceOnUse"
       x1="-18.025742"
       y1="192.05611"
       x2="94.635147"
       y2="192.05611" />
    <radialGradient
       inkscape:collect="always"
       xlink:href="#linearGradient6854"
       id="radialGradient6904"
       gradientUnits="userSpaceOnUse"
       gradientTransform="matrix(0.65445775,-0.02490611,0.11558202,3.0371483,4.7968606,-578.65972)"
       cx="109.34375"
       cy="285.39062"
       fx="109.34375"
       fy="285.39062"
       r="50" />
    <linearGradient
       inkscape:collect="always"
       xlink:href="#linearGradient6775"
       id="linearGradient6906"
       gradientUnits="userSpaceOnUse"
       x1="-18.025742"
       y1="192.05611"
       x2="94.635147"
       y2="192.05611" />
    <radialGradient
       inkscape:collect="always"
       xlink:href="#linearGradient6854"
       id="radialGradient6914"
       gradientUnits="userSpaceOnUse"
       gradientTransform="matrix(0.65445775,-0.02490611,0.11558202,3.0371483,4.7968606,-578.65972)"
       cx="109.34375"
       cy="285.39062"
       fx="109.34375"
       fy="285.39062"
       r="50" />
    <linearGradient
       inkscape:collect="always"
       xlink:href="#linearGradient6775"
       id="linearGradient6916"
       gradientUnits="userSpaceOnUse"
       x1="-18.025742"
       y1="192.05611"
       x2="94.635147"
       y2="192.05611" />
    <radialGradient
       inkscape:collect="always"
       xlink:href="#linearGradient6854"
       id="radialGradient6924"
       gradientUnits="userSpaceOnUse"
       gradientTransform="matrix(0.65445775,-0.02490611,0.11558202,3.0371483,4.7968606,-578.65972)"
       cx="109.34375"
       cy="285.39062"
       fx="109.34375"
       fy="285.39062"
       r="50" />
    <linearGradient
       inkscape:collect="always"
       xlink:href="#linearGradient6775"
       id="linearGradient6926"
       gradientUnits="userSpaceOnUse"
       x1="-18.025742"
       y1="192.05611"
       x2="94.635147"
       y2="192.05611" />
    <radialGradient
       inkscape:collect="always"
       xlink:href="#linearGradient6854"
       id="radialGradient6934"
       gradientUnits="userSpaceOnUse"
       gradientTransform="matrix(0.65445775,-0.02490611,0.11558202,3.0371483,4.7968606,-578.65972)"
       cx="109.34375"
       cy="285.39062"
       fx="109.34375"
       fy="285.39062"
       r="50" />
    <linearGradient
       inkscape:collect="always"
       xlink:href="#linearGradient6775"
       id="linearGradient6936"
       gradientUnits="userSpaceOnUse"
       x1="-18.025742"
       y1="192.05611"
       x2="94.635147"
       y2="192.05611" />
  </defs>
  <sodipodi:namedview
     id="base"
     pagecolor="#ffffff"
     bordercolor="#666666"
     borderopacity="1.0"
     inkscape:pageopacity="0.0"
     inkscape:pageshadow="2"
     inkscape:zoom="1.3314292"
     inkscape:cx="217.64201"
     inkscape:cy="516.77551"
     inkscape:document-units="px"
     inkscape:current-layer="layer1"
     showgrid="false"
     inkscape:snap-bbox="false"
     inkscape:bbox-nodes="false"
     inkscape:object-nodes="true"
     showguides="true"
     inkscape:guide-bbox="true"
     inkscape:window-width="1272"
     inkscape:window-height="578"
     inkscape:window-x="65"
     inkscape:window-y="135"
     inkscape:window-maximized="0">
    <sodipodi:guide
       orientation="0,1"
       position="172.86599,381.0357"
       id="guide6759" />
  </sodipodi:namedview>
  <metadata
     id="metadata7">
    <rdf:RDF>
      <cc:Work
         rdf:about="">
        <dc:format>image/svg+xml</dc:format>
        <dc:type
           rdf:resource="http://purl.org/dc/dcmitype/StillImage" />
        <dc:title></dc:title>
      </cc:Work>
    </rdf:RDF>
  </metadata>
  <g
     inkscape:label="Capa 1"
     inkscape:groupmode="layer"
     id="layer1"
     transform="translate(0,-308.2677)">
    <g
       id="g6908"
       transform="translate(268.10352,10.032643)">
      <path
         transform="translate(0,308.2677)"
         id="path6910"
         d="m 59.34375,247.59375 0,62.03125 c 0,7.49615 22.385762,13.5625 50,13.5625 27.61424,0 50,-6.06635 50,-13.5625 l 0,-62.03125 -100,0 z"
         style="fill:url(#radialGradient6914);fill-opacity:1;fill-rule:nonzero;stroke:none"
         inkscape:connector-curvature="0" />
      <path
         transform="matrix(0.88761949,0,0,0.2409528,75.334737,509.57306)"
         d="m 94.635147,192.05611 c 0,31.11044 -25.219999,56.33044 -56.330444,56.33044 -31.1104456,0 -56.330445,-25.22 -56.330445,-56.33044 0,-31.11045 25.2199994,-56.33045 56.330445,-56.33045 31.110445,0 56.330444,25.22 56.330444,56.33045 z"
         sodipodi:ry="56.330444"
         sodipodi:rx="56.330444"
         sodipodi:cy="192.05611"
         sodipodi:cx="38.304703"
         id="path6912"
         style="fill:url(#linearGradient6916);fill-opacity:1;fill-rule:nonzero;stroke:none"
         sodipodi:type="arc" />
    </g>
    <g
       transform="matrix(0.81975882,0,0,0.81975882,287.81095,55.724232)"
       id="g6918">
      <path
         inkscape:connector-curvature="0"
         style="fill:url(#radialGradient6924);fill-opacity:1;fill-rule:nonzero;stroke:none"
         d="m 59.34375,247.59375 0,62.03125 c 0,7.49615 22.385762,13.5625 50,13.5625 27.61424,0 50,-6.06635 50,-13.5625 l 0,-62.03125 -100,0 z"
         id="path6920"
         transform="translate(0,308.2677)" />
      <path
         sodipodi:type="arc"
         style="fill:url(#linearGradient6926);fill-opacity:1;fill-rule:nonzero;stroke:none"
         id="path6922"
         sodipodi:cx="38.304703"
         sodipodi:cy="192.05611"
         sodipodi:rx="56.330444"
         sodipodi:ry="56.330444"
         d="m 94.635147,192.05611 c 0,31.11044 -25.219999,56.33044 -56.330444,56.33044 -31.1104456,0 -56.330445,-25.22 -56.330445,-56.33044 0,-31.11045 25.2199994,-56.33045 56.330445,-56.33045 31.110445,0 56.330444,25.22 56.330444,56.33045 z"
         transform="matrix(0.88761949,0,0,0.2409528,75.334737,509.57306)" />
    </g>
    <g
       id="g6928"
       transform="translate(34.519937,36.320184)">
      <path
         transform="translate(0,308.2677)"
         id="path6930"
         d="m 59.34375,247.59375 0,62.03125 c 0,7.49615 22.385762,13.5625 50,13.5625 27.61424,0 50,-6.06635 50,-13.5625 l 0,-62.03125 -100,0 z"
         style="fill:url(#radialGradient6934);fill-opacity:1;fill-rule:nonzero;stroke:none"
         inkscape:connector-curvature="0" />
      <path
         transform="matrix(0.88761949,0,0,0.2409528,75.334737,509.57306)"
         d="m 94.635147,192.05611 c 0,31.11044 -25.219999,56.33044 -56.330444,56.33044 -31.1104456,0 -56.330445,-25.22 -56.330445,-56.33044 0,-31.11045 25.2199994,-56.33045 56.330445,-56.33045 31.110445,0 56.330444,25.22 56.330444,56.33045 z"
         sodipodi:ry="56.330444"
         sodipodi:rx="56.330444"
         sodipodi:cy="192.05611"
         sodipodi:cx="38.304703"
         id="path6932"
         style="fill:url(#linearGradient6936);fill-opacity:1;fill-rule:nonzero;stroke:none"
         sodipodi:type="arc" />
    </g>
    <g
       id="g6876"
       transform="matrix(0.42388751,0,0,0.42388751,32.669758,347.17075)">
      <path
         style="fill:#006e00;fill-opacity:1;fill-rule:nonzero;stroke:none"
         inkscape:transform-center-x="-0.93402594"
         inkscape:transform-center-y="-1.7069"
         d="m 319.77918,575.90433 -28.8267,9.34773 4.49602,14.07456 -32.96596,-7.24243 -34.83401,5.92939 8.45262,-13.82379 -26.02462,-10.41 38.18996,-1.30114 18.74991,-12.36313 15.15007,13.01965 z"
         id="path6757"
         inkscape:connector-curvature="0" />
      <path
         sodipodi:nodetypes="ccccccccc"
         inkscape:connector-curvature="0"
         id="path6725"
         d="m 210.06379,469.5798 0,34.90625 0,25.71875 0.0127,43.57499 26.02462,10.41 -0.006,-53.98499 0,-25.71875 0,-24.5 z"
         style="fill:url(#linearGradient6884);fill-opacity:1;stroke:none" />
      <path
         sodipodi:nodetypes="ccccccccc"
         inkscape:connector-curvature="0"
         id="path6727"
         d="m 319.78254,471.7048 -28.84375,9.34375 0,32.65625 0,16.6875 0.0137,54.85976 28.8267,-9.34773 0.003,-45.51203 0,-16.6875 z"
         style="fill:url(#linearGradient6886);fill-opacity:1;stroke:none" />
      <path
         sodipodi:nodetypes="ccccccc"
         inkscape:connector-curvature="0"
         id="path6729"
         d="m 282.16647,468.94027 -54.50893,24.88953 0,34.03125 0,6.59375 0,63.55878 34.8125,-5.9375 c 14.65172,-31.11748 4.88302,-78.82231 19.69643,-123.13581 z"
         style="fill:url(#linearGradient6888);fill-opacity:1;stroke:none" />
      <path
         sodipodi:nodetypes="ccccc"
         inkscape:connector-curvature="0"
         id="path6731"
         d="m 262.47004,487.8923 0.0125,104.19189 32.96596,7.24243 -0.01,-104.18432 z"
         style="fill:url(#linearGradient6890);fill-opacity:1;stroke:none" />
      <path
         inkscape:connector-curvature="0"
         id="path6720"
         d="m 319.77918,471.70943 -28.8267,9.34773 4.49602,14.07456 -32.96596,-7.24243 -34.83401,5.92939 8.45262,-13.82379 -26.02462,-10.41 38.18996,-1.30114 18.74991,-12.36313 15.15007,13.01965 z"
         inkscape:transform-center-y="-1.7069"
         inkscape:transform-center-x="-0.93402594"
         style="fill:url(#linearGradient6892);fill-opacity:1;fill-rule:nonzero;stroke:none" />
    </g>
    <g
       id="g6872"
       transform="matrix(0.59573866,0,0,0.59573866,312.60252,140.26177)">
      <path
         transform="translate(0,308.2677)"
         id="path6833"
         d="m 59.34375,247.59375 0,62.03125 c 0,7.49615 22.385762,13.5625 50,13.5625 27.61424,0 50,-6.06635 50,-13.5625 l 0,-62.03125 -100,0 z"
         style="fill:url(#radialGradient6894);fill-opacity:1;fill-rule:nonzero;stroke:none"
         inkscape:connector-curvature="0" />
      <path
         transform="matrix(0.88761949,0,0,0.2409528,75.334737,509.57306)"
         d="m 94.635147,192.05611 c 0,31.11044 -25.219999,56.33044 -56.330444,56.33044 -31.1104456,0 -56.330445,-25.22 -56.330445,-56.33044 0,-31.11045 25.2199994,-56.33045 56.330445,-56.33045 31.110445,0 56.330444,25.22 56.330444,56.33045 z"
         sodipodi:ry="56.330444"
         sodipodi:rx="56.330444"
         sodipodi:cy="192.05611"
         sodipodi:cx="38.304703"
         id="path6829"
         style="fill:url(#linearGradient6896);fill-opacity:1;fill-rule:nonzero;stroke:none"
         sodipodi:type="arc" />
    </g>
    <g
       transform="matrix(0.30938687,0,0,0.30938687,343.91072,277.14502)"
       id="g6898">
      <path
         inkscape:connector-curvature="0"
         style="fill:url(#radialGradient6904);fill-opacity:1;fill-rule:nonzero;stroke:none"
         d="m 59.34375,247.59375 0,62.03125 c 0,7.49615 22.385762,13.5625 50,13.5625 27.61424,0 50,-6.06635 50,-13.5625 l 0,-62.03125 -100,0 z"
         id="path6900"
         transform="translate(0,308.2677)" />
      <path
         sodipodi:type="arc"
         style="fill:url(#linearGradient6906);fill-opacity:1;fill-rule:nonzero;stroke:none"
         id="path6902"
         sodipodi:cx="38.304703"
         sodipodi:cy="192.05611"
         sodipodi:rx="56.330444"
         sodipodi:ry="56.330444"
         d="m 94.635147,192.05611 c 0,31.11044 -25.219999,56.33044 -56.330444,56.33044 -31.1104456,0 -56.330445,-25.22 -56.330445,-56.33044 0,-31.11045 25.2199994,-56.33045 56.330445,-56.33045 31.110445,0 56.330444,25.22 56.330444,56.33045 z"
         transform="matrix(0.88761949,0,0,0.2409528,75.334737,509.57306)" />
    </g>
  </g>
</svg>
