<?xml version="1.0" encoding="UTF-8" standalone="no"?>
<!-- Created with Inkscape (http://www.inkscape.org/) -->

<svg
   xmlns:dc="http://purl.org/dc/elements/1.1/"
   xmlns:cc="http://creativecommons.org/ns#"
   xmlns:rdf="http://www.w3.org/1999/02/22-rdf-syntax-ns#"
   xmlns:svg="http://www.w3.org/2000/svg"
   xmlns="http://www.w3.org/2000/svg"
   xmlns:sodipodi="http://sodipodi.sourceforge.net/DTD/sodipodi-0.dtd"
   xmlns:inkscape="http://www.inkscape.org/namespaces/inkscape"
   width="210mm"
   height="297mm"
   id="svg2"
   version="1.1"
   inkscape:version="0.48.4 r9939"
   sodipodi:docname="esfera.svg">
  <defs
     id="defs4">
    <inkscape:path-effect
       effect="skeletal"
       id="path-effect4517"
       is_visible="true"
       pattern="M 0,5 C 0,2.24 2.24,0 5,0 7.76,0 10,2.24 10,5 10,7.76 7.76,10 5,10 2.24,10 0,7.76 0,5 z"
       copytype="single_stretched"
       prop_scale="1"
       scale_y_rel="false"
       spacing="0"
       normal_offset="0"
       tang_offset="0"
       prop_units="false"
       vertical_pattern="false"
       fuse_tolerance="0" />
    <inkscape:path-effect
       effect="spiro"
       id="path-effect4515"
       is_visible="true" />
    <inkscape:path-effect
       effect="skeletal"
       id="path-effect4511"
       is_visible="true"
       pattern="M 0,5 C 0,2.24 2.24,0 5,0 7.76,0 10,2.24 10,5 10,7.76 7.76,10 5,10 2.24,10 0,7.76 0,5 z"
       copytype="single_stretched"
       prop_scale="1"
       scale_y_rel="false"
       spacing="0"
       normal_offset="0"
       tang_offset="0"
       prop_units="false"
       vertical_pattern="false"
       fuse_tolerance="0" />
    <inkscape:path-effect
       effect="spiro"
       id="path-effect4509"
       is_visible="true" />
    <inkscape:path-effect
       effect="skeletal"
       id="path-effect4505"
       is_visible="true"
       pattern="M 0,5 C 0,2.24 2.24,0 5,0 7.76,0 10,2.24 10,5 10,7.76 7.76,10 5,10 2.24,10 0,7.76 0,5 z"
       copytype="single_stretched"
       prop_scale="1"
       scale_y_rel="false"
       spacing="0"
       normal_offset="0"
       tang_offset="0"
       prop_units="false"
       vertical_pattern="false"
       fuse_tolerance="0" />
    <inkscape:path-effect
       effect="spiro"
       id="path-effect4503"
       is_visible="true" />
    <inkscape:path-effect
       effect="skeletal"
       id="path-effect4499"
       is_visible="true"
       pattern="M 0,5 C 0,2.24 2.24,0 5,0 7.76,0 10,2.24 10,5 10,7.76 7.76,10 5,10 2.24,10 0,7.76 0,5 z"
       copytype="single_stretched"
       prop_scale="1"
       scale_y_rel="false"
       spacing="0"
       normal_offset="0"
       tang_offset="0"
       prop_units="false"
       vertical_pattern="false"
       fuse_tolerance="0" />
    <inkscape:path-effect
       effect="spiro"
       id="path-effect4497"
       is_visible="true" />
    <inkscape:path-effect
       effect="spiro"
       id="path-effect4493"
       is_visible="true" />
    <inkscape:path-effect
       effect="spiro"
       id="path-effect4489"
       is_visible="true" />
    <inkscape:path-effect
       effect="spiro"
       id="path-effect4483"
       is_visible="true" />
    <inkscape:path-effect
       effect="spiro"
       id="path-effect4479"
       is_visible="true" />
    <inkscape:path-effect
       effect="spiro"
       id="path-effect4463"
       is_visible="true" />
    <inkscape:path-effect
       effect="spiro"
       id="path-effect4443"
       is_visible="true" />
    <filter
       inkscape:collect="always"
       id="filter4547">
      <feGaussianBlur
         inkscape:collect="always"
         stdDeviation="3.0794329"
         id="feGaussianBlur4549" />
    </filter>
    <filter
       inkscape:collect="always"
       id="filter4555">
      <feGaussianBlur
         inkscape:collect="always"
         stdDeviation="7.833573"
         id="feGaussianBlur4557" />
    </filter>
    <filter
       inkscape:collect="always"
       id="filter4625"
       x="-0.168"
       width="1.336"
       y="-0.168"
       height="1.336">
      <feGaussianBlur
         inkscape:collect="always"
         stdDeviation="13.372669"
         id="feGaussianBlur4627" />
    </filter>
    <filter
       inkscape:collect="always"
       id="filter4661"
       x="-0.2143544"
       width="1.4287088"
       y="-0.2143544"
       height="1.4287088">
      <feGaussianBlur
         inkscape:collect="always"
         stdDeviation="17.062444"
         id="feGaussianBlur4663" />
    </filter>
  </defs>
  <sodipodi:namedview
     id="base"
     pagecolor="#ffffff"
     bordercolor="#666666"
     borderopacity="1.0"
     inkscape:pageopacity="0.0"
     inkscape:pageshadow="2"
     inkscape:zoom="1.5437156"
     inkscape:cx="184.77681"
     inkscape:cy="597.24677"
     inkscape:document-units="px"
     inkscape:current-layer="layer1"
     showgrid="false"
     inkscape:window-width="1366"
     inkscape:window-height="709"
     inkscape:window-x="0"
     inkscape:window-y="27"
     inkscape:window-maximized="1" />
  <metadata
     id="metadata7">
    <rdf:RDF>
      <cc:Work
         rdf:about="">
        <dc:format>image/svg+xml</dc:format>
        <dc:type
           rdf:resource="http://purl.org/dc/dcmitype/StillImage" />
        <dc:title />
      </cc:Work>
    </rdf:RDF>
  </metadata>
  <g
     inkscape:label="Capa 1"
     inkscape:groupmode="layer"
     id="layer1">
    <path
       style="fill:#916f6f;stroke:none;fill-opacity:0.55371898;filter:url(#filter4555)"
       d="m 259.37194,577.62486 c -17.70423,-14.15126 -34.08606,-30.18175 -46.96538,-48.83171 -12.87932,-18.64996 -22.18308,-40.03474 -25.04534,-62.51819 -1.68432,-13.23062 -1.1388,-26.65844 -2.59369,-39.91626 -1.45489,-13.25781 -5.19248,-26.81301 -14.07546,-36.76182 -6.81433,-7.63195 -16.12808,-12.55785 -25.55489,-16.53489 -9.42681,-3.97704 -19.21897,-7.18932 -28.14718,-12.18619 -8.92822,-4.99687 -17.127749,-12.08896 -21.072781,-21.52921 -1.972515,-4.72013 -2.811963,-9.95554 -2.077005,-15.01817 0.734958,-5.06263 3.09206,-9.9296 6.841436,-13.40992 3.5043,-3.25282 8.09937,-5.20374 12.82215,-5.9496 4.72278,-0.74585 9.57537,-0.3353 14.2409,0.71053 9.33106,2.09165 17.90341,6.64755 26.94521,9.76036 4.5209,1.55641 9.19658,2.75791 13.96765,3.07065 4.77107,0.31274 9.65612,-0.29125 14.03145,-2.21931 4.37533,-1.92806 8.21135,-5.2424 10.3374,-9.52502 1.06302,-2.14131 1.69139,-4.50439 1.77006,-6.89375 0.0787,-2.38936 -0.3976,-4.80239 -1.43436,-6.95654 -1.63823,-3.40387 -4.65432,-6.06783 -8.13923,-7.52575 -3.48491,-1.45792 -7.40624,-1.7471 -11.12582,-1.08765 -7.43915,1.31891 -13.7881,6.24169 -18.7406,11.94723 -6.32934,7.29172 -10.92684,16.23247 -12.29725,25.79029 -1.37041,9.55781 0.65087,19.71782 6.29635,27.55098 3.38298,4.69392 7.93891,8.44539 12.84853,11.50694 4.90961,3.06155 10.19149,5.47098 15.45783,7.86744 5.26635,2.39646 10.55121,4.79804 15.46959,7.84548 4.91839,3.04744 9.48928,6.77816 12.89916,11.45257 3.5837,4.9127 5.78775,10.75166 6.84231,16.74043 1.05456,5.98878 0.98999,12.13436 0.31577,18.17778 -1.34844,12.08685 -5.09656,23.77314 -7.15808,35.75897 -2.28944,13.31093 -2.44577,27.21065 1.54287,40.11465 3.98864,12.90399 12.44248,24.74317 24.38091,31.05952 5.96921,3.15818 12.72341,4.88659 19.47476,4.72862 6.75134,-0.15797 13.4822,-2.23286 19.00972,-6.11255 5.52753,-3.87969 9.80316,-9.57892 11.7449,-16.04694 1.94173,-6.46801 1.48681,-13.66938 -1.47538,-19.73824 -2.07024,-4.24146 -5.27969,-7.8515 -8.91133,-10.86598 -3.63163,-3.01448 -7.69122,-5.46744 -11.791,-7.80575 -8.19956,-4.6766 -16.90162,-9.16996 -22.63746,-16.66686 -4.68944,-6.12922 -6.98454,-13.82057 -7.7627,-21.49863 -0.77817,-7.67807 -0.1317,-15.42142 0.53498,-23.10997 0.66669,-7.68855 1.35353,-15.42478 0.65534,-23.11053 -0.69819,-7.68575 -2.86889,-15.40197 -7.4297,-21.6275 -3.68109,-5.02471 -8.74862,-8.86659 -14.02895,-12.17058 -5.28032,-3.30399 -10.84601,-6.14556 -16.02341,-9.60861 -5.17739,-3.46305 -10.02792,-7.63431 -13.23581,-12.97356 -1.60394,-2.66963 -2.77709,-5.61367 -3.29542,-8.68465 -0.51833,-3.07097 -0.37055,-6.27026 0.57674,-9.23711 1.47044,-4.60531 4.79156,-8.44631 8.66796,-11.33502 8.01435,-5.97232 18.58964,-8.17418 28.44094,-6.48585 9.85129,1.68833 18.91449,7.11667 25.52781,14.61083 6.61333,7.49416 10.82621,16.96657 12.5876,26.80506 1.7614,9.8385 1.1295,20.02979 -1.21329,29.74626 -2.20815,9.15808 -5.89559,17.87851 -9.10924,26.73395 -3.21365,8.85543 -5.98746,18.01819 -6.2444,27.43521 -0.25695,9.41702 2.24184,19.20898 8.49548,26.25442 3.12682,3.52273 7.15117,6.28414 11.64245,7.70366 4.49128,1.41951 9.44564,1.45981 13.88515,-0.11415 6.13,-2.17329 10.96112,-7.3338 13.45097,-13.3422 2.48985,-6.00839 2.77875,-12.78095 1.59308,-19.17581 -2.37134,-12.78974 -10.21736,-23.75318 -17.04435,-34.82534 -4.50858,-7.31211 -8.68402,-14.93937 -10.98769,-23.21508 -2.30366,-8.27571 -2.6258,-17.31508 0.47791,-25.32514 1.55186,-4.00503 3.9507,-7.70144 7.10655,-10.61506 3.15584,-2.91362 7.07707,-5.02651 11.28675,-5.87924 4.20968,-0.85273 8.69875,-0.41701 12.59243,1.39622 3.89368,1.81322 7.15254,5.02304 8.86175,8.96349 1.61262,3.71778 1.81111,8.02133 0.58862,11.885 -1.2225,3.86368 -3.84796,7.2593 -7.25628,9.45151 -3.86083,2.48327 -8.51223,3.38538 -12.66855,5.33413 -7.02765,3.29501 -12.47754,9.67511 -14.91809,17.0432 -2.44054,7.36809 -1.91367,15.62047 1.16824,22.74416 3.08191,7.12368 8.64459,13.09382 15.38561,16.94137 6.74103,3.84754 14.61252,5.5975 22.36781,5.2805 7.71032,-0.31517 15.31707,-2.64965 21.9297,-6.62728 6.61263,-3.97763 12.2243,-9.58295 16.29632,-16.13788 8.14403,-13.10986 9.8074,-29.8757 5.11377,-44.5782 -4.98203,-15.60591 -16.83848,-28.68952 -31.46755,-36.06213 -14.62907,-7.3726 -31.81551,-9.16512 -47.87759,-5.94412 -4.49682,0.90177 -8.92458,2.18205 -13.47487,2.75598 -4.55029,0.57394 -9.32547,0.4 -13.4989,-1.50186 -2.08671,-0.95093 -3.99252,-2.33131 -5.44591,-4.10509 -1.45339,-1.77378 -2.44157,-3.94797 -2.69223,-6.2274 -0.25067,-2.27943 0.25852,-4.65654 1.52967,-6.56516 1.27115,-1.90862 3.31643,-3.3137 5.57807,-3.69268 2.42382,-0.40615 4.89165,0.34276 7.15364,1.30362 2.262,0.96085 4.45244,2.15012 6.84844,2.69698 3.62622,0.82764 7.46183,0.10747 10.9093,-1.28874 3.44747,-1.39621 6.58607,-3.44042 9.76045,-5.37892 14.95744,-9.13406 31.81711,-16.28724 49.34067,-16.00238 17.81069,0.28952 35.17253,8.57089 47.29605,21.62175 12.12352,13.05085 19.05001,30.60356 20.04731,48.38866 1.09292,19.49036 -4.63282,38.78033 -12.42518,56.67859 -7.79236,17.89827 -17.67632,34.82185 -25.58048,52.67102 -3.97298,8.97178 -7.48006,18.3421 -8.10857,28.13405 -0.31426,4.89598 0.10755,9.86311 1.52197,14.56085 1.41443,4.69774 3.84122,9.12154 7.25337,12.64667 5.30448,5.48011 12.87029,8.56759 20.49066,8.88228 7.62037,0.31468 15.2473,-2.04443 21.66332,-6.16799 6.41602,-4.12357 11.64903,-9.9538 15.53744,-16.515 3.88841,-6.56121 6.46635,-13.84361 8.11824,-21.28944 3.30378,-14.89166 2.94771,-30.30851 3.38575,-45.55595 0.43804,-15.24744 1.77981,-30.84572 8.14943,-44.70589 6.12663,-13.33143 16.85663,-24.48083 29.90814,-31.18311 13.05151,-6.70229 28.33754,-8.9282 42.7726,-6.30302 14.43506,2.62518 27.93816,10.07325 37.91648,20.82944 9.97832,10.75619 16.38752,24.75385 18.0886,39.32673 1.29138,11.06307 -0.2518,22.84565 -6.53897,32.03971 -3.14358,4.59703 -7.44156,8.44776 -12.49795,10.78181 -5.05638,2.33404 -10.87476,3.10215 -16.30167,1.8518 -6.80802,-1.56856 -12.65587,-6.21362 -16.62895,-11.96029 -3.97308,-5.74666 -6.21255,-12.53543 -7.53738,-19.39505 -2.64966,-13.71923 -1.86535,-28.14213 -6.5049,-41.32214 -2.78876,-7.92229 -7.51489,-15.15988 -13.67518,-20.8687 -6.16029,-5.70882 -13.74581,-9.87512 -21.87886,-11.97114 -8.13305,-2.09602 -16.79797,-2.11341 -24.92914,-0.0101 -8.13116,2.10332 -15.70939,6.32686 -21.74668,12.1656 -6.0373,5.83873 -10.516,13.28183 -12.80766,21.36193 -2.29165,8.08011 -2.38581,16.77746 -0.22991,24.89484 2.15591,8.11738 6.56051,15.63075 12.61903,21.44746 6.05852,5.81671 13.75611,9.91555 21.9727,11.65549 13.70601,2.90238 28.13099,-0.70399 41.88474,1.96299 6.87688,1.33348 13.64657,4.39539 18.15002,9.76089 2.25172,2.68275 3.88833,5.90895 4.53391,9.35143 0.64557,3.44248 0.27366,7.09746 -1.22591,10.26269 -1.56372,3.30064 -4.31154,5.98213 -7.53993,7.69005 -3.22839,1.70791 -6.91596,2.46865 -10.56811,2.43406 -7.30432,-0.0692 -14.24923,-3.2195 -20.42032,-7.12788 -6.17109,-3.90837 -11.81322,-8.6215 -18.08994,-12.35787 -6.27672,-3.73638 -13.44158,-6.50984 -20.72654,-5.97397 -6.05254,0.44522 -11.91394,3.26683 -15.9727,7.77881 -4.05876,4.51198 -6.2504,10.67475 -5.86543,16.73142 0.38497,6.05667 3.36421,11.9212 8.08308,15.73745 4.71886,3.81625 11.1164,5.50311 17.08888,4.42563 4.85262,-0.87545 9.23407,-3.43937 13.24035,-6.31411 4.00628,-2.87473 7.767,-6.11164 12.0122,-8.62015 4.2452,-2.50851 9.12279,-4.28125 14.03483,-3.84968 2.45602,0.21579 4.87996,0.99439 6.91753,2.38252 2.03757,1.38813 3.67226,3.40007 4.46929,5.73317 0.76151,2.22911 0.73613,4.71988 -0.0789,6.92997 -0.81507,2.21009 -2.41551,4.12293 -4.45156,5.30753 -2.03606,1.18461 -4.49318,1.63053 -6.81417,1.22823 -2.32099,-0.4023 -4.48714,-1.65136 -5.99124,-3.46424 -1.53785,-1.85356 -2.34925,-4.19364 -3.00803,-6.51024 -0.65879,-2.3166 -1.20617,-4.69285 -2.3261,-6.82508 -1.75435,-3.34008 -4.87787,-5.88821 -8.43132,-7.15582 -3.55345,-1.26762 -7.50192,-1.28868 -11.13883,-0.2853 -3.63691,1.00338 -6.96443,3.00181 -9.72909,5.56901 -2.76466,2.56721 -4.97958,5.6923 -6.70797,9.04589 -3.45679,6.70717 -4.96289,14.22402 -6.31962,21.64661 -1.35673,7.42258 -2.62887,14.95279 -5.68031,21.85382 -5.21242,11.78821 -15.16045,20.76102 -25.33711,28.67093 -14.66126,11.39561 -30.69731,21.52466 -48.57554,26.54277 -17.87824,5.0181 -37.87663,4.4831 -54.1064,-4.5395 -4.74807,-2.63959 -9.09186,-5.94286 -13.33532,-9.33472"
       id="path4441"
       inkscape:path-effect="#path-effect4443"
       inkscape:original-d="m 259.37194,577.62486 c -25.33711,-19.66959 -74.67778,-70.67718 -72.01072,-111.3499 2.66706,-40.67272 10.00149,-54.00804 -16.66915,-76.67808 -26.67063,-22.67004 -78.01161,-56.00834 -70.01042,-78.67838 8.00119,-22.67004 103.34872,-40.67272 92.68046,-18.00268 -10.66825,22.67004 -6.66766,-16.66914 -38.00565,3.33383 -31.338,20.00298 -49.34068,51.34098 -6.0009,53.34127 43.33979,2.0003 56.67511,8.66796 56.67511,38.67243 0,30.00446 -12.00179,50.00744 0,70.67718 12.00178,20.66974 66.67659,58.6754 74.67778,34.00506 8.00119,-24.67034 -22.67004,10.00149 -43.33979,-35.33859 -20.66974,-45.34008 -16.00238,-55.34157 -14.00208,-89.34663 2.0003,-34.00506 -27.3374,-50.67421 -46.00685,-52.67451 -18.66944,-2.00029 -8.00119,-11.33502 8.66796,-11.33502 16.66915,0 73.34425,2.0003 65.34306,64.6763 -8.00119,62.67599 -9.33473,126.01875 18.66944,88.01309 28.00417,-38.00565 0,-27.3374 -2.0003,-67.34335 -2.00029,-40.00596 26.00387,-80.01191 29.3377,-54.67481 3.33383,25.33711 -3.33383,34.00507 -6.66766,21.33651 -3.33383,-12.66855 -10.00148,-11.33502 -12.66855,5.33413 -2.66706,16.66915 -12.00178,54.6748 24.00357,62.00923 36.00536,7.33442 74.67779,0.66677 43.33979,-67.34336 -31.338,-68.01012 -63.34276,-52.6745 -79.34514,-42.00625 -16.00239,10.66826 -42.00626,2.0003 -28.00417,-19.33621 14.00208,-21.33651 22.00327,-4.66736 14.00208,4.0006 -8.00119,8.66795 13.33532,2.00029 20.66975,-6.66766 7.33442,-8.66796 7.33442,-36.00536 49.34067,-16.00238 42.00625,20.00297 65.34306,-10.00149 67.34336,70.01041 2.0003,80.01191 -10.66826,86.67957 -38.00566,109.34961 -27.3374,22.67004 -56.00833,130.01935 0.66677,55.34157 56.6751,-74.67778 38.67242,-91.34693 77.34484,-125.35199 38.67242,-34.00506 131.35288,-66.67659 128.68582,22.67004 -2.66706,89.34663 -39.33919,104.68225 -35.33859,44.67332 4.00059,-60.00893 27.3374,-110.68314 -30.67123,-72.67748 -58.00864,38.00565 -108.01608,39.33918 -60.6757,58.67539 47.34038,19.33622 91.34693,27.33741 63.34276,31.338 -28.00417,4.0006 -55.34157,-54.6748 -77.34484,-15.33561 -22.00328,39.33918 -26.67064,71.34395 3.33383,44.67331 30.00446,-26.67063 73.34424,-49.34067 50.6742,-10.66825 -22.67004,38.67242 -26.00387,28.00417 -17.33591,10.00149 8.66796,-18.00268 22.67004,-42.67302 -5.33413,-13.33532 -28.00416,29.3377 -24.00357,33.33829 -48.00714,50.67421 -24.00357,17.33591 -0.67699,23.17046 -25.33711,28.67093 -24.66012,5.50047 -80.14681,38.02195 -102.68194,22.00327 -22.53513,-16.01868 12.00178,10.33487 -13.33532,-9.33472 z"
       inkscape:connector-curvature="0"
       sodipodi:nodetypes="zssssssssssssssssssssssssssssssssssssssssszzz" />
    <path
       style="fill:#e3dbdb;stroke:none;stroke-width:1px;stroke-linecap:butt;stroke-linejoin:miter;stroke-opacity:1;fill-opacity:0.55371898;filter:url(#filter4547)"
       d="m 292.04346,581.62546 c -8.22344,0 -16.44689,0 -24.67033,0 -1.11128,0 -2.22255,0 -3.33383,0 -0.88968,0 -1.78423,0.11013 -2.66707,0 -0.91046,-0.11358 -1.75924,-0.53377 -2.66706,-0.66677 -0.55033,-0.0806 -1.10999,-0.0573 -1.66576,-0.0354 -0.55578,0.0219 -1.11187,0.0354 -1.66807,0.0354 l -5.33413,0 c -0.66694,0 -1.33518,0.0493 -2.00029,0 -1.13151,-0.0839 -2.20591,-0.54369 -3.33383,-0.66677 -0.88753,-0.0969 -1.78247,0.0172 -2.67157,0.0984 -0.88909,0.0812 -1.79894,0.12796 -2.66256,-0.0984 -0.87047,-0.22818 -1.64569,-0.7212 -2.38336,-1.2366 -0.73767,-0.51539 -1.46172,-1.06489 -2.284,-1.43046 -0.69251,-0.30787 -1.43776,-0.47746 -2.14824,-0.74123 -0.71048,-0.26376 -1.41056,-0.6433 -1.85236,-1.25907 -0.29023,-0.40451 -0.45074,-0.88498 -0.66676,-1.33353 -0.21577,-0.44804 -0.48948,-0.86892 -0.66677,-1.33353 -0.32733,-0.85782 -0.3098,-1.82115 -0.66677,-2.66706 -0.19462,-0.46119 -0.49318,-0.8693 -0.76079,-1.29233 -0.2676,-0.42304 -0.51062,-0.87804 -0.57274,-1.37474 -0.0552,-0.44157 0.036,-0.88997 0,-1.33353 -0.057,-0.70344 -0.42536,-1.33713 -0.66676,-2.0003 -0.31367,-0.86169 -0.41507,-1.78528 -0.66677,-2.66706 -0.2744,-0.96129 -0.72914,-1.87077 -1.33353,-2.66706 -0.51085,-1.08318 -0.95643,-2.19715 -1.33353,-3.33383 -0.44277,-1.33465 -0.79208,-2.70285 -1.33354,-4.0006 -0.57426,-1.37637 -1.35702,-2.65509 -2.00029,-4.00059 -0.64398,-1.34699 -1.15365,-2.77085 -2.0003,-4.0006 -0.63068,-0.91607 -1.43778,-1.70763 -2.0003,-2.66706 -0.50313,-0.85814 -0.79743,-1.82913 -1.33353,-2.66707 -0.50064,-0.78251 -1.20539,-1.42969 -2.01598,-1.88345 -0.81059,-0.45376 -1.72494,-0.71538 -2.65138,-0.78361 -0.88685,-0.0653 -1.77781,0 -2.66706,0 -0.66677,0 -1.33353,0 -2.0003,0 -3.11158,0 -6.22315,0 -9.33473,0 -2.0003,0 -4.00059,0 -6.00089,0 -0.5568,0 -1.11337,-0.0193 -1.66928,-0.0507 -0.55591,-0.0313 -1.1198,-0.0645 -1.66455,0.0507 -0.55085,0.11647 -1.0605,0.38657 -1.51183,0.72317 -0.45134,0.33661 -0.84876,0.73942 -1.23491,1.14918 -0.77229,0.8195 -1.54544,1.70121 -2.58739,2.12825 -0.42439,0.17393 -0.87668,0.26734 -1.32563,0.36116 -0.44894,0.0938 -0.89648,0.19436 -1.34143,0.3056 l -2.66706,0.66677 c -0.88953,0.22238 -1.75857,0.54283 -2.66707,0.66676 -1.32409,0.18062 -2.68006,-0.20503 -4.00059,0 -0.9066,0.14077 -1.75645,0.55484 -2.66706,0.66677 -0.88302,0.10854 -1.77741,0 -2.66707,0 l -7.33442,0 -8.00119,0 -2.66707,0 c -0.44905,0 -0.89721,0.0344 -1.34282,0.0898 -0.22281,0.0277 -0.44661,0.0543 -0.6711,0.0504 -0.22449,-0.004 -0.45209,-0.0403 -0.65314,-0.14022 -0.28287,-0.14063 -0.49296,-0.39095 -0.696,-0.63296 -0.20303,-0.24201 -0.41416,-0.4772 -0.63753,-0.70057 l -1.33353,-1.33353 c -1.33431,-1.33431 -2.82097,-2.52777 -4.0006,-4.0006 -0.69522,-0.86802 -1.23987,-1.85556 -2.0003,-2.66706 -1.18912,-1.26896 -2.84043,-2.03834 -4.00059,-3.33383 -1.07084,-1.19575 -1.65035,-2.7585 -2.66707,-4.0006 -0.45396,-0.55459 -0.9885,-1.03701 -1.47849,-1.56004 -0.48998,-0.52303 -0.94327,-1.10039 -1.18857,-1.77379 -0.15725,-0.43169 -0.22436,-0.88989 -0.30153,-1.3428 -0.0772,-0.45291 -0.16712,-0.90973 -0.36524,-1.32426 -0.34634,-0.72466 -0.99869,-1.27026 -1.33353,-2.0003 -0.28366,-0.61846 -0.31685,-1.31828 -0.34235,-1.99821 -0.0255,-0.67993 -0.052,-1.37888 -0.32441,-2.00239 -0.19933,-0.45628 -0.52449,-0.85637 -0.66677,-1.33353 -0.16027,-0.53748 -0.0721,-1.11353 0.013,-1.66791 0.0851,-0.55437 0.16398,-1.1337 -0.013,-1.66592 -0.15707,-0.47247 -0.50271,-0.86344 -0.66677,-1.33353 -0.18408,-0.52745 -0.13213,-1.10441 -0.0816,-1.66077 0.0505,-0.55636 0.0816,-1.11442 0.0816,-1.67306 l 0,-7.33442 c 0,-0.17499 -0.004,-0.3505 -0.0303,-0.52352 -0.0261,-0.17303 -0.0732,-0.34207 -0.11869,-0.51103 -0.0455,-0.16896 -0.0891,-0.34174 -0.0806,-0.51652 0.004,-0.0874 0.0222,-0.1748 0.0598,-0.25384 0.0375,-0.079 0.0953,-0.14952 0.16981,-0.19539 0.0973,-0.0599 0.21675,-0.0745 0.33066,-0.0655 0.1139,0.009 0.22472,0.04 0.33611,0.0655 0.77908,0.17806 1.59029,0.0867 2.38944,0.0813 0.39958,-0.003 0.80151,0.0167 1.19193,0.10186 0.39041,0.0851 0.77051,0.23835 1.08599,0.48359 0.51621,0.40127 0.82015,1.01192 1.07756,1.61295 0.25741,0.60102 0.49355,1.22764 0.92274,1.72088 0.36623,0.42088 0.8507,0.71811 1.32842,1.00629 0.47772,0.28818 0.96441,0.58022 1.33864,0.994 0.33504,0.37044 0.56537,0.82313 0.75919,1.28347 0.19382,0.46033 0.3554,0.93467 0.57434,1.3836 0.45101,0.92481 1.13287,1.7167 1.85221,2.45237 0.71935,0.73568 1.48523,1.42829 2.14839,2.21499 0.4074,0.48329 0.78869,1.01307 1.33353,1.33353 0.60748,0.35731 1.34388,0.41023 2.0003,0.66677 0.46313,0.181 0.88076,0.46122 1.33353,0.66676 0.64042,0.29072 1.33913,0.42697 2.0003,0.66677 0.66281,0.2404 1.29966,0.58798 2.0003,0.66676 0.55779,0.0627 1.11808,-0.0498 1.67479,-0.1215 0.55671,-0.0717 1.14281,-0.0989 1.65904,0.1215 0.22972,0.0981 0.4365,0.24164 0.64938,0.37231 0.21288,0.13067 0.43818,0.25096 0.68415,0.29446 0.21973,0.0389 0.44507,0.0146 0.66713,-0.007 0.22205,-0.0219 0.44859,-0.0412 0.6664,0.007 0.24376,0.0542 0.46061,0.18957 0.67034,0.32513 0.20973,0.13555 0.42232,0.27571 0.66319,0.34163 0.21534,0.0589 0.44268,0.0554 0.6653,0.0385 0.22262,-0.0168 0.44511,-0.0466 0.66823,-0.0385 0.35325,0.0127 0.69664,0.11987 1.02435,0.25237 0.3277,0.1325 0.64465,0.29116 0.97595,0.4144 0.84259,0.31344 1.75302,0.3893 2.65111,0.42964 0.8981,0.0403 1.80396,0.0488 2.68302,0.23713 1.58257,0.339 2.98752,1.24144 4.25049,2.25353 1.26298,1.0121 2.42558,2.15134 3.7507,3.08059 1.57567,1.10495 3.41185,1.90818 5.33413,2.0003 0.66607,0.0319 1.33345,0 2.00029,0 l 4.66736,0 c 0.67663,0 1.35131,0.0621 2.02051,0.16211 0.3346,0.05 0.67138,0.098 1.00962,0.0907 0.33823,-0.007 0.68298,-0.0745 0.97047,-0.25282 0.26852,-0.16657 0.47064,-0.419 0.66677,-0.66676 0.45117,-0.56992 0.90293,-1.14481 1.44329,-1.631 0.54037,-0.48618 1.17975,-0.88394 1.89054,-1.03607 0.87187,-0.1866 1.77547,0.006 2.66706,0 1.35403,-0.009 2.65988,-0.47709 4.00059,-0.66676 2.423,-0.34279 4.8873,0 7.33443,0 l 11.33502,0 c 0.56007,0 1.11926,0.0379 1.67597,0.0991 0.27836,0.0306 0.55768,0.06 0.83768,0.0558 0.28,-0.004 0.56309,-0.0439 0.82018,-0.15493 0.14844,-0.0641 0.28729,-0.15202 0.40342,-0.26452 0.11614,-0.11249 0.20918,-0.24991 0.26335,-0.40225 0.075,-0.211 0.0735,-0.44131 0.0533,-0.66433 -0.0202,-0.22302 -0.0583,-0.44532 -0.0533,-0.6692 0.0114,-0.51336 0.26292,-1.01638 0.66676,-1.33353 0.36455,-0.60748 0.59392,-1.29558 0.66677,-2.0003 0.0915,-0.88476 0,-1.77759 0,-2.66706 0,-2.22255 0,-4.44511 0,-6.66766 0,-1.55579 0,-3.11157 0,-4.66736 0,-0.33377 0.009,-0.66746 0.0226,-1.00093 0.014,-0.33348 0.0289,-0.6696 -0.0226,-0.99937 -0.0702,-0.45001 -0.26792,-0.87534 -0.5404,-1.24029 -0.27248,-0.36496 -0.61819,-0.67136 -0.99505,-0.92713 -0.75371,-0.51154 -1.62261,-0.82018 -2.46515,-1.16641 -2.12101,-0.8716 -4.12831,-2.01027 -6.00089,-3.33383 -1.06224,-0.75081 -2.10499,-1.57367 -3.33383,-2.0003 -0.86602,-0.30067 -1.7777,-0.44443 -2.66706,-0.66677 -0.88902,-0.22225 -1.77805,-0.4445 -2.66707,-0.66676 -0.88902,-0.22225 -1.77804,-0.44451 -2.66706,-0.66677 -0.44501,-0.11126 -0.88708,-0.23387 -1.32709,-0.36352 -0.44001,-0.12965 -0.88318,-0.2614 -1.33998,-0.30324 -0.44399,-0.0407 -0.89059,0.007 -1.33512,0.0414 -0.44454,0.0341 -0.89642,0.054 -1.33194,-0.0414 -0.48736,-0.10673 -0.9319,-0.35276 -1.35784,-0.61255 -0.42594,-0.25978 -0.84496,-0.53829 -1.30922,-0.72098 -0.23402,-0.0921 -0.47749,-0.15894 -0.71025,-0.25417 -0.23277,-0.0952 -0.4587,-0.22244 -0.62328,-0.4126 -0.16344,-0.18883 -0.25624,-0.42716 -0.34262,-0.66149 -0.0864,-0.23432 -0.17175,-0.47419 -0.32415,-0.67204 -0.1956,-0.25393 -0.48336,-0.41602 -0.74515,-0.60096 -0.1309,-0.0925 -0.25758,-0.19277 -0.36312,-0.31338 -0.10554,-0.12061 -0.18963,-0.26294 -0.22526,-0.41919 -0.05,-0.21939 -0.002,-0.4475 0.034,-0.66956 0.0182,-0.11104 0.0336,-0.22304 0.0324,-0.33555 -0.001,-0.1125 -0.0196,-0.2261 -0.0664,-0.32843 -0.0659,-0.14409 -0.18362,-0.25761 -0.30633,-0.35782 -0.12271,-0.1002 -0.25393,-0.19166 -0.36044,-0.30894 -0.22998,-0.25323 -0.32412,-0.6056 -0.33466,-0.94752 -0.0105,-0.34191 0.053,-0.68141 0.11926,-1.01701 0.13246,-0.67121 0.2154,-1.35192 0.2154,-2.03607 0,-3.11157 0,-6.22315 0,-9.33472 0,-1.55579 0,-3.11157 0,-4.66736 0,-1.11188 -0.11808,-2.22824 0,-3.33383 0.12047,-1.128 0.56488,-2.204 0.66677,-3.33383 0.0799,-0.88577 0,-1.7777 0,-2.66706 l 0,-3.33383 0,-6.66766 0,-2.66707 c 0,-0.44451 -0.005,-0.88905 0,-1.33353 0.006,-0.46615 0.0278,-0.9345 0.12246,-1.39098 0.0946,-0.45648 0.26472,-0.90303 0.5443,-1.27608 0.37736,-0.50353 0.8886,-0.88859 1.33354,-1.33353 l 1.33353,-1.33353 c 0.22341,-0.22341 0.43437,-0.45882 0.63712,-0.70114 0.20274,-0.24232 0.41279,-0.49317 0.69641,-0.6324 0.30333,-0.1489 0.6581,-0.14789 0.9936,-0.1076 0.33549,0.0403 0.66892,0.11672 1.0067,0.1076 0.34075,-0.009 0.67269,-0.10517 1.01054,-0.15051 0.16892,-0.0227 0.34054,-0.0327 0.5098,-0.0127 0.16926,0.02 0.33661,0.071 0.47995,0.16316 0.21471,0.13812 0.36355,0.3608 0.46077,0.59685 0.0972,0.23606 0.14801,0.48807 0.206,0.73669 0.34257,1.46859 0.97238,2.89719 2.0003,4.00059 0.49323,0.52945 1.06911,0.97569 1.57479,1.49326 0.50569,0.51757 0.95088,1.13092 1.09227,1.84057 0.0517,0.2597 0.0621,0.52873 0.14583,0.77994 0.0419,0.1256 0.1026,0.24632 0.18981,0.34593 0.0872,0.0996 0.20225,0.17732 0.33113,0.20766 0.10845,0.0255 0.2216,0.0182 0.3328,0.0112 0.11119,-0.007 0.22255,-0.0112 0.33396,-0.0112 l 3.33383,0 5.33413,0 1.33353,0 c 0.66716,0 1.33727,0.0741 2.0003,0 0.73931,-0.0827 1.4412,-0.41348 2.0108,-0.89199 0.56959,-0.4785 1.0103,-1.10008 1.32303,-1.77507 0.20943,-0.45203 0.3672,-0.93547 0.66677,-1.33353 0.37876,-0.50327 0.955,-0.83009 1.33353,-1.33354 0.27953,-0.37177 0.43714,-0.82306 0.52487,-1.27984 0.0877,-0.45679 0.10935,-0.92323 0.14189,-1.38722 0.17414,-2.48301 0.66639,-4.93638 1.33353,-7.33442 1.23121,-4.42561 3.07191,-8.74911 3.33383,-13.33532 0.11407,-1.99736 0,-4.00029 0,-6.0009 l 0,-13.33531 c 0,-0.89281 -0.0443,-1.78488 -0.11594,-2.6748 -0.0717,-0.88993 -0.14619,-1.80587 0.11594,-2.65933 0.29243,-0.95209 0.98998,-1.7322 1.33354,-2.66706 0.39174,-1.06596 0.29782,-2.25977 0.66676,-3.33383 0.42218,-1.22904 1.4039,-2.17924 2.0003,-3.33383 0.45776,-0.8862 0.69398,-1.90164 1.33353,-2.66707 0.41882,-0.50126 0.98381,-0.8593 1.56681,-1.1539 0.58299,-0.29461 1.19328,-0.53416 1.76702,-0.84639 0.87734,-0.47745 1.68876,-1.132 2.66706,-1.33354 0.54529,-0.11233 1.10877,-0.08 1.66467,-0.0494 0.5559,0.0306 1.11242,0.0494 1.66916,0.0494 1.55579,0 3.11158,0 4.66737,0 3.33383,0 6.66765,0 10.00148,0 9.11247,0 18.22494,0 27.33741,0 3.11157,0 6.22315,0 9.33472,0 3.55608,0 7.11217,0 10.66825,0 0.33391,0 0.66772,0.0101 1.00123,0.0265 0.33351,0.0164 0.67065,0.0338 0.99907,-0.0265 0.52464,-0.0964 0.9995,-0.39733 1.35666,-0.79353 0.35716,-0.39619 0.60255,-0.8835 0.7675,-1.39077 0.32989,-1.01455 0.34716,-2.1011 0.5429,-3.14982 0.50225,-2.69091 2.16064,-5.03143 4.05884,-7.00376 1.8982,-1.97232 4.07015,-3.66805 5.94265,-5.6648 1.52296,-1.62402 2.83668,-3.4362 4.0006,-5.33412 1.00319,-1.63582 1.92148,-3.3683 3.33383,-4.66736 0.46593,-0.42855 0.97884,-0.80294 1.45537,-1.21966 0.47654,-0.41673 0.92252,-0.88427 1.21169,-1.44741 0.22765,-0.44333 0.35711,-0.94305 0.66677,-1.33353 0.2995,-0.37768 0.73646,-0.61426 1.13145,-0.89054 0.19749,-0.13814 0.38797,-0.28942 0.54462,-0.47257 0.15664,-0.18316 0.27884,-0.40049 0.32422,-0.63719 0.042,-0.219 0.0173,-0.44445 0,-0.66676 -0.0345,-0.44368 -0.0389,-0.89022 0,-1.33353 0.16194,-1.84533 1.13135,-3.63149 2.66707,-4.66737 1.23963,-0.83616 2.75282,-1.15555 4.23674,-1.33947 1.48392,-0.18392 2.99283,-0.2523 4.43122,-0.66082 0.9111,-0.25877 1.78933,-0.65289 2.72749,-0.78296 0.46909,-0.065 0.95222,-0.0618 1.41025,0.0585 0.45803,0.12033 0.89044,0.36298 1.19638,0.72446 0.37384,0.4417 0.53815,1.02541 0.60753,1.5999 0.0694,0.57449 0.0592,1.15527 0.0592,1.73393 l 0,5.33412 c 0,1.58838 0.0191,3.17978 -0.11902,4.76214 -0.13815,1.58237 -0.4534,3.17843 -1.21451,4.57259 -0.8343,1.52822 -2.15429,2.7199 -3.33383,4.00059 -1.28106,1.39091 -2.43899,2.93425 -4.0006,4.0006 -0.66238,0.4523 -1.39011,0.81296 -2.0003,1.33353 -1.08511,0.92574 -1.70963,2.27657 -2.66706,3.33383 -0.84558,0.93375 -1.94659,1.63371 -2.66706,2.66706 -0.54524,0.78202 -0.83893,1.70864 -1.09238,2.62766 -0.25344,0.91902 -0.47778,1.85569 -0.90792,2.70647 -0.36202,0.71604 -0.86042,1.35227 -1.33353,2.0003 -0.47269,0.64745 -0.92323,1.31161 -1.33353,2.00029 -0.45199,0.75867 -0.85599,1.54833 -1.37175,2.26517 -0.51577,0.71684 -1.15899,1.36811 -1.96208,1.73543 -0.63972,0.2926 -1.35228,0.39304 -2.0003,0.66677 -0.94981,0.40121 -1.70553,1.14872 -2.40592,1.90539 -0.70039,0.75668 -1.38501,1.55209 -2.26144,2.0952 -0.78472,0.48628 -1.68893,0.74719 -2.5964,0.91679 -0.90746,0.1696 -1.82912,0.25339 -2.73773,0.41674 -1.59408,0.28658 -3.13297,0.81501 -4.66736,1.33353 -0.87037,0.29413 -1.75174,0.58785 -2.66707,0.66677 -0.88605,0.0764 -1.77772,0 -2.66706,0 l -5.33413,0 c -0.46664,0 -0.9368,0.01 -1.39248,0.11053 -0.45567,0.10058 -0.89301,0.28761 -1.27458,0.55624 -0.47817,0.14409 -0.93136,0.37068 -1.33353,0.66676 -0.21044,0.15492 -0.40793,0.33784 -0.52644,0.57073 -0.0592,0.11645 -0.0983,0.24281 -0.11858,0.37188 -0.0203,0.12906 -0.0217,0.26026 -0.0217,0.39092 l 0,10.66826 c 0,1.77976 -0.25162,3.57225 0,5.33413 0.21963,1.5379 0.94745,2.97327 1.91385,4.18958 0.96641,1.21632 2.16605,2.22817 3.42028,3.14484 0.80986,0.5919 1.67883,1.16142 2.66706,1.33353 0.54818,0.0955 1.10947,0.0679 1.6653,0.0419 0.55582,-0.0259 1.1121,-0.0419 1.66853,-0.0419 l 5.33413,0 c 0.55646,0 1.11276,0.0163 1.66859,0.0427 0.55583,0.0264 1.11732,0.0545 1.66524,-0.0427 0.98718,-0.17498 1.85004,-0.75249 2.66706,-1.33353 2.44487,-1.73872 4.79755,-3.655 6.66766,-6.00089 0.39451,-0.49488 0.78263,-1.022 1.33353,-1.33353 0.21706,-0.12274 0.45286,-0.20782 0.6833,-0.3031 0.23043,-0.0953 0.45946,-0.2031 0.65024,-0.36367 0.24429,-0.2056 0.41183,-0.48515 0.6026,-0.74119 0.0954,-0.12802 0.198,-0.25168 0.31833,-0.3566 0.12033,-0.10491 0.25937,-0.19093 0.4126,-0.23574 0.21415,-0.0626 0.44254,-0.0448 0.665,-0.0277 0.22246,0.0171 0.44541,0.0277 0.66853,0.0277 1.11128,0 2.22255,0 3.33383,0 6.00089,0 12.00179,0 18.00268,0 0.67946,0 1.35641,0.0706 2.02634,0.18396 0.33497,0.0567 0.67276,0.11108 1.01238,0.10252 0.33962,-0.009 0.68734,-0.0864 0.96187,-0.28648 0.19269,-0.14046 0.34138,-0.33627 0.44397,-0.55152 0.10259,-0.21525 0.16056,-0.44975 0.19113,-0.68624 0.0611,-0.47296 0.0146,-0.95272 0.0317,-1.42931 0.0406,-1.13457 0.43816,-2.22179 0.66677,-3.33383 0.27242,-1.32515 0.30633,-2.69663 0.66676,-4.00059 0.24496,-0.88624 0.64134,-1.74794 0.66677,-2.66706 0.0124,-0.44775 -0.0645,-0.89248 -0.1059,-1.33849 -0.0414,-0.44601 -0.0456,-0.90704 0.1059,-1.32858 0.16839,-0.46865 0.51829,-0.85819 0.66676,-1.33353 0.16772,-0.53695 0.0601,-1.11594 -0.0366,-1.67011 -0.0483,-0.27708 -0.0937,-0.55584 -0.0996,-0.83705 -0.006,-0.2812 0.0291,-0.56661 0.13621,-0.82667 0.0953,-0.23139 0.24448,-0.43571 0.37861,-0.64699 0.13414,-0.21127 0.25661,-0.43828 0.28816,-0.68654 0.0283,-0.22291 -0.0184,-0.44746 -0.0488,-0.67011 -0.0303,-0.22265 -0.0427,-0.45815 0.0488,-0.66342 0.0646,-0.14497 0.17645,-0.2638 0.29706,-0.36694 0.12062,-0.10313 0.25187,-0.19354 0.36971,-0.29983 0.28247,-0.25478 0.47876,-0.59321 0.61797,-0.94723 0.13921,-0.35401 0.22506,-0.72624 0.31686,-1.09539 0.0918,-0.36916 0.19091,-0.7392 0.35437,-1.0827 0.16345,-0.34349 0.39604,-0.66208 0.71109,-0.87527 0.20638,-0.13966 0.44126,-0.23011 0.67246,-0.32307 0.2312,-0.093 0.46392,-0.19129 0.66107,-0.3437 0.2513,-0.19428 0.43013,-0.46456 0.62284,-0.71706 0.19271,-0.2525 0.41519,-0.5 0.7107,-0.61647 0.15613,-0.0615 0.32551,-0.0833 0.49332,-0.0857 0.1678,-0.002 0.33525,0.014 0.50222,0.0309 0.33392,0.0338 0.66911,0.0548 1.00475,0.0548 1.77804,0 3.55609,0 5.33413,0 1.33353,0 2.66707,0 4.0006,0 0.66754,0 1.33493,-0.0173 2.00188,-0.0454 0.66694,-0.0281 1.33923,-0.058 1.99871,0.0454 1.55214,0.24345 2.9096,1.24307 3.87482,2.48274 0.96522,1.23966 1.5832,2.71057 2.12608,4.18492 1.0005,2.71713 1.79968,5.54554 3.33382,8.00119 0.42461,0.67966 0.88901,1.3335 1.33354,2.0003 l 1.33353,2.00029 c 0.62596,0.93894 1.22544,1.8996 1.94221,2.77118 0.35839,0.4358 0.75238,0.84596 1.20495,1.18291 0.45257,0.33696 0.96753,0.59962 1.5202,0.71327 0.65558,0.13481 1.33337,0.0562 2.0003,0 1.14074,-0.0962 2.28817,-0.12556 3.42175,-0.28537 1.13358,-0.15981 2.26552,-0.45708 3.24591,-1.04816 0.85876,-0.51775 1.57834,-1.24942 2.14289,-2.07816 0.56455,-0.82875 0.97801,-1.75365 1.28962,-2.70676 0.62322,-1.90623 0.84305,-3.91645 1.23485,-5.88333 0.6478,-3.252 1.77498,-6.40809 3.33383,-9.33472 0.37899,-0.18206 0.70764,-0.46759 0.94086,-0.81742 0.23322,-0.34983 0.37038,-0.76302 0.39267,-1.18288 0.0118,-0.22197 0,-0.44448 0,-0.66677 l 0,-0.66676 c 0,-1.55669 -0.17086,-3.12008 0,-4.66737 0.27652,-2.50414 1.73045,-4.74576 3.50222,-6.53685 1.77177,-1.79109 3.87201,-3.21587 5.8325,-4.79817 2.60081,-2.0991 5.00818,-4.5135 8.00119,-6.00089 3.6676,-1.82263 7.90627,-2.0003 12.00179,-2.0003 l 7.33442,0 1.33354,0 c 0.2228,0 0.4455,-0.008 0.66788,-0.022 0.22239,-0.0137 0.44855,-0.028 0.66565,0.022 0.20632,0.0476 0.39665,0.15471 0.55491,0.29539 0.15825,0.14068 0.28533,0.31421 0.38555,0.50074 0.20044,0.37305 0.29351,0.79255 0.39307,1.20417 0.38043,1.57287 0.88596,3.11226 1.33353,4.66736 0.31412,1.09141 0.60128,2.2 0.66677,3.33383 0.0513,0.88769 0,1.7779 0,2.66707 0,2.44481 0,4.88961 0,7.33442 0,3.33383 0,6.66766 0,10.00149 0,1.55579 0,3.11157 0,4.66736 0,0.55665 0.0181,1.11311 0.0475,1.66899 0.0294,0.55588 0.0605,1.11876 -0.0475,1.66484 -0.19395,0.98068 -0.82596,1.80584 -1.33354,2.66706 -1.14739,1.94682 -1.69601,4.17796 -2.25738,6.36691 -0.56138,2.18894 -1.16832,4.41355 -2.40998,6.30165 -0.61076,0.92873 -1.3631,1.75626 -2.00029,2.66706 -0.74313,1.06223 -1.32326,2.22831 -2.0003,3.33383 -0.83713,1.36694 -1.82108,2.63912 -2.66707,4.00059 -1.27326,2.04909 -2.25885,4.33168 -4.00059,6.0009 -0.57108,0.5473 -1.2119,1.0161 -1.80975,1.53404 -0.59784,0.51794 -1.16132,1.09688 -1.52408,1.79979 -0.22831,0.44238 -0.37522,0.93002 -0.66677,1.33353 -0.18431,0.25508 -0.41875,0.46903 -0.65068,0.68174 -0.23193,0.21271 -0.46032,0.42926 -0.68285,0.65179 l -2.0003,2.0003 c -0.44454,0.44454 -0.87225,0.90638 -1.33353,1.33353 -0.59093,0.54721 -1.25884,1.0191 -2.0003,1.33353 -0.55375,0.23482 -1.14071,0.37913 -1.71432,0.56009 -0.57361,0.18097 -1.14462,0.4043 -1.6195,0.77344 -0.49683,0.38619 -0.86504,0.91343 -1.33354,1.33354 -0.23607,0.21169 -0.49624,0.39492 -0.73602,0.6024 -0.23978,0.20747 -0.46242,0.44426 -0.59751,0.73113 -0.15188,0.32252 -0.18367,0.68597 -0.24523,1.03711 -0.0308,0.17556 -0.0698,0.35059 -0.13517,0.5164 -0.0654,0.16581 -0.1583,0.32281 -0.28636,0.44679 -0.11498,0.11132 -0.25478,0.19308 -0.38104,0.29142 -0.0631,0.0492 -0.12325,0.10285 -0.17366,0.165 -0.0504,0.0621 -0.091,0.13314 -0.11207,0.21034 -0.0293,0.10758 -0.021,0.22139 -0.013,0.33261 0.008,0.11122 0.013,0.22265 0.013,0.33416 l 0,0.66676 0,5.33413 0,4.0006 c 0,1.3341 -0.12615,2.67246 0,4.00059 0.10723,1.12897 0.45468,2.21979 0.66677,3.33383 0.11462,0.60207 0.19035,1.21397 0.3719,1.79934 0.18154,0.58538 0.48132,1.1538 0.96163,1.53449 0.45273,0.35884 1.03035,0.52574 1.60327,0.5998 0.57293,0.074 1.15287,0.067 1.73056,0.067 l 2.00029,0 3.33383,0 c 0.22502,0 0.44951,0.019 0.67244,0.0496 0.11147,0.0153 0.22355,0.03 0.33604,0.0278 0.11249,-0.002 0.22684,-0.0225 0.32506,-0.0774 0.1389,-0.0776 0.23157,-0.21529 0.32343,-0.34521 0.0459,-0.065 0.0931,-0.12943 0.14886,-0.18621 0.0557,-0.0568 0.12055,-0.10595 0.19447,-0.13535 0.10423,-0.0415 0.22023,-0.0415 0.33188,-0.0306 0.11165,0.0108 0.22272,0.0319 0.33489,0.0306 0.11249,-0.001 0.22339,-0.0251 0.3353,-0.0366 0.1119,-0.0115 0.22905,-0.01 0.33146,0.0366 0.11314,0.0514 0.19802,0.15511 0.24095,0.27174 0.0429,0.11664 0.0465,0.24518 0.026,0.36775 -0.0411,0.24515 -0.17326,0.46378 -0.2669,0.69404 -0.25659,0.63097 -0.21841,1.35512 0,2.0003 0.11331,0.33471 0.27234,0.65181 0.40738,0.97837 0.13503,0.32655 0.24726,0.66877 0.25939,1.02193 0.008,0.22333 -0.0249,0.4458 -0.043,0.66853 -0.0181,0.22272 -0.0214,0.45101 0.043,0.665 0.0922,0.30659 0.31547,0.5575 0.56274,0.76087 0.24727,0.20336 0.52347,0.36935 0.77079,0.57266 0.43078,0.35412 0.76312,0.81222 1.0664,1.28018 0.30329,0.46797 0.58375,0.95286 0.9339,1.38688 0.66401,0.82306 1.55573,1.43406 2.48609,1.93683 0.93036,0.50277 1.9101,0.90852 2.84804,1.397 5.3402,2.78118 8.97244,8.02512 14.00208,11.33502 3.1001,2.04011 6.73603,3.35147 9.33472,6.0009 1.13877,1.161 2.0347,2.53974 3.15424,3.71928 0.55978,0.58978 1.17815,1.13083 1.87928,1.54265 0.70113,0.41182 1.48916,0.69163 2.30091,0.73896 1.05716,0.0616 2.09575,-0.26786 3.15106,-0.35559 0.52766,-0.0439 1.06718,-0.0258 1.57357,0.12879 0.5064,0.15464 0.97942,0.45513 1.27626,0.89357 0.18817,0.27793 0.3011,0.6018 0.4941,0.8764 0.0965,0.1373 0.21409,0.26237 0.35786,0.34894 0.14376,0.0866 0.31553,0.13255 0.48157,0.10819 0.11654,-0.0171 0.22593,-0.0675 0.3419,-0.088 0.058,-0.0103 0.11806,-0.013 0.17552,-6e-5 0.0575,0.0129 0.11233,0.0423 0.14935,0.0881 0.0359,0.0445 0.0532,0.10191 0.0568,0.15898 0.004,0.0571 -0.006,0.1142 -0.0182,0.17 -0.0125,0.0558 -0.0282,0.11093 -0.0378,0.1673 -0.01,0.0564 -0.0131,0.11462 -8.2e-4,0.17048 0.0172,0.0787 0.0648,0.14832 0.12305,0.20401 0.0583,0.0557 0.12716,0.0988 0.19628,0.1403 0.0691,0.0414 0.13937,0.0818 0.20166,0.13296 0.0623,0.0512 0.11692,0.11425 0.14577,0.1895 0.02,0.0522 0.0271,0.10863 0.0279,0.16455 7.5e-4,0.0559 -0.005,0.11172 -0.01,0.16737 -0.011,0.1113 -0.0178,0.22301 -0.0178,0.33485 l 0,0.66676 0,3.33383 c 0,0.66717 0.0744,1.33729 0,2.0003 -0.0677,0.60363 -0.29968,1.18205 -0.62437,1.69541 -0.32469,0.51335 -0.7404,0.96441 -1.19126,1.37145 -0.90171,0.81409 -1.94561,1.45809 -2.85173,2.26727 -0.93815,0.83779 -1.71726,1.84251 -2.66706,2.66706 -2.00312,1.73897 -4.68326,2.57863 -7.33443,2.66706 -0.88857,0.0296 -1.77799,0 -2.66706,0 -1.77804,0 -3.55609,0 -5.33413,0 -1.55579,0 -3.11157,0 -4.66736,0 -0.44465,0 -0.89031,0.0356 -1.33353,0 -0.70507,-0.0567 -1.36783,-0.35003 -2.0003,-0.66676 -1.43749,-0.71987 -2.80883,-1.58804 -4.00059,-2.66707 -0.76356,-0.69133 -1.44853,-1.46437 -2.18778,-2.18163 -0.73925,-0.71726 -1.54483,-1.38628 -2.47958,-1.81896 -1.42651,-0.6603 -3.04769,-0.74061 -4.61959,-0.73228 -1.57189,0.008 -3.14322,0.0655 -4.71514,0.0655 l -6.66766,0 c -0.98863,0 -1.99309,0.03 -2.93303,0.33648 -0.93994,0.30644 -1.79758,0.88077 -2.40109,1.66382 -0.48968,0.63536 -0.81113,1.39155 -1.33353,2.0003 -0.40968,0.4774 -0.93122,0.84991 -1.33354,1.33353 -0.59575,0.71614 -0.89556,1.63595 -1.04948,2.55469 -0.15391,0.91874 -0.17472,1.85433 -0.28405,2.77944 -0.21546,1.8231 -0.77179,3.58638 -1.33353,5.33412 -0.28091,0.87399 -0.56549,1.75465 -0.66677,2.66707 -0.14721,1.32617 0,2.66628 0,4.00059 l 0,3.33383 c 0,0.2223 -0.0149,0.44496 0,0.66677 0.0327,0.48722 0.25964,0.95061 0.58886,1.31127 0.32921,0.36065 0.75591,0.62331 1.20929,0.80469 0.90676,0.36278 1.90318,0.40761 2.86922,0.5511 3.79276,0.56335 7.1771,2.67079 10.20372,5.02493 3.02662,2.35415 5.8387,5.01385 9.13249,6.97686 2.39334,1.42637 5.00975,2.46484 7.33442,4.00059 1.33832,0.88414 2.57577,1.93041 4.0006,2.66707 0.35936,0.18579 0.72962,0.35129 1.07824,0.55654 0.34862,0.20525 0.6785,0.45396 0.92205,0.77699 0.42749,0.56701 0.54872,1.30008 0.66677,2.0003 0.0187,0.11084 0.0377,0.222 0.0424,0.3343 0.005,0.11231 -0.005,0.22647 -0.0424,0.33246 -0.0437,0.12378 -0.12434,0.23289 -0.22345,0.31898 -0.0991,0.0861 -0.21627,0.14985 -0.3391,0.19617 -0.24566,0.0926 -0.51084,0.11617 -0.77098,0.15162 -1.89018,0.25758 -3.61689,1.1695 -5.33413,2.0003 -0.63656,0.30797 -1.29532,0.61151 -2.0003,0.66676 -0.44339,0.0348 -0.88983,-0.0305 -1.33353,0 -0.91614,0.063 -1.75944,0.52709 -2.66706,0.66677 -1.1006,0.16938 -2.22999,-0.14677 -3.33383,0 -0.9096,0.12094 -1.75683,0.55063 -2.66706,0.66676 -0.88256,0.1126 -1.77736,0 -2.66707,0 -2.22255,0 -4.44511,0 -6.66766,0 -2.0003,0 -4.00059,0 -6.00089,0 -0.55624,0 -1.11237,-0.0139 -1.66815,-0.0366 -0.55578,-0.0226 -1.11572,-0.0468 -1.66568,0.0366 -0.90738,0.13756 -1.75419,0.57231 -2.66706,0.66677 -0.66356,0.0687 -1.33319,0 -2.0003,0 -1.77804,0 -3.55609,0 -5.33413,0 -3.77834,0 -7.55668,0 -11.33502,0 -4.22285,0 -8.4457,0 -12.66855,0 -1.55579,0 -3.11157,0 -4.66736,0 -0.66687,0 -1.33447,-0.0371 -2.0003,0 -1.72149,0.0959 -3.37028,0.86439 -4.66736,2.0003 -1.18352,1.03646 -2.09322,2.36644 -3.33383,3.33383 -0.789,0.61524 -1.70147,1.07147 -2.66706,1.33353 -0.88837,0.66764 -1.7774,1.3344 -2.66707,2.0003 -0.76116,0.5697 -1.54604,1.16508 -2.0003,2.00029 -0.23782,0.43725 -0.3774,0.92854 -0.66676,1.33354 -0.18296,0.25608 -0.41787,0.46983 -0.65012,0.68222 -0.23226,0.21239 -0.46086,0.42876 -0.68341,0.65131 l -1.33353,1.33353 c -0.44477,0.44477 -0.84232,0.94065 -1.33354,1.33353 -0.77839,0.62255 -1.79715,0.847 -2.66706,1.33353 -0.69988,0.39144 -1.29658,0.94904 -2.0003,1.33353 -0.43776,0.23918 -0.90985,0.40747 -1.37049,0.5989 -0.46065,0.19143 -0.91735,0.41055 -1.29657,0.73464 -0.47883,0.40922 -0.8178,0.97193 -1.33353,1.33353 -0.46969,0.32932 -1.04884,0.46427 -1.61917,0.52582 -0.57032,0.0616 -1.14722,0.0568 -1.71466,0.14094 -1.60454,0.23779 -3.05343,1.17127 -4.66736,1.33354 -0.88499,0.089 -1.77762,0 -2.66707,0 l -4.66736,0 -16.00238,0 -12.66855,0 -4.0006,0 -0.66676,0 c -0.1114,0 -0.22275,0.004 -0.33394,0.011 -0.11119,0.007 -0.22426,0.014 -0.33283,-0.011 -0.15768,-0.0363 -0.29275,-0.14038 -0.39794,-0.26332 -0.10519,-0.12294 -0.18464,-0.26528 -0.26883,-0.40345 -0.75573,-1.2403 -1.95789,-2.20202 -3.33383,-2.66706"
       id="path4487"
       inkscape:path-effect="#path-effect4489"
       inkscape:original-d="m 292.04346,581.62546 c -8.22344,0 -16.44689,0 -24.67033,0 -1.11128,0 -2.22256,0 -3.33383,0 -0.88902,0 -1.78491,0.11027 -2.66707,0 -0.9093,-0.11367 -1.75628,-0.56557 -2.66706,-0.66677 -1.10448,-0.12272 -2.22255,0 -3.33383,0 -1.77804,0 -3.55608,0 -5.33413,0 -0.66676,0 -1.33868,0.0827 -2.00029,0 -1.12454,-0.14057 -2.20748,-0.54161 -3.33383,-0.66677 -0.16559,-0.0184 -5.25925,0.0187 -5.33413,0 -1.63478,-0.40869 -3.25016,-1.81674 -4.66736,-2.66706 -0.65308,-0.39185 -3.6356,-1.6353 -4.0006,-2.0003 -0.35141,-0.35141 -0.44451,-0.88902 -0.66676,-1.33353 -0.22226,-0.44451 -0.50961,-0.86206 -0.66677,-1.33353 -0.28979,-0.86936 -0.37698,-1.79771 -0.66677,-2.66706 -0.31431,-0.94295 -1.09246,-1.70279 -1.33353,-2.66707 -0.10781,-0.43124 0.0872,-0.89765 0,-1.33353 -0.13783,-0.68918 -0.47368,-1.32451 -0.66676,-2.0003 -0.25175,-0.88112 -0.34501,-1.80902 -0.66677,-2.66706 -0.349,-0.93067 -0.88902,-1.77804 -1.33353,-2.66706 -0.44451,-1.11128 -0.92451,-2.20901 -1.33353,-3.33383 -0.48038,-1.32104 -0.79289,-2.70306 -1.33354,-4.0006 -0.57343,-1.37625 -1.33353,-2.66706 -2.00029,-4.00059 -0.66677,-1.33354 -1.23322,-2.72213 -2.0003,-4.0006 -0.57175,-0.95291 -1.41132,-1.7247 -2.0003,-2.66706 -0.52679,-0.84288 -0.78218,-1.84005 -1.33353,-2.66707 -0.94223,-1.41334 -3.02988,-2.43313 -4.66736,-2.66706 -0.88009,-0.12573 -1.77804,0 -2.66706,0 -0.66677,0 -1.33354,0 -2.0003,0 -3.11158,0 -6.22315,0 -9.33473,0 -2.00029,0 -4.00059,0 -6.00089,0 -1.11127,0 -2.26942,-0.31932 -3.33383,0 -5.89331,1.76799 -1.14347,1.60593 -5.33413,4.0006 -0.79564,0.45465 -1.77804,0.44451 -2.66706,0.66676 -0.88902,0.22226 -1.77804,0.44451 -2.66706,0.66677 -0.88902,0.22225 -1.75523,0.57558 -2.66707,0.66676 -1.32691,0.13269 -2.67368,-0.13269 -4.00059,0 -0.91184,0.0912 -1.75776,0.55311 -2.66706,0.66677 -0.88216,0.11027 -1.77805,0 -2.66707,0 -2.44481,0 -4.88962,0 -7.33442,0 -2.66707,0 -5.33413,0 -8.00119,0 -0.88903,0 -1.77805,0 -2.66707,0 -0.88902,0 -1.82366,0.28113 -2.66706,0 -0.59637,-0.19879 -0.88902,-0.88902 -1.33353,-1.33353 -0.44451,-0.44451 -0.88902,-0.88902 -1.33353,-1.33353 -1.33354,-1.33354 -2.77327,-2.56872 -4.0006,-4.0006 -0.72321,-0.84374 -1.27709,-1.82332 -2.0003,-2.66706 -6.55391,-7.64624 2.17256,2.83932 -4.00059,-3.33383 -1.13329,-1.13329 -1.66586,-2.7491 -2.66707,-4.0006 -1.32355,-1.65445 -1.71987,-1.12372 -2.66706,-3.33383 -0.36098,-0.84229 -0.30579,-1.82477 -0.66677,-2.66706 -0.31566,-0.73656 -1.01786,-1.26374 -1.33353,-2.0003 -2.78299,-6.49364 0.30746,-0.1037 -0.66676,-4.0006 -0.12054,-0.48213 -0.5693,-0.8462 -0.66677,-1.33353 -0.21794,-1.08969 0.26952,-2.25573 0,-3.33383 -0.12054,-0.48214 -0.54623,-0.85139 -0.66677,-1.33353 -0.15111,-0.60445 0,-2.55927 0,-3.33383 0,-2.44481 0,-4.88961 0,-7.33442 0,-0.16171 -0.0214,-1.97886 0,-2.0003 0.15716,-0.15716 0.44451,0 0.66677,0 1.36533,0 3.61297,-0.38762 4.66736,0.66677 0.91638,0.91638 1.1469,2.35852 2.0003,3.33383 0.73178,0.83632 1.94385,1.15655 2.66706,2.00029 0.64686,0.75467 0.80674,1.82419 1.33353,2.66707 1.4256,2.28095 2.18224,2.84899 4.0006,4.66736 0.44451,0.44451 0.79448,1.0101 1.33353,1.33353 0.60268,0.3616 1.34774,0.40574 2.0003,0.66677 0.46143,0.18457 0.8721,0.48219 1.33353,0.66676 0.65256,0.26103 1.33353,0.44451 2.0003,0.66677 0.66676,0.22225 1.30703,0.55122 2.0003,0.66676 1.09615,0.1827 2.25573,-0.26952 3.33383,0 0.48214,0.12054 0.85139,0.54623 1.33353,0.66677 0.43124,0.10781 0.90229,-0.10781 1.33353,0 0.48214,0.12053 0.86206,0.50961 1.33353,0.66676 0.4217,0.14057 0.90229,-0.1078 1.33353,0 0.68185,0.17047 1.30703,0.55123 2.0003,0.66677 4.39026,0.73171 -0.78947,-1.37443 5.33413,0.66677 3.13954,1.04651 5.27247,3.62867 8.00119,5.33412 1.70746,1.06717 3.34316,1.71588 5.33413,2.0003 0.66006,0.0943 1.33353,0 2.00029,0 1.55579,0 3.11158,0 4.66736,0 0.57231,0 3.61049,0.13004 4.0006,0 0.29819,-0.0994 0.44451,-0.44451 0.66677,-0.66676 0.84445,-0.84446 2.15626,-2.33062 3.33383,-2.66707 0.85481,-0.24423 1.78245,0.0885 2.66706,0 1.34522,-0.13452 2.65265,-0.56308 4.00059,-0.66676 2.43761,-0.18751 4.88962,0 7.33443,0 3.77834,0 7.55668,0 11.33502,0 0.38419,0 3.09081,0.12151 3.33383,0 0.28113,-0.14057 0.56737,-0.36858 0.66677,-0.66677 0.14056,-0.4217 -0.10781,-0.90229 0,-1.33353 0.12053,-0.48214 0.44451,-0.88902 0.66676,-1.33353 0.22226,-0.66677 0.52893,-1.31112 0.66677,-2.0003 0.17435,-0.87176 0,-1.77804 0,-2.66706 0,-2.22256 0,-4.44511 0,-6.66766 0,-1.55579 0,-3.11158 0,-4.66736 0,-0.66677 0.29818,-1.40393 0,-2.0003 -0.6918,-1.3836 -2.80928,-2.48289 -4.0006,-3.33383 -6.12024,-4.3716 1.05265,0.19294 -6.00089,-3.33383 -1.15914,-0.57957 -2.14957,-1.47396 -3.33383,-2.0003 -0.8374,-0.37218 -1.77804,-0.44451 -2.66706,-0.66677 -0.88903,-0.22225 -1.77805,-0.44451 -2.66707,-0.66676 -0.88902,-0.22226 -1.77804,-0.44451 -2.66706,-0.66677 -0.88902,-0.22225 -1.75776,-0.5531 -2.66707,-0.66676 -0.88215,-0.11027 -1.80458,0.21562 -2.66706,0 -0.96428,-0.24107 -1.77804,-0.88902 -2.66706,-1.33353 -0.44451,-0.22226 -0.98212,-0.31535 -1.33353,-0.66677 -0.35142,-0.35142 -0.36858,-0.93595 -0.66677,-1.33353 -0.37718,-0.50291 -1.0524,-0.77127 -1.33353,-1.33353 -0.19879,-0.39759 0.14056,-0.91184 0,-1.33354 -0.0994,-0.29818 -0.56737,-0.36858 -0.66677,-0.66676 -0.12252,-0.36758 0,-3.43475 0,-4.0006 0,-3.11157 0,-6.22315 0,-9.33472 0,-1.55579 0,-3.11157 0,-4.66736 0,-1.11128 -0.11057,-2.22807 0,-3.33383 0.11277,-1.12766 0.54162,-2.20748 0.66677,-3.33383 0.0982,-0.88358 0,-1.77804 0,-2.66706 0,-1.11128 0,-2.22256 0,-3.33383 0,-2.22256 0,-4.44511 0,-6.66766 0,-0.88902 0,-1.77804 0,-2.66707 0,-0.44451 -0.0731,-0.89507 0,-1.33353 0.15065,-0.90391 0.25695,-1.84742 0.66676,-2.66706 0.28114,-0.56227 0.88903,-0.88902 1.33354,-1.33353 0.44451,-0.44451 0.88902,-0.88902 1.33353,-1.33353 0.44451,-0.44452 0.77126,-1.0524 1.33353,-1.33354 0.59637,-0.29818 1.33353,0 2.0003,0 0.16171,0 1.97885,-0.0214 2.00029,0 0.35142,0.35142 0.41108,0.90738 0.66677,1.33354 3.82172,5.73257 -0.76023,-1.52047 2.0003,4.00059 1.63168,3.26337 0.80654,0.85314 2.66706,3.33383 0.29819,0.39758 0.31535,0.98212 0.66677,1.33353 0.15716,0.15716 0.44451,0 0.66676,0 1.11128,0 2.22256,0 3.33383,0 1.77805,0 3.55609,0 5.33413,0 0.44451,0 0.88902,0 1.33353,0 0.66677,0 1.36775,0.21085 2.0003,0 0.87482,-0.2916 2.72687,-1.85779 3.33383,-2.66706 0.29819,-0.39758 0.36858,-0.93595 0.66677,-1.33353 0.37718,-0.50291 1.05239,-0.77127 1.33353,-1.33354 0.40982,-0.81963 0.46797,-1.7725 0.66676,-2.66706 0.53905,-2.42572 0.77478,-4.91317 1.33353,-7.33442 1.03449,-4.48278 2.91335,-8.70998 3.33383,-13.33532 0.1811,-1.99208 0,-4.0006 0,-6.0009 0,-4.4451 0,-8.89021 0,-13.33531 0,-0.79119 -0.12942,-4.68702 0,-5.33413 0.006,-0.0315 1.29667,-2.57489 1.33354,-2.66706 2.68473,-6.71185 -0.52061,1.41567 0.66676,-3.33383 0.22479,-0.89917 1.68162,-2.77614 2.0003,-3.33383 0.49314,-0.863 0.78218,-1.84005 1.33353,-2.66707 1.18272,-1.77408 1.46141,-1.19783 3.33383,-2.00029 0.91359,-0.39154 1.69678,-1.11792 2.66706,-1.33354 1.08482,-0.24107 2.22256,0 3.33383,0 1.55579,0 3.11158,0 4.66737,0 3.33383,0 6.66765,0 10.00148,0 9.11247,0 18.22494,0 27.33741,0 3.11157,0 6.22314,0 9.33472,0 3.55608,0 7.11217,0 10.66825,0 0.19912,0 1.9181,0.13153 2.0003,0 1.05359,-1.68574 1.61347,-3.64838 2.66706,-5.33412 1.87418,-2.99868 8.30914,-10.52491 10.00149,-12.66856 1.3772,-1.74444 2.68626,-3.54184 4.0006,-5.33412 1.13063,-1.54178 2.12313,-3.18763 3.33383,-4.66736 0.79615,-0.97307 1.86218,-1.70121 2.66706,-2.66707 0.31816,-0.38179 0.39109,-0.92002 0.66677,-1.33353 0.40464,-0.60697 1.7048,-1.40932 2.00029,-2.0003 0.0994,-0.19879 0,-0.44451 0,-0.66676 0,-0.44451 -0.1078,-0.9023 0,-1.33353 0.21852,-0.87406 2.18939,-4.18968 2.66707,-4.66737 2.53,-2.53 5.47092,-2.00029 8.66796,-2.00029 0.04,0 4.93015,-0.13466 5.33412,0 1.2954,0.4318 0.66677,2.79507 0.66677,3.33383 0,1.77804 0,3.55608 0,5.33412 0,3.74649 0.45737,5.75293 -1.33353,9.33473 -0.7925,1.58498 -2.11111,2.77787 -3.33383,4.00059 -1.33353,1.33353 -2.55181,2.79327 -4.0006,4.0006 -0.61561,0.51301 -1.37454,0.83293 -2.0003,1.33353 -1.78879,1.43103 -1.12681,1.40851 -2.66706,3.33383 -0.78541,0.98176 -1.96966,1.62095 -2.66706,2.66706 -2.66672,4.00007 -0.24117,1.22948 -2.0003,5.33413 -0.31567,0.73656 -0.88902,1.33353 -1.33353,2.0003 -0.44451,0.66676 -0.86776,1.34821 -1.33353,2.00029 -0.30612,0.42857 -2.38625,3.43205 -3.33383,4.0006 -0.60268,0.3616 -1.41551,0.2769 -2.0003,0.66677 -4.00351,2.669 0.1888,1.57251 -4.66736,4.00059 -0.0155,0.008 -5.22776,1.30314 -5.33413,1.33353 -6.69586,1.91311 3.67031,-0.75088 -4.66736,1.33353 -0.88902,0.22226 -1.75776,0.55311 -2.66707,0.66677 -0.88215,0.11027 -1.77804,0 -2.66706,0 -1.77804,0 -3.55608,0 -5.33413,0 -3.37886,0 0.79517,-0.19879 -2.66706,0.66677 -3.77834,0 -0.22225,-0.44451 -1.33353,0.66676 -1.11128,1.11128 -0.66677,-2.44481 -0.66677,1.33353 0,3.55609 0,7.11217 0,10.66826 0,1.77804 -0.3487,3.59061 0,5.33413 0.81459,4.07291 2.14682,5.20954 5.33413,7.33442 0.82702,0.55135 1.69678,1.11791 2.66706,1.33353 1.08482,0.24107 2.22256,0 3.33383,0 1.77805,0 3.55609,0 5.33413,0 1.11128,0 2.24902,0.24107 3.33383,0 0.97029,-0.21562 1.82419,-0.80673 2.66706,-1.33353 2.5718,-1.60737 4.54598,-3.87921 6.66766,-6.00089 0.44451,-0.44451 0.83063,-0.95635 1.33353,-1.33353 0.39759,-0.29819 0.93595,-0.36858 1.33354,-0.66677 0.5029,-0.37718 0.77126,-1.0524 1.33353,-1.33353 0.39758,-0.19879 0.88902,0 1.33353,0 1.11128,0 2.22255,0 3.33383,0 6.00089,0 12.00179,0 18.00268,0 0.30271,0 3.99458,0.008 4.00059,0 0.54983,-0.73311 0.46798,-1.77251 0.66677,-2.66707 0.24584,-1.10629 0.46404,-2.21882 0.66677,-3.33383 0.24184,-1.33011 0.40163,-2.67492 0.66676,-4.00059 0.17972,-0.89859 0.5531,-1.75776 0.66677,-2.66706 0.11027,-0.88216 -0.14616,-1.79014 0,-2.66707 0.0817,-0.49021 0.5693,-0.8462 0.66676,-1.33353 0.21794,-1.0897 -0.26952,-2.25573 0,-3.33383 0.12054,-0.48214 0.54623,-0.85139 0.66677,-1.33353 0.10781,-0.43124 -0.14057,-0.91183 0,-1.33353 0.0994,-0.29819 0.5262,-0.38564 0.66677,-0.66677 1.08459,-2.16919 0.0894,-2.08974 2.00029,-4.00059 0.35142,-0.35142 0.93595,-0.36858 1.33353,-0.66677 0.50291,-0.37718 0.74987,-1.10006 1.33354,-1.33353 0.61907,-0.24763 1.33353,0 2.00029,0 1.77805,0 3.55609,0 5.33413,0 1.33353,0 2.66706,0 4.0006,0 1.33353,0 2.74735,-0.45573 4.00059,0 2.61698,0.95163 4.76115,4.54238 6.0009,6.66766 3.90713,6.69794 0.32372,1.22845 3.33382,8.00119 0.32546,0.73228 0.88903,1.33353 1.33354,2.0003 0.44451,0.66676 0.88902,1.33353 1.33353,2.00029 1.06527,1.59791 2.58129,4.25015 4.66736,4.66736 0.65382,0.13077 1.33353,0 2.0003,0 2.11675,0 5.07747,0.65421 6.66766,-1.33353 1.55334,-1.94168 3.84417,-8.33588 4.66736,-10.66825 1.9288,-5.46493 1.47265,-4.99198 3.33383,-9.33472 -0.449,-0.71189 1.10992,-1.55309 1.33353,-2.0003 0.0994,-0.19879 0,-0.44451 0,-0.66677 0,-0.22225 0,-0.44451 0,-0.66676 0,-0.99046 -0.18875,-4.19549 0,-4.66737 1.22049,-3.05123 8.34948,-10.43934 9.33472,-11.33502 2.46684,-2.24257 5.04547,-4.45877 8.00119,-6.00089 4.6185,-2.40965 7.38925,-2.0003 12.00179,-2.0003 2.44481,0 4.88962,0 7.33442,0 0.44451,0 0.88902,0 1.33354,0 0.44451,0 0.97792,-0.2667 1.33353,0 0.64108,0.48082 0.97515,1.28355 1.33353,2.0003 0.4455,0.89101 1.16262,3.89828 1.33353,4.66736 0.24584,1.1063 0.54162,2.20748 0.66677,3.33383 0.0982,0.88359 0,1.77804 0,2.66707 0,2.4448 0,4.88961 0,7.33442 0,3.33383 0,6.66766 0,10.00149 0,1.55579 0,3.11157 0,4.66736 0,1.11128 0.24107,2.24902 0,3.33383 -0.21562,0.97029 -0.96439,1.7442 -1.33354,2.66706 -1.67621,4.19055 -2.48349,8.6648 -4.66736,12.66856 -0.53213,0.97558 -1.38387,1.74242 -2.00029,2.66706 -0.71887,1.0783 -1.30453,2.24048 -2.0003,3.33383 -0.86046,1.35214 -1.80661,2.64845 -2.66707,4.00059 -1.8433,2.89663 -1.8476,3.48908 -4.00059,6.0009 -1.02277,1.19323 -2.39088,2.07656 -3.33383,3.33383 -0.29819,0.39758 -0.36858,0.93595 -0.66677,1.33353 -0.37718,0.50291 -0.88902,0.88902 -1.33353,1.33353 -0.66676,0.66677 -1.33353,1.33353 -2.0003,2.0003 -0.44451,0.44451 -0.84265,0.94083 -1.33353,1.33353 -0.62575,0.5006 -1.28354,0.97516 -2.0003,1.33353 -1.3447,0.67235 -2.16862,0.45963 -3.33382,1.33353 -0.50291,0.37718 -0.88903,0.88902 -1.33354,1.33354 -0.44451,0.44451 -1.0101,0.79448 -1.33353,1.33353 -0.3616,0.60267 -0.35245,1.37166 -0.66676,2.0003 -0.14057,0.28113 -0.5262,0.38563 -0.66677,0.66676 -0.0994,0.19879 0,0.44451 0,0.66677 0,0.22225 0,0.44451 0,0.66676 0,1.77805 0,3.55609 0,5.33413 0,1.33353 0,2.66706 0,4.0006 0,1.33353 -0.12073,2.67254 0,4.00059 0.1026,1.12863 0.3919,2.23438 0.66677,3.33383 0.0868,0.34718 0.87367,2.87398 1.33353,3.33383 0.96495,0.96495 2.13117,0.66677 3.33383,0.66677 0.66676,0 1.33353,0 2.00029,0 1.11128,0 2.22256,0 3.33383,0 0.44451,0 0.91184,0.14056 1.33354,0 0.29818,-0.0994 0.38563,-0.5262 0.66676,-0.66677 0.19879,-0.0994 0.44451,0 0.66677,0 0.22225,0 0.56737,-0.19879 0.66676,0 0.19879,0.39758 0,0.88902 0,1.33353 0,0.66677 -0.10961,1.34261 0,2.0003 0.11555,0.69327 0.52893,1.31111 0.66677,2.0003 0.0872,0.43588 -0.19879,0.93595 0,1.33353 0.28113,0.56227 0.95635,0.83062 1.33353,1.33353 1.08304,1.44406 0.14441,1.55353 2.0003,2.66706 6.39877,3.83927 -4.72101,-5.28485 5.33413,3.33383 7.27857,6.23878 5.37217,5.36047 14.00208,11.33502 3.04134,2.10555 6.3328,3.83952 9.33472,6.0009 2.56351,1.84572 4.65574,4.32671 7.33443,6.00089 2.27977,1.42486 3.71128,0.20884 6.00089,0.66677 0.61643,0.12328 0.77127,1.05239 1.33353,1.33353 0.19879,0.0994 0.50961,-0.15716 0.66677,0 0.15716,0.15716 -0.0994,0.46797 0,0.66676 0.14057,0.28114 0.5262,0.38564 0.66676,0.66677 0.0994,0.19879 0,0.44451 0,0.66677 0,0.22225 0,0.44451 0,0.66676 0,1.11128 0,2.22255 0,3.33383 0,0.66677 0.26266,1.38744 0,2.0003 -0.68866,1.60688 -3.55191,4.21868 -4.66736,5.33413 -0.88902,0.88902 -1.66125,1.9127 -2.66706,2.66706 -1.5834,1.18755 -5.35882,2.42011 -7.33443,2.66706 -0.88215,0.11027 -1.77804,0 -2.66706,0 -1.77804,0 -3.55608,0 -5.33413,0 -1.55578,0 -3.11157,0 -4.66736,0 -0.44451,0 -0.89765,0.0872 -1.33353,0 -0.68918,-0.13783 -1.34773,-0.40574 -2.0003,-0.66676 -1.49712,-0.59885 -2.79269,-1.63172 -4.00059,-2.66707 -1.86831,-1.6014 -2.32756,-2.83069 -4.66736,-4.00059 -2.08234,-1.04117 -6.95169,-0.66677 -9.33473,-0.66677 -2.22255,0 -4.4451,0 -6.66766,0 -2.41339,0 -3.71263,-0.0266 -5.33412,2.0003 -0.5006,0.62575 -0.83293,1.37455 -1.33353,2.0003 -0.39271,0.49088 -1.0524,0.77126 -1.33354,1.33353 -0.008,0.0155 -1.30314,5.22776 -1.33353,5.33413 -1.78721,6.25523 0.69987,-3.81618 -1.33353,5.33412 -0.19879,0.89456 -0.5531,1.75776 -0.66677,2.66707 -0.1654,1.32323 0,2.66706 0,4.00059 0,1.11128 0,2.22256 0,3.33383 0,0.22226 -0.18085,0.53759 0,0.66677 1.45812,1.04151 3.14379,1.7239 4.66737,2.66706 12.8635,7.96312 5.89123,4.24507 19.33621,12.00179 2.41219,1.39165 4.93406,2.58862 7.33442,4.00059 1.38143,0.81261 2.64151,1.81763 4.0006,2.66707 2.15288,1.34555 0.64171,-0.0251 2.00029,1.33353 0.96801,0.96801 0.66677,0.7218 0.66677,2.0003 0,0.22225 0.15716,0.5096 0,0.66676 -0.35142,0.35142 -0.88902,0.44451 -1.33353,0.66677 -4.14316,2.07158 -1.09756,0.78985 -5.33413,2.0003 -0.67579,0.19308 -1.31111,0.52893 -2.0003,0.66676 -0.43587,0.0872 -0.89507,-0.0731 -1.33353,0 -0.90391,0.15065 -1.75989,0.53717 -2.66706,0.66677 -1.10011,0.15716 -2.23767,-0.18269 -3.33383,0 -0.90391,0.15065 -1.75776,0.5531 -2.66706,0.66676 -0.88216,0.11027 -1.77805,0 -2.66707,0 -2.22255,0 -4.4451,0 -6.66766,0 -2.00029,0 -4.00059,0 -6.00089,0 -1.11128,0 -2.22935,-0.12272 -3.33383,0 -0.91078,0.1012 -1.75989,0.53717 -2.66706,0.66677 -0.66007,0.0943 -1.33354,0 -2.0003,0 -1.77804,0 -3.55609,0 -5.33413,0 -3.77834,0 -7.55668,0 -11.33502,0 -4.22285,0 -8.4457,0 -12.66855,0 -0.5,0 -4.16736,0 -4.66736,0 -0.66677,0 -1.34024,-0.0943 -2.0003,0 -2.1474,0.30677 -3.03886,0.64321 -4.66736,2.0003 -1.20732,1.0061 -2.07656,2.39088 -3.33383,3.33383 -1.05931,0.79448 -1.60775,0.53905 -2.66706,1.33353 -2.88396,2.88396 0.17663,0.1045 -2.66707,2.0003 -0.27392,0.18261 -1.81768,1.72637 -2.0003,2.00029 -0.27567,0.41351 -0.36857,0.93595 -0.66676,1.33354 -0.37718,0.5029 -0.88902,0.88902 -1.33353,1.33353 -0.44451,0.44451 -0.88902,0.88902 -1.33353,1.33353 -0.44452,0.44451 -0.83063,0.95635 -1.33354,1.33353 -0.79516,0.59637 -1.81475,0.82215 -2.66706,1.33353 -0.68715,0.4123 -1.31314,0.92124 -2.0003,1.33353 -0.85231,0.51139 -1.8719,0.73716 -2.66706,1.33354 -0.50291,0.37718 -0.79449,1.0101 -1.33353,1.33353 -2.16992,1.30195 -1.4569,0.35394 -3.33383,0.66676 -9.94292,1.65716 3.25966,-0.25187 -4.66736,1.33354 -0.87176,0.17435 -1.77805,0 -2.66707,0 -1.55578,0 -3.11157,0 -4.66736,0 -5.33413,0 -10.66825,0 -16.00238,0 -4.22285,0 -8.4457,0 -12.66855,0 -1.33353,0 -2.66707,0 -4.0006,0 -0.22225,0 -0.44451,0 -0.66676,0 -0.22226,0 -0.46798,0.0994 -0.66677,0 -0.28113,-0.14057 -0.4253,-0.46555 -0.66677,-0.66677 -1.09327,-0.91106 -2.22255,-1.77804 -3.33383,-2.66706 z"
       inkscape:connector-curvature="0" />
    <path
       transform="matrix(1.3482235,0,0,0.15994043,8.073649,522.66732)"
       d="m 321.11686,423.5683 a 95.519066,95.519066 0 1 1 -191.03813,0 95.519066,95.519066 0 1 1 191.03813,0 z"
       sodipodi:ry="95.519066"
       sodipodi:rx="95.519066"
       sodipodi:cy="423.5683"
       sodipodi:cx="225.59779"
       id="path3816"
       style="fill:#454545;fill-opacity:0.31404959999999998;fill-rule:nonzero;stroke:none;filter:url(#filter4661)"
       sodipodi:type="arc" />
    <path
       transform="translate(82.559195,66.71935)"
       d="m 321.11686,423.5683 a 95.519066,95.519066 0 1 1 -191.03813,0 95.519066,95.519066 0 1 1 191.03813,0 z"
       sodipodi:ry="95.519066"
       sodipodi:rx="95.519066"
       sodipodi:cy="423.5683"
       sodipodi:cx="225.59779"
       id="path4559"
       style="fill:#1b1754;fill-opacity:1;fill-rule:nonzero;stroke:none;filter:url(#filter4625)"
       sodipodi:type="arc" />
    <path
       sodipodi:type="arc"
       style="fill:#454545;fill-opacity:0.6570248;fill-rule:nonzero;stroke:none"
       id="path3777"
       sodipodi:cx="225.59779"
       sodipodi:cy="423.5683"
       sodipodi:rx="95.519066"
       sodipodi:ry="95.519066"
       d="m 321.11686,423.5683 a 95.519066,95.519066 0 1 1 -191.03813,0 95.519066,95.519066 0 1 1 191.03813,0 z"
       transform="translate(82.559195,66.71935)" />
    <path
       style="fill:#ffffff;fill-opacity:0.30165288;stroke:none"
       d="M 400.09375 464.21875 C 325.46501 546.51305 302.71875 558.8125 302.71875 558.8125 C 336.23836 549.55656 368.17457 540.39619 397.25 524.78125 C 401.3964 514.08033 403.6875 502.44643 403.6875 490.28125 C 403.6875 481.24868 402.43671 472.50113 400.09375 464.21875 z M 217.0625 519.0625 C 221.31982 532.55268 228.46649 544.74108 237.8125 554.90625 C 250.28845 557.4493 263.0106 559.6135 275.96875 561.78125 C 275.96875 561.78125 261.69918 555.9145 217.0625 519.0625 z "
       id="path3779" />
    <path
       style="font-size:medium;font-style:normal;font-variant:normal;font-weight:normal;font-stretch:normal;text-indent:0;text-align:start;text-decoration:none;line-height:normal;letter-spacing:normal;word-spacing:normal;text-transform:none;direction:ltr;block-progression:tb;writing-mode:lr-tb;text-anchor:start;baseline-shift:baseline;color:#000000;fill:#ffffff;fill-opacity:0.07438017;stroke:none;stroke-width:15.44869422999999919;marker:none;visibility:visible;display:inline;overflow:visible;enable-background:accumulate;font-family:Sans;-inkscape-font-specification:Sans"
       d="M 299.21875 395.1875 C 291.02479 395.94911 283.11763 397.73792 275.65625 400.4375 C 272.01092 406.80829 269.00169 413.90515 266.59375 421.46875 C 259.78613 442.85222 257.58252 468.38547 260 493.625 C 262.41748 518.86453 269.46535 543.84381 281.96875 563.90625 C 287.03219 572.03083 293.06522 579.36365 300.0625 585.46875 C 302.73405 585.69319 305.42668 585.8125 308.15625 585.8125 C 314.36488 585.8125 320.434 585.22501 326.3125 584.09375 C 313.5181 578.76652 303.25037 568.85665 295.0625 555.71875 C 284.25221 538.37302 277.61016 515.49234 275.375 492.15625 C 273.13984 468.82016 275.3018 445.03641 281.3125 426.15625 C 285.60727 412.66593 291.82484 401.99413 299.21875 395.1875 z "
       id="path3804" />
  </g>
</svg>
