<?xml version="1.0" encoding="UTF-8" standalone="no"?>
<!-- Created with Inkscape (http://www.inkscape.org/) -->

<svg
   xmlns:dc="http://purl.org/dc/elements/1.1/"
   xmlns:cc="http://creativecommons.org/ns#"
   xmlns:rdf="http://www.w3.org/1999/02/22-rdf-syntax-ns#"
   xmlns:svg="http://www.w3.org/2000/svg"
   xmlns="http://www.w3.org/2000/svg"
   xmlns:sodipodi="http://sodipodi.sourceforge.net/DTD/sodipodi-0.dtd"
   xmlns:inkscape="http://www.inkscape.org/namespaces/inkscape"
   width="210mm"
   height="297mm"
   id="svg2"
   version="1.1"
   inkscape:version="0.48.4 r9939"
   sodipodi:docname="Nuevo documento 1">
  <defs
     id="defs4" />
  <sodipodi:namedview
     id="base"
     pagecolor="#ffffff"
     bordercolor="#666666"
     borderopacity="1.0"
     inkscape:pageopacity="0.0"
     inkscape:pageshadow="2"
     inkscape:zoom="0.98994949"
     inkscape:cx="338.07585"
     inkscape:cy="641.62179"
     inkscape:document-units="px"
     inkscape:current-layer="layer1"
     showgrid="false"
     inkscape:window-width="1366"
     inkscape:window-height="713"
     inkscape:window-x="0"
     inkscape:window-y="27"
     inkscape:window-maximized="1" />
  <metadata
     id="metadata7">
    <rdf:RDF>
      <cc:Work
         rdf:about="">
        <dc:format>image/svg+xml</dc:format>
        <dc:type
           rdf:resource="http://purl.org/dc/dcmitype/StillImage" />
        <dc:title></dc:title>
      </cc:Work>
    </rdf:RDF>
  </metadata>
  <g
     inkscape:label="Capa 1"
     inkscape:groupmode="layer"
     id="layer1">
    <rect
       style="fill:#ffffff;fill-opacity:1;stroke:none"
       id="rect3891"
       width="324.25897"
       height="430.32498"
       x="242.43661"
       y="177.57008"
       ry="0.82525992"
       inkscape:export-filename="/home/rafa/Imágenes/gato.png"
       inkscape:export-xdpi="134.7"
       inkscape:export-ydpi="134.7" />
    <g
       id="g3858"
       transform="translate(139.40105,-33.335034)">
      <path
         transform="matrix(1.0577689,0,0,0.85318096,-92.887231,14.829652)"
         d="m 425.77931,345.2554 c 0,42.67873 -38.32909,77.27667 -85.61043,77.27667 -47.28133,0 -85.61042,-34.59794 -85.61042,-77.27667 0,-42.67873 38.32909,-77.27667 85.61042,-77.27667 47.28134,0 85.61043,34.59794 85.61043,77.27667 z"
         sodipodi:ry="77.276672"
         sodipodi:rx="85.610428"
         sodipodi:cy="345.2554"
         sodipodi:cx="340.16888"
         id="path2985"
         style="fill:none;stroke:#000000;stroke-width:2.9000001;stroke-linecap:round;stroke-linejoin:bevel;stroke-miterlimit:4;stroke-opacity:1;stroke-dasharray:none;stroke-dashoffset:0"
         sodipodi:type="arc" />
      <path
         transform="matrix(1.0049381,0,0,0.75341187,-4.3835204,82.51478)"
         d="m 256.07366,299.29346 c 0,10.04205 -4.5226,18.18274 -10.10152,18.18274 -5.57892,0 -10.10153,-8.14069 -10.10153,-18.18274 0,-10.04206 4.52261,-18.18275 10.10153,-18.18275 5.57892,0 10.10152,8.14069 10.10152,18.18275 z"
         sodipodi:ry="18.182745"
         sodipodi:rx="10.101525"
         sodipodi:cy="299.29346"
         sodipodi:cx="245.97214"
         id="path3763"
         style="fill:none;stroke:#000000;stroke-width:2.9000001;stroke-linecap:round;stroke-linejoin:bevel;stroke-miterlimit:4;stroke-opacity:1;stroke-dasharray:none;stroke-dashoffset:0"
         sodipodi:type="arc" />
      <path
         transform="matrix(0.99120649,0,0,0.91463452,2.7133072,28.86196)"
         d="m 251.42857,309.95148 c 0,4.78318 -3.87754,8.66071 -8.66072,8.66071 -4.78318,0 -8.66071,-3.87753 -8.66071,-8.66071 0,-4.78318 3.87753,-8.66072 8.66071,-8.66072 4.78318,0 8.66072,3.87754 8.66072,8.66072 z"
         sodipodi:ry="8.6607141"
         sodipodi:rx="8.6607141"
         sodipodi:cy="309.95148"
         sodipodi:cx="242.76785"
         id="path3767"
         style="fill:#000000;stroke:#000000;stroke-width:2.9000001;stroke-linecap:round;stroke-linejoin:bevel;stroke-miterlimit:4;stroke-opacity:1;stroke-dasharray:none;stroke-dashoffset:0"
         sodipodi:type="arc" />
      <path
         transform="matrix(1.0002527,0,0,0.94506025,1.9583043,17.294245)"
         d="m 249.46429,312.80862 c 0,2.12038 -1.63896,3.83929 -3.66072,3.83929 -2.02175,0 -3.66071,-1.71891 -3.66071,-3.83929 0,-2.12037 1.63896,-3.83928 3.66071,-3.83928 2.02176,0 3.66072,1.71891 3.66072,3.83928 z"
         sodipodi:ry="3.8392856"
         sodipodi:rx="3.6607144"
         sodipodi:cy="312.80862"
         sodipodi:cx="245.80357"
         id="path3769"
         style="fill:#ffffff;stroke:#000000;stroke-width:2.9000001;stroke-linecap:round;stroke-linejoin:bevel;stroke-miterlimit:4;stroke-opacity:1;stroke-dasharray:none;stroke-dashoffset:0"
         sodipodi:type="arc" />
      <path
         sodipodi:nodetypes="cccc"
         inkscape:connector-curvature="0"
         id="path3777"
         d="m 310.53572,251.6479 30.0004,-17.32074 c 5.00716,-3.06809 6.33897,-0.10907 5.12548,5.65591 l -4.05445,31.5856"
         style="fill:none;stroke:#000000;stroke-width:3;stroke-linecap:round;stroke-linejoin:round;stroke-miterlimit:4;stroke-opacity:1;stroke-dasharray:none" />
      <path
         style="fill:none;stroke:#000000;stroke-width:1.15292192;stroke-linecap:round;stroke-linejoin:round;stroke-miterlimit:4;stroke-opacity:1;stroke-dasharray:none"
         d="m 323.54108,252.76902 14.00632,-8.08655 -2.06534,14.67468"
         id="path3779"
         inkscape:connector-curvature="0" />
      <path
         style="fill:none;stroke:#000000;stroke-width:3;stroke-linecap:round;stroke-linejoin:round;stroke-miterlimit:4;stroke-opacity:1;stroke-dasharray:none"
         d="m 221.83254,251.6479 -30.0004,-17.32074 c -5.00716,-3.06809 -6.33897,-0.10907 -5.12548,5.65591 l 4.05445,31.5856"
         id="path3781"
         inkscape:connector-curvature="0"
         sodipodi:nodetypes="cccc" />
      <path
         inkscape:connector-curvature="0"
         id="path3783"
         d="m 208.82718,252.76902 -14.00632,-8.08655 2.06534,14.67468"
         style="fill:none;stroke:#000000;stroke-width:1.15292192;stroke-linecap:round;stroke-linejoin:round;stroke-miterlimit:4;stroke-opacity:1;stroke-dasharray:none" />
      <path
         sodipodi:type="arc"
         style="fill:none;stroke:#000000;stroke-width:2.9000001;stroke-linecap:round;stroke-linejoin:bevel;stroke-miterlimit:4;stroke-opacity:1;stroke-dasharray:none;stroke-dashoffset:0"
         id="path3785"
         sodipodi:cx="245.97214"
         sodipodi:cy="299.29346"
         sodipodi:rx="10.101525"
         sodipodi:ry="18.182745"
         d="m 256.07366,299.29346 c 0,10.04205 -4.5226,18.18274 -10.10152,18.18274 -5.57892,0 -10.10153,-8.14069 -10.10153,-18.18274 0,-10.04206 4.52261,-18.18275 10.10153,-18.18275 5.57892,0 10.10152,8.14069 10.10152,18.18275 z"
         transform="matrix(1.0049381,0,0,0.75341187,58.498476,82.51478)" />
      <path
         sodipodi:type="arc"
         style="fill:#000000;stroke:#000000;stroke-width:2.9000001;stroke-linecap:round;stroke-linejoin:bevel;stroke-miterlimit:4;stroke-opacity:1;stroke-dasharray:none;stroke-dashoffset:0"
         id="path3787"
         sodipodi:cx="242.76785"
         sodipodi:cy="309.95148"
         sodipodi:rx="8.6607141"
         sodipodi:ry="8.6607141"
         d="m 251.42857,309.95148 c 0,4.78318 -3.87754,8.66071 -8.66072,8.66071 -4.78318,0 -8.66071,-3.87753 -8.66071,-8.66071 0,-4.78318 3.87753,-8.66072 8.66071,-8.66072 4.78318,0 8.66072,3.87754 8.66072,8.66072 z"
         transform="matrix(0.99120649,0,0,0.91463452,65.595303,28.86196)" />
      <path
         sodipodi:type="arc"
         style="fill:#ffffff;stroke:#000000;stroke-width:2.9000001;stroke-linecap:round;stroke-linejoin:bevel;stroke-miterlimit:4;stroke-opacity:1;stroke-dasharray:none;stroke-dashoffset:0"
         id="path3789"
         sodipodi:cx="245.80357"
         sodipodi:cy="312.80862"
         sodipodi:rx="3.6607144"
         sodipodi:ry="3.8392856"
         d="m 249.46429,312.80862 c 0,2.12038 -1.63896,3.83929 -3.66072,3.83929 -2.02175,0 -3.66071,-1.71891 -3.66071,-3.83929 0,-2.12037 1.63896,-3.83928 3.66071,-3.83928 2.02176,0 3.66072,1.71891 3.66072,3.83928 z"
         transform="matrix(1.0002527,0,0,0.94506025,64.8403,17.294245)" />
      <path
         sodipodi:nodetypes="ssss"
         inkscape:connector-curvature="0"
         id="path3791"
         d="m 267.85715,301.53026 c -9.30132,0.16962 -10.05989,-3.70205 -5.46543,-9.46639 4.3452,-5.45162 6.03319,-6.4987 10.93085,0 6.35438,8.43162 2.62581,9.31884 -5.46542,9.46639 z"
         inkscape:transform-center-y="3.1554615"
         style="fill:#ffffff;fill-opacity:1;stroke:#000000;stroke-width:3;stroke-linecap:round;stroke-linejoin:round;stroke-miterlimit:4;stroke-opacity:1;stroke-dashoffset:0"
         transform="matrix(1,0,0,-1,1.4285714,627.34202)" />
      <path
         d="m 217.43533,323.53711 c 0,4.46313 -3.61808,8.08122 -8.08122,8.08122 -4.46313,0 -8.08122,-3.61809 -8.08122,-8.08122 0,-4.46314 3.61809,-8.08122 8.08122,-8.08122 4.46314,0 8.08122,3.61808 8.08122,8.08122 z"
         sodipodi:ry="8.0812206"
         sodipodi:rx="8.0812206"
         sodipodi:cy="323.53711"
         sodipodi:cx="209.35411"
         id="path3796"
         style="fill:none;stroke:#000000;stroke-width:1;stroke-linecap:round;stroke-linejoin:round;stroke-miterlimit:4;stroke-opacity:1;stroke-dasharray:none;stroke-dashoffset:0"
         sodipodi:type="arc" />
      <path
         transform="translate(126.01653,0)"
         sodipodi:type="arc"
         style="fill:none;stroke:#000000;stroke-width:1;stroke-miterlimit:4;stroke-opacity:1;stroke-dasharray:none"
         id="path3798"
         sodipodi:cx="209.35411"
         sodipodi:cy="323.53711"
         sodipodi:rx="8.0812206"
         sodipodi:ry="8.0812206"
         d="m 217.43533,323.53711 c 0,4.46313 -3.61808,8.08122 -8.08122,8.08122 -4.46313,0 -8.08122,-3.61809 -8.08122,-8.08122 0,-4.46314 3.61809,-8.08122 8.08122,-8.08122 4.46314,0 8.08122,3.61808 8.08122,8.08122 z" />
      <path
         inkscape:connector-curvature="0"
         id="path3800"
         d="M 207.5,320.9336 156.05186,307.14812"
         style="fill:none;stroke:#000000;stroke-width:1;stroke-linecap:round;stroke-linejoin:miter;stroke-miterlimit:4;stroke-opacity:1;stroke-dasharray:none" />
      <path
         style="fill:none;stroke:#000000;stroke-width:1;stroke-linecap:round;stroke-linejoin:miter;stroke-miterlimit:4;stroke-opacity:1;stroke-dasharray:none"
         d="m 207.5,327.50526 -51.44814,13.78548"
         id="path3802"
         inkscape:connector-curvature="0" />
      <path
         inkscape:connector-curvature="0"
         id="path3804"
         d="m 208.40745,324.398 -53.26304,0"
         style="fill:none;stroke:#000000;stroke-width:1;stroke-linecap:round;stroke-linejoin:miter;stroke-miterlimit:4;stroke-opacity:1;stroke-dasharray:none" />
      <path
         style="fill:none;stroke:#000000;stroke-width:1;stroke-linecap:round;stroke-linejoin:miter;stroke-miterlimit:4;stroke-opacity:1;stroke-dasharray:none"
         d="m 335.69472,320.9336 51.44814,-13.78548"
         id="path3806"
         inkscape:connector-curvature="0" />
      <path
         inkscape:connector-curvature="0"
         id="path3808"
         d="m 335.69472,327.50526 51.44814,13.78548"
         style="fill:none;stroke:#000000;stroke-width:1;stroke-linecap:round;stroke-linejoin:miter;stroke-miterlimit:4;stroke-opacity:1;stroke-dasharray:none" />
      <path
         style="fill:none;stroke:#000000;stroke-width:1;stroke-linecap:round;stroke-linejoin:miter;stroke-miterlimit:4;stroke-opacity:1;stroke-dasharray:none"
         d="m 334.78727,324.398 53.26304,0"
         id="path3810"
         inkscape:connector-curvature="0" />
      <path
         sodipodi:nodetypes="csssssc"
         inkscape:connector-curvature="0"
         id="path3816"
         d="m 209.1944,360.7797 c 0.5946,-2.01214 -12.93629,-1.01165 -18.14321,6.75998 -0.9734,1.45286 -1.71843,2.94649 -1.85189,3.29139 -20.60393,53.2458 -24.91035,54.5982 -12.67514,65.08552 12.37437,10.6066 47.98224,28.03173 59.34646,21.2132 11.36422,-6.81853 22.22336,-25.00127 7.57614,-28.53681 -14.64721,-3.53553 -41.66879,-10.35406 -41.66879,-10.35406"
         style="fill:none;stroke:#000000;stroke-width:3.5;stroke-linecap:butt;stroke-linejoin:miter;stroke-miterlimit:4;stroke-opacity:1;stroke-dasharray:none" />
      <path
         inkscape:connector-curvature="0"
         id="path3820"
         d="m 198.57143,448.07647 -37.14286,130"
         style="fill:none;stroke:#000000;stroke-width:3.5;stroke-linecap:butt;stroke-linejoin:miter;stroke-miterlimit:4;stroke-opacity:1;stroke-dasharray:none" />
      <path
         style="fill:none;stroke:#000000;stroke-width:3.5;stroke-linecap:butt;stroke-linejoin:miter;stroke-miterlimit:4;stroke-opacity:1;stroke-dasharray:none"
         d="m 335.71428,448.07647 37.14286,130"
         id="path3822"
         inkscape:connector-curvature="0" />
      <path
         sodipodi:nodetypes="cccccc"
         inkscape:connector-curvature="0"
         id="path3824"
         d="m 152.40677,581.25229 9.59644,-3.91435 c 0,0 -42.30013,13.88961 -36.23922,27.02159 15.71572,27.08279 90.62033,-9.42719 79.1543,-27.2995 -5.31521,-7.03952 -7.30566,-4.4284 -7.30566,-4.4284 l 57.45089,-57.16552"
         style="fill:none;stroke:#000000;stroke-width:3.5;stroke-linecap:butt;stroke-linejoin:miter;stroke-miterlimit:4;stroke-opacity:1;stroke-dasharray:none" />
      <path
         style="fill:none;stroke:#000000;stroke-width:3.5;stroke-linecap:butt;stroke-linejoin:miter;stroke-miterlimit:4;stroke-opacity:1;stroke-dasharray:none"
         d="m 381.39793,581.25229 -9.59644,-3.91435 c 0,0 42.30013,13.88961 36.23922,27.02159 -15.71572,27.08279 -90.62033,-9.42719 -79.1543,-27.2995 5.31521,-7.03952 7.30566,-4.4284 7.30566,-4.4284 l -57.45089,-57.16552"
         id="path3826"
         inkscape:connector-curvature="0"
         sodipodi:nodetypes="cccccc" />
      <path
         sodipodi:nodetypes="cc"
         inkscape:connector-curvature="0"
         id="path3830"
         d="m 254.93725,515.71864 c 6.2136,-3.77397 12.77734,-5.8945 24.11739,0"
         style="fill:none;stroke:#000000;stroke-width:3.5;stroke-linecap:butt;stroke-linejoin:miter;stroke-miterlimit:4;stroke-opacity:1;stroke-dasharray:none" />
      <path
         inkscape:connector-curvature="0"
         id="path3832"
         d="m 194.28571,460.93361 144.28572,0"
         style="fill:none;stroke:#000000;stroke-width:3.5;stroke-linecap:butt;stroke-linejoin:miter;stroke-miterlimit:4;stroke-opacity:1;stroke-dasharray:none" />
      <path
         inkscape:connector-curvature="0"
         id="path3834"
         d="m 165,566.6479 32.14286,4.28571"
         style="fill:none;stroke:#000000;stroke-width:3.5;stroke-linecap:butt;stroke-linejoin:miter;stroke-miterlimit:4;stroke-opacity:1;stroke-dasharray:none" />
      <path
         inkscape:connector-curvature="0"
         id="path3836"
         d="m 335.71429,570.93361 36.42857,5"
         style="fill:none;stroke:#000000;stroke-width:3.5;stroke-linecap:butt;stroke-linejoin:miter;stroke-miterlimit:4;stroke-opacity:1;stroke-dasharray:none" />
      <path
         style="fill:none;stroke:#000000;stroke-width:3.5;stroke-linecap:butt;stroke-linejoin:miter;stroke-miterlimit:4;stroke-opacity:1;stroke-dasharray:none"
         d="m 321.51931,362.20827 c 9.23611,-0.93936 16.05292,1.3158 19.63796,8.6228 20.60392,53.24581 24.91035,54.5982 12.67514,65.08552 -12.37437,10.6066 -47.98224,28.03173 -59.34646,21.2132 -11.36422,-6.81853 -22.22336,-25.00127 -7.57614,-28.53681 14.64721,-3.53553 41.66879,-10.35406 41.66879,-10.35406"
         id="path3854"
         inkscape:connector-curvature="0"
         sodipodi:nodetypes="ccsssc" />
      <path
         sodipodi:nodetypes="ccc"
         inkscape:connector-curvature="0"
         id="path3856"
         d="m 232.14286,346.82646 c 10.16225,15.8305 27.45704,16.60318 38.57143,4.82143 18.395,17.67661 33.72258,0.0897 37.32143,-8.39286"
         style="fill:none;stroke:#000000;stroke-width:1px;stroke-linecap:butt;stroke-linejoin:miter;stroke-opacity:1" />
    </g>
  </g>
</svg>
