<?xml version="1.0" encoding="UTF-8" standalone="no"?>
<!-- Created with Inkscape (http://www.inkscape.org/) -->

<svg
   xmlns:dc="http://purl.org/dc/elements/1.1/"
   xmlns:cc="http://creativecommons.org/ns#"
   xmlns:rdf="http://www.w3.org/1999/02/22-rdf-syntax-ns#"
   xmlns:svg="http://www.w3.org/2000/svg"
   xmlns="http://www.w3.org/2000/svg"
   xmlns:sodipodi="http://sodipodi.sourceforge.net/DTD/sodipodi-0.dtd"
   xmlns:inkscape="http://www.inkscape.org/namespaces/inkscape"
   width="600"
   height="600"
   id="svg2"
   version="1.1"
   inkscape:version="0.48.4 r9939"
   sodipodi:docname="Globo_aerostatico.svg">
  <defs
     id="defs4">
    <linearGradient
       id="linearGradient3783">
      <stop
         style="stop-color:#d44000;stop-opacity:1;"
         offset="0"
         id="stop3785" />
      <stop
         style="stop-color:#d4cc00;stop-opacity:0;"
         offset="1"
         id="stop3787" />
    </linearGradient>
  </defs>
  <sodipodi:namedview
     id="base"
     pagecolor="#ffffff"
     bordercolor="#666666"
     borderopacity="1.0"
     inkscape:pageopacity="0.0"
     inkscape:pageshadow="2"
     inkscape:zoom="0.85"
     inkscape:cx="302.81555"
     inkscape:cy="312.49951"
     inkscape:document-units="px"
     inkscape:current-layer="layer1"
     showgrid="false"
     width="600px"
     showguides="true"
     inkscape:guide-bbox="true"
     inkscape:window-width="1591"
     inkscape:window-height="959"
     inkscape:window-x="89"
     inkscape:window-y="51"
     inkscape:window-maximized="0" />
  <metadata
     id="metadata7">
    <rdf:RDF>
      <cc:Work
         rdf:about="">
        <dc:format>image/svg+xml</dc:format>
        <dc:type
           rdf:resource="http://purl.org/dc/dcmitype/StillImage" />
        <dc:title />
      </cc:Work>
    </rdf:RDF>
  </metadata>
  <g
     inkscape:label="Capa 1"
     inkscape:groupmode="layer"
     id="layer1"
     transform="translate(0,-452.36218)">
    <rect
       style="fill:#0084ff;fill-opacity:0.35267861;stroke:none"
       id="rect3935"
       width="600"
       height="600"
       x="0"
       y="452.15421" />
    <path
       style="fill:#ffffff;fill-opacity:1;stroke:#000000;stroke-width:6.12881565;stroke-miterlimit:4;stroke-opacity:1;stroke-dasharray:none"
       d="m 378.13605,508.72223 c -20.11633,0 -37.39564,12.12991 -44.9189,29.48079 -19.81323,0.0598 -35.85981,16.14333 -35.85981,35.97056 0,17.49029 12.47207,32.05028 29.01566,35.28392 5.85652,11.92422 18.11218,20.13377 32.29376,20.13377 8.31462,0 15.96917,-2.83755 22.06076,-7.57508 8.7265,13.4233 23.83911,22.3044 41.04276,22.3044 21.656,0 39.99988,-14.06188 46.4472,-33.55627 4.77108,3.66442 10.75133,5.84743 17.2322,5.84743 15.63081,0 28.30688,-12.67607 28.30688,-28.30688 0,-11.90918 -7.36998,-22.09132 -17.78594,-26.26914 -1.0744,-14.65026 -13.29373,-26.20269 -28.21828,-26.20269 -10.93242,0 -20.40323,6.20874 -25.11737,15.28306 -5.17614,-2.44376 -10.85577,-3.98559 -16.83351,-4.47417 -4.99882,-21.72103 -24.42671,-37.9197 -47.66541,-37.9197 z"
       id="path3806"
       inkscape:connector-curvature="0" />
    <path
       style="fill:#ffffff;fill-opacity:1;stroke:#000000;stroke-width:8.64700031;stroke-miterlimit:4;stroke-opacity:1;stroke-dasharray:none"
       d="m 130.6126,605.64871 c -28.38165,0 -52.760621,17.1138 -63.375,41.59375 -27.954007,0.0843 -50.593751,22.77624 -50.593751,50.75 0,24.67664 17.596542,45.21898 40.937501,49.78125 8.262825,16.82359 25.554036,28.40625 45.5625,28.40625 11.73089,0 22.53052,-4.00343 31.125,-10.6875 12.31201,18.93861 33.63403,31.46875 57.90625,31.46875 30.55393,0 56.43488,-19.83957 65.53125,-47.34375 6.7314,5.17005 15.1688,8.25 24.3125,8.25 22.05314,0 39.9375,-17.88436 39.9375,-39.9375 0,-16.80238 -10.39812,-31.16811 -25.09375,-37.0625 -1.51585,-20.6697 -18.75581,-36.96875 -39.8125,-36.96875 -15.42429,0 -28.78643,8.75976 -35.4375,21.5625 -7.3029,-3.44784 -15.31615,-5.62317 -23.75,-6.3125 -7.05272,-30.64568 -34.46307,-53.5 -67.25,-53.5 z"
       id="path3791"
       inkscape:connector-curvature="0" />
    <path
       sodipodi:type="inkscape:offset"
       inkscape:radius="4.4926276"
       inkscape:original="M 285.875 101.1875 C 222.84956 101.1875 171.75 152.25581 171.75 215.28125 C 170.29124 290.09587 246.84375 296.38349 246.84375 351.75 L 324.90625 351.75 C 329.23829 292.20084 398.63403 272.49399 400 215.28125 C 400 152.25581 348.90044 101.1875 285.875 101.1875 z "
       style="fill:#000000;fill-opacity:1;stroke:none"
       id="path3011"
       d="m 285.875,96.6875 c -65.42075,0 -118.57379,53.08964 -118.625,118.5 -4.3e-4,0.0219 4.1e-4,0.0406 0,0.0625 0,0.0105 0,0.0207 0,0.0312 -0.72353,38.87966 19.30786,60.83371 38.40625,78.8125 9.55727,8.99699 18.89887,17.17229 25.65625,26.1875 6.75738,9.01521 11.03125,18.66241 11.03125,31.46875 a 4.4930769,4.4930769 0 0 0 4.5,4.5 l 78.0625,0 a 4.4930769,4.4930769 0 0 0 4.46875,-4.1875 c 2.04267,-28.07895 19.43317,-46.84695 37.5,-66.375 18.06683,-19.52805 36.89898,-39.90355 37.625,-70.3125 a 4.4930769,4.4930769 0 0 0 0,-0.0937 C 404.5,149.82746 351.3273,96.6875 285.875,96.6875 z"
       transform="translate(0,452.36218)" />
    <path
       sodipodi:type="inkscape:offset"
       inkscape:radius="2.495671"
       inkscape:original="M 262.90625 872.28125 L 262.78125 872.625 L 245.40625 928.28125 L 245.1875 928.9375 L 245.875 928.9375 L 325.875 928.9375 L 326.59375 928.9375 L 326.34375 928.25 L 307.21875 872.59375 L 307.09375 872.28125 L 306.75 872.28125 L 263.28125 872.28125 L 262.90625 872.28125 z M 263.625 873.28125 L 306.40625 873.28125 L 325.1875 927.9375 L 246.5625 927.9375 L 263.625 873.28125 z "
       style="font-size:medium;font-style:normal;font-variant:normal;font-weight:normal;font-stretch:normal;text-indent:0;text-align:start;text-decoration:none;line-height:normal;letter-spacing:normal;word-spacing:normal;text-transform:none;direction:ltr;block-progression:tb;writing-mode:lr-tb;text-anchor:start;baseline-shift:baseline;color:#000000;fill:#000000;fill-opacity:1;fill-rule:nonzero;stroke:none;stroke-width:1;marker:none;visibility:visible;display:inline;overflow:visible;enable-background:accumulate;font-family:Sans;-inkscape-font-specification:Sans"
       id="path3007"
       d="m 262.90625,869.78125 a 2.4959206,2.4959206 0 0 0 -2.34375,1.65625 l -0.125,0.34375 a 2.4959206,2.4959206 0 0 0 -0.0312,0.0937 l -17.375,55.625 0,0.0312 -0.21875,0.625 a 2.4959206,2.4959206 0 0 0 2.375,3.28125 l 0.6875,0 80,0 0.71875,0 a 2.4959206,2.4959206 0 0 0 2.34375,-3.34375 l -0.21875,-0.65625 -0.0312,0 0,-0.0312 -19.09375,-55.625 a 2.4959206,2.4959206 0 0 0 -0.0625,-0.125 l -0.125,-0.3125 a 2.4959206,2.4959206 0 0 0 -2.3125,-1.5625 l -0.34375,0 -43.46875,0 -0.375,0 z m 2.5625,6 39.15625,0 17.0625,49.65625 -71.75,0 15.53125,-49.65625 z"
       transform="matrix(0.7111498,0,0,0.62221305,81.746286,327.76013)" />
    <g
       id="g2997"
       transform="translate(110.64141,25.7886)">
      <path
         transform="translate(0,452.36218)"
         inkscape:connector-curvature="0"
         id="path2993"
         d="m 130.60678,276.39466 34.19017,127.59943"
         style="fill:none;stroke:#000000;stroke-width:1px;stroke-linecap:butt;stroke-linejoin:miter;stroke-opacity:1" />
      <path
         style="fill:none;stroke:#000000;stroke-width:1px;stroke-linecap:butt;stroke-linejoin:miter;stroke-opacity:1"
         d="M 218.86982,728.75684 184.67965,856.35627"
         id="path2995"
         inkscape:connector-curvature="0" />
    </g>
    <path
       style="fill:#007aa3;fill-opacity:1;stroke:none"
       d="m 285.875,101.1875 c -63.02544,0 -114.125,51.06831 -114.125,114.09375 -1.45876,74.81462 75.09375,81.10224 75.09375,136.46875 l 78.0625,0 C 329.23829,292.20084 398.63403,272.49399 400,215.28125 400,152.25581 348.90044,101.1875 285.875,101.1875 z"
       id="path2985"
       inkscape:connector-curvature="0"
       sodipodi:nodetypes="sccccs"
       transform="translate(0,452.36218)" />
    <path
       style="fill:#841800;fill-opacity:1;stroke:none"
       d="m 268.9733,870.80988 30.91955,0 13.60461,34.6275 -56.89199,0 z"
       id="rect2989"
       inkscape:connector-curvature="0"
       sodipodi:nodetypes="ccccc" />
    <path
       style="fill:#2b1100;stroke:none;stroke-width:1px;stroke-linecap:butt;stroke-linejoin:miter;stroke-opacity:1;fill-opacity:0.60176992"
       d="M 267.5 422.59375 L 256.59375 453.0625 L 303.6875 453.0625 C 292.87517 447.49342 272.63145 436.39617 269.75 429.875 C 268.73636 427.58098 268.0196 425.06241 267.5 422.59375 z "
       transform="translate(0,452.36218)"
       id="path3872" />
    <path
       style="font-size:medium;font-style:normal;font-variant:normal;font-weight:normal;font-stretch:normal;text-indent:0;text-align:start;text-decoration:none;line-height:normal;letter-spacing:normal;word-spacing:normal;text-transform:none;direction:ltr;block-progression:tb;writing-mode:lr-tb;text-anchor:start;baseline-shift:baseline;color:#000000;fill:#000000;fill-opacity:1;stroke:none;stroke-width:1px;marker:none;visibility:visible;display:inline;overflow:visible;enable-background:accumulate;font-family:Sans;-inkscape-font-specification:Sans"
       d="M 271.8125 418.4375 L 262.53125 453.0625 L 263.5625 453.0625 L 272.84375 418.4375 L 271.8125 418.4375 z M 282.3125 418.4375 L 273.03125 453.0625 L 274.0625 453.0625 L 283.375 418.4375 L 282.3125 418.4375 z M 292.25 418.4375 L 282.96875 453.0625 L 284 453.0625 L 293.3125 418.4375 L 292.25 418.4375 z M 301.75 423.09375 L 293.71875 453.0625 L 294.75 453.0625 L 302.34375 424.6875 L 301.75 423.09375 z M 307.78125 438.46875 L 303.875 453.0625 L 304.90625 453.0625 L 308.40625 440.0625 L 307.78125 438.46875 z "
       transform="translate(0,452.36218)"
       id="path3838" />
    <path
       style="fill:#006a8c;fill-opacity:1;stroke:none"
       d="M 285.875 101.1875 C 282.32114 101.1875 278.81475 101.36976 275.34375 101.6875 L 275.34375 351.75 L 300.0625 351.75 L 300.0625 102.0625 C 295.41224 101.48586 290.68134 101.1875 285.875 101.1875 z M 255.15625 105.375 C 246.45576 107.79961 238.16712 111.23013 230.4375 115.53125 L 230.4375 312.125 C 239.98601 323.04361 246.84375 335.20381 246.84375 351.75 L 255.15625 351.75 L 255.15625 105.375 z M 320.28125 106.46875 L 320.28125 351.75 L 324.90625 351.75 C 326.30531 332.5182 334.51173 317.46357 345 303.9375 L 345 117.65625 C 337.31207 112.99336 329.01813 109.22698 320.28125 106.46875 z M 210.21875 129.875 C 200.28041 138.68155 191.88219 149.20662 185.5 160.96875 L 185.5 264.59375 C 192.51316 275.2232 201.39284 283.9316 210.21875 292.1875 L 210.21875 129.875 z M 365.1875 133.25 L 365.1875 280.84375 C 374.39428 270.87596 383.37407 260.91353 389.90625 249.65625 L 389.90625 168.3125 C 383.92208 155.08062 375.49493 143.21168 365.1875 133.25 z "
       id="rect3895"
       transform="translate(0,452.36218)" />
    <path
       inkscape:connector-curvature="0"
       id="path3804"
       d="m 434.87181,670.01521 c -20.11633,0 -37.39564,12.12991 -44.9189,29.48079 -19.81323,0.0598 -35.85981,16.14333 -35.85981,35.97056 0,17.49029 12.47207,32.05028 29.01566,35.28392 5.85652,11.92422 18.11218,20.13377 32.29376,20.13377 8.31462,0 15.96917,-2.83755 22.06076,-7.57508 8.7265,13.4233 23.83911,22.3044 41.04276,22.3044 21.656,0 39.99988,-14.06188 46.4472,-33.55627 4.77108,3.66442 10.75133,5.84743 17.2322,5.84743 15.63081,0 28.30688,-12.67607 28.30688,-28.30688 0,-11.90918 -7.36998,-22.09132 -17.78594,-26.26914 -1.0744,-14.65026 -13.29373,-26.20269 -28.21828,-26.20269 -10.93242,0 -20.40323,6.20874 -25.11737,15.28306 -5.17614,-2.44376 -10.85577,-3.98559 -16.83351,-4.47417 -4.99882,-21.72103 -24.42671,-37.9197 -47.66541,-37.9197 z"
       style="fill:#ffffff;fill-opacity:1;stroke:#000000;stroke-width:6.12881565;stroke-miterlimit:4;stroke-opacity:1;stroke-dasharray:none" />
    <path
       inkscape:connector-curvature="0"
       id="path3937"
       d="m 165.64943,470.3923 c -8.78103,0 -16.32367,5.29486 -19.60766,12.86874 -8.64873,0.0261 -15.65326,7.04677 -15.65326,15.7016 0,7.63474 5.44421,13.99036 12.6657,15.40188 2.55644,5.20507 7.90619,8.78864 14.09663,8.78864 3.62943,0 6.97075,-1.23862 9.6298,-3.30661 3.80923,5.85944 10.40607,9.73615 17.91568,9.73615 9.45312,0 17.46046,-6.13819 20.2748,-14.64774 2.08263,1.59957 4.69309,2.55248 7.52207,2.55248 6.82305,0 12.35631,-5.53326 12.35631,-12.35631 0,-5.19851 -3.21709,-9.64314 -7.76379,-11.46681 -0.46899,-6.39503 -5.80288,-11.43781 -12.31763,-11.43781 -4.77214,0 -8.90627,2.7102 -10.96405,6.67125 -2.25946,-1.06673 -4.73868,-1.73976 -7.34804,-1.95303 -2.18205,-9.4815 -10.66257,-16.55243 -20.80656,-16.55243 z"
       style="fill:#ffffff;fill-opacity:0.78571427;stroke:#000000;stroke-width:2.67530560000000017;stroke-miterlimit:4;stroke-opacity:0.13392857000000000;stroke-dasharray:none" />
    <path
       inkscape:connector-curvature="0"
       id="path3939"
       d="m 554.45072,471.01801 c -4.893,0 -9.09593,2.95042 -10.92586,7.17077 -4.81927,0.0145 -8.72236,3.92662 -8.72236,8.74929 0,4.25426 3.03365,7.79576 7.05763,8.58229 1.42451,2.90039 4.40551,4.89724 7.85497,4.89724 2.02241,0 3.88426,-0.69019 5.36595,-1.84252 2.12259,3.26501 5.79851,5.42521 9.98304,5.42521 5.2675,0 9.72937,-3.42034 11.29759,-8.16207 1.16049,0.89132 2.6151,1.42231 4.19147,1.42231 3.80196,0 6.88523,-3.08327 6.88523,-6.88523 0,-2.89673 -1.79264,-5.37338 -4.32617,-6.38957 -0.26133,-3.56346 -3.2335,-6.37342 -6.86367,-6.37342 -2.65915,0 -4.96278,1.51018 -6.10943,3.71738 -1.25902,-0.59441 -2.6405,-0.96944 -4.0945,-1.08828 -1.21588,-5.28331 -5.94143,-9.2234 -11.59389,-9.2234 z"
       style="fill:#ffffff;fill-opacity:0.25892861;stroke:#000000;stroke-width:1.49074268;stroke-miterlimit:4;stroke-opacity:0.13392855;stroke-dasharray:none" />
    <path
       style="fill:#ffffff;fill-opacity:0.25892861;stroke:none"
       d="M 285.875 101.1875 C 222.84956 101.1875 171.75 152.25581 171.75 215.28125 C 171.74199 215.69197 171.75333 216.09339 171.75 216.5 C 190.28054 274.95268 254.76737 318.91044 332.9375 322.71875 C 352.25152 283.78275 398.88276 262.07625 400 215.28125 C 400 152.25581 348.90044 101.1875 285.875 101.1875 z "
       transform="translate(0,452.36218)"
       id="path3945" />
    <text
       xml:space="preserve"
       style="font-size:40px;font-style:normal;font-weight:normal;line-height:125%;letter-spacing:0px;word-spacing:0px;fill:#000000;fill-opacity:1;stroke:none;font-family:Sans"
       x="27.058825"
       y="958.24451"
       id="text3983"
       sodipodi:linespacing="125%"><tspan
         sodipodi:role="line"
         x="27.058825"
         y="958.24451"
         id="tspan3987"
         style="font-size:56px;font-style:normal;font-variant:normal;font-weight:bold;font-stretch:normal;fill:#ffffff;font-family:Purisa;-inkscape-font-specification:Purisa Bold">Deja a</tspan><tspan
         sodipodi:role="line"
         x="27.058825"
         y="1028.2445"
         id="tspan3991"
         style="font-size:56px;font-style:normal;font-variant:normal;font-weight:bold;font-stretch:normal;fill:#ffffff;font-family:Purisa;-inkscape-font-specification:Purisa Bold">tus ideas volar</tspan></text>
  </g>
</svg>
