<?xml version="1.0" encoding="UTF-8" standalone="no"?>
<!-- Created with Inkscape (http://www.inkscape.org/) -->

<svg
   xmlns:dc="http://purl.org/dc/elements/1.1/"
   xmlns:cc="http://creativecommons.org/ns#"
   xmlns:rdf="http://www.w3.org/1999/02/22-rdf-syntax-ns#"
   xmlns:svg="http://www.w3.org/2000/svg"
   xmlns="http://www.w3.org/2000/svg"
   xmlns:sodipodi="http://sodipodi.sourceforge.net/DTD/sodipodi-0.dtd"
   xmlns:inkscape="http://www.inkscape.org/namespaces/inkscape"
   width="1200"
   height="1220"
   id="svg2"
   version="1.1"
   inkscape:version="0.48.3.1 r9886"
   sodipodi:docname="hongo.svg">
  <defs
     id="defs4">
    <filter
       inkscape:collect="always"
       id="filter3840"
       color-interpolation-filters="sRGB">
      <feGaussianBlur
         inkscape:collect="always"
         stdDeviation="12.140458"
         id="feGaussianBlur3842" />
    </filter>
    <filter
       inkscape:collect="always"
       id="filter3852"
       color-interpolation-filters="sRGB">
      <feGaussianBlur
         inkscape:collect="always"
         stdDeviation="4.072778"
         id="feGaussianBlur3854" />
    </filter>
    <filter
       inkscape:collect="always"
       id="filter3884"
       color-interpolation-filters="sRGB">
      <feGaussianBlur
         inkscape:collect="always"
         stdDeviation="2.0819867"
         id="feGaussianBlur3886" />
    </filter>
    <filter
       inkscape:collect="always"
       id="filter3912"
       color-interpolation-filters="sRGB">
      <feGaussianBlur
         inkscape:collect="always"
         stdDeviation="0.36095749"
         id="feGaussianBlur3914" />
    </filter>
    <filter
       inkscape:collect="always"
       id="filter3916"
       color-interpolation-filters="sRGB">
      <feGaussianBlur
         inkscape:collect="always"
         stdDeviation="0.36095749"
         id="feGaussianBlur3918" />
    </filter>
    <filter
       inkscape:collect="always"
       id="filter3920"
       color-interpolation-filters="sRGB">
      <feGaussianBlur
         inkscape:collect="always"
         stdDeviation="0.36095749"
         id="feGaussianBlur3922" />
    </filter>
    <filter
       inkscape:collect="always"
       id="filter3924"
       color-interpolation-filters="sRGB">
      <feGaussianBlur
         inkscape:collect="always"
         stdDeviation="0.36095749"
         id="feGaussianBlur3926" />
    </filter>
    <filter
       inkscape:collect="always"
       id="filter3939"
       x="-0.10357186"
       width="1.2071437"
       y="-0.042232938"
       height="1.0844659"
       color-interpolation-filters="sRGB">
      <feGaussianBlur
         inkscape:collect="always"
         stdDeviation="6.728125"
         id="feGaussianBlur3941" />
    </filter>
    <filter
       inkscape:collect="always"
       id="filter4022"
       color-interpolation-filters="sRGB">
      <feGaussianBlur
         inkscape:collect="always"
         stdDeviation="2.5145046"
         id="feGaussianBlur4024" />
    </filter>
    <filter
       inkscape:collect="always"
       id="filter4038"
       color-interpolation-filters="sRGB">
      <feGaussianBlur
         inkscape:collect="always"
         stdDeviation="0.70347723"
         id="feGaussianBlur4040" />
    </filter>
  </defs>
  <sodipodi:namedview
     id="base"
     pagecolor="#ffffff"
     bordercolor="#666666"
     borderopacity="1.0"
     inkscape:pageopacity="0.0"
     inkscape:pageshadow="2"
     inkscape:zoom="0.42377049"
     inkscape:cx="600"
     inkscape:cy="610"
     inkscape:document-units="px"
     inkscape:current-layer="layer1"
     showgrid="false"
     showguides="true"
     inkscape:guide-bbox="true"
     inkscape:window-width="1366"
     inkscape:window-height="715"
     inkscape:window-x="0"
     inkscape:window-y="27"
     inkscape:window-maximized="1" />
  <metadata
     id="metadata7">
    <rdf:RDF>
      <cc:Work
         rdf:about="">
        <dc:format>image/svg+xml</dc:format>
        <dc:type
           rdf:resource="http://purl.org/dc/dcmitype/StillImage" />
      </cc:Work>
    </rdf:RDF>
  </metadata>
  <g
     inkscape:label="Capa 1"
     inkscape:groupmode="layer"
     id="layer1"
     transform="translate(0,167.63782)">
    <path
       sodipodi:nodetypes="sccsccs"
       inkscape:connector-curvature="0"
       id="path3809"
       d="m 594.11817,250.27504 c -43.70469,0 -79.14201,30.34178 -79.14201,67.80295 52.1049,175.64694 -55.24903,379.35752 -71.56336,546.41542 0,54.11057 67.45835,98.00191 150.70537,98.00191 83.247,0 150.76321,-43.89134 150.76321,-98.00191 -117.23652,-176.03115 -74.28821,-395.05572 -71.62121,-546.41542 0,-37.46117 -35.43733,-67.80295 -79.142,-67.80295 z"
       style="fill:#ffb2c7;fill-opacity:1;stroke:#f18dc1;stroke-width:109.59548187;stroke-linecap:butt;stroke-linejoin:round;stroke-miterlimit:4;stroke-opacity:1;stroke-dasharray:none" />
    <path
       style="fill:#ffb2c7;fill-opacity:1;stroke:#ffb2c7;stroke-width:35;stroke-linecap:butt;stroke-linejoin:round;stroke-miterlimit:4;stroke-opacity:1;stroke-dasharray:none;filter:url(#filter3884)"
       d="m 367.72348,426.48487 c -23.60788,0 -42.75,16.38967 -42.75,36.625 28.14542,94.8789 -29.84377,204.91688 -38.65625,295.15625 0,29.22881 36.43886,52.9375 81.40625,52.9375 44.96739,0 81.4375,-23.70869 81.4375,-52.9375 -63.32744,-95.08643 -40.12813,-213.39654 -38.6875,-295.15625 0,-20.23533 -19.14212,-36.625 -42.75,-36.625 z"
       id="path2993"
       inkscape:connector-curvature="0"
       sodipodi:nodetypes="sccsccs"
       transform="matrix(1.851275,0,0,1.851275,-86.639156,-539.26578)" />
    <path
       sodipodi:nodetypes="cc"
       inkscape:connector-curvature="0"
       id="path3890"
       d="m 395.10266,478.55321 c -12.48449,39.60953 -12.26341,60.40703 -4.63011,85.98779"
       style="opacity:0.8030888;fill:none;stroke:#b90088;stroke-width:1px;stroke-linecap:butt;stroke-linejoin:miter;stroke-opacity:1;filter:url(#filter3924)"
       transform="matrix(1.851275,0,0,1.851275,-86.639156,-539.26578)" />
    <path
       style="opacity:0.8030888;fill:none;stroke:#b90088;stroke-width:1px;stroke-linecap:butt;stroke-linejoin:miter;stroke-opacity:1;filter:url(#filter3920)"
       d="m 405.02433,485.8291 c -12.48449,39.60953 -10.94052,73.63592 2.64578,99.21668"
       id="path3888"
       inkscape:connector-curvature="0"
       sodipodi:nodetypes="cc"
       transform="matrix(1.851275,0,0,1.851275,-86.639156,-539.26578)" />
    <path
       style="opacity:0.4;fill:#ff44c7;fill-opacity:1;stroke:none;filter:url(#filter3939)"
       d="m 326.14132,449.20674 c -16.13838,5.23435 -27.625,18.58268 -27.625,34.25 28.14542,94.8789 -29.84377,204.91688 -38.65625,295.15625 0,29.22881 36.43886,52.9375 81.40625,52.9375 33.27271,0 61.86378,-12.97002 74.5,-31.5625 -13.81553,7.01595 -31.20881,11.21875 -50.09375,11.21875 -44.96739,0 -81.40625,-23.70869 -81.40625,-52.9375 8.81248,-90.23937 66.80167,-200.27735 38.65625,-295.15625 0,-4.9275 1.16052,-9.61595 3.21875,-13.90625 z"
       id="path3835"
       inkscape:connector-curvature="0"
       transform="matrix(1.851275,0,0,1.851275,-86.639156,-539.26578)" />
    <path
       sodipodi:nodetypes="cc"
       inkscape:connector-curvature="0"
       id="path3892"
       d="m 330.25205,482.52187 c 12.48449,39.60953 10.94052,73.63592 -2.64578,99.21668"
       style="opacity:0.8030888;fill:none;stroke:#b90088;stroke-width:1px;stroke-linecap:butt;stroke-linejoin:miter;stroke-opacity:1;filter:url(#filter3912)"
       transform="matrix(1.851275,0,0,1.851275,-86.639156,-539.26578)" />
    <path
       style="opacity:0.8030888;fill:none;stroke:#b90088;stroke-width:1px;stroke-linecap:butt;stroke-linejoin:miter;stroke-opacity:1;filter:url(#filter3916)"
       d="m 340.17372,475.24598 c 12.48449,39.60953 12.26341,60.40703 4.63011,85.98779"
       id="path3894"
       inkscape:connector-curvature="0"
       sodipodi:nodetypes="cc"
       transform="matrix(1.851275,0,0,1.851275,-86.639156,-539.26578)" />
    <path
       inkscape:connector-curvature="0"
       id="path3811"
       d="m 987.57666,231.84959 c -0.085,-2.05997 -0.099,-4.13989 -0.2314,-6.19021 -0.3663,-5.65203 -0.8962,-11.26113 -1.6199,-16.83502 -0.7237,-5.5739 -1.589,-11.11484 -2.6612,-16.60363 -1.0722,-5.48878 -2.3486,-10.9176 -3.7604,-16.31436 -1.4118,-5.39676 -3.0013,-10.78518 -4.7439,-16.08295 -1.74249,-5.29778 -3.60509,-10.54399 -5.66949,-15.73584 -2.0644,-5.19185 -4.3335,-10.30973 -6.7109,-15.38873 -2.3774,-5.07898 -4.8971,-10.08245 -7.5787,-15.04161 -2.6815,-4.95915 -5.5275,-9.86209 -8.5042,-14.694483 -2.9768,-4.83242 -6.0512,-9.59084 -9.3143,-14.28953 C 930.25605,75.275822 923.16889,66.129962 915.55048,57.30906 907.93208,48.488157 899.77632,39.985019 891.1368,31.796175 882.49727,23.607344 873.36225,15.75149 863.77264,8.2502739 c -9.58963,-7.50122703 -19.67239,-14.64734 -30.14107,-21.4053729 -10.46869,-6.75802 -21.35203,-13.131995 -32.62873,-19.091266 -11.27671,-5.959271 -22.9291,-11.498664 -34.94282,-16.603629 -12.01371,-5.104965 -24.40368,-9.805166 -37.08335,-14.000266 -12.67968,-4.1951 -25.66001,-7.87799 -38.93463,-11.10765 -13.27462,-3.22966 -26.81381,-6.00635 -40.61236,-8.21503 -13.79853,-2.20869 -27.86509,-3.8432 -42.1165,-4.9753 -14.25142,-1.13211 -28.69815,-1.73558 -43.33141,-1.73558 -14.63325,0 -29.07999,0.60347 -43.33141,1.73558 -14.25141,1.1321 -28.31797,2.76661 -42.11649,4.9753 -13.79856,2.20868 -27.33774,4.98537 -40.61236,8.21503 -13.27462,3.22966 -26.25495,6.91255 -38.93463,11.10765 -12.67968,4.1951 -25.06964,8.895301 -37.08336,14.000266 -12.01371,5.104965 -23.6661,10.644358 -34.94281,16.603629 -11.2767,5.959271 -22.16005,12.333246 -32.62873,19.091266 C 283.8633,-6.3970661 273.83839,0.74904687 264.24876,8.2502739 254.65913,15.75149 245.52413,23.607344 236.8846,31.796175 c -8.63953,8.188844 -16.79528,16.691982 -24.41369,25.512885 -7.61841,8.820902 -14.70557,17.966762 -21.23181,27.364167 -3.26312,4.69869 -6.39532,9.45711 -9.37208,14.28953 -2.97675,4.832393 -5.82275,9.735333 -8.50429,14.694483 -2.68154,4.95916 -5.20125,9.96263 -7.57865,15.04161 -2.37742,5.079 -4.58861,10.19688 -6.65302,15.38873 -2.06442,5.19185 -3.98483,10.43806 -5.72739,15.73584 -1.74255,5.29777 -3.33209,10.68619 -4.74389,16.08295 -1.41181,5.39676 -2.63039,10.82558 -3.70255,16.31436 -1.07216,5.48879 -1.9954,11.02973 -2.71905,16.60363 -0.72368,5.57389 -1.2536,11.18299 -1.61987,16.83502 -0.13293,2.05032 -0.14644,4.13024 -0.23142,6.19021 73.27996,90.86864 235.31793,154.0608 423.59488,154.0608 188.27695,0 350.31492,-63.19216 423.59489,-154.0608 z"
       style="fill:#2b0000;fill-opacity:1;stroke:#2b0000;stroke-width:129.58926392;stroke-linecap:butt;stroke-linejoin:round;stroke-miterlimit:4;stroke-opacity:1;stroke-dasharray:none" />
    <path
       style="fill:#c31893;fill-opacity:1;stroke:#c31893;stroke-width:47.42670822;stroke-linecap:butt;stroke-linejoin:round;stroke-miterlimit:4;stroke-opacity:1;stroke-dasharray:none;filter:url(#filter3852)"
       d="m 580.25726,416.53203 c -0.0459,-1.11273 -0.0532,-2.23624 -0.125,-3.34375 -0.19785,-3.05305 -0.4841,-6.08291 -0.875,-9.09375 -0.3909,-3.01084 -0.85835,-6.00388 -1.4375,-8.96875 -0.57915,-2.96487 -1.26864,-5.89734 -2.03125,-8.8125 -0.76261,-2.91516 -1.62123,-5.82581 -2.5625,-8.6875 -0.94127,-2.86169 -1.94737,-5.69553 -3.0625,-8.5 -1.11513,-2.80447 -2.3408,-5.56899 -3.625,-8.3125 -1.2842,-2.74351 -2.64527,-5.44622 -4.09375,-8.125 -1.44848,-2.67878 -2.9858,-5.32719 -4.59375,-7.9375 -1.60795,-2.61031 -3.26862,-5.18066 -5.03125,-7.71875 -3.52527,-5.07618 -7.35353,-10.01648 -11.46875,-14.78125 -4.11522,-4.76477 -8.5207,-9.3579 -13.1875,-13.78125 -4.6668,-4.42335 -9.60124,-8.66683 -14.78125,-12.71875 -5.18001,-4.05192 -10.6264,-7.91203 -16.28125,-11.5625 -5.65485,-3.65047 -11.53368,-7.09349 -17.625,-10.3125 -6.09132,-3.21901 -12.38557,-6.21121 -18.875,-8.96875 -6.48943,-2.75754 -13.18209,-5.29644 -20.03125,-7.5625 -6.84916,-2.26606 -13.86072,-4.25544 -21.03125,-6 -7.17053,-1.74456 -14.48397,-3.24444 -21.9375,-4.4375 -7.45353,-1.19306 -15.05184,-2.07597 -22.75,-2.6875 -7.69816,-0.61153 -15.50183,-0.9375 -23.40625,-0.9375 -7.90442,0 -15.70809,0.32597 -23.40625,0.9375 -7.69816,0.61153 -15.29647,1.49444 -22.75,2.6875 -7.45353,1.19306 -14.76697,2.69294 -21.9375,4.4375 -7.17053,1.74456 -14.18209,3.73394 -21.03125,6 -6.84916,2.26606 -13.54182,4.80496 -20.03125,7.5625 -6.48943,2.75754 -12.78368,5.74974 -18.875,8.96875 -6.09132,3.21901 -11.97015,6.66203 -17.625,10.3125 -5.65485,3.65047 -11.06999,7.51058 -16.25,11.5625 -5.18001,4.05192 -10.11445,8.2954 -14.78125,12.71875 -4.6668,4.42335 -9.07228,9.01648 -13.1875,13.78125 -4.11522,4.76477 -7.94348,9.70507 -11.46875,14.78125 -1.76263,2.53809 -3.45455,5.10844 -5.0625,7.71875 -1.60795,2.61031 -3.14527,5.25872 -4.59375,7.9375 -1.44848,2.67878 -2.80955,5.38149 -4.09375,8.125 -1.2842,2.74351 -2.47862,5.50803 -3.59375,8.3125 -1.11513,2.80447 -2.15248,5.63831 -3.09375,8.5 -0.94127,2.86169 -1.79989,5.77234 -2.5625,8.6875 -0.76261,2.91516 -1.42085,5.84763 -2,8.8125 -0.57915,2.96487 -1.07785,5.95791 -1.46875,8.96875 -0.3909,3.01084 -0.67715,6.0407 -0.875,9.09375 -0.0718,1.10751 -0.0791,2.23102 -0.125,3.34375 39.58351,49.08435 127.11127,83.21875 228.8125,83.21875 101.70123,0 189.22899,-34.1344 228.8125,-83.21875 z"
       id="path2991"
       inkscape:connector-curvature="0"
       transform="matrix(1.851275,0,0,1.851275,-86.639156,-539.26578)" />
    <path
       style="opacity:0.5682625;fill:#391858;fill-opacity:1;stroke:none;filter:url(#filter3840)"
       d="m 251.15552,230.17903 c -0.8307,0.2913 -1.66034,0.58211 -2.48682,0.88122 -7.67667,2.77832 -15.17793,5.89114 -22.4514,9.27203 -7.27348,3.38088 -14.32819,7.04948 -21.15546,10.99615 -6.82727,3.94668 -13.41637,8.16799 -19.75444,12.64367 -6.33806,4.47566 -12.40745,9.20835 -18.2133,14.17622 -5.80586,4.96787 -11.33647,10.1706 -16.56711,15.59386 -5.23064,5.42326 -10.16838,11.05467 -14.7808,16.89652 -4.61242,5.84187 -8.9032,11.89893 -12.85439,18.12259 -1.97559,3.11184 -3.87193,6.26322 -5.67415,9.4636 -1.80222,3.20037 -3.52528,6.44746 -5.14876,9.73178 -1.62349,3.28433 -3.149,6.59799 -4.58835,9.96168 -1.43936,3.36369 -2.77809,6.75313 -4.02795,10.19156 -1.24986,3.43842 -2.41254,6.91286 -3.467531,10.42143 -1.055,3.5086 -2.01735,7.0772 -2.8721,10.65135 -0.85474,3.57413 -1.592513,7.1695 -2.241635,10.80458 -0.649119,3.63509 -1.208072,7.3047 -1.6462,10.99616 -0.438128,3.69145 -0.758962,7.40621 -0.980716,11.14941 -0.08048,1.35787 -0.08866,2.73535 -0.140106,4.09961 44.365948,60.17998 142.468718,102.03053 256.457388,102.03053 76.56536,0 145.97857,-18.90469 196.73876,-49.54017 -42.19324,15.59202 -91.52358,24.55937 -144.27042,24.55937 -113.98867,0 -212.09144,-41.85057 -256.45739,-102.03055 0.0514,-1.36426 0.0596,-2.74175 0.1401,-4.0996 0.22176,-3.74321 0.54259,-7.45797 0.98072,-11.14942 0.43813,-3.69145 0.99708,-7.36107 1.6462,-10.99616 0.64912,-3.63509 1.38689,-7.23045 2.24164,-10.80458 0.85475,-3.57413 1.8171,-7.14275 2.8721,-10.65133 1.05499,-3.50858 2.21767,-6.98302 3.46753,-10.42145 1.24986,-3.43843 2.58859,-6.82786 4.02794,-10.19156 1.43936,-3.36368 2.96487,-6.67735 4.58836,-9.96168 1.62348,-3.28431 3.34654,-6.5314 5.14876,-9.73178 1.80222,-3.20037 3.69856,-6.35175 5.67415,-9.46359 3.95118,-6.22367 8.24197,-12.28074 12.85439,-18.12259 4.61241,-5.84185 9.55016,-11.47326 14.7808,-16.89652 5.23064,-5.42327 10.76125,-10.62599 16.5671,-15.59387 5.80586,-4.96786 11.87525,-9.70056 18.21331,-14.17621 4.34119,-3.06557 8.80719,-5.99187 13.37978,-8.81226 z"
       id="path3819"
       inkscape:connector-curvature="0"
       transform="matrix(1.851275,0,0,1.851275,-86.639156,-539.26578)" />
    <path
       style="opacity:0.5;fill:#000000;fill-opacity:1;stroke:#000000;stroke-width:64.79463196;stroke-linecap:butt;stroke-linejoin:round;stroke-miterlimit:4;stroke-opacity:1;stroke-dasharray:none"
       d="m 622.69309,36.596602 c 0.1017,1.241824 0.12348,2.479561 0.34712,3.702558 0.40524,2.216877 1.00282,4.448717 1.79341,6.595169 0.79062,2.146441 1.73657,4.240951 2.89263,6.305902 1.15606,2.064949 2.49015,4.102086 3.9918,6.074491 3.00332,3.944798 6.6678,7.65719 10.9341,11.16551 4.2663,3.50831 9.15077,6.7936 14.52095,9.77704 5.37017,2.983435 11.27215,5.671315 17.58711,8.041485 6.31496,2.37016 13.03199,4.40599 20.13261,6.07448 7.10062,1.66851 14.54596,2.99767 22.27315,3.87612 7.72719,0.87844 15.75624,1.3306 23.95089,1.3306 8.19462,0 16.16583,-0.45216 23.89301,-1.3306 7.72718,-0.87845 15.17253,-2.20761 22.27315,-3.87612 7.10062,-1.66849 13.8755,-3.70432 20.19046,-6.07448 6.31496,-2.37017 12.21695,-5.05805 17.58711,-8.041485 5.37019,-2.98344 10.1968,-6.26873 14.4631,-9.77704 2.01032,-1.65314 3.40964,-3.50932 5.14886,-5.26457 -14.07549,-25.675418 -66.81726,-44.777715 -129.93637,-44.777715 -35.75232,0 -68.04412,6.222485 -92.04309,16.198655 z"
       id="path3000"
       inkscape:connector-curvature="0" />
    <path
       inkscape:connector-curvature="0"
       id="path3007"
       d="m 281.33569,102.39603 c -0.07,0.67112 -0.1692,1.33016 -0.19256,2.00649 -0.0424,1.22591 -0.0148,2.48372 0.0907,3.72025 0.10593,1.23654 0.2737,2.46487 0.5216,3.70363 0.24791,1.23881 0.56395,2.48499 0.94745,3.71771 0.767,2.46541 1.79823,4.88988 3.06928,7.281 1.27105,2.39113 2.78963,4.7409 4.51366,6.99105 1.72405,2.25014 3.67002,4.40974 5.79595,6.45224 2.12594,2.04251 4.42928,3.95778 6.90604,5.72596 2.47676,1.7682 5.11016,3.39937 7.88666,4.82658 2.7765,1.42726 5.70136,2.66599 8.72653,3.68559 3.02515,1.01958 6.00698,1.77163 8.93567,2.26725 2.92868,0.49563 5.79237,0.7172 8.55819,0.71595 2.7658,-0.001 5.44319,-0.23782 7.97975,-0.70889 2.53657,-0.47108 4.94819,-1.16199 7.18908,-2.0758 2.24092,-0.91382 4.30731,-2.05532 6.18616,-3.3848 0.88533,-0.62645 1.5627,-1.43659 2.35678,-2.15095 -2.97206,-15.36579 -20.78769,-32.0571 -44.08892,-39.9105 -13.19844,-4.44836 -25.6584,-5.16667 -35.38209,-2.86276 z"
       style="opacity:0.5;fill:#000000;fill-opacity:1;stroke:#000000;stroke-width:29.44615173;stroke-linecap:butt;stroke-linejoin:round;stroke-miterlimit:4;stroke-opacity:1;stroke-dasharray:none" />
    <path
       style="opacity:0.5;fill:#000000;fill-opacity:1;stroke:#000000;stroke-width:52.65547943;stroke-linecap:butt;stroke-linejoin:round;stroke-miterlimit:4;stroke-opacity:1;stroke-dasharray:none"
       d="m 349.63343,235.5851 c -0.12571,1.19459 -0.30397,2.36769 -0.34594,3.57155 -0.076,2.18211 -0.0266,4.42102 0.16291,6.62203 0.19024,2.20104 0.4917,4.38744 0.93705,6.59249 0.44534,2.20504 1.01307,4.42326 1.70202,6.61748 1.37786,4.38846 3.23037,8.70401 5.51377,12.96019 2.28334,4.25621 5.01137,8.43879 8.10847,12.44404 3.09711,4.00524 6.5929,7.84935 10.41199,11.48501 3.81912,3.63568 7.95692,7.04482 12.40621,10.19221 4.44934,3.1474 9.18007,6.05085 14.16786,8.59132 4.98777,2.54049 10.24208,4.74545 15.67659,6.56031 5.43446,1.81488 10.79112,3.15351 16.05231,4.03572 5.26118,0.88221 10.40558,1.27662 15.37419,1.27438 4.96858,-0.002 9.77831,-0.42331 14.33507,-1.26183 4.55675,-0.83851 8.88906,-2.06833 12.91467,-3.69492 4.02565,-1.62659 7.73777,-3.65847 11.11301,-6.02493 1.59042,-1.11507 2.80727,-2.55713 4.23379,-3.82869 -5.33911,-27.3511 -37.34362,-57.06161 -79.20267,-71.04066 -23.71007,-7.91807 -46.09351,-9.19667 -63.56143,-5.0957 z"
       id="path3009"
       inkscape:connector-curvature="0" />
    <path
       style="opacity:0.5;fill:#000000;fill-opacity:1;stroke:#000000;stroke-width:52.65547943;stroke-linecap:butt;stroke-linejoin:round;stroke-miterlimit:4;stroke-opacity:1;stroke-dasharray:none"
       d="m 309.32139,-40.362375 c -0.39314,0.206255 -0.82266,0.371255 -1.2149,0.578525 -11.27672,5.959271 -22.16004,12.333246 -32.62872,19.091267 -10.28184,6.637403 -20.12883,13.6455279 -29.56255,21.00039987 3.42714,1.53469303 6.80177,3.19067803 10.41341,4.39677403 5.43448,1.81488 10.82176,3.109613 16.08297,3.991815 5.26116,0.882213 10.36224,1.274998 15.33086,1.272755 4.96859,-0.0012 9.79062,-0.376381 14.34739,-1.214896 4.55674,-0.838515 8.87548,-2.07597 12.90106,-3.702558 4.02566,-1.626601 7.7324,-3.650167 11.10765,-6.01664503 1.59042,-1.11507597 2.85456,-2.60454397 4.28107,-3.87609297 -2.32884,-11.9301389 -9.97794,-24.1947439 -21.05824,-35.5213439 z"
       id="path3011"
       inkscape:connector-curvature="0" />
    <path
       style="opacity:0.5;fill:#000000;fill-opacity:1;stroke:#000000;stroke-width:64.79463196;stroke-linecap:butt;stroke-linejoin:round;stroke-miterlimit:4;stroke-opacity:1;stroke-dasharray:none"
       d="m 799.65132,356.60485 c 4.58136,-1.33758 9.27784,-2.57158 13.76886,-3.9918 9.58446,-3.03095 18.96571,-6.26678 28.11624,-9.66135 9.15052,-3.39457 18.04174,-6.96182 26.72778,-10.70269 6.74578,-2.90524 13.22053,-6.03586 19.6698,-9.14066 -12.66524,-9.97578 -27.04499,-19.57139 -43.2157,-28.11624 -31.61047,-16.70347 -63.09731,-26.30293 -88.97692,-28.69476 -0.49031,1.14543 -1.01479,2.28536 -1.38845,3.47113 -0.67742,2.14941 -1.20037,4.38588 -1.50417,6.65303 -0.30382,2.26716 -0.46236,4.57644 -0.40497,6.94227 0.0574,2.36586 0.28804,4.78607 0.69424,7.23155 0.81237,4.89094 2.32164,9.88865 4.45463,14.98375 2.13296,5.09508 4.9187,10.24196 8.27288,15.38873 3.35419,5.14675 7.32585,10.28493 11.80188,15.33086 4.47605,5.04595 9.4274,10.01762 14.9259,14.81021 2.17642,1.89702 4.73661,3.65044 7.058,5.49597 z"
       id="path3020"
       inkscape:connector-curvature="0" />
    <path
       sodipodi:nodetypes="cccccccccccccc"
       inkscape:connector-curvature="0"
       id="path3973"
       d="M 664.57661,1022.6513 C 627.31804,921.19348 500.33622,973.75768 424.58229,809.58 c 108.58582,69.25051 116.28281,42.4335 279.6179,151.41743 -57.95934,-47.03287 -93.86726,-142.46351 -86.96827,-174.52909 15.11603,37.08533 76.02206,144.40754 116.67755,132.96767 -62.82044,-59.85384 -27.86706,-100.0753 -123.60442,-288.82307 138.03306,97.47667 130.0176,155.24241 142.00164,235.51485 32.16703,-174.94854 143.14301,-159.66872 249.36861,-155.85543 -134.26224,54.76016 -209.59563,117.30337 -204.34374,190.49 28.78382,-28.84609 58.99087,-55.5155 131.61122,-17.31731 -72.99633,-23.91819 -81.27227,19.4728 -90.04973,62.3422 147.35151,-83.95224 160.63121,18.06637 235.51485,34.63443 -87.42934,-1.4844 -200.61794,-23.10078 -203.91006,42.22962 z"
       style="fill:#17280b;fill-opacity:1;stroke:#17280b;stroke-width:9.62662983;stroke-linecap:butt;stroke-linejoin:round;stroke-miterlimit:4;stroke-opacity:1;stroke-dasharray:none" />
    <path
       style="fill:#557c15;fill-opacity:1;stroke:none;filter:url(#filter4038)"
       d="m 405.7829,843.69799 c -20.1259,-54.80428 -88.71745,-26.4108 -129.63731,-115.09435 58.65461,37.40693 62.81228,22.92123 151.04071,81.79089 -31.3078,-25.40568 -50.70412,-76.95426 -46.9775,-94.27507 8.1652,20.03231 41.0647,78.00435 63.0255,71.8249 -33.9336,-32.33113 -15.0529,-54.05749 -66.76717,-156.01304 74.56107,52.65381 70.23137,83.85702 76.70477,127.21764 17.3756,-94.50164 77.3213,-86.24797 134.701,-84.18815 -72.5242,29.5797 -113.2169,63.36356 -110.38,102.89662 15.5481,-15.58171 31.865,-29.98768 71.0922,-9.35423 -39.4303,-12.91985 -43.9007,10.51856 -48.642,33.67525 79.5946,-45.34831 86.7679,9.75888 127.2176,18.70844 -47.2265,-0.8018 -108.3674,-12.47829 -110.1457,22.8111 z"
       id="path3947"
       inkscape:connector-curvature="0"
       sodipodi:nodetypes="cccccccccccccc"
       transform="matrix(1.851275,0,0,1.851275,-86.639156,-539.26578)" />
    <path
       style="opacity:0.54826253;fill:#004117;fill-opacity:1;stroke:none;filter:url(#filter4022)"
       d="m 376.52032,631.88303 c 41.49263,81.80341 36.77943,127.35893 63.39719,154.0891 3.78592,2.14883 3.84899,3.55285 14.56493,4.56258 -36.72464,-34.38341 -18.82415,-80.50083 -74.49337,-156.15168 -1.15626,-0.83406 -2.27223,-1.65503 -3.46875,-2.5 z m 193.71343,40.2479 c -102.95144,-7.89346 -118.68538,59.80548 -116.29582,85.81003 8.92519,-32.42821 21.59191,-82.1111 116.29582,-85.81003 z m -190.85162,41.87803 c -2.49401,33.969 22.5592,71.40295 42.86118,92.85147 3.57192,3.33401 14.72558,7.23803 24.96892,10.15641 -25.18779,-20.08488 -71.28304,-73.71581 -67.8301,-103.00788 z m -100.26806,20.56157 c 41.18604,81.3758 107.06304,55.56984 126.71875,109.09375 l 11.25,0 C 395.36786,787.09725 326.53258,809.77049 279.11407,734.57053 z m 247.46641,23.6875 c -28.35376,-7.12307 -42.89927,12.09064 -46.64927,13.56238 -0.4189,2.84091 -6.02171,11.01742 -5.79671,14.09815 4.1031,-4.04068 21.04443,-26.57017 52.44598,-27.66053 z m 39.04009,27.49329 c -24.50412,-6.28102 -59.22922,7.57754 -69.00612,19.34144 30.50387,-7.48884 23.86547,-19.01293 69.00612,-19.34144 z"
       id="path3968"
       inkscape:connector-curvature="0"
       sodipodi:nodetypes="ccccccccccccccccccccccc"
       transform="matrix(1.851275,0,0,1.851275,-86.639156,-539.26578)" />
  </g>
</svg>
