<?xml version="1.0" encoding="UTF-8" standalone="no"?>
<!-- Created with Inkscape (http://www.inkscape.org/) -->

<svg
   xmlns:dc="http://purl.org/dc/elements/1.1/"
   xmlns:cc="http://creativecommons.org/ns#"
   xmlns:rdf="http://www.w3.org/1999/02/22-rdf-syntax-ns#"
   xmlns:svg="http://www.w3.org/2000/svg"
   xmlns="http://www.w3.org/2000/svg"
   xmlns:xlink="http://www.w3.org/1999/xlink"
   xmlns:sodipodi="http://sodipodi.sourceforge.net/DTD/sodipodi-0.dtd"
   xmlns:inkscape="http://www.inkscape.org/namespaces/inkscape"
   width="210mm"
   height="297mm"
   id="svg2"
   version="1.1"
   inkscape:version="0.48.4 r9939"
   sodipodi:docname="nave_espacial.svg"
   inkscape:export-filename="/home/rafa/Imágenes/nave_espacial2.png"
   inkscape:export-xdpi="90"
   inkscape:export-ydpi="90">
  <defs
     id="defs4">
    <linearGradient
       id="linearGradient3834">
      <stop
         style="stop-color:#c2f6eb;stop-opacity:1;"
         offset="0"
         id="stop3836" />
      <stop
         style="stop-color:#ffaaaa;stop-opacity:0;"
         offset="1"
         id="stop3838" />
    </linearGradient>
    <inkscape:path-effect
       effect="skeletal"
       id="path-effect4017"
       is_visible="true"
       pattern="M 0,5 10,10 10,0 z"
       copytype="single_stretched"
       prop_scale="1"
       scale_y_rel="false"
       spacing="0"
       normal_offset="0"
       tang_offset="0"
       prop_units="false"
       vertical_pattern="false"
       fuse_tolerance="0" />
    <inkscape:path-effect
       effect="spiro"
       id="path-effect4015"
       is_visible="true" />
    <linearGradient
       inkscape:collect="always"
       id="linearGradient3999">
      <stop
         style="stop-color:#009f69;stop-opacity:1"
         offset="0"
         id="stop4001" />
      <stop
         style="stop-color:#00b98c;stop-opacity:0;"
         offset="1"
         id="stop4003" />
    </linearGradient>
    <linearGradient
       inkscape:collect="always"
       id="linearGradient3963">
      <stop
         style="stop-color:#ffffff;stop-opacity:1;"
         offset="0"
         id="stop3965" />
      <stop
         style="stop-color:#ffffff;stop-opacity:0;"
         offset="1"
         id="stop3967" />
    </linearGradient>
    <linearGradient
       inkscape:collect="always"
       id="linearGradient3951">
      <stop
         style="stop-color:#ffffff;stop-opacity:1;"
         offset="0"
         id="stop3953" />
      <stop
         style="stop-color:#ffffff;stop-opacity:0;"
         offset="1"
         id="stop3955" />
    </linearGradient>
    <linearGradient
       inkscape:collect="always"
       id="linearGradient3903">
      <stop
         style="stop-color:#ffffff;stop-opacity:1;"
         offset="0"
         id="stop3905" />
      <stop
         style="stop-color:#ffffff;stop-opacity:0;"
         offset="1"
         id="stop3907" />
    </linearGradient>
    <linearGradient
       inkscape:collect="always"
       id="linearGradient3872">
      <stop
         style="stop-color:#ffffff;stop-opacity:1;"
         offset="0"
         id="stop3874" />
      <stop
         style="stop-color:#ffffff;stop-opacity:0;"
         offset="1"
         id="stop3876" />
    </linearGradient>
    <linearGradient
       inkscape:collect="always"
       id="linearGradient3864">
      <stop
         style="stop-color:#000080;stop-opacity:1;"
         offset="0"
         id="stop3866" />
      <stop
         style="stop-color:#000080;stop-opacity:0;"
         offset="1"
         id="stop3868" />
    </linearGradient>
    <linearGradient
       inkscape:collect="always"
       id="linearGradient3856">
      <stop
         style="stop-color:#000080;stop-opacity:1;"
         offset="0"
         id="stop3858" />
      <stop
         style="stop-color:#000080;stop-opacity:0;"
         offset="1"
         id="stop3860" />
    </linearGradient>
    <linearGradient
       inkscape:collect="always"
       xlink:href="#linearGradient3856"
       id="linearGradient3862"
       x1="461.2757"
       y1="778.3656"
       x2="461.2757"
       y2="-56.752598"
       gradientUnits="userSpaceOnUse"
       gradientTransform="matrix(0.99491105,-0.10075719,0.10075719,0.99491105,-44.001225,48.19781)" />
    <linearGradient
       inkscape:collect="always"
       xlink:href="#linearGradient3864"
       id="linearGradient3870"
       x1="223.13177"
       y1="902.64203"
       x2="223.13177"
       y2="653.85944"
       gradientUnits="userSpaceOnUse"
       gradientTransform="matrix(0.99491105,-0.10075719,0.10075719,0.99491105,-44.001225,48.19781)" />
    <linearGradient
       inkscape:collect="always"
       xlink:href="#linearGradient3872"
       id="linearGradient3878"
       x1="147.83165"
       y1="585.11224"
       x2="147.83165"
       y2="738.28339"
       gradientUnits="userSpaceOnUse"
       gradientTransform="matrix(0.99491105,-0.10075719,0.10075719,0.99491105,-44.001225,48.19781)" />
    <linearGradient
       inkscape:collect="always"
       xlink:href="#linearGradient3903"
       id="linearGradient3909"
       x1="382.68903"
       y1="599.57239"
       x2="382.68903"
       y2="750.21313"
       gradientUnits="userSpaceOnUse"
       gradientTransform="matrix(0.99491105,-0.10075719,0.13055957,1.2891899,-63.257816,-141.94837)" />
    <linearGradient
       inkscape:collect="always"
       xlink:href="#linearGradient3864"
       id="linearGradient3921"
       gradientUnits="userSpaceOnUse"
       x1="461.2757"
       y1="778.3656"
       x2="461.2757"
       y2="287.06253"
       gradientTransform="matrix(0.99491105,-0.10075719,0.10075719,0.99491105,-44.001225,48.19781)" />
    <linearGradient
       inkscape:collect="always"
       xlink:href="#linearGradient3951"
       id="linearGradient3957"
       x1="462.17929"
       y1="766.11987"
       x2="462.17929"
       y2="42.786343"
       gradientUnits="userSpaceOnUse"
       gradientTransform="matrix(0.99491105,-0.10075719,0.10075719,0.99491105,-44.001225,48.19781)" />
    <linearGradient
       inkscape:collect="always"
       xlink:href="#linearGradient3963"
       id="linearGradient3969"
       x1="303.93091"
       y1="761.5556"
       x2="316.42795"
       y2="-42.473522"
       gradientUnits="userSpaceOnUse"
       gradientTransform="matrix(0.99491105,-0.10075719,0.10075719,0.99491105,-23.980507,23.665048)" />
    <linearGradient
       inkscape:collect="always"
       xlink:href="#linearGradient3999"
       id="linearGradient4005"
       x1="333.82477"
       y1="-27.479538"
       x2="319.57611"
       y2="860.0058"
       gradientUnits="userSpaceOnUse"
       spreadMethod="pad" />
    <linearGradient
       inkscape:collect="always"
       xlink:href="#linearGradient3834"
       id="linearGradient3840"
       x1="-260.095"
       y1="440.57964"
       x2="-50.340973"
       y2="440.57964"
       gradientUnits="userSpaceOnUse" />
  </defs>
  <sodipodi:namedview
     id="base"
     pagecolor="#ffffff"
     bordercolor="#666666"
     borderopacity="1.0"
     inkscape:pageopacity="0.0"
     inkscape:pageshadow="2"
     inkscape:zoom="0.71512336"
     inkscape:cx="109.85471"
     inkscape:cy="526.18109"
     inkscape:document-units="px"
     inkscape:current-layer="layer1"
     showgrid="false"
     showguides="true"
     inkscape:guide-bbox="true"
     inkscape:window-width="1366"
     inkscape:window-height="709"
     inkscape:window-x="0"
     inkscape:window-y="27"
     inkscape:window-maximized="1" />
  <metadata
     id="metadata7">
    <rdf:RDF>
      <cc:Work
         rdf:about="">
        <dc:format>image/svg+xml</dc:format>
        <dc:type
           rdf:resource="http://purl.org/dc/dcmitype/StillImage" />
        <dc:title />
      </cc:Work>
    </rdf:RDF>
  </metadata>
  <g
     inkscape:label="Capa 1"
     inkscape:groupmode="layer"
     id="layer1">
    <rect
       ry="0"
       y="-12.2131"
       x="-18.319651"
       height="1076.7883"
       width="777.56738"
       id="rect4065"
       style="fill:#ffffff;fill-opacity:1;stroke:none;"
       inkscape:export-filename="/home/rafa/Imágenes/nave_espacial.png"
       inkscape:export-xdpi="90"
       inkscape:export-ydpi="90" />
    <rect
       style="fill:url(#linearGradient4005);fill-opacity:1;stroke:none;"
       id="rect3997"
       width="777.56738"
       height="1076.7883"
       x="-18.319651"
       y="-12.2131"
       ry="0" />
    <path
       style="fill:#ffffff;stroke:none;stroke-width:1px;stroke-linecap:butt;stroke-linejoin:miter;stroke-opacity:1;fill-opacity:1;opacity:0.61776061999999998;"
       d="m -105.84687,154.69928 c 0,0 291.0789,-126.202045 325.68268,-24.42621 34.60379,101.77584 44.78137,107.88239 219.83582,126.20205 C 614.72607,274.79477 608.61952,122.13101 616.76159,107.88239 624.90366,93.633773 610.65504,20.355168 716.50191,38.674819 822.34878,56.99447 881.37877,175.05444 881.37877,175.05444 l -77.34964,189.30307 c 0,0 -71.24308,-333.824758 -170.98341,-193.3741 -99.74032,140.45066 -42.74585,179.12548 -42.74585,179.12548 0,0 54.95895,34.60378 42.74585,71.24309 -12.2131,36.6393 -111.95342,34.60378 -232.04891,8.14206 C 280.90132,403.03233 191.33858,191.33858 191.33858,191.33858 c 0,0 -67.17206,-44.78137 -81.42067,42.74585 -14.248621,87.52722 -89.562742,111.95343 -89.562742,111.95343 0,0 -26.4617184,20.35516 -73.278605,-28.49724 -46.816886,-48.8524 -65.136533,-166.91238 -65.136533,-166.91238 z"
       id="path4027"
       inkscape:connector-curvature="0" />
    <path
       sodipodi:type="arc"
       style="fill:#607e69;fill-opacity:1;stroke:none;"
       id="path4007"
       sodipodi:cx="377.58838"
       sodipodi:cy="922.08911"
       sodipodi:rx="503.79041"
       sodipodi:ry="352.14441"
       d="m 881.37878,922.08911 a 503.79041,352.14441 0 1 1 -1007.58081,0 503.79041,352.14441 0 1 1 1007.58081,0 z"
       transform="matrix(0.97250702,-0.23287358,0.23287358,0.97250702,-143.28365,158.06271)" />
    <path
       style="fill:#4d4d4d;fill-opacity:0.53725489999999998;stroke:none;"
       d="m 614.71375,834.55631 c -62.95435,0 -113.96875,29.62023 -113.96875,66.15623 0,16.2965 10.16423,31.2205 27,42.75 -10.66826,-10.0677 -16.84375,-21.9077 -16.84375,-34.5937 0,-36.536 51.04565,-66.15628 114,-66.15628 34.91111,0 66.15301,9.09218 87.0625,23.43748 -20.04375,-18.96122 -56.11074,-31.59373 -97.25,-31.59373 z"
       id="path4039"
       inkscape:connector-curvature="0" />
    <path
       sodipodi:type="arc"
       style="fill:#4d4d4d;fill-opacity:0.53688528000000002;stroke:none;"
       id="path4011"
       sodipodi:cx="157.75255"
       sodipodi:cy="925.1424"
       sodipodi:rx="369.44629"
       sodipodi:ry="123.14877"
       d="m 527.19884,925.1424 a 369.44629,123.14877 0 1 1 -738.89258,0 369.44629,123.14877 0 1 1 738.89258,0 z"
       transform="matrix(0.83868536,-0.08493581,0.08493581,0.83868536,200.83381,88.601902)" />
    <path
       inkscape:connector-curvature="0"
       id="path4041"
       d="m 197.43281,761.27771 c -62.95435,0 -113.968753,29.62023 -113.968753,66.15623 0,16.2965 10.16423,31.2205 27.000003,42.75 -10.668263,-10.0677 -16.843753,-21.9077 -16.843753,-34.5937 0,-36.536 51.045653,-66.15628 114.000003,-66.15628 34.91111,0 66.15301,9.09218 87.0625,23.43748 -20.04375,-18.96122 -56.11074,-31.59373 -97.25,-31.59373 z"
       style="fill:#4d4d4d;fill-opacity:0.53725489999999998;stroke:none;" />
    <path
       sodipodi:nodetypes="scsss"
       inkscape:connector-curvature="0"
       id="path3025"
       d="m 506.04623,686.90921 c 8.99317,88.80165 123.6941,0.8754 112.44129,200.7303 54.88244,-5.55809 92.08304,-82.05177 83.08987,-170.85342 -8.99317,-88.80165 -60.77458,-156.28388 -115.65702,-150.7258 -54.88243,5.55809 -88.86731,32.04727 -79.87414,120.84892 z"
       style="fill:#bc0000;fill-opacity:1;stroke:none;" />
    <path
       style="fill:#ff0000;fill-opacity:1;stroke:none;"
       d="M 341.86874,56.74104 C 228.83997,171.68531 180.7148,284.34427 206.84353,542.34829 c 9.8451,97.21388 60.91154,185.30868 103.06329,256.5745 L 529.99641,774.5638 C 544.71068,697.53901 577.28574,603.04358 567.44064,505.8297 541.31192,247.82567 473.18366,142.80009 341.86874,56.74104 z"
       id="path2994"
       inkscape:connector-curvature="0"
       sodipodi:nodetypes="csccsc" />
    <path
       style="fill:#ffffff;fill-opacity:1;stroke:none;"
       d="m 300.67347,102.30722 c -18.6001,22.69826 -34.72133,46.06032 -48.26613,71.13139 l 199.79058,-20.2333 C 434.25761,131.07808 414.15628,111.37709 391.77001,93.081642 l -91.09654,9.225578 z"
       id="path3009"
       inkscape:connector-curvature="0" />
    <path
       sodipodi:nodetypes="ccccccsc"
       inkscape:connector-curvature="0"
       id="path3959"
       d="m 339.7824,62.904857 c 0.14005,0.105424 0.28561,0.196964 0.42552,0.302415 -0.31731,0.817337 -0.6206,1.659968 -0.93335,2.481671 C 259.8223,195.83465 235.88171,278.0244 237.59922,430.71407 c -3.63272,94.58647 65.88749,231.18877 93.76589,301.67585 0,0 -10.23521,1.03654 -22.38617,2.2671 C 247.727,645.74512 223.63905,571.34917 216.78718,447.40631 208.40967,295.86619 245.1469,148.67809 339.7824,62.904857 z"
       style="fill:url(#linearGradient3969);fill-opacity:1;stroke:none;" />
    <path
       style="fill:#ffffff;fill-opacity:1;stroke:none;"
       d="m 202.79023,495.16891 c 1.06019,15.17209 2.40497,30.8809 4.05514,47.17524 1.95937,19.34754 5.58111,38.33248 10.41074,56.89684 l 351.48342,-35.59562 c 0.93818,-19.08422 0.66549,-38.40066 -1.30109,-57.8194 -1.64899,-16.28266 -3.46536,-31.93579 -5.45423,-47.03355 l -359.19398,36.37649 z"
       id="path3017"
       inkscape:connector-curvature="0" />
    <path
       style="fill:#ffffff;fill-opacity:1;stroke:none;"
       d="m 241.43356,669.25499 c 12.35528,29.08958 26.73511,56.76658 41.29884,82.76001 l 257.8685,-26.11501 c 6.57266,-28.18249 13.77678,-57.98087 19.32856,-88.8999 l -318.4959,32.2549 z"
       id="path3014"
       inkscape:connector-curvature="0" />
    <path
       transform="matrix(0.99491105,-0.10075719,0.10075719,0.99491105,-57.756008,32.151696)"
       d="m 523.09196,349.07123 a 114.29765,114.29765 0 1 1 -228.5953,0 114.29765,114.29765 0 1 1 228.5953,0 z"
       sodipodi:ry="114.29765"
       sodipodi:rx="114.29765"
       sodipodi:cy="349.07123"
       sodipodi:cx="408.79431"
       id="path3366"
       style="fill:#00007f;fill-opacity:0.22131148;stroke:none"
       sodipodi:type="arc" />
    <path
       style="opacity:0.41698842000000003;fill:url(#linearGradient3862);fill-opacity:1;stroke:none;"
       d="m 341.85416,56.738569 c -0.13062,0.132836 -0.27018,0.253251 -0.40063,0.386082 52.55155,74.076479 84.38243,174.769319 100.41471,333.077519 27.5865,219.21318 -99.35453,148.63216 7.36885,394.60943 L 529.9811,774.5614 C 544.69538,697.53661 577.28354,603.03985 567.43844,505.82597 541.30971,247.82195 473.16909,142.79762 341.85416,56.738569 z"
       id="path3027"
       inkscape:connector-curvature="0"
       sodipodi:nodetypes="cccccsc" />
    <path
       style="fill:#ff0000;fill-opacity:1;stroke:none;"
       d="m 300.16768,707.75906 c 8.99317,88.80165 -121.0071,25.65691 -69.91409,219.19789 -54.88243,5.55809 -106.66384,-61.92416 -115.65702,-150.72581 -8.99317,-88.80165 28.20744,-165.29532 83.08987,-170.8534 54.88244,-5.55809 93.48807,13.57967 102.48124,102.38132 z"
       id="path2987"
       inkscape:connector-curvature="0"
       sodipodi:nodetypes="scsss" />
    <path
       sodipodi:nodetypes="ccc"
       inkscape:connector-curvature="0"
       id="path3841"
       d="m 130.30634,746.65555 c -16.70489,-66.25789 36.01034,-145.69697 80.00519,-130.30346 13.55649,29.78289 -67.07615,10.76542 -80.00519,130.30346 z"
       style="opacity:0.84999999999999998;fill:url(#linearGradient3878);fill-opacity:1;stroke:none;" />
    <path
       style="opacity:0.37451740000000000;fill:url(#linearGradient3870);fill-opacity:1;stroke:none;"
       d="m 257.699,688.74657 c -98.39773,30.10644 -96.51729,216.34171 -27.45215,238.19692 -51.09301,-193.54098 78.92007,-130.39069 69.9269,-219.19234 -0.61829,-6.10526 -1.39474,-11.86503 -2.28865,-17.32633 -12.07291,-2.8876 -25.54222,-3.16127 -40.1861,-1.67825 z"
       id="path3843"
       inkscape:connector-curvature="0"
       sodipodi:nodetypes="ccscc" />
    <path
       sodipodi:nodetypes="cccccsc"
       inkscape:connector-curvature="0"
       id="path3911"
       d="m 341.85416,56.738569 c -0.13062,0.132836 -0.27018,0.253251 -0.40063,0.386082 52.55155,74.076479 84.38243,174.769319 100.41471,333.077519 27.5865,219.21318 -99.35453,148.63216 7.36885,394.60943 L 529.9811,774.5614 C 544.69538,697.53661 577.28354,603.03985 567.43844,505.82597 541.30971,247.82195 473.16909,142.79762 341.85416,56.738569 z"
       style="opacity:0;fill:url(#linearGradient3921);fill-opacity:1;stroke:none;" />
    <rect
       style="fill:#ff0000;fill-opacity:1;stroke:none;"
       id="rect3007"
       width="49.426014"
       height="325.38794"
       x="307.6532"
       y="624.27484"
       ry="27.11566"
       transform="matrix(0.99491105,-0.10075719,0.10075719,0.99491105,0,0)" />
    <path
       style="fill:#ff0000;fill-opacity:1;stroke:none;"
       d="m 655.23389,840.81936 c 97.65685,-150.74739 -30.46992,-304.85597 -80.48604,-255.577 -4.25246,18.55469 28.14986,30.84928 63.05129,64.29166 47.30164,45.32419 37.84655,115.10585 17.43475,191.28534 z"
       id="path3880"
       inkscape:connector-curvature="0"
       sodipodi:nodetypes="ccsc" />
    <path
       style="opacity:0.84999999999999998;fill:url(#linearGradient3909);fill-opacity:1;stroke:none;"
       d="m 394.00574,591.86319 c 9.69455,-0.98179 18.52337,8.34094 19.79556,20.90299 -4.47017,139.22602 0.19482,-0.0137 -3.62292,138.79127 -30.93606,-135.89956 0.27011,-0.0156 -31.37546,-135.24689 -1.27219,-12.56205 5.50826,-23.46558 15.20282,-24.44737 z"
       id="rect3892"
       inkscape:connector-curvature="0"
       sodipodi:nodetypes="scccs" />
    <path
       sodipodi:type="arc"
       style="fill:#999999;fill-opacity:1;stroke:none;"
       id="path3020"
       sodipodi:cx="408.79431"
       sodipodi:cy="349.07123"
       sodipodi:rx="114.29765"
       sodipodi:ry="114.29765"
       d="m 523.09196,349.07123 a 114.29765,114.29765 0 1 1 -228.5953,0 114.29765,114.29765 0 1 1 228.5953,0 z"
       transform="matrix(0.99491105,-0.10075719,0.10075719,0.99491105,-73.749922,20.161271)" />
    <path
       transform="matrix(0.66327402,-0.06717146,0.06717146,0.66327402,73.545216,122.19656)"
       d="m 523.09196,349.07123 a 114.29765,114.29765 0 1 1 -228.5953,0 114.29765,114.29765 0 1 1 228.5953,0 z"
       sodipodi:ry="114.29765"
       sodipodi:rx="114.29765"
       sodipodi:cy="349.07123"
       sodipodi:cx="408.79431"
       id="path3022"
       style="fill:#00d1ff;fill-opacity:1;stroke:none;"
       sodipodi:type="arc" />
    <path
       sodipodi:type="arc"
       style="fill:#8cffff;fill-opacity:1;stroke:none;"
       id="path3820"
       sodipodi:cx="390.02008"
       sodipodi:cy="307.86691"
       sodipodi:rx="27.754238"
       sodipodi:ry="27.754238"
       d="m 417.77432,307.86691 a 27.754238,27.754238 0 1 1 -55.50848,0 27.754238,27.754238 0 1 1 55.50848,0 z"
       transform="matrix(1.4661848,-0.14848429,0.14848429,1.4661848,-262.71875,-89.443723)" />
    <path
       transform="matrix(0.6632741,-0.06717147,0.06717147,0.6632741,113.81687,185.77131)"
       d="m 417.77432,307.86691 a 27.754238,27.754238 0 1 1 -55.50848,0 27.754238,27.754238 0 1 1 55.50848,0 z"
       sodipodi:ry="27.754238"
       sodipodi:rx="27.754238"
       sodipodi:cy="307.86691"
       sodipodi:cx="390.02008"
       id="path3830"
       style="fill:#8cffff;fill-opacity:1;stroke:none;"
       sodipodi:type="arc" />
    <path
       sodipodi:type="arc"
       style="fill:#ffffff;fill-opacity:1;stroke:none;"
       id="path3832"
       sodipodi:cx="390.02008"
       sodipodi:cy="307.86691"
       sodipodi:rx="27.754238"
       sodipodi:ry="27.754238"
       d="m 417.77432,307.86691 a 27.754238,27.754238 0 1 1 -55.50848,0 27.754238,27.754238 0 1 1 55.50848,0 z"
       transform="matrix(0.4887283,-0.04949477,0.04949477,0.4887283,140.14183,153.21531)" />
    <path
       style="fill:#4d4d4d;fill-opacity:0.50980380000000003;stroke:none;"
       d="m 355.12774,246.11489 c -41.86907,4.24019 -72.45037,40.7497 -68.31856,81.54858 1.59515,15.75115 8.13016,29.81275 17.96535,40.9294 -6.71267,-10.03119 -11.15888,-21.79343 -12.45985,-34.63961 -4.24018,-41.86907 26.28222,-79.27027 68.15129,-83.51046 21.52922,-2.18032 41.86236,4.85246 57.12214,17.86671 -15.62194,-15.7897 -38.26714,-24.64473 -62.46037,-22.19462 z"
       id="path3836"
       inkscape:connector-curvature="0" />
    <path
       style="opacity:0.25868728000000002;fill:url(#linearGradient3957);fill-opacity:1;stroke:none;"
       d="m 339.29061,52.899142 c -0.11608,0.131363 -0.24032,0.250226 -0.35625,0.381586 0.47473,0.737126 0.9408,1.501842 1.41194,2.244157 99.03538,83.426795 165.53256,191.064355 176.54426,426.695845 7.01225,150.05018 -23.71067,205.48181 -36.89115,280.12703 0,0 10.23521,-1.03655 22.38616,-2.26711 C 596.14283,539.17711 539.09578,171.16791 339.29061,52.899142 z"
       id="path3923"
       inkscape:connector-curvature="0"
       sodipodi:nodetypes="cccsccc" />
    <path
       style="opacity:0.25868728000000002;fill:#ffffff;fill-opacity:1;stroke:none;"
       d="m 405.09554,247.85211 c -48.39428,-19.97826 -86.59802,-0.51768 -105.16247,8.19653 -16.69718,4.71541 14.49753,-31.46346 45.8147,-34.57286 40.10111,-3.98153 78.98773,31.33743 59.34777,26.37633 z"
       id="path3990"
       inkscape:connector-curvature="0"
       sodipodi:nodetypes="ccsc" />
    <path
       sodipodi:type="arc"
       style="opacity:0.88803089000000002;fill:#ffffff;fill-opacity:1;stroke:none;"
       id="path3993"
       sodipodi:cx="372.66083"
       sodipodi:cy="223.38977"
       sodipodi:rx="8.107543"
       sodipodi:ry="6.00912"
       d="m 380.76837,223.38977 a 8.107543,6.00912 0 1 1 -16.21509,0 8.107543,6.00912 0 1 1 16.21509,0 z"
       transform="matrix(0.99491105,-0.10075719,0.10075719,0.99491105,-47.744291,45.317275)" />
    <path
       transform="matrix(0.99491105,-0.10075719,0.10075719,0.99491105,25.464827,207.78616)"
       d="m 380.76837,223.38977 a 8.107543,6.00912 0 1 1 -16.21509,0 8.107543,6.00912 0 1 1 16.21509,0 z"
       sodipodi:ry="6.00912"
       sodipodi:rx="8.107543"
       sodipodi:cy="223.38977"
       sodipodi:cx="372.66083"
       id="path3995"
       style="opacity:0.59459461999999996;fill:#ffffff;fill-opacity:1;stroke:none;"
       sodipodi:type="arc" />
    <path
       sodipodi:nodetypes="ccsc"
       inkscape:connector-curvature="0"
       id="path4047"
       d="M 69.450357,911.68402 C 46.546723,916.20761 -6.9704767,909.82301 -0.12100356,930.62274 -5.1699998,959.07813 89.348152,1005.1735 111.44802,992.54426 127.13745,983.57835 91.555772,903.41677 69.450357,911.68402 z"
       style="fill:#4d4d4d;fill-opacity:0.53725489999999998;stroke:none;" />
    <path
       style="fill:#6da17c;fill-opacity:1;stroke:none;"
       d="m 99.740322,917.0003 c 18.841078,8.80606 -23.238974,37.65707 -51.905683,37.65707 -28.66672,0 -61.714919,-19.31826 -51.9056796,-37.65707 12.2131,-22.83294 11.02586,-51.90568 39.6925796,-51.90568 28.66671,0 15.26637,29.07274 64.118783,51.90568 z"
       id="path4029"
       inkscape:connector-curvature="0"
       sodipodi:nodetypes="sssss" />
    <path
       inkscape:connector-curvature="0"
       id="path4037"
       d="m 380.62932,987.22007 c -62.95435,0 -113.96875,29.62023 -113.96875,66.15623 0,16.2965 10.16423,31.2205 27,42.75 -10.66826,-10.0677 -16.84375,-21.9077 -16.84375,-34.5937 0,-36.536 51.04565,-66.15628 114,-66.15628 34.91111,0 66.15301,9.09218 87.0625,23.43748 -20.04375,-18.96122 -56.11074,-31.59373 -97.25,-31.59373 z"
       style="fill:#4d4d4d;fill-opacity:0.53725489999999998;stroke:none;" />
    <path
       style="fill:#4d4d4d;fill-opacity:0.53725489999999998;stroke:none;"
       d="m 801.9813,1013.6818 c -62.95435,0 -113.96876,29.6202 -113.96876,66.1562 0,16.2965 10.16423,31.2205 27.00001,42.75 -10.66827,-10.0677 -16.84376,-21.9077 -16.84376,-34.5937 0,-36.536 51.04566,-66.1563 114.00001,-66.1563 34.91111,0 66.15301,9.0922 87.0625,23.4375 -20.04375,-18.9612 -56.11074,-31.5937 -97.25,-31.5937 z"
       id="path4043"
       inkscape:connector-curvature="0" />
    <path
       inkscape:connector-curvature="0"
       id="path4045"
       d="m 75.301804,1038.108 c -62.95435,0 -113.96876,29.6202 -113.96876,66.1562 0,16.2965 10.16423,31.2205 27.00001,42.75 -10.66827,-10.0677 -16.84376,-21.9077 -16.84376,-34.5937 0,-36.536 51.04566,-66.1563 114.00001,-66.1563 34.911106,0 66.153006,9.0922 87.062496,23.4375 -20.04375,-18.9612 -56.11074,-31.5937 -97.249996,-31.5937 z"
       style="fill:#4d4d4d;fill-opacity:0.53725489999999998;stroke:none;" />
    <path
       style="fill:#4d4d4d;fill-opacity:0.53725489999999998;stroke:none;"
       d="m 800.20089,746.80716 c -22.90364,4.52359 -76.42084,-1.86101 -69.57136,18.93872 -5.049,28.45539 89.46915,74.55076 111.56902,61.92152 15.68943,-8.96591 -19.89225,-89.12749 -41.99766,-80.86024 z"
       id="path4049"
       inkscape:connector-curvature="0"
       sodipodi:nodetypes="ccsc" />
    <path
       sodipodi:nodetypes="ccsc"
       inkscape:connector-curvature="0"
       id="path4053"
       d="m 770.6389,807.89786 c -13.90997,2.7473 -46.41234,-1.13024 -42.25248,11.50198 -3.06639,17.28169 54.33692,45.2766 67.75875,37.60653 9.52859,-5.44522 -12.08108,-54.12942 -25.50627,-49.10851 z"
       style="fill:#4d4d4d;fill-opacity:0.53725489999999998;stroke:none;" />
    <path
       style="fill:#6da17c;fill-opacity:1;stroke:none;"
       d="m 789.03478,811.12658 c 11.44267,5.34815 -14.11363,22.87011 -31.52366,22.87011 -17.41004,0 -37.48106,-11.73248 -31.52366,-22.87011 7.41733,-13.86704 6.69629,-31.52366 24.10633,-31.52366 17.41003,0 9.27166,17.65662 38.94099,31.52366 z"
       id="path4055"
       inkscape:connector-curvature="0"
       sodipodi:nodetypes="sssss" />
    <path
       style="fill:#4d4d4d;fill-opacity:0.53725489999999998;stroke:none;"
       d="m 320.78969,889.31853 c -13.90997,2.7473 -46.41234,-1.13024 -42.25248,11.50198 -3.06639,17.28169 54.33692,45.2766 67.75875,37.60653 9.52859,-5.44522 -12.08108,-54.12942 -25.50627,-49.10851 z"
       id="path4057"
       inkscape:connector-curvature="0"
       sodipodi:nodetypes="ccsc" />
    <path
       sodipodi:nodetypes="sssss"
       inkscape:connector-curvature="0"
       id="path4059"
       d="m 339.18557,892.54725 c 11.44267,5.34815 -14.11363,22.87011 -31.52366,22.87011 -17.41004,0 -37.48106,-11.73248 -31.52366,-22.87011 7.41733,-13.86704 6.69629,-31.52366 24.10633,-31.52366 17.41003,0 9.27166,17.65662 38.94099,31.52366 z"
       style="fill:#6da17c;fill-opacity:1;stroke:none;" />
    <path
       sodipodi:nodetypes="ccsc"
       inkscape:connector-curvature="0"
       id="path4061"
       d="m 541.23762,980.08501 c -8.52279,1.6833 -28.43735,-0.69251 -25.88855,7.04739 -1.87882,10.58865 33.29282,27.7414 41.51652,23.0419 5.83827,-3.3363 -7.40221,-33.16566 -15.62797,-30.08929 z"
       style="fill:#4d4d4d;fill-opacity:0.53725489999999998;stroke:none;" />
    <path
       style="fill:#6da17c;fill-opacity:1;stroke:none;"
       d="m 552.50898,982.06328 c 7.01105,3.27687 -8.64758,14.01277 -19.31489,14.01277 -10.66732,0 -22.96506,-7.18862 -19.31489,-14.01277 4.54468,-8.49649 4.10289,-19.31489 14.77021,-19.31489 10.66731,0 5.68085,10.8184 23.85957,19.31489 z"
       id="path4063"
       inkscape:connector-curvature="0"
       sodipodi:nodetypes="sssss" />
    <path
       style="fill:#4d4d4d;fill-opacity:0.53725493000000002;stroke:none;"
       d="M 752.9375 652.84375 C 725.85125 664.93864 708.375 683.94252 708.375 705.3125 C 708.375 721.60902 718.53923 736.53302 735.375 748.0625 C 724.70674 737.99476 718.53125 726.1548 718.53125 713.46875 C 718.53125 691.20944 737.48761 671.52229 766.53125 659.53125 C 762.06339 657.24474 757.53988 654.99631 752.9375 652.84375 z "
       id="path4086" />
    <path
       sodipodi:nodetypes="sssss"
       inkscape:connector-curvature="0"
       id="path4051"
       d="m 830.49085,752.12344 c 18.84108,8.80606 -23.23897,37.65707 -51.90568,37.65707 -28.66672,0 -61.71492,-19.31826 -51.90568,-37.65707 12.2131,-22.83294 11.02586,-51.90568 39.69258,-51.90568 28.66671,0 15.26637,29.07274 64.11878,51.90568 z"
       style="fill:#6da17c;fill-opacity:1;stroke:none;" />
    <path
       sodipodi:nodetypes="ccsc"
       inkscape:connector-curvature="0"
       id="path3380"
       d="m -360.25878,388.30277 c -48.39428,-19.97826 -86.59802,-0.51768 -105.16247,8.19653 -16.69718,4.71541 14.49753,-31.46346 45.8147,-34.57286 40.10111,-3.98153 78.98773,31.33743 59.34777,26.37633 z"
       style="opacity:0.25868728;fill:#ffffff;fill-opacity:1;stroke:none" />
    <path
       transform="matrix(0.99491105,-0.10075719,0.10075719,0.99491105,-813.09861,185.76793)"
       d="m 380.76837,223.38977 a 8.107543,6.00912 0 1 1 -16.21509,0 8.107543,6.00912 0 1 1 16.21509,0 z"
       sodipodi:ry="6.00912"
       sodipodi:rx="8.107543"
       sodipodi:cy="223.38977"
       sodipodi:cx="372.66083"
       id="path3382"
       style="opacity:0.88803089;fill:#ffffff;fill-opacity:1;stroke:none"
       sodipodi:type="arc" />
    <path
       style="fill:#4d4d4d;fill-opacity:0.50980380000000003;stroke:none;"
       d="m 356.62775,212.54291 c -4.03164,0.40829 -7.99409,1.02429 -11.87595,1.8309 68.40773,-5.17778 120.99794,43.49256 126.24107,95.26511 6.01649,59.40882 -37.73176,112.49925 -97.70638,118.57303 -59.64491,6.04039 -133.66625,-50.13303 -110.31694,-146.75661 -7.33798,17.18372 -10.57058,36.43119 -8.55476,56.33614 6.36028,62.80361 62.44182,108.54216 125.24543,102.18187 62.80361,-6.36028 108.5453,-62.41072 102.18502,-125.21433 -6.36028,-62.80361 -62.41387,-108.57639 -125.21749,-102.21611 z"
       id="path3813"
       inkscape:connector-curvature="0"
       sodipodi:nodetypes="sccscssss" />
  </g>
</svg>
