<?xml version="1.0"?><svg width="1200" height="1200" xmlns="http://www.w3.org/2000/svg">

 <g>
  <title>Layer 1</title>
  <path id="clef" d="m592.108704,1275.966919c-130.356995,-7.57666 -263.449677,-89.340454 -343.048599,-183.18396c-92.286163,-108.805115 -130.334183,-256.736145 -120.58812,-378.21936c28.630783,-356.950714 416.806335,-567.925125 560.499084,-723.843859c96.181885,-104.365988 116.345337,-155.242826 137.828674,-208.919233c41.592041,-103.900146 48.291931,-225.634613 -34.166016,-234.723022c-78.726624,-8.677368 -143.496338,115.130493 -172.424011,199.744064c-26.013855,76.105148 -43.304626,152.461494 -27.653442,267.158121c7.033264,51.529913 200.630066,1489.932806 203.895508,1512.229071c32.604126,222.816772 -94.820862,315.016113 -224.899292,331.416382c-280.895782,35.412842 -371.026321,-250.040771 -245.131287,-358.453247c96.921692,-83.471802 237.929077,-11.810425 230.311218,125.420044c-6.745483,121.547241 -125.926971,125.127808 -156.379974,122.350952c46.748199,83.841675 399.177521,127.644287 345.062653,-251.150513c-7.604126,-53.229004 -186.499634,-1404.949402 -190.883972,-1435.196899c-32.818726,-226.442993 -37.819641,-405.68103 80.160706,-614.846863c43.555847,-77.214966 112.390259,-127.064209 146.181763,-120.537903c7.426025,1.434021 14.824646,4.160583 20.697815,10.221008c90.500488,93.249878 118.26355,300.036285 108.348511,418.824982c-10.152588,121.62941 -15.811096,247.542687 -136.750916,394.377594c-46.802979,56.823105 -189.623474,182.001099 -271.510498,253.918274c-115.057434,101.045746 -198.510956,189.299255 -243.665283,295.766052c-50.74437,119.656433 -59.334961,270.281982 55.279449,403.931885c65.92981,75.511353 175.31955,129.091919 267.381927,130.233765c255.982605,3.178589 330.735901,-123.00415 333.124451,-265.902283c3.93219,-235.298462 -280.133118,-324.259827 -396.921448,-162.472412c-67.715485,93.811523 -37.952087,192.550903 7.526489,239.527527c15.610168,16.121582 33.047119,28.402466 49.543274,35.248413c5.97821,2.479858 20.040161,9.019897 16.048584,18.592407c-3.320251,7.964844 -9.768921,8.412476 -15.642151,7.709229c-73.648071,-8.832764 -155.197144,-79.229126 -175.251007,-200.315002c-29.21991,-176.484131 126.520721,-385.837219 348.830536,-351.598145c145.542419,22.415039 280.671997,147.647827 268.820496,380.845459c-10.161621,199.862732 -175.853882,356.306702 -424.625122,341.847473z"/>
 </g>
</svg>