<?xml version="1.0" encoding="UTF-8" standalone="no"?>
<!-- Created with Inkscape (http://www.inkscape.org/) -->

<svg
   xmlns:dc="http://purl.org/dc/elements/1.1/"
   xmlns:cc="http://creativecommons.org/ns#"
   xmlns:rdf="http://www.w3.org/1999/02/22-rdf-syntax-ns#"
   xmlns:svg="http://www.w3.org/2000/svg"
   xmlns="http://www.w3.org/2000/svg"
   xmlns:sodipodi="http://sodipodi.sourceforge.net/DTD/sodipodi-0.dtd"
   xmlns:inkscape="http://www.inkscape.org/namespaces/inkscape"
   width="500"
   height="500"
   id="svg2"
   version="1.1"
   inkscape:version="0.48.3.1 r9886"
   sodipodi:docname="Nuevo documento 1">
  <defs
     id="defs4" />
  <sodipodi:namedview
     id="base"
     pagecolor="#ffffff"
     bordercolor="#666666"
     borderopacity="1.0"
     inkscape:pageopacity="0.0"
     inkscape:pageshadow="2"
     inkscape:zoom="1.068"
     inkscape:cx="250"
     inkscape:cy="250"
     inkscape:document-units="px"
     inkscape:current-layer="layer1"
     showgrid="false"
     showguides="true"
     inkscape:guide-bbox="true"
     inkscape:window-width="1366"
     inkscape:window-height="718"
     inkscape:window-x="0"
     inkscape:window-y="25"
     inkscape:window-maximized="1" />
  <metadata
     id="metadata7">
    <rdf:RDF>
      <cc:Work
         rdf:about="">
        <dc:format>image/svg+xml</dc:format>
        <dc:type
           rdf:resource="http://purl.org/dc/dcmitype/StillImage" />
        <dc:title></dc:title>
      </cc:Work>
    </rdf:RDF>
  </metadata>
  <g
     inkscape:label="Capa 1"
     inkscape:groupmode="layer"
     id="layer1"
     transform="translate(0,-552.36218)">
    <path
       style="fill:#008080;fill-opacity:1;stroke:none"
       d="m 8.2670941,560.60855 c 41.4398789,58.76381 103.2259359,35.69461 117.1881659,67.71518 8.09052,16.83504 -19.98428,73.61983 28.03461,126.71418 14.72691,14.82841 25.83462,30.49158 89.69517,66.43926 l 59.26109,-45.07292 c -22.56642,-4.43798 -42.59056,-7.03274 -69.61789,-14.70492 -42.23726,-12.22183 -49.83049,-20.58152 -60.12556,-34.51961 -10.4389,-12.53109 -15.2043,-39.96244 6.7997,-79.44913 7.15655,-14.36054 17.18425,-48.73381 -14.05236,-56.12016 -25.98669,-4.49682 -66.208546,-17.12711 -45.01239,-31.00188 z"
       id="rect3814"
       inkscape:connector-curvature="0"
       sodipodi:nodetypes="ccccccccccc" />
    <path
       transform="matrix(1.016277,0,0,1.016277,95.269785,586.27855)"
       d="m 388.57678,274.81274 a 172.75281,172.75281 0 1 1 -345.505613,0 172.75281,172.75281 0 1 1 345.505613,0 z"
       sodipodi:ry="172.75281"
       sodipodi:rx="172.75281"
       sodipodi:cy="274.81274"
       sodipodi:cx="215.82397"
       id="path3798"
       style="fill:#008080;fill-opacity:1;stroke:#ffffff;stroke-width:4.58226013;stroke-linecap:round;stroke-linejoin:round;stroke-miterlimit:4;stroke-opacity:1;stroke-dasharray:none;stroke-dashoffset:0"
       sodipodi:type="arc" />
    <g
       id="g3800"
       transform="matrix(0.86363008,0,0,0.86363008,62.714633,131.78387)">
      <path
         transform="matrix(1.0911646,0,0,1.0911646,56.167181,549.78089)"
         d="m 388.57678,274.81274 c 0,95.40875 -77.34406,172.75281 -172.75281,172.75281 -95.40874,0 -172.752803,-77.34406 -172.752803,-172.75281 0,-95.40874 77.344063,-172.7528 172.752803,-172.7528 95.40875,0 172.75281,77.34406 172.75281,172.7528 z"
         sodipodi:ry="172.75281"
         sodipodi:rx="172.75281"
         sodipodi:cy="274.81274"
         sodipodi:cx="215.82397"
         id="path2987"
         style="fill:#008080;fill-opacity:1;stroke:#ffffff;stroke-width:4.58226013;stroke-linecap:round;stroke-linejoin:round;stroke-miterlimit:4;stroke-opacity:1;stroke-dasharray:none;stroke-dashoffset:0"
         sodipodi:type="arc" />
      <path
         sodipodi:type="arc"
         style="fill:#008080;fill-opacity:1;stroke:#ffffff;stroke-width:16.36447716;stroke-linecap:round;stroke-linejoin:round;stroke-miterlimit:4;stroke-opacity:1;stroke-dasharray:none;stroke-dashoffset:0"
         id="path3757"
         sodipodi:cx="215.82397"
         sodipodi:cy="274.81274"
         sodipodi:rx="172.75281"
         sodipodi:ry="172.75281"
         d="m 388.57678,274.81274 c 0,95.40875 -77.34406,172.75281 -172.75281,172.75281 -95.40874,0 -172.752803,-77.34406 -172.752803,-172.75281 0,-95.40874 77.344063,-172.7528 172.752803,-172.7528 95.40875,0 172.75281,77.34406 172.75281,172.7528 z"
         transform="matrix(0.30553986,0,0,0.30553986,225.72383,765.68058)" />
      <g
         id="g3782">
        <path
           style="fill:#008080;fill-opacity:1;stroke:#ffffff;stroke-width:3.26644482;stroke-linecap:round;stroke-linejoin:round;stroke-miterlimit:4;stroke-opacity:1;stroke-dasharray:none;stroke-dashoffset:0"
           d="m 262.42016,702.97234 11.65779,55.34896 0.32666,0 34.52419,0 0.34708,0 11.63737,-55.34896 -23.62182,0 -11.22903,0 -23.64224,0 z"
           id="rect3759"
           inkscape:connector-curvature="0" />
        <path
           inkscape:connector-curvature="0"
           id="path3764"
           d="m 262.42016,996.32132 11.65779,-55.34898 0.32666,0 34.52419,0 0.34708,0 11.63737,55.34898 -23.62182,0 -11.22903,0 -23.64224,0 z"
           style="fill:#008080;fill-opacity:1;stroke:#ffffff;stroke-width:3.26662946;stroke-linecap:round;stroke-linejoin:round;stroke-miterlimit:4;stroke-opacity:1;stroke-dasharray:none;stroke-dashoffset:0" />
        <path
           style="fill:#008080;fill-opacity:1;stroke:#ffffff;stroke-width:3.26662946;stroke-linecap:round;stroke-linejoin:round;stroke-miterlimit:4;stroke-opacity:1;stroke-dasharray:none;stroke-dashoffset:0"
           d="m 439.3412,878.89334 -55.34898,-11.65779 0,-0.32666 0,-34.52419 0,-0.34708 55.34898,-11.63737 0,23.62183 0,11.22902 0,23.64225 z"
           id="path3766"
           inkscape:connector-curvature="0" />
        <path
           inkscape:connector-curvature="0"
           id="path3768"
           d="m 143.99222,878.89334 55.34898,-11.65779 0,-0.32666 0,-34.52419 0,-0.34708 -55.34898,-11.63737 0,23.62183 0,11.22902 0,23.64225 z"
           style="fill:#008080;fill-opacity:1;stroke:#ffffff;stroke-width:3.26662946;stroke-linecap:round;stroke-linejoin:round;stroke-miterlimit:4;stroke-opacity:1;stroke-dasharray:none;stroke-dashoffset:0" />
      </g>
      <g
         transform="matrix(0.70710678,0.70710678,-0.70710678,0.70710678,686.21824,42.616286)"
         id="g3788">
        <path
           inkscape:connector-curvature="0"
           id="path3790"
           d="m 262.42016,702.97234 11.65779,55.34896 0.32666,0 34.52419,0 0.34708,0 11.63737,-55.34896 -23.62182,0 -11.22903,0 -23.64224,0 z"
           style="fill:#008080;fill-opacity:1;stroke:#ffffff;stroke-width:3.26662946;stroke-linecap:round;stroke-linejoin:round;stroke-miterlimit:4;stroke-opacity:1;stroke-dasharray:none;stroke-dashoffset:0" />
        <path
           style="fill:#008080;fill-opacity:1;stroke:#ffffff;stroke-width:3.26662946;stroke-linecap:round;stroke-linejoin:round;stroke-miterlimit:4;stroke-opacity:1;stroke-dasharray:none;stroke-dashoffset:0"
           d="m 262.42016,996.32132 11.65779,-55.34898 0.32666,0 34.52419,0 0.34708,0 11.63737,55.34898 -23.62182,0 -11.22903,0 -23.64224,0 z"
           id="path3792"
           inkscape:connector-curvature="0" />
        <path
           inkscape:connector-curvature="0"
           id="path3794"
           d="m 439.3412,878.89334 -55.34898,-11.65779 0,-0.32666 0,-34.52419 0,-0.34708 55.34898,-11.63737 0,23.62183 0,11.22902 0,23.64225 z"
           style="fill:#008080;fill-opacity:1;stroke:#ffffff;stroke-width:3.26662946;stroke-linecap:round;stroke-linejoin:round;stroke-miterlimit:4;stroke-opacity:1;stroke-dasharray:none;stroke-dashoffset:0" />
        <path
           style="fill:#008080;fill-opacity:1;stroke:#ffffff;stroke-width:3.26662946;stroke-linecap:round;stroke-linejoin:round;stroke-miterlimit:4;stroke-opacity:1;stroke-dasharray:none;stroke-dashoffset:0"
           d="m 143.99222,878.89334 55.34898,-11.65779 0,-0.32666 0,-34.52419 0,-0.34708 -55.34898,-11.63737 0,23.62183 0,11.22902 0,23.64225 z"
           id="path3796"
           inkscape:connector-curvature="0" />
      </g>
    </g>
  </g>
</svg>
