<?xml version="1.0" encoding="UTF-8" standalone="no"?>
<!-- Created with Inkscape (http://www.inkscape.org/) -->

<svg
   xmlns:dc="http://purl.org/dc/elements/1.1/"
   xmlns:cc="http://creativecommons.org/ns#"
   xmlns:rdf="http://www.w3.org/1999/02/22-rdf-syntax-ns#"
   xmlns:svg="http://www.w3.org/2000/svg"
   xmlns="http://www.w3.org/2000/svg"
   xmlns:sodipodi="http://sodipodi.sourceforge.net/DTD/sodipodi-0.dtd"
   xmlns:inkscape="http://www.inkscape.org/namespaces/inkscape"
   width="210mm"
   height="297mm"
   id="svg2"
   version="1.1"
   inkscape:version="0.48.4 r9939"
   sodipodi:docname="Nuevo documento 1">
  <defs
     id="defs4">
    <filter
       inkscape:collect="always"
       id="filter3812"
       x="-0.10292111"
       width="1.2058422"
       y="-0.068614075"
       height="1.1372281">
      <feGaussianBlur
         inkscape:collect="always"
         stdDeviation="1.5127939"
         id="feGaussianBlur3814" />
    </filter>
  </defs>
  <sodipodi:namedview
     id="base"
     pagecolor="#ffffff"
     bordercolor="#666666"
     borderopacity="1.0"
     inkscape:pageopacity="0.0"
     inkscape:pageshadow="2"
     inkscape:zoom="1.4142136"
     inkscape:cx="367.60087"
     inkscape:cy="516.50059"
     inkscape:document-units="px"
     inkscape:current-layer="layer1"
     showgrid="false"
     inkscape:window-width="1301"
     inkscape:window-height="744"
     inkscape:window-x="65"
     inkscape:window-y="24"
     inkscape:window-maximized="1" />
  <metadata
     id="metadata7">
    <rdf:RDF>
      <cc:Work
         rdf:about="">
        <dc:format>image/svg+xml</dc:format>
        <dc:type
           rdf:resource="http://purl.org/dc/dcmitype/StillImage" />
        <dc:title></dc:title>
      </cc:Work>
    </rdf:RDF>
  </metadata>
  <g
     inkscape:label="Capa 1"
     inkscape:groupmode="layer"
     id="layer1">
    <path
       sodipodi:type="arc"
       style="fill:#552200;fill-opacity:1;fill-rule:nonzero;stroke:#000000;stroke-width:0;stroke-linecap:round;stroke-linejoin:round;stroke-miterlimit:4;stroke-opacity:1;stroke-dasharray:none"
       id="path2985"
       sodipodi:cx="360.40912"
       sodipodi:cy="497.63785"
       sodipodi:rx="114.64891"
       sodipodi:ry="120.23437"
       d="m 475.05803,497.63785 a 114.64891,120.23437 0 1 1 -229.29782,0 114.64891,120.23437 0 1 1 229.29782,0 z"
       transform="matrix(0.92051282,0,0,0.69682151,23.070319,121.49168)" />
    <path
       style="fill:#2b1100;fill-opacity:1;fill-rule:nonzero;stroke:#000000;stroke-width:0;stroke-linecap:round;stroke-linejoin:round;stroke-miterlimit:4;stroke-opacity:1;stroke-dasharray:none"
       d="m 285.37687,396.45538 c -11.03082,-2.95569 -22.29193,3.26269 -25.14331,13.90418 -20.74082,59.84521 -108.3817,36.96804 -123.45535,86.84947 -6.40554,23.90579 8.59741,48.69694 33.52773,55.377 24.93033,6.68006 50.31882,-7.28823 56.72437,-31.19402 16.19188,-49.23064 65.95876,-75.90071 73.16921,-100.32361 2.85139,-10.64148 -3.79184,-21.65732 -14.82265,-24.61302 z"
       id="path2987"
       inkscape:connector-curvature="0"
       sodipodi:nodetypes="sccsccs" />
    <path
       sodipodi:nodetypes="sccsccs"
       inkscape:connector-curvature="0"
       id="path2994"
       d="m 429.11069,392.91985 c 11.03082,-2.95569 22.29193,3.26269 25.14331,13.90418 20.74082,59.84521 108.3817,36.96804 123.45535,86.84947 6.40554,23.90579 -8.59741,48.69694 -33.52773,55.377 -24.93033,6.68006 -50.31882,-7.28823 -56.72437,-31.19402 -16.19188,-49.23064 -65.95876,-75.90071 -73.16921,-100.32361 -2.85139,-10.64148 3.79184,-21.65732 14.82265,-24.61302 z"
       style="fill:#2b1100;fill-opacity:1;fill-rule:nonzero;stroke:#000000;stroke-width:0;stroke-linecap:round;stroke-linejoin:round;stroke-miterlimit:4;stroke-opacity:1;stroke-dasharray:none" />
    <path
       transform="matrix(0.71794873,0,0,0.62347188,96.362359,228.53066)"
       d="m 475.05803,497.63785 a 114.64891,120.23437 0 1 1 -229.29782,0 114.64891,120.23437 0 1 1 229.29782,0 z"
       sodipodi:ry="120.23437"
       sodipodi:rx="114.64891"
       sodipodi:cy="497.63785"
       sodipodi:cx="360.40912"
       id="path2996"
       style="fill:#552200;fill-opacity:1;fill-rule:nonzero;stroke:#000000;stroke-width:0;stroke-linecap:round;stroke-linejoin:round;stroke-miterlimit:4;stroke-opacity:1;stroke-dasharray:none"
       sodipodi:type="arc" />
    <path
       sodipodi:type="arc"
       style="fill:#2b1100;fill-opacity:1;fill-rule:nonzero;stroke:#000000;stroke-width:0;stroke-linecap:round;stroke-linejoin:round;stroke-miterlimit:4;stroke-opacity:1;stroke-dasharray:none"
       id="path2998"
       sodipodi:cx="360.40912"
       sodipodi:cy="497.63785"
       sodipodi:rx="114.64891"
       sodipodi:ry="120.23437"
       d="m 475.05803,497.63785 a 114.64891,120.23437 0 1 1 -229.29782,0 114.64891,120.23437 0 1 1 229.29782,0 z"
       transform="matrix(0.27501258,0,0,0.10434858,256.00059,470.69762)" />
    <path
       sodipodi:type="arc"
       style="fill:#ffffff;fill-opacity:1;fill-rule:nonzero;stroke:#000000;stroke-width:0;stroke-linecap:round;stroke-linejoin:round;stroke-miterlimit:4;stroke-opacity:1;stroke-dasharray:none"
       id="path3000"
       sodipodi:cx="324.54459"
       sodipodi:cy="456.77582"
       sodipodi:rx="17.638294"
       sodipodi:ry="26.457439"
       d="m 342.18288,456.77582 a 17.638294,26.457439 0 1 1 -35.27659,0 17.638294,26.457439 0 1 1 35.27659,0 z"
       transform="matrix(1.0755931,0,0,1.0755931,-33.36176,-25.529102)" />
    <path
       transform="matrix(0.4611364,0,0,0.55815587,166.24698,218.8096)"
       d="m 342.18288,456.77582 a 17.638294,26.457439 0 1 1 -35.27659,0 17.638294,26.457439 0 1 1 35.27659,0 z"
       sodipodi:ry="26.457439"
       sodipodi:rx="17.638294"
       sodipodi:cy="456.77582"
       sodipodi:cx="324.54459"
       id="path3004"
       style="fill:#000000;fill-opacity:1;fill-rule:nonzero;stroke:#000000;stroke-width:0;stroke-linecap:round;stroke-linejoin:round;stroke-miterlimit:4;stroke-opacity:1;stroke-dasharray:none"
       sodipodi:type="arc" />
    <path
       sodipodi:type="arc"
       style="fill:#cccccc;fill-opacity:0.47234042;fill-rule:nonzero;stroke:#000000;stroke-width:0;stroke-linecap:round;stroke-linejoin:round;stroke-miterlimit:4;stroke-opacity:1;stroke-dasharray:none;filter:url(#filter3812)"
       id="path3006"
       sodipodi:cx="324.54459"
       sodipodi:cy="456.77582"
       sodipodi:rx="17.638294"
       sodipodi:ry="26.457439"
       d="m 342.18288,456.77582 a 17.638294,26.457439 0 1 1 -35.27659,0 17.638294,26.457439 0 1 1 35.27659,0 z"
       transform="matrix(0.40723668,0,0,0.25631746,176.70467,349.45677)" />
    <path
       style="fill:#2b1100;fill-opacity:1;fill-rule:nonzero;stroke:none"
       d="m 285.03125,556.875 c 5.19025,17.5728 21.43616,30.40625 40.6875,30.40625 11.57253,0 22.06173,-4.64067 29.71875,-12.15625 7.65562,7.50626 18.12309,12.15625 29.6875,12.15625 19.25134,0 35.49725,-12.83345 40.6875,-30.40625 l -5.21875,0 c -5.01253,14.79012 -18.98227,25.4375 -35.46875,25.4375 -10.28502,0 -19.6052,-4.13743 -26.375,-10.84375 l -3.34375,-3.78125 -3.3125,3.78125 c -6.76993,6.70725 -16.08917,10.84375 -26.375,10.84375 -16.48648,0 -30.45622,-10.64738 -35.46875,-25.4375 z"
       id="path3822"
       inkscape:connector-curvature="0"
       sodipodi:nodetypes="cscsccscccscc" />
    <path
       transform="matrix(1.0755931,0,0,1.0755931,45.638245,-25.529102)"
       d="m 342.18288,456.77582 a 17.638294,26.457439 0 1 1 -35.27659,0 17.638294,26.457439 0 1 1 35.27659,0 z"
       sodipodi:ry="26.457439"
       sodipodi:rx="17.638294"
       sodipodi:cy="456.77582"
       sodipodi:cx="324.54459"
       id="path3834"
       style="fill:#ffffff;fill-opacity:1;fill-rule:nonzero;stroke:#000000;stroke-width:0;stroke-linecap:round;stroke-linejoin:round;stroke-miterlimit:4;stroke-opacity:1;stroke-dasharray:none"
       sodipodi:type="arc" />
    <path
       sodipodi:type="arc"
       style="fill:#000000;fill-opacity:1;fill-rule:nonzero;stroke:#000000;stroke-width:0;stroke-linecap:round;stroke-linejoin:round;stroke-miterlimit:4;stroke-opacity:1;stroke-dasharray:none"
       id="path3836"
       sodipodi:cx="324.54459"
       sodipodi:cy="456.77582"
       sodipodi:rx="17.638294"
       sodipodi:ry="26.457439"
       d="m 342.18288,456.77582 a 17.638294,26.457439 0 1 1 -35.27659,0 17.638294,26.457439 0 1 1 35.27659,0 z"
       transform="matrix(0.4611364,0,0,0.55815587,245.24698,218.8096)" />
    <path
       transform="matrix(0.40723668,0,0,0.25631746,255.70467,349.45677)"
       d="m 342.18288,456.77582 a 17.638294,26.457439 0 1 1 -35.27659,0 17.638294,26.457439 0 1 1 35.27659,0 z"
       sodipodi:ry="26.457439"
       sodipodi:rx="17.638294"
       sodipodi:cy="456.77582"
       sodipodi:cx="324.54459"
       id="path3838"
       style="fill:#cccccc;fill-opacity:0.47234042;fill-rule:nonzero;stroke:#000000;stroke-width:0;stroke-linecap:round;stroke-linejoin:round;stroke-miterlimit:4;stroke-opacity:1;stroke-dasharray:none;filter:url(#filter3812)"
       sodipodi:type="arc" />
  </g>
</svg>
