<?xml version="1.0" encoding="UTF-8" standalone="no"?>
<!-- Created with Inkscape (http://www.inkscape.org/) -->

<svg
   xmlns:dc="http://purl.org/dc/elements/1.1/"
   xmlns:cc="http://creativecommons.org/ns#"
   xmlns:rdf="http://www.w3.org/1999/02/22-rdf-syntax-ns#"
   xmlns:svg="http://www.w3.org/2000/svg"
   xmlns="http://www.w3.org/2000/svg"
   xmlns:sodipodi="http://sodipodi.sourceforge.net/DTD/sodipodi-0.dtd"
   xmlns:inkscape="http://www.inkscape.org/namespaces/inkscape"
   width="210mm"
   height="297mm"
   id="svg6168"
   version="1.1"
   inkscape:version="0.48.3.1 r9886"
   sodipodi:docname="Nuevo documento 14">
  <defs
     id="defs6170" />
  <sodipodi:namedview
     id="base"
     pagecolor="#ffffff"
     bordercolor="#666666"
     borderopacity="1.0"
     inkscape:pageopacity="0.0"
     inkscape:pageshadow="2"
     inkscape:zoom="1.2399744"
     inkscape:cx="269.27638"
     inkscape:cy="719.16863"
     inkscape:document-units="px"
     inkscape:current-layer="layer1"
     showgrid="false"
     showguides="false"
     inkscape:guide-bbox="true"
     inkscape:window-width="1366"
     inkscape:window-height="715"
     inkscape:window-x="0"
     inkscape:window-y="27"
     inkscape:window-maximized="1" />
  <metadata
     id="metadata6173">
    <rdf:RDF>
      <cc:Work
         rdf:about="">
        <dc:format>image/svg+xml</dc:format>
        <dc:type
           rdf:resource="http://purl.org/dc/dcmitype/StillImage" />
        <dc:title></dc:title>
      </cc:Work>
    </rdf:RDF>
  </metadata>
  <g
     inkscape:label="Capa 1"
     inkscape:groupmode="layer"
     id="layer1">
    <rect
       style="fill:#f4d7c7;fill-opacity:1;stroke:none"
       id="rect6692"
       width="181.80646"
       height="108.70901"
       x="391.43259"
       y="515.15112" />
    <path
       style="fill:#f4d7c7;fill-opacity:1;stroke:none"
       d="m 391.08553,389.88747 c 8.60075,-6.81301 12.50569,8.38345 24.05269,12.92347 l -3.45851,21.84514 c -8.96471,5.4204 -25.26743,8.66667 -23.93111,-5.13473 0.81003,-10.65869 -6.98853,-18.56537 3.33693,-29.63388 z"
       id="rect6688"
       inkscape:connector-curvature="0"
       sodipodi:nodetypes="ccccc" />
    <path
       sodipodi:nodetypes="ccccc"
       inkscape:connector-curvature="0"
       id="path6703"
       d="m 572.00389,389.88747 c -8.60075,-6.81301 -12.50569,8.38345 -24.05269,12.92347 l 3.45851,21.84514 c 8.96471,5.4204 25.26743,8.66667 23.93111,-5.13473 -0.81003,-10.65869 6.98853,-18.56537 -3.33693,-29.63388 z"
       style="fill:#f4d7c7;fill-opacity:1;stroke:none" />
    <path
       inkscape:connector-curvature="0"
       id="path6712"
       d="m 471.64597,483.39803 -10.41768,46.15297 20.83533,0 0.56313,0 20.81657,0 -10.3989,-46.15297 -21.39846,0 z"
       style="fill:#f4d7c7;fill-opacity:1;stroke:none" />
    <path
       style="fill:#783721;fill-opacity:0.5942623;stroke:none"
       d="m 471.63268,483.39803 -3.9375,17.53125 c 4.42261,2.93293 10.53325,5.86716 14.94082,6.18637 3.92167,-0.31633 7.90815,-2.42363 14.34043,-6.18637 l -3.9375,-17.53125 z"
       id="rect6706"
       inkscape:connector-curvature="0"
       sodipodi:nodetypes="cccccc" />
    <path
       style="fill:#f4d7c7;fill-opacity:1;stroke:none"
       d="m 561.66901,413.0885 c 0,21.9968 4.29166,32.00545 -10.1235,46.42062 -14.41517,14.41516 -47.53717,37.36424 -69.53397,37.36424 -21.99681,0 -53.88058,-22.94908 -68.29575,-37.36424 -14.41517,-14.41517 -11.36172,-24.42382 -11.36172,-46.42062 0,-21.9968 0.0211,-46.98499 12.1872,-63.34289 13.17695,-17.71707 45.47346,-36.12602 67.47027,-36.12602 21.9968,0 55.53154,16.86118 69.94671,38.39609 14.41516,18.64573 9.71076,39.07602 9.71076,61.07282 z"
       id="path6176"
       inkscape:connector-curvature="0"
       sodipodi:nodetypes="cscscsccc" />
    <path
       style="fill:#502d16;stroke:#000000;stroke-width:1.03962159px;stroke-linecap:butt;stroke-linejoin:miter;stroke-opacity:1"
       d="m 484.09842,374.28614 -52.91608,-21.14188 -24.55205,54.20419 -21.1488,-50.83048 33.78946,-47.68169 60.52931,-21.59171 58.09841,16.86852 2.4309,15.29413 11.9114,-8.77163 31.35855,30.81316 -22.60733,62.07616 -28.68457,-49.48099 z"
       id="path6718"
       inkscape:connector-curvature="0"
       sodipodi:nodetypes="ccccccccccccc" />
    <path
       style="fill:#783721;fill-opacity:0.59426228;stroke:none"
       d="m 395.375,395.44812 c -2.28369,0 -4.15625,6.13376 -4.15625,13.6875 0,7.55374 1.87256,13.6875 4.15625,13.6875 1.73397,-0.42376 -3.19838,-5.8514 -1.90625,-13.875 1.2467,-0.32458 3.77235,1.65923 5.40625,0.1875 0.45232,-2.72479 -0.68405,-0.29288 -2.7613,-0.92106 -0.80898,0.0268 -2.06751,-1.50445 -2.58245,-1.29769 -0.5447,-2.49958 3.26879,-10.988 1.84375,-11.46875 z"
       id="path6720"
       inkscape:connector-curvature="0"
       sodipodi:nodetypes="cscccccc" />
    <path
       sodipodi:nodetypes="cscccccc"
       inkscape:connector-curvature="0"
       id="path6731"
       d="m 567.94493,395.44812 c 2.28369,0 4.15625,6.13376 4.15625,13.6875 0,7.55374 -1.87256,13.6875 -4.15625,13.6875 -1.73397,-0.42376 3.19838,-5.8514 1.90625,-13.875 -1.2467,-0.32458 -3.77235,1.65923 -5.40625,0.1875 -0.45232,-2.72479 0.68405,-0.29288 2.7613,-0.92106 0.80898,0.0268 2.06751,-1.50445 2.58245,-1.29769 0.5447,-2.49958 -3.26879,-10.988 -1.84375,-11.46875 z"
       style="fill:#783721;fill-opacity:0.59426228;stroke:none" />
    <path
       style="fill:#c87137;fill-opacity:1;stroke:none"
       d="m 476.57525,429.80009 -11.06842,9.55871 c 8.48776,2.68161 14.04379,6.43028 18.69821,10.5128 6.0943,-6.65389 12.42287,-7.93075 18.69822,-10.5128 l -10.63432,-9.55871 7.01838,8.50654 c -5.06155,2.35232 -10.16676,3.51468 -15.08228,9.57654 -3.75414,-3.71928 -8.23624,-7.13352 -15.08227,-9.57654 z"
       id="rect6746"
       inkscape:connector-curvature="0"
       sodipodi:nodetypes="ccccccccc" />
  </g>
</svg>
