<?xml version="1.0" encoding="UTF-8" standalone="no"?>
<!-- Created with Inkscape (http://www.inkscape.org/) -->

<svg
   xmlns:dc="http://purl.org/dc/elements/1.1/"
   xmlns:cc="http://creativecommons.org/ns#"
   xmlns:rdf="http://www.w3.org/1999/02/22-rdf-syntax-ns#"
   xmlns:svg="http://www.w3.org/2000/svg"
   xmlns="http://www.w3.org/2000/svg"
   xmlns:sodipodi="http://sodipodi.sourceforge.net/DTD/sodipodi-0.dtd"
   xmlns:inkscape="http://www.inkscape.org/namespaces/inkscape"
   width="851"
   height="315"
   id="svg2"
   version="1.1"
   inkscape:version="0.48.4 r9939"
   sodipodi:docname="portada_facebook.svg"
   inkscape:export-filename="/home/rafa/Imágenes/Diseños/Wallpapers/portada_facebook.png"
   inkscape:export-xdpi="90"
   inkscape:export-ydpi="90">
  <defs
     id="defs4">
    <filter
       inkscape:collect="always"
       id="filter4757"
       x="-0.13134924"
       width="1.2626985"
       y="-0.3708117"
       height="1.7416234">
      <feGaussianBlur
         inkscape:collect="always"
         stdDeviation="15.667092"
         id="feGaussianBlur4759" />
    </filter>
    <filter
       inkscape:collect="always"
       id="filter4859"
       x="-0.10691217"
       width="1.2138243"
       y="-0.30182347"
       height="1.6036469">
      <feGaussianBlur
         inkscape:collect="always"
         stdDeviation="12.752285"
         id="feGaussianBlur4861" />
    </filter>
  </defs>
  <sodipodi:namedview
     id="base"
     pagecolor="#ffffff"
     bordercolor="#666666"
     borderopacity="1.0"
     inkscape:pageopacity="0.0"
     inkscape:pageshadow="2"
     inkscape:zoom="0.90834313"
     inkscape:cx="506.01702"
     inkscape:cy="563.6682"
     inkscape:document-units="px"
     inkscape:current-layer="layer1"
     showgrid="false"
     inkscape:window-width="1309"
     inkscape:window-height="744"
     inkscape:window-x="57"
     inkscape:window-y="24"
     inkscape:window-maximized="1"
     showguides="true"
     inkscape:guide-bbox="true" />
  <metadata
     id="metadata7">
    <rdf:RDF>
      <cc:Work
         rdf:about="">
        <dc:format>image/svg+xml</dc:format>
        <dc:type
           rdf:resource="http://purl.org/dc/dcmitype/StillImage" />
        <dc:title></dc:title>
      </cc:Work>
    </rdf:RDF>
  </metadata>
  <g
     inkscape:label="Capa 1"
     inkscape:groupmode="layer"
     id="layer1"
     transform="translate(0,-737.36218)">
    <rect
       style="fill:#008080;fill-opacity:1;fill-rule:nonzero;stroke:none"
       id="rect3803"
       width="851"
       height="315"
       x="0"
       y="737.36218" />
    <rect
       style="fill:#b3b3b3;fill-opacity:1;fill-rule:nonzero;stroke:none"
       id="rect2985"
       width="168"
       height="168"
       x="16"
       y="911.36218"
       inkscape:export-xdpi="90"
       inkscape:export-ydpi="90" />
    <g
       id="g4429"
       transform="matrix(1.4755351,0,0,1.4755351,76.699054,-535.57495)">
      <path
         d="m 228.64076,915.3057 8.05575,0 c 2.46156,9e-5 4.55009,0.89516 6.26571,2.68529 1.71556,1.79026 2.5734,3.91609 2.5734,6.37753 l 0,55.52067 c 0,2.53611 -0.85784,4.69928 -2.5734,6.48943 -1.71562,1.71559 -3.80415,2.5734 -6.26571,2.5734 l -8.05575,0 0,-73.64632 m 8.05575,71.85611 c 2.01398,0 3.69231,-0.7086 5.03496,-2.12581 1.34263,-1.49184 2.01394,-3.20743 2.01394,-5.14681 l 0,-55.52067 c 0,-1.93931 -0.67131,-3.61759 -2.01394,-5.03493 -1.34265,-1.49171 -3.02098,-2.23767 -5.03496,-2.2377 l -6.26554,0 0,70.06592 6.26554,0"
         style="font-size:291.42959595px;font-style:normal;font-variant:normal;font-weight:500;font-stretch:normal;line-height:125%;letter-spacing:0px;word-spacing:0px;fill:#24221c;fill-opacity:1;stroke:none;font-family:Tall Films;-inkscape-font-specification:Tall Films Medium"
         id="path3986"
         inkscape:connector-curvature="0"
         sodipodi:nodetypes="ccccccsccccccccccc" />
      <path
         d="m 252.53049,988.95202 0,-48.74874 1.52039,0 0,3.13589 c 0.6969,-0.88688 1.55212,-1.61542 2.56577,-2.18562 1.07696,-0.63346 2.21729,-0.95021 3.42099,-0.95027 1.01353,6e-5 1.96387,0.22179 2.85071,0.66518 0.95034,0.44352 1.77384,1.04536 2.47072,1.80553 0.69685,0.76026 1.23532,1.64717 1.61547,2.66074 0.38011,0.9503 0.57013,1.96392 0.57019,3.04087 l -1.52047,0 c 0,-1.83715 -0.60185,-3.38926 -1.80546,-4.65633 -1.14037,-1.33034 -2.53406,-1.99552 -4.18116,-1.99556 -1.64715,4e-5 -3.07257,0.63357 -4.27627,1.90054 -1.14027,1.20373 -1.71049,2.62911 -1.71049,4.2762 l 0,41.05157 -1.52039,0"
         style="font-size:291.42959595px;font-style:normal;font-variant:normal;font-weight:500;font-stretch:normal;line-height:125%;letter-spacing:0px;word-spacing:0px;fill:#24221c;fill-opacity:1;stroke:none;font-family:Tall Films;-inkscape-font-specification:Tall Films Medium"
         id="path3988"
         inkscape:connector-curvature="0" />
      <path
         d="m 285.32659,989.04702 0,-3.04082 c -1.52047,2.02721 -3.51602,3.04082 -5.98668,3.04082 -2.0906,0 -3.86444,-0.72853 -5.32151,-2.18561 -1.45707,-1.52041 -2.18566,-3.35759 -2.18566,-5.51154 l 0,-13.77888 c 0,-2.09054 0.72859,-3.89607 2.18566,-5.41651 1.45707,-1.5204 3.23091,-2.28064 5.32151,-2.28067 1.26702,3e-5 2.40732,0.28512 3.42097,0.85525 1.01362,0.57021 1.86883,1.3304 2.56571,2.28064 l 0,-15.01424 c 0,-1.64708 -0.60185,-3.07246 -1.80552,-4.27619 -1.1403,-1.26698 -2.53403,-1.90048 -4.18116,-1.90054 -1.64715,6e-5 -3.07251,0.63356 -4.27621,1.90054 -1.14036,1.20373 -1.71049,2.62911 -1.71049,4.27619 l 0,5.03644 -1.52047,0 0,-5.03644 c 0,-2.09054 0.72859,-3.89602 2.18566,-5.41649 1.45707,-1.52041 3.23091,-2.28061 5.32151,-2.28068 2.09055,7e-5 3.86436,0.76027 5.32149,2.28068 1.45707,1.52047 2.18561,3.32595 2.18561,5.41649 l 0,41.05156 -1.52042,0 m -11.97338,-7.69715 c 0,1.7105 0.57013,3.16757 1.71049,4.37124 1.2037,1.20365 2.62906,1.80553 4.27621,1.80553 1.64713,0 3.04086,-0.60188 4.18116,-1.80553 1.20367,-1.20367 1.80552,-2.66074 1.80552,-4.37124 l 0,-13.77888 c 0,-1.64709 -0.60185,-3.07251 -1.80552,-4.2762 -1.1403,-1.26699 -2.53403,-1.90051 -4.18116,-1.90054 -1.64715,3e-5 -3.07251,0.63355 -4.27621,1.90054 -1.14036,1.20369 -1.71049,2.62911 -1.71049,4.2762 l 0,13.77888 0,0"
         style="font-size:291.42959595px;font-style:normal;font-variant:normal;font-weight:500;font-stretch:normal;line-height:125%;letter-spacing:0px;word-spacing:0px;fill:#24221c;fill-opacity:1;stroke:none;font-family:Tall Films;-inkscape-font-specification:Tall Films Medium"
         id="path3990"
         inkscape:connector-curvature="0" />
      <path
         d="m 308.93332,1005.521 c 0,2.0906 -0.72853,3.8644 -2.1856,5.3215 -1.4571,1.5204 -3.23094,2.2806 -5.32148,2.2806 -2.09061,0 -3.86445,-0.7919 -5.32158,-2.3757 -1.45707,-1.5837 -2.18558,-3.4843 -2.18558,-5.7016 l 1.52038,0 c 0,1.8372 0.57023,3.3893 1.71056,4.6564 1.20365,1.3303 2.62906,1.9955 4.27622,1.9955 1.64709,0 3.04079,-0.6335 4.18115,-1.9005 1.20361,-1.2037 1.80546,-2.6291 1.80552,-4.2762 l 0,-19.60983 c -0.69688,0.8869 -1.58381,1.61547 -2.6608,2.1856 -1.01362,0.57017 -2.12226,0.85525 -3.32587,0.85525 -2.09061,0 -3.86445,-0.72853 -5.32158,-2.18563 -1.45707,-1.45707 -2.18558,-3.29425 -2.18558,-5.51154 l 0,-33.3544 c 0,-2.09054 0.72851,-3.89606 2.18558,-5.41654 1.45713,-1.52037 3.23097,-2.28057 5.32158,-2.28063 1.20361,6e-5 2.31225,0.31681 3.32587,0.95027 1.07699,0.5702 1.96392,1.29874 2.6608,2.18562 l 0,-3.13589 1.52041,0 0,65.31772 0,0 m -13.49386,-24.26615 c 0,1.71049 0.57023,3.16753 1.71056,4.37124 1.20365,1.20367 2.62906,1.80549 4.27622,1.80549 1.64709,0 3.04079,-0.60182 4.18115,-1.80549 1.20361,-1.20371 1.80546,-2.66075 1.80552,-4.37124 l 0,-33.3544 c -6e-5,-1.64709 -0.60191,-3.07247 -1.80552,-4.2762 -1.14036,-1.26697 -2.53406,-1.9005 -4.18115,-1.90054 -1.64716,4e-5 -3.07257,0.63357 -4.27622,1.90054 -1.14033,1.20373 -1.71056,2.62911 -1.71056,4.2762 l 0,33.3544 0,0"
         style="font-size:291.42959595px;font-style:normal;font-variant:normal;font-weight:500;font-stretch:normal;line-height:125%;letter-spacing:0px;word-spacing:0px;fill:#24221c;fill-opacity:1;stroke:none;font-family:Tall Films;-inkscape-font-specification:Tall Films Medium"
         id="path3992"
         inkscape:connector-curvature="0"
         sodipodi:nodetypes="ccssccccccccssssccccccccccsccccccscc" />
      <path
         d="m 331.01965,981.25485 c -6e-5,2.21729 -0.7286,4.05447 -2.18567,5.51154 -1.45704,1.4571 -3.23094,2.18563 -5.32149,2.18563 -2.0906,0 -3.86444,-0.72853 -5.32151,-2.18563 -1.45704,-1.45707 -2.18558,-3.29425 -2.18558,-5.51154 l 0,-33.3544 c 0,-2.09054 0.72854,-3.89606 2.18558,-5.41654 1.45707,-1.52037 3.23091,-2.28057 5.32151,-2.28063 2.09055,6e-5 3.86445,0.76026 5.32149,2.28063 1.45707,1.52048 2.18561,3.326 2.18567,5.41654 l 0,33.3544 0,0 m -13.49383,0 c 0,1.71049 0.57013,3.16753 1.71046,4.37124 1.20371,1.20367 2.62912,1.80549 4.27621,1.80549 1.64716,0 3.04086,-0.60182 4.18116,-1.80549 1.2037,-1.20371 1.80553,-2.66075 1.80553,-4.37124 l 0,-33.3544 c 0,-1.64709 -0.60183,-3.07247 -1.80553,-4.2762 -1.1403,-1.26697 -2.534,-1.9005 -4.18116,-1.90054 -1.64709,4e-5 -3.0725,0.63357 -4.27621,1.90054 -1.14033,1.20373 -1.71046,2.62911 -1.71046,4.2762 l 0,33.3544 0,0"
         style="font-size:291.42959595px;font-style:normal;font-variant:normal;font-weight:500;font-stretch:normal;line-height:125%;letter-spacing:0px;word-spacing:0px;fill:#24221c;fill-opacity:1;stroke:none;font-family:Tall Films;-inkscape-font-specification:Tall Films Medium"
         id="path3994"
         inkscape:connector-curvature="0" />
      <path
         d="m 338.09167,988.95202 0,-48.74874 1.52041,0 0,3.13589 c 0.69688,-0.88688 1.5521,-1.61542 2.56574,-2.18562 1.07696,-0.63346 2.21729,-0.95021 3.421,-0.95027 2.09054,6e-5 3.86438,0.76026 5.32151,2.28063 1.45704,1.52048 2.18558,3.326 2.18558,5.41654 l 0,41.05157 -1.52039,0 0,-41.05157 c -9e-5,-1.64709 -0.6019,-3.07247 -1.80555,-4.2762 -1.14033,-1.26697 -2.53406,-1.9005 -4.18115,-1.90054 -1.64716,4e-5 -3.07257,0.63357 -4.27619,1.90054 -1.14036,1.20373 -1.71055,2.62911 -1.71055,4.2762 l 0,41.05157 -1.52041,0"
         style="font-size:291.42959595px;font-style:normal;font-variant:normal;font-weight:500;font-stretch:normal;line-height:125%;letter-spacing:0px;word-spacing:0px;fill:#24221c;fill-opacity:1;stroke:none;font-family:Tall Films;-inkscape-font-specification:Tall Films Medium"
         id="path3996"
         inkscape:connector-curvature="0" />
      <path
         d="m 360.17798,988.95202 0,-57.8713 c 0,-2.15389 0.72854,-3.95938 2.18561,-5.41653 1.45704,-1.52037 3.23094,-2.28057 5.32149,-2.28064 2.09054,7e-5 3.86444,0.82363 5.32151,2.47068 1.45704,1.58385 2.18558,3.48439 2.18564,5.70161 l -1.52045,0 c 0,-1.83711 -0.60185,-3.38922 -1.80555,-4.6563 -1.14027,-1.3303 -2.534,-1.99552 -4.18115,-1.99555 -1.6471,3e-5 -3.07251,0.60189 -4.27619,1.80549 -1.14036,1.20372 -1.71049,2.66081 -1.71049,4.37124 l 0,9.12256 10.73805,0 0,1.52043 -10.73805,0 0,47.22831 -1.52042,0"
         style="font-size:291.42959595px;font-style:normal;font-variant:normal;font-weight:500;font-stretch:normal;line-height:125%;letter-spacing:0px;word-spacing:0px;fill:#24221c;fill-opacity:1;stroke:none;font-family:Tall Films;-inkscape-font-specification:Tall Films Medium"
         id="path3998"
         inkscape:connector-curvature="0" />
      <path
         d="m 379.52228,988.95202 0,-65.56847 1.52038,0 0,65.56847 -1.52038,0"
         style="font-size:291.42959595px;font-style:normal;font-variant:normal;font-weight:500;font-stretch:normal;line-height:125%;letter-spacing:0px;word-spacing:0px;fill:#24221c;fill-opacity:1;stroke:none;font-family:Tall Films;-inkscape-font-specification:Tall Films Medium"
         id="path4000"
         inkscape:connector-curvature="0" />
      <path
         d="m 402.98349,1005.521 c -6e-5,2.0906 -0.7286,3.8644 -2.18564,5.3215 -1.45707,1.5204 -3.2309,2.2806 -5.32152,2.2806 -2.0906,0 -3.86444,-0.7919 -5.32142,-2.3757 -1.45713,-1.5837 -2.18566,-3.4843 -2.18566,-5.7016 l 1.52047,0 c -6e-5,1.8372 0.57013,3.3893 1.71044,4.6564 1.20367,1.3303 2.62902,1.9955 4.27617,1.9955 1.64716,0 3.04089,-0.6335 4.18122,-1.9005 1.20364,-1.2037 1.8055,-2.6291 1.8055,-4.2762 l 0,-19.60983 c -0.69685,0.8869 -1.58376,1.61547 -2.66072,2.1856 -1.01364,0.57017 -2.12229,0.85525 -3.326,0.85525 -2.0906,0 -3.86444,-0.72853 -5.32142,-2.18563 -1.45713,-1.45707 -2.18566,-3.29425 -2.18566,-5.51154 l 0,-41.05157 1.52047,0 0,41.05157 c -6e-5,1.71049 0.57013,3.16753 1.71044,4.37124 1.20367,1.20367 2.62902,1.80549 4.27617,1.80549 1.64716,0 3.04089,-0.60182 4.18122,-1.80549 1.20364,-1.20371 1.8055,-2.66075 1.8055,-4.37124 l 0,-41.05157 1.52044,0 0,65.31772 0,0"
         style="font-size:291.42959595px;font-style:normal;font-variant:normal;font-weight:500;font-stretch:normal;line-height:125%;letter-spacing:0px;word-spacing:0px;fill:#24221c;fill-opacity:1;stroke:none;font-family:Tall Films;-inkscape-font-specification:Tall Films Medium"
         id="path4002"
         inkscape:connector-curvature="0"
         sodipodi:nodetypes="ccssccccccccsssccccscccccc" />
      <path
         d="m 425.88007,988.95202 0,-65.56847 1.52042,0 0,64.04803 12.73361,0 0,1.52044 -14.25403,0"
         style="font-size:291.42959595px;font-style:normal;font-variant:normal;font-weight:500;font-stretch:normal;line-height:125%;letter-spacing:0px;word-spacing:0px;fill:#24221c;fill-opacity:1;stroke:none;font-family:Tall Films;-inkscape-font-specification:Tall Films Medium"
         id="path4004"
         inkscape:connector-curvature="0" />
      <path
         d="m 460.7178,989.04702 0,-3.04082 c -1.52048,2.02721 -3.51605,3.04082 -5.98671,3.04082 -2.09061,0 -3.86445,-0.72853 -5.32149,-2.18561 -1.45707,-1.52041 -2.18561,-3.35759 -2.18561,-5.51154 l 0,-13.77888 c 0,-2.09054 0.72854,-3.89607 2.18561,-5.41651 1.45704,-1.5204 3.23088,-2.28064 5.32149,-2.28067 1.26704,3e-5 2.40731,0.28512 3.42093,0.85525 1.01365,0.57021 1.86887,1.3304 2.56578,2.28064 l 0,-15.01424 c 0,-1.64708 -0.60186,-3.07246 -1.8055,-4.27619 -1.14033,-1.26698 -2.53406,-1.90048 -4.18121,-1.90054 -1.64716,6e-5 -3.07251,0.63356 -4.27618,1.90054 -1.14036,1.20373 -1.7105,2.62911 -1.7105,4.27619 l 0,5.03644 -1.52042,0 0,-5.03644 c 0,-2.09054 0.72854,-3.89602 2.18561,-5.41649 1.45704,-1.52041 3.23088,-2.28061 5.32149,-2.28068 2.0906,7e-5 3.86438,0.76027 5.32151,2.28068 1.45704,1.52047 2.18558,3.32595 2.18558,5.41649 l 0,41.05156 -1.52038,0 m -11.97339,-7.69715 c 0,1.7105 0.57014,3.16757 1.7105,4.37124 1.20367,1.20365 2.62902,1.80553 4.27618,1.80553 1.64715,0 3.04088,-0.60188 4.18121,-1.80553 1.20364,-1.20367 1.8055,-2.66074 1.8055,-4.37124 l 0,-13.77888 c 0,-1.64709 -0.60186,-3.07251 -1.8055,-4.2762 -1.14033,-1.26699 -2.53406,-1.90051 -4.18121,-1.90054 -1.64716,3e-5 -3.07251,0.63355 -4.27618,1.90054 -1.14036,1.20369 -1.7105,2.62911 -1.7105,4.2762 l 0,13.77888 0,0"
         style="font-size:291.42959595px;font-style:normal;font-variant:normal;font-weight:500;font-stretch:normal;line-height:125%;letter-spacing:0px;word-spacing:0px;fill:#24221c;fill-opacity:1;stroke:none;font-family:Tall Films;-inkscape-font-specification:Tall Films Medium"
         id="path4006"
         inkscape:connector-curvature="0" />
      <path
         d="m 484.32449,981.25485 c 0,2.21729 -0.7285,4.05447 -2.18557,5.51154 -1.45713,1.4571 -3.23097,2.18563 -5.32151,2.18563 -1.20368,0 -2.34404,-0.28508 -3.42097,-0.85525 -1.01368,-0.57013 -1.86889,-1.2987 -2.56572,-2.1856 l 0,3.04085 -1.52041,0 0,-65.56847 1.52041,0 0,19.95562 c 0.69683,-0.88688 1.55204,-1.61542 2.56572,-2.18562 1.07693,-0.63346 2.21729,-0.95021 3.42097,-0.95027 2.09054,6e-5 3.86438,0.76026 5.32151,2.28063 1.45707,1.52048 2.18557,3.326 2.18557,5.41654 l 0,33.3544 0,0 m -13.49377,0 c 0,1.71049 0.57014,3.16753 1.7105,4.37124 1.20362,1.20367 2.62903,1.80549 4.27619,1.80549 1.64709,0 3.04082,-0.60182 4.18115,-1.80549 1.2037,-1.20371 1.80549,-2.66075 1.80555,-4.37124 l 0,-33.3544 c -6e-5,-1.64709 -0.60185,-3.07247 -1.80555,-4.2762 -1.14033,-1.26697 -2.53406,-1.9005 -4.18115,-1.90054 -1.64716,4e-5 -3.07257,0.63357 -4.27619,1.90054 -1.14036,1.20373 -1.7105,2.62911 -1.7105,4.2762 l 0,33.3544 0,0"
         style="font-size:291.42959595px;font-style:normal;font-variant:normal;font-weight:500;font-stretch:normal;line-height:125%;letter-spacing:0px;word-spacing:0px;fill:#24221c;fill-opacity:1;stroke:none;font-family:Tall Films;-inkscape-font-specification:Tall Films Medium"
         id="path4008"
         inkscape:connector-curvature="0" />
      <path
         d="m 491.39657,976.31347 1.52042,0 0,5.0364 c 0,1.7105 0.57013,3.16757 1.71049,4.37124 1.20367,1.20365 2.62906,1.80553 4.27618,1.80553 1.64716,0 3.04089,-0.60188 4.18122,-1.80553 1.20364,-1.20367 1.80549,-2.66074 1.80549,-4.37124 l 0,-10.07283 c 0,-0.95025 -0.22174,-1.83718 -0.66519,-2.66074 -0.44345,-0.82357 -1.01368,-1.5521 -1.7105,-2.18561 -0.3167,-0.31677 -0.79187,-0.60185 -1.42535,-0.85528 -0.57019,-0.25336 -1.17199,-0.53842 -1.80553,-0.85521 l 0.095,0 -0.19008,0 c -0.0633,0 -0.0951,-0.0316 -0.095,-0.095 -0.12677,-0.0633 -0.25346,-0.095 -0.38014,-0.095 -0.12674,-0.0633 -0.25343,-0.12668 -0.38011,-0.19007 l 0,0.0951 c -1.07699,-0.44346 -1.90058,-0.82356 -2.47066,-1.14033 -0.50685,-0.31672 -1.1087,-0.72851 -1.80552,-1.23536 -0.8236,-0.69681 -1.48879,-1.52041 -1.99558,-2.47067 -0.44346,-1.01359 -0.6652,-2.15393 -0.6652,-3.42098 l 0,-8.26733 c 0,-2.09054 0.72854,-3.89606 2.18567,-5.41654 1.45701,-1.52037 3.23082,-2.28057 5.32142,-2.28063 2.09061,6e-5 3.86439,0.76026 5.32152,2.28063 1.45707,1.52048 2.18561,3.326 2.18567,5.41654 l 0,5.03642 -1.52048,0 0,-5.03642 c 0,-1.64709 -0.60185,-3.07247 -1.80549,-4.2762 -1.14033,-1.26697 -2.53406,-1.9005 -4.18122,-1.90054 -1.64712,4e-5 -3.07251,0.63357 -4.27618,1.90054 -1.14036,1.20373 -1.71049,2.62911 -1.71049,4.2762 l 0,8.26733 c 0,1.96393 0.69687,3.54769 2.0906,4.75135 0.5068,0.38014 1.04531,0.72855 1.61544,1.04528 0.63351,0.31679 1.29867,0.63353 1.99558,0.95027 0.12669,0.0634 0.28505,0.15841 0.47517,0.28508 0.25337,0.0634 0.44339,0.12672 0.57014,0.19005 -0.0634,3e-5 0.095,0.0317 0.47516,0.095 0.63348,0.31678 1.20362,0.60187 1.71041,0.85522 0.50682,0.25347 1.04531,0.60187 1.61547,1.04532 0.8869,0.69688 1.58378,1.55209 2.09061,2.56572 0.57013,0.95027 0.85522,2.05891 0.85528,3.32593 l 0,10.07283 c -6e-5,2.15395 -0.7286,3.99113 -2.18567,5.51154 -1.45713,1.45708 -3.23091,2.18561 -5.32152,2.18561 -2.0906,0 -3.86441,-0.72853 -5.32142,-2.18561 -1.45713,-1.52041 -2.18567,-3.35759 -2.18567,-5.51154 l 0,-5.0364"
         style="font-size:291.42959595px;font-style:normal;font-variant:normal;font-weight:500;font-stretch:normal;line-height:125%;letter-spacing:0px;word-spacing:0px;fill:#24221c;fill-opacity:1;stroke:none;font-family:Tall Films;-inkscape-font-specification:Tall Films Medium"
         id="path4010"
         inkscape:connector-curvature="0" />
      <path
         d="m 513.38787,988.95202 0,-5.51154 1.52041,0 0,5.51154 -1.52041,0"
         style="font-size:291.42959595px;font-style:normal;font-variant:normal;font-weight:500;font-stretch:normal;line-height:125%;letter-spacing:0px;word-spacing:0px;fill:#24221c;fill-opacity:1;stroke:none;font-family:Tall Films;-inkscape-font-specification:Tall Films Medium"
         id="path4012"
         inkscape:connector-curvature="0" />
      <text
         sodipodi:linespacing="125%"
         id="text15932"
         y="1012.5323"
         x="439.64755"
         style="font-size:19.88258553px;font-style:normal;font-variant:normal;font-weight:normal;font-stretch:normal;line-height:125%;letter-spacing:0px;word-spacing:0px;fill:#24221c;fill-opacity:1;stroke:none;font-family:Advent Pro;-inkscape-font-specification:Advent Pro"
         xml:space="preserve"><tspan
           y="1012.5323"
           x="439.64755"
           id="tspan15934"
           sodipodi:role="line">Designer</tspan></text>
    </g>
    <g
       id="g3787"
       transform="translate(-80.107203,1.9698493)">
      <path
         sodipodi:type="arc"
         style="fill:#24221c;fill-opacity:1;fill-rule:nonzero;stroke:none"
         id="path15759"
         sodipodi:cx="-1826.8634"
         sodipodi:cy="-1463.5481"
         sodipodi:rx="17.158384"
         sodipodi:ry="22.709627"
         d="m -1809.705,-1463.5481 c 0,12.5422 -7.6821,22.7096 -17.1584,22.7096 -9.4763,0 -17.1584,-10.1674 -17.1584,-22.7096 0,-12.5422 7.6821,-22.7096 17.1584,-22.7096 9.4763,0 17.1584,10.1674 17.1584,22.7096 z"
         transform="matrix(0.31158448,0.01202833,-0.02557699,0.31590879,692.30298,1366.0338)" />
      <path
         sodipodi:type="arc"
         style="fill:#24221c;fill-opacity:1;fill-rule:nonzero;stroke:none"
         id="path15761"
         sodipodi:cx="-1813.7422"
         sodipodi:cy="-1481.2112"
         sodipodi:rx="10.093167"
         sodipodi:ry="10.093167"
         d="m -1803.649,-1481.2112 c 0,5.5743 -4.5189,10.0932 -10.0932,10.0932 -5.5743,0 -10.0932,-4.5189 -10.0932,-10.0932 0,-5.5743 4.5189,-10.0931 10.0932,-10.0931 5.5743,0 10.0932,4.5188 10.0932,10.0931 z"
         transform="matrix(0.17481983,0.04684282,-0.04684282,0.17481983,416.4606,1223.3477)" />
      <path
         style="fill:#24221c;fill-opacity:1;fill-rule:nonzero;stroke:none"
         d="m 176.51357,878.49009 c -7.79439,2.30224 -6.74208,-0.69564 -3.16439,-8.88182 3.18404,-7.22724 5.70564,-8.4939 11.94016,-9.46608 7.56519,-2.32828 5.81662,2.5121 2.68401,9.44261 -3.34118,8.87199 -4.80356,7.9296 -11.45978,8.90529 z"
         id="path15763"
         inkscape:connector-curvature="0"
         sodipodi:nodetypes="ccccc" />
      <g
         transform="matrix(0.34451897,0,0,0.34451897,851.9659,606.93173)"
         id="g17659">
        <path
           sodipodi:nodetypes="ccccc"
           inkscape:connector-curvature="0"
           id="path15767"
           d="m -1914.6851,728.78996 57.7766,-35.03583 c 5.1709,-0.60639 10.7898,8.09549 7.8166,11.31659 l -57.7765,35.03583 c -9.3032,7.26916 -16.1786,-7.32485 -7.8167,-11.31659 z"
           style="fill:#24221c;fill-opacity:1;fill-rule:nonzero;stroke:none" />
        <path
           inkscape:connector-curvature="0"
           id="path15769"
           d="m -1789.1579,652.57172 c -1.2862,0.19213 -2.6628,0.79462 -4.1164,1.93046 l -56.7782,34.40763 c -0.01,0.009 -0.019,0.0191 -0.028,0.0282 -1.0248,1.03873 -1.5634,2.34572 -1.7318,3.6905 0.4469,3.39488 3.8102,7.64235 7.3245,8.17607 1.3018,-0.18269 2.6983,-0.778 4.1732,-1.93046 l 56.7782,-34.40763 c 0.01,-0.009 0.019,-0.0191 0.028,-0.0282 1.0307,-1.04481 1.567,-2.33735 1.7317,-3.69058 -0.4457,-3.38635 -3.7913,-7.6251 -7.296,-8.17607 -0.028,0 -0.056,0 -0.085,0 z"
           style="fill:#24221c;fill-opacity:1;fill-rule:nonzero;stroke:none" />
        <path
           inkscape:connector-curvature="0"
           style="fill:#24221c;fill-opacity:1;fill-rule:nonzero;stroke:none"
           d="m -1722.5931,611.34888 c -1.2862,0.19213 -2.6628,0.79462 -4.1164,1.93046 l -56.7783,34.40763 c -0.01,0.009 -0.019,0.0191 -0.028,0.0282 -1.0249,1.03873 -1.5635,2.34572 -1.7318,3.6905 0.4468,3.39488 3.8102,7.64235 7.3245,8.17607 1.3018,-0.18269 2.6982,-0.778 4.1731,-1.93046 l 56.7783,-34.40763 c 0.01,-0.009 0.019,-0.0191 0.028,-0.0282 1.0308,-1.04481 1.567,-2.33735 1.7317,-3.69058 -0.4456,-3.38635 -3.7912,-7.6251 -7.2959,-8.17607 -0.028,0 -0.056,0 -0.085,0 z"
           id="path15771" />
        <path
           id="path15773"
           d="m -1656.0284,570.12604 c -1.2862,0.19213 -2.6627,0.79462 -4.1164,1.93046 l -56.7782,34.40763 c -0.01,0.009 -0.019,0.0191 -0.028,0.0282 -1.0248,1.03872 -1.5634,2.34571 -1.7318,3.6905 0.4469,3.39488 3.8103,7.64235 7.3245,8.17607 1.3018,-0.18269 2.6983,-0.778 4.1732,-1.93046 l 56.7782,-34.40764 c 0.01,-0.009 0.019,-0.0191 0.028,-0.0282 1.0307,-1.04481 1.567,-2.33735 1.7317,-3.69058 -0.4457,-3.38635 -3.7913,-7.6251 -7.296,-8.17608 -0.028,0 -0.056,0 -0.085,0 z"
           style="fill:#24221c;fill-opacity:1;fill-rule:nonzero;stroke:none"
           inkscape:connector-curvature="0" />
        <path
           style="fill:#24221c;fill-opacity:1;fill-rule:nonzero;stroke:none"
           d="m -1585.4354,542.82423 -57.7765,35.03582 c -5.1709,0.6064 -10.7899,-8.09549 -7.8166,-11.31659 l 57.7764,-35.03582 c 9.3032,-7.26917 16.1787,7.32485 7.8167,11.31659 z"
           id="path15775"
           inkscape:connector-curvature="0"
           sodipodi:nodetypes="ccccc" />
      </g>
      <path
         inkscape:transform-center-y="23.199843"
         inkscape:transform-center-x="-15.08316"
         sodipodi:nodetypes="ccsccsccsccscc"
         inkscape:connector-curvature="0"
         id="path15779"
         d="m 200.23206,886.76713 -20.60547,-11.94977 c -0.28323,-0.16359 -0.73862,-0.11825 -0.95576,0.0952 -0.21716,0.21338 -0.15694,0.55637 0.12633,0.71996 6.3758,4.9888 13.67856,7.66115 20.51786,11.49171 -0.58311,0.52742 -4.05745,3.01381 -6.96784,5.87397 -3.30579,3.24872 -6.27317,6.81216 -7.86935,9.40157 l -3.06285,4.97794 c -0.18993,0.2454 -0.0415,0.60277 0.2999,0.72311 0.34156,0.12035 0.80074,-0.0231 0.92907,-0.29015 l 3.04689,-5.97428 c 1.47244,-2.38876 5.57773,-5.55775 8.86334,-8.78658 3.2855,-3.2289 5.78185,-5.54755 5.78185,-5.54755 0.23479,-0.21073 0.18456,-0.56631 -0.10399,-0.73508 z"
         style="font-size:medium;font-style:normal;font-variant:normal;font-weight:normal;font-stretch:normal;text-indent:0;text-align:start;text-decoration:none;line-height:normal;letter-spacing:normal;word-spacing:normal;text-transform:none;direction:ltr;block-progression:tb;writing-mode:lr-tb;text-anchor:start;baseline-shift:baseline;color:#000000;fill:#24221c;fill-opacity:1;stroke:none;stroke-width:5;marker:none;visibility:visible;display:inline;overflow:visible;enable-background:accumulate;font-family:Sans;-inkscape-font-specification:Sans" />
      <path
         inkscape:transform-center-y="18.737217"
         inkscape:transform-center-x="-9.5610746"
         style="font-size:medium;font-style:normal;font-variant:normal;font-weight:normal;font-stretch:normal;text-indent:0;text-align:start;text-decoration:none;line-height:normal;letter-spacing:normal;word-spacing:normal;text-transform:none;direction:ltr;block-progression:tb;writing-mode:lr-tb;text-anchor:start;baseline-shift:baseline;color:#000000;fill:#24221c;fill-opacity:1;stroke:none;stroke-width:5;marker:none;visibility:visible;display:inline;overflow:visible;enable-background:accumulate;font-family:Sans;-inkscape-font-specification:Sans"
         d="m 209.04578,879.10473 -25.22533,-6.67038 c -0.39107,-0.14767 -1.19466,-0.12594 -1.68684,0.0457 -0.49217,0.17156 -0.58396,0.46205 -0.19314,0.60969 8.06034,4.42266 14.99543,5.32122 25.4542,6.63663 -1.13894,0.66997 -7.71368,4.06463 -13.44595,7.62022 -6.51086,4.03857 -12.54018,8.25703 -15.97517,11.14261 l -6.59438,5.54546 c -0.39071,0.28588 -0.2426,0.56588 0.30047,0.56643 0.54262,5.7e-4 1.35902,-0.27818 1.65203,-0.56426 l 6.85163,-6.45349 c 3.16891,-2.66197 11.00754,-6.88413 17.47868,-10.89804 6.47116,-4.01395 11.34942,-6.94031 11.34942,-6.94031 0.45683,-0.26853 0.47333,-0.57827 0.0351,-0.64044 z"
         id="path15781"
         inkscape:connector-curvature="0"
         sodipodi:nodetypes="ccsccsccsccsccc" />
      <path
         inkscape:transform-center-y="11.985478"
         inkscape:transform-center-x="15.441516"
         sodipodi:nodetypes="ccsccsccsccscc"
         inkscape:connector-curvature="0"
         id="path15783"
         d="m 174.87498,894.36068 0.85568,-17.39381 c 0.0114,-0.23879 -0.19586,-0.46627 -0.43461,-0.47746 -0.23878,-0.0114 -0.46624,0.19577 -0.47746,0.43454 -1.20771,6.03678 -0.36971,11.40893 -0.55465,17.11332 -0.60777,-0.0533 -3.75053,-0.70363 -6.95077,-0.85417 -3.6351,-0.1711 -7.37071,0.003 -9.87127,0.43864 l -4.80493,0.8394 c -0.25174,0.02 -0.45611,0.28268 -0.41329,0.53178 0.0429,0.24896 0.32261,0.42876 0.5667,0.36391 l 5.5265,-1.35339 c 2.30676,-0.40133 6.18894,0.2499 9.80178,0.41991 3.61279,0.16999 6.25949,0.36742 6.25949,0.36742 0.24358,0.0223 0.48401,-0.18567 0.49704,-0.42991 z"
         style="font-size:medium;font-style:normal;font-variant:normal;font-weight:normal;font-stretch:normal;text-indent:0;text-align:start;text-decoration:none;line-height:normal;letter-spacing:normal;word-spacing:normal;text-transform:none;direction:ltr;block-progression:tb;writing-mode:lr-tb;text-anchor:start;baseline-shift:baseline;color:#000000;fill:#24221c;fill-opacity:1;stroke:none;stroke-width:5;marker:none;visibility:visible;display:inline;overflow:visible;enable-background:accumulate;font-family:Sans;-inkscape-font-specification:Sans" />
      <path
         id="path15854"
         transform="translate(0,737.36218)"
         d="m 202.4375,14.78125 c -8.05758,0.37513 -14.76259,12.38898 -16.8125,35.40625 -5.82776,38.277143 -8.77143,58.82368 -8.59375,74.5 0.16034,-0.13483 0.33296,-0.28289 0.5,-0.40625 1.9879,-1.46799 4.35985,-2.04357 7.4375,-2.53125 0.0582,-0.0179 0.0988,-0.014 0.15625,-0.0312 0.9133,-0.27459 1.74007,-0.47884 2.46875,-0.5625 0.67768,-0.0778 1.31225,-0.0638 1.875,0.0625 4.43721,-4.47985 10.31108,-10.20774 17.78125,-20.15625 9.30298,-12.38926 14.91845,-23.894 16,-33.1875 1.46589,-17.41158 -4.15387,-43.68721 -13.78125,-50.65625 -2.39767,-1.73559 -4.7751,-2.54253 -7.03125,-2.4375 z"
         style="opacity:0.81679394;fill:#24221c;fill-opacity:0.26808543;stroke:none"
         inkscape:connector-curvature="0" />
      <path
         transform="translate(0,737.36218)"
         id="path4460"
         d="m 157.3125,34.90625 c -1.44264,0.07186 -2.71206,0.44725 -3.8125,1.0625 -6.28814,3.5157 -6.83017,15.79145 0.71875,35 9.06465,28.08627 14.64406,44.99351 20.0625,57.09375 0.99106,-1.64036 2.01842,-2.87177 3.25,-3.78125 1.9879,-1.46799 4.35985,-2.04357 7.4375,-2.53125 0.0582,-0.0179 0.0988,-0.014 0.15625,-0.0312 0.77772,-0.23383 1.47991,-0.39921 2.125,-0.5 1.46427,-4.63416 3.09461,-10.42134 4.53125,-18.28125 2.48805,-13.61184 2.40762,-25.01799 -0.4375,-32.875 -5.77818,-14.49663 -20.77638,-33.24313 -31.25,-34.96875 -0.97815,-0.161153 -1.91567,-0.230614 -2.78125,-0.1875 z"
         style="opacity:0.36641223;fill:#24221c;fill-opacity:0.26808543;stroke:none"
         inkscape:connector-curvature="0" />
    </g>
    <g
       id="g3783">
      <rect
         y="1012.5763"
         x="644.46429"
         height="25"
         width="192"
         id="rect5238"
         style="fill:#b3b3b3;fill-opacity:1;fill-rule:nonzero;stroke:none" />
      <rect
         style="fill:#b3b3b3;fill-opacity:1;fill-rule:nonzero;stroke:none"
         id="rect5240"
         width="159"
         height="25"
         x="677.46429"
         y="973.36218" />
    </g>
    <rect
       y="300.05566"
       x="0"
       height="315"
       width="851"
       id="rect3835"
       style="fill:#000000;fill-opacity:1;fill-rule:nonzero;stroke:none" />
    <rect
       y="575.26978"
       x="644.46429"
       height="25"
       width="192"
       id="rect3841"
       style="fill:#b3b3b3;fill-opacity:1;fill-rule:nonzero;stroke:none" />
    <rect
       style="fill:#b3b3b3;fill-opacity:1;fill-rule:nonzero;stroke:none"
       id="rect3843"
       width="159"
       height="25"
       x="677.46429"
       y="536.05566" />
    <path
       transform="matrix(0.45805963,0.28857541,-0.31270129,0.45279998,664.18179,1797.3994)"
       d="m -1809.705,-1463.5481 a 17.158384,22.709627 0 1 1 -34.3168,0 17.158384,22.709627 0 1 1 34.3168,0 z"
       sodipodi:ry="22.709627"
       sodipodi:rx="17.158384"
       sodipodi:cy="-1463.5481"
       sodipodi:cx="-1826.8634"
       id="path4865"
       style="fill:#ffffff;fill-opacity:1;fill-rule:nonzero;stroke:none"
       sodipodi:type="arc" />
    <path
       transform="matrix(0.22219614,0.22219611,-0.22219611,0.22219614,373.28961,1343.3938)"
       d="m -1803.649,-1481.2112 a 10.093167,10.093167 0 1 1 -20.1864,0 10.093167,10.093167 0 1 1 20.1864,0 z"
       sodipodi:ry="10.093167"
       sodipodi:rx="10.093167"
       sodipodi:cy="-1481.2112"
       sodipodi:cx="-1813.7422"
       id="path4867"
       style="fill:#ffffff;fill-opacity:1;fill-rule:nonzero;stroke:none"
       sodipodi:type="arc" />
    <path
       sodipodi:nodetypes="ccccc"
       inkscape:connector-curvature="0"
       id="path4869"
       d="m 311.87707,616.56207 c -13.71832,-3.30472 -9.53356,-6.89884 2.95239,-16.10183 11.06159,-8.10286 15.95269,-7.8184 26.17094,-3.86793 13.3963,3.06659 6.56515,8.82669 -4.16152,16.52802 -12.72569,10.4395 -14.10644,7.75301 -24.96181,3.44174 z"
       style="fill:#ffffff;fill-opacity:1;fill-rule:nonzero;stroke:none" />
    <g
       id="g4871"
       transform="matrix(0.51802217,0.29908024,-0.29908024,0.51802217,1563.2364,794.61089)"
       style="fill:#ffffff;fill-opacity:1">
      <path
         style="fill:#ffffff;fill-opacity:1;fill-rule:nonzero;stroke:none"
         d="m -1914.6851,728.78996 57.7766,-35.03583 c 5.1709,-0.60639 10.7898,8.09549 7.8166,11.31659 l -57.7765,35.03583 c -9.3032,7.26916 -16.1786,-7.32485 -7.8167,-11.31659 z"
         id="path4873"
         inkscape:connector-curvature="0"
         sodipodi:nodetypes="ccccc" />
      <path
         style="fill:#ffffff;fill-opacity:1;fill-rule:nonzero;stroke:none"
         d="m -1789.1579,652.57172 c -1.2862,0.19213 -2.6628,0.79462 -4.1164,1.93046 l -56.7782,34.40763 c -0.01,0.009 -0.019,0.0191 -0.028,0.0282 -1.0248,1.03873 -1.5634,2.34572 -1.7318,3.6905 0.4469,3.39488 3.8102,7.64235 7.3245,8.17607 1.3018,-0.18269 2.6983,-0.778 4.1732,-1.93046 l 56.7782,-34.40763 c 0.01,-0.009 0.019,-0.0191 0.028,-0.0282 1.0307,-1.04481 1.567,-2.33735 1.7317,-3.69058 -0.4457,-3.38635 -3.7913,-7.6251 -7.296,-8.17607 -0.028,0 -0.056,0 -0.085,0 z"
         id="path4875"
         inkscape:connector-curvature="0" />
      <path
         id="path4877"
         d="m -1722.5931,611.34888 c -1.2862,0.19213 -2.6628,0.79462 -4.1164,1.93046 l -56.7783,34.40763 c -0.01,0.009 -0.019,0.0191 -0.028,0.0282 -1.0249,1.03873 -1.5635,2.34572 -1.7318,3.6905 0.4468,3.39488 3.8102,7.64235 7.3245,8.17607 1.3018,-0.18269 2.6982,-0.778 4.1731,-1.93046 l 56.7783,-34.40763 c 0.01,-0.009 0.019,-0.0191 0.028,-0.0282 1.0308,-1.04481 1.567,-2.33735 1.7317,-3.69058 -0.4456,-3.38635 -3.7912,-7.6251 -7.2959,-8.17607 -0.028,0 -0.056,0 -0.085,0 z"
         style="fill:#ffffff;fill-opacity:1;fill-rule:nonzero;stroke:none"
         inkscape:connector-curvature="0" />
      <path
         inkscape:connector-curvature="0"
         style="fill:#ffffff;fill-opacity:1;fill-rule:nonzero;stroke:none"
         d="m -1656.0284,570.12604 c -1.2862,0.19213 -2.6627,0.79462 -4.1164,1.93046 l -56.7782,34.40763 c -0.01,0.009 -0.019,0.0191 -0.028,0.0282 -1.0248,1.03872 -1.5634,2.34571 -1.7318,3.6905 0.4469,3.39488 3.8103,7.64235 7.3245,8.17607 1.3018,-0.18269 2.6983,-0.778 4.1732,-1.93046 l 56.7782,-34.40764 c 0.01,-0.009 0.019,-0.0191 0.028,-0.0282 1.0307,-1.04481 1.567,-2.33735 1.7317,-3.69058 -0.4457,-3.38635 -3.7913,-7.6251 -7.296,-8.17608 -0.028,0 -0.056,0 -0.085,0 z"
         id="path4879" />
      <path
         sodipodi:nodetypes="ccccc"
         inkscape:connector-curvature="0"
         id="path4881"
         d="m -1585.4354,542.82423 -57.7765,35.03582 c -5.1709,0.6064 -10.7899,-8.09549 -7.8166,-11.31659 l 57.7764,-35.03582 c 9.3032,-7.26917 16.1787,7.32485 7.8167,11.31659 z"
         style="fill:#ffffff;fill-opacity:1;fill-rule:nonzero;stroke:none" />
    </g>
    <path
       style="font-size:medium;font-style:normal;font-variant:normal;font-weight:normal;font-stretch:normal;text-indent:0;text-align:start;text-decoration:none;line-height:normal;letter-spacing:normal;word-spacing:normal;text-transform:none;direction:ltr;block-progression:tb;writing-mode:lr-tb;text-anchor:start;baseline-shift:baseline;color:#000000;fill:#ffffff;fill-opacity:1;stroke:none;stroke-width:5;marker:none;visibility:visible;display:inline;overflow:visible;enable-background:accumulate;font-family:Sans;-inkscape-font-specification:Sans"
       d="m 340.35505,649.59776 -20.60888,-35.8556 c -0.28385,-0.49185 -1.00794,-0.81901 -1.51973,-0.68656 -0.51176,0.13232 -0.71897,0.70032 -0.43505,1.1922 5.25589,13.03611 13.9165,23.39388 20.87479,35.09081 -1.33463,0.28683 -8.71714,1.00928 -15.57616,2.78331 -7.79087,2.01502 -15.3461,4.79703 -19.99403,7.30483 l -8.92673,4.82599 c -0.49861,0.20411 -0.58567,0.87031 -0.1768,1.34762 0.40909,0.47748 1.22405,0.6604 1.64884,0.37027 l 9.76766,-6.33796 c 4.28768,-2.31352 13.21147,-3.5146 20.95472,-5.51723 7.74315,-2.00284 13.50953,-3.32208 13.50953,-3.32208 0.53597,-0.11303 0.76913,-0.69129 0.48177,-1.19554 z"
       id="path4883"
       inkscape:connector-curvature="0"
       sodipodi:nodetypes="ccsccsccsccscc"
       inkscape:transform-center-x="-15.08316"
       inkscape:transform-center-y="23.199843" />
    <path
       sodipodi:nodetypes="ccsccsccsccsccc"
       inkscape:connector-curvature="0"
       id="path4885"
       d="m 360.25926,645.72777 -32.13844,-31.928 c -0.45982,-0.56153 -1.68697,-1.22646 -2.57602,-1.39565 -0.88897,-0.1693 -1.27916,0.1878 -0.81969,0.74907 8.28026,13.64722 17.92788,21.01872 32.51187,32.07594 -2.29413,0.0186 -15.12691,-0.5847 -26.83265,-0.21472 -13.29572,0.4203 -26.02355,1.5291 -33.69344,2.88594 l -14.72944,2.61357 c -0.83565,0.0907 -0.85602,0.64026 -0.0399,1.11253 0.81539,0.47191 2.28492,0.7615 2.97385,0.58571 l 15.90451,-3.75556 c 7.07569,-1.25161 22.52723,-0.7953 35.74181,-1.21299 13.21465,-0.41774 23.09006,-0.58298 23.09006,-0.58298 0.92,-0.007 1.2137,-0.45859 0.60874,-0.9325 z"
       style="font-size:medium;font-style:normal;font-variant:normal;font-weight:normal;font-stretch:normal;text-indent:0;text-align:start;text-decoration:none;line-height:normal;letter-spacing:normal;word-spacing:normal;text-transform:none;direction:ltr;block-progression:tb;writing-mode:lr-tb;text-anchor:start;baseline-shift:baseline;color:#000000;fill:#ffffff;fill-opacity:1;stroke:none;stroke-width:5;marker:none;visibility:visible;display:inline;overflow:visible;enable-background:accumulate;font-family:Sans;-inkscape-font-specification:Sans"
       inkscape:transform-center-x="-9.5610746"
       inkscape:transform-center-y="18.737217" />
    <path
       style="font-size:medium;font-style:normal;font-variant:normal;font-weight:normal;font-stretch:normal;text-indent:0;text-align:start;text-decoration:none;line-height:normal;letter-spacing:normal;word-spacing:normal;text-transform:none;direction:ltr;block-progression:tb;writing-mode:lr-tb;text-anchor:start;baseline-shift:baseline;color:#000000;fill:#ffffff;fill-opacity:1;stroke:none;stroke-width:5;marker:none;visibility:visible;display:inline;overflow:visible;enable-background:accumulate;font-family:Sans;-inkscape-font-specification:Sans"
       d="m 295.63586,639.00277 16.38635,-25.41068 c 0.22443,-0.34915 0.11027,-0.87112 -0.239,-1.09521 -0.34914,-0.22442 -0.87099,-0.11038 -1.09514,0.2389 -7.05652,8.02853 -10.46011,16.83363 -15.69022,25.25026 -0.86758,-0.60776 -5.02851,-4.31386 -9.70973,-7.31837 -5.31724,-3.41293 -11.08528,-6.39408 -15.22333,-7.9098 l -7.95343,-2.90908 c -0.39588,-0.18846 -0.93121,0.0291 -1.08307,0.44081 -0.15162,0.41158 0.11287,0.92475 0.53618,1.03914 l 9.48459,2.76263 c 3.81687,1.39908 9.08881,5.74843 14.37353,9.1404 5.28465,3.3919 9.09287,5.98638 9.09287,5.98638 0.34689,0.24499 0.88894,0.141 1.12056,-0.21493 z"
       id="path4887"
       inkscape:connector-curvature="0"
       sodipodi:nodetypes="ccsccsccsccscc"
       inkscape:transform-center-x="15.441516"
       inkscape:transform-center-y="11.985478" />
    <path
       inkscape:connector-curvature="0"
       style="opacity:0.81679394000000005;fill:#ffffff;fill-opacity:0.17226891;stroke:none"
       d="m 460.53931,449.09078 c -12.44111,-6.43081 -32.95217,5.81265 -56.01595,38.6421 -41.99143,52.49476 -64.25421,80.83331 -77.59581,104.55863 0.35813,-0.0635 0.74622,-0.13631 1.10447,-0.17679 4.2634,-0.48157 8.32956,0.7121 13.3805,2.65055 0.10305,0.0236 0.16071,0.0647 0.26203,0.0887 1.61162,0.37997 3.03207,0.79059 4.20035,1.29737 1.0865,0.47132 2.02849,1.04325 2.76501,1.72168 10.56083,-2.88396 24.36528,-6.39731 44.2339,-14.87106 24.74329,-10.55261 43.17414,-22.97641 52.86815,-36.01131 17.31928,-24.90767 31.67948,-69.29454 23.25355,-88.13088 -2.09848,-4.69109 -4.97269,-7.96828 -8.45624,-9.76894 z"
       id="path4889" />
    <path
       inkscape:connector-curvature="0"
       style="opacity:0.36641223000000001;fill:#ffffff;fill-opacity:0.28151262;stroke:none"
       d="m 375.21821,440.17749 c -2.23155,-1.14432 -4.46615,-1.68188 -6.65488,-1.71209 -12.50693,-0.17255 -23.97863,17.81485 -29.30312,53.25031 -10.75227,50.0999 -17.04035,80.36534 -19.39746,103.26318 2.91418,-1.60611 5.52793,-2.56581 8.16927,-2.86417 4.2634,-0.48157 8.32956,0.7121 13.3805,2.65055 0.10305,0.0236 0.16071,0.0647 0.26203,0.0887 1.37237,0.32356 2.57176,0.68447 3.62922,1.09293 6.22465,-5.69682 13.69995,-12.98317 22.68336,-23.55425 15.55763,-18.307 25.33848,-35.52722 27.88128,-49.81097 3.89654,-26.81338 -2.38089,-68.02088 -16.6311,-79.70779 -1.33086,-1.09145 -2.68023,-2.00977 -4.01915,-2.69636 z"
       id="path4891" />
    <rect
       inkscape:export-ydpi="90"
       inkscape:export-xdpi="90"
       y="474.05566"
       x="16"
       height="168"
       width="168"
       id="rect3837"
       style="fill:#b3b3b3;fill-opacity:1;fill-rule:nonzero;stroke:none" />
  </g>
</svg>
